<svg version="1.1" xmlns="http://www.w3.org/2000/svg" xmlns:xlink="http://www.w3.org/1999/xlink" width="416" height="416" viewBox="0,0,256,256"><g fill="none" fill-rule="nonzero" stroke="none" stroke-width="1" stroke-linecap="butt" stroke-linejoin="miter" stroke-miterlimit="10" stroke-dasharray="" stroke-dashoffset="0" font-family="none" font-weight="none" font-size="none" text-anchor="none" style="mix-blend-mode: normal"><g transform="translate(-0.00045,-0.01323) scale(0.61538,0.61538)"><g transform="translate(174.8801,154.992)" id="man" fill="#213555"><path transform="translate(-174.8795,-154.993)" d="M223.492,287.456c-1.747,-9.855 -3.807,-19.571 -6.303,-29.262c-0.253,-0.988 -1.724,-0.565 -1.522,0.416c7.114,34.171 10.076,69.076 8.823,103.957c-0.368,9.776 -1.855,19.637 -1.587,29.409c0.01,0.299 0.126,0.585 0.326,0.807c0.201,0.222 0.474,0.366 0.77,0.406c0.297,0.04 0.598,-0.026 0.85,-0.187c0.253,-0.161 0.44,-0.406 0.529,-0.691c3.468,-13.466 5.635,-62.377 -1.886,-104.855z"></path><path transform="translate(-174.8795,-154.992)" d="M237.634,297.284c0.449,-0.794 0.612,-1.719 0.461,-2.619c-0.152,-0.572 -0.455,-1.093 -0.878,-1.508c-0.423,-0.415 -0.95,-0.708 -1.526,-0.848c-1.841,-0.335 -3.076,1.483 -3.06,3.167c-0.047,0.603 0.105,1.204 0.432,1.712c0.327,0.507 0.812,0.893 1.381,1.099c0.568,0.205 1.188,0.218 1.764,0.037c0.576,-0.181 1.077,-0.547 1.426,-1.04z"></path><path transform="translate(-174.8798,-154.993)" d="M238.884,329.844c-0.908,-0.121 -1.827,0.102 -2.579,0.624c-0.309,0.403 -0.532,0.865 -0.656,1.358c-0.124,0.492 -0.145,1.005 -0.063,1.506c0.083,0.501 0.267,0.98 0.541,1.407c0.275,0.427 0.634,0.794 1.055,1.077c5.011,2.045 5.315,-5.329 1.702,-5.972z"></path><path transform="translate(-174.8801,-154.992)" d="M239.961,361.907c-0.118,-0.402 -0.327,-0.772 -0.61,-1.081c-0.283,-0.309 -0.633,-0.55 -1.023,-0.703c-0.39,-0.154 -0.811,-0.217 -1.228,-0.183c-0.418,0.033 -0.823,0.161 -1.184,0.374c-0.579,0.488 -0.95,1.177 -1.04,1.928c-0.067,2.224 1.647,5.232 4.16,3.503c0.569,-0.438 0.971,-1.057 1.14,-1.755c0.168,-0.699 0.092,-1.433 -0.215,-2.083z"></path><path transform="translate(-174.8801,-154.9922)" d="M233.168,108.913c-4.784,0.961 -8.432,4.331 -18.485,6.067c-14.857,2.58 -29.168,-4.965 -39.281,3.952c-1.723,1.476 -3.018,3.387 -3.75,5.534c-0.732,2.147 -0.873,4.451 -0.41,6.672c-5.936,0.88 -13.499,14.009 -6.55,25.709c1.399,2.57 3.467,4.713 5.984,6.204c-7.874,3.773 -9.776,17.68 -1.052,24.607c2.182,1.765 4.778,2.946 7.542,3.432c0.027,1.664 3.765,23.764 4.042,25.351c0.411,3.485 1.064,6.938 1.955,10.333c0.101,0.308 0.307,0.571 0.582,0.743c0.275,0.173 0.602,0.243 0.923,0.199c0.321,-0.044 0.617,-0.199 0.836,-0.438c0.219,-0.239 0.348,-0.548 0.363,-0.872c-0.263,-3.132 -0.743,-6.241 -1.438,-9.306c-0.189,-1.077 -4.453,-24.96 -4.784,-25.983c0.743,-0.082 1.467,-0.28 2.147,-0.589c0.277,-0.167 0.5,-0.411 0.641,-0.703c0.14,-0.292 0.193,-0.618 0.15,-0.939c-0.042,-0.321 -0.177,-0.623 -0.388,-0.869c-0.211,-0.245 -0.489,-0.424 -0.8,-0.513c-3.228,-0.999 -6.213,-0.797 -9.042,-3.058c-6.669,-5.343 -4.784,-16.409 1.664,-18.331c1.208,1.527 2.85,2.954 3.783,4.31c1.355,2.315 2.578,4.704 3.663,7.157c1.284,2.417 5.034,2.806 7.472,2.704c0.199,-0.003 0.396,-0.051 0.574,-0.142c0.178,-0.09 0.333,-0.22 0.453,-0.379c0.12,-0.159 0.203,-0.344 0.241,-0.54c0.038,-0.196 0.031,-0.398 -0.02,-0.59c-2.231,-6.662 -3.736,-13.544 -4.491,-20.528c2.814,-0.67 5.437,-1.977 7.666,-3.821c2.229,-1.844 4.005,-4.175 5.19,-6.814c14.5,8.102 30.475,6.523 40.895,-0.562c-0.736,13.816 -0.179,27.719 -0.403,41.54c-0.187,11.927 0.611,17.701 -2.762,21.79c-5.046,6.12 -12.926,4.77 -19.721,3.257c3.879,-3.536 4.713,-4.511 4.936,-5.711c0.063,-0.467 0.018,-0.943 -0.132,-1.39c-0.151,-0.446 -0.402,-0.852 -0.736,-1.186c-0.333,-0.334 -0.739,-0.586 -1.185,-0.737c-0.447,-0.151 -0.922,-0.197 -1.389,-0.134c-2.014,0.054 -3.952,1.346 -10.958,5.003c-1.664,-1.583 -4.322,-1.652 -9.054,-6.24c-0.368,-0.352 -0.999,0.104 -0.72,0.549c1.12,1.858 2.528,3.526 4.173,4.942c0.911,0.809 1.901,1.525 2.955,2.136c-11.947,6.427 -11.049,10.508 -13.796,24.721c-1.013,4.206 -1.667,8.491 -1.955,12.808c0,0.279 0.428,0.433 0.559,0.148c3.931,-8.528 5.023,-22.728 7.917,-27.918c2.165,-3.871 6.516,-5.649 15.019,-10.31c1.063,-0.585 5.716,-3.472 6.448,-3.002c1.186,0.778 -0.26,1.822 -0.747,2.322c-4.815,4.929 -10.518,8.991 -15.169,14.081c-0.159,0.175 -0.245,0.404 -0.239,0.639c0.005,0.236 0.102,0.461 0.268,0.628c0.167,0.167 0.392,0.263 0.628,0.268c0.236,0.006 0.465,-0.08 0.639,-0.239c3.301,-2.837 6.458,-5.872 9.686,-8.792c3.256,1.222 6.677,1.947 10.149,2.149c-0.055,0.967 0.003,1.939 0.174,2.893c-0.019,0.862 0.166,1.717 0.539,2.495c0.373,0.778 0.925,1.457 1.61,1.981c0.316,0.175 0.687,0.221 1.036,0.129c0.349,-0.092 0.648,-0.316 0.836,-0.624c0.559,-1.514 0.543,-3.181 -0.046,-4.684c-0.137,-0.747 -0.174,-1.508 -0.297,-2.238c2.993,-0.247 5.874,-1.249 8.374,-2.912c6.356,-4.368 6.656,-11.69 6.506,-18.72c-0.78,-34.32 -0.69,-42.757 -1.283,-51.023c18.144,-14.458 7.257,-39.703 -8.135,-36.616zM237.176,114.96c-1.62,3.918 -5.736,5.67 -9.603,6.822c-4.259,1.163 -8.702,1.498 -13.088,0.988c-0.376,-0.02 -0.731,-0.184 -0.99,-0.457c-0.259,-0.274 -0.404,-0.637 -0.404,-1.014c0,-0.377 0.145,-0.739 0.404,-1.013c0.259,-0.273 0.614,-0.437 0.99,-0.457c3.859,-0.127 7.653,-1.02 11.162,-2.629c3.157,-1.396 5.99,-3.844 9.443,-4.333c1.1,-0.154 2.652,0.741 2.086,2.093z"></path><path transform="translate(-174.8798,-154.992)" d="M203.299,267.453c-7.28,-3.513 -16.785,-9.82 -18.843,-17.68c-0.097,-0.324 -0.285,-0.612 -0.542,-0.831c-0.257,-0.218 -0.572,-0.358 -0.907,-0.402c-0.335,-0.044 -0.675,0.01 -0.98,0.155c-0.305,0.145 -0.561,0.374 -0.738,0.662c-18.554,30.199 -28.484,49.633 -34.528,60.636c-5.375,-4.351 -6.24,-7.351 -8.372,-9.722c-0.868,-0.961 -2.218,0.077 -2.01,1.169c0.868,4.534 5.408,8.355 9.36,10.414c-1.911,3.401 -3.45,6.998 -4.588,10.729c-0.352,1.263 1.262,1.735 1.965,0.832c4.117,-5.36 11.459,-22.743 31.13,-55.819c2.893,9.073 12.975,14.785 21.74,16.717c2.496,0.549 3.557,-3.282 1.059,-3.831c-4.552,-0.966 -8.805,-3.009 -12.404,-5.957c-3.594,-3.006 -5.578,-6.881 -8.211,-10.583c1.855,-3.086 3.815,-6.3 5.88,-9.643c2.743,6.412 11.968,13.634 19.464,14.995c-1.318,21.092 -6.638,41.74 -15.676,60.844c-8.017,16.64 -22.464,34.638 -43.108,32.481c-32.301,-3.403 -47.8987,-61.227 -19.49,-94.619c15.038,-17.68 35.836,-24.607 49.735,-33.22c0.171,-0.104 0.299,-0.265 0.361,-0.456c0.061,-0.19 0.052,-0.396 -0.026,-0.58c-0.078,-0.185 -0.22,-0.334 -0.4,-0.423c-0.179,-0.088 -0.384,-0.108 -0.578,-0.057c-15.03,4.701 -36.797,16.49 -49.009,29.344c-6.742,7.296 -11.841,15.953 -14.952,25.387c-3.111,9.434 -4.163,19.426 -3.084,29.301c2.84,30.031 19.552,47.632 38.272,49.204c-0.251,4.708 0.24,9.425 1.456,13.98c0.724,2.756 5.044,16.184 6.22,18.782c0.799,2.301 2.131,4.379 3.887,6.066c0.978,0.742 2.794,-0.127 2.421,-1.456c-1.855,-6.708 -6.814,-7.83 -11.165,-37.253c13.42,-0.033 27.564,-8.241 38.193,-25.915c12.781,-21.253 19.344,-47.039 20.207,-71.695c0.016,-0.225 -0.019,-0.451 -0.104,-0.659c-0.084,-0.209 -0.216,-0.396 -0.384,-0.546c-0.167,-0.15 -0.368,-0.26 -0.584,-0.321c-0.217,-0.061 -0.445,-0.071 -0.667,-0.03z"></path><path transform="translate(-174.8798,-154.992)" d="M211.648,220.642c-1.705,0.845 -3.23,2.013 -4.49,3.439c-1.022,1.069 -2.804,2.77 -1.937,4.357c0.079,0.136 0.192,0.248 0.328,0.326c0.135,0.078 0.289,0.119 0.446,0.119c1.587,-0.023 2.311,-2.005 3.211,-3.057c1.174,-1.238 2.464,-2.36 3.853,-3.349c1.127,-0.907 -0.306,-2.313 -1.411,-1.835z"></path><path transform="translate(-174.8801,-154.9926)" d="M215.817,224.199c-1.456,-0.853 -3.295,0.786 -4.289,1.758c-1.34,1.229 -2.343,2.78 -2.912,4.507c-0.08,0.317 -0.044,0.653 0.102,0.946c0.146,0.293 0.392,0.525 0.693,0.652c0.302,0.128 0.639,0.143 0.951,0.043c0.312,-0.1 0.578,-0.308 0.75,-0.586c0.76,-1.287 1.655,-2.489 2.668,-3.586c0.872,-0.832 2.426,-1.664 2.459,-2.998c0.001,-0.149 -0.038,-0.295 -0.112,-0.425c-0.074,-0.129 -0.181,-0.236 -0.31,-0.311z"></path><path transform="translate(-174.8802,-154.9926)" d="M214.893,229.663c-1.03,1.397 -1.915,2.897 -2.64,4.474c-0.736,1.696 1.565,3.172 2.548,1.488c1.157,-1.976 2.047,-4.508 3.996,-5.824c1.845,-1.244 -0.88,-4.423 -3.904,-0.138z"></path><path transform="translate(-174.8799,-154.9918)" d="M216.667,234.901c-0.085,6.225 -5.096,9.688 -8.85,13.89c-3.047,3.409 -5.281,8.372 -4.102,13.004c0.073,0.238 0.221,0.446 0.421,0.594c0.2,0.148 0.442,0.228 0.691,0.228c0.249,0 0.491,-0.08 0.691,-0.228c0.201,-0.148 0.348,-0.356 0.421,-0.594c0.351,-2.978 1.24,-5.868 2.625,-8.528c1.768,-2.361 3.751,-4.554 5.924,-6.55c3.068,-3.282 5.726,-7.783 3.074,-12.049c-0.054,-0.089 -0.135,-0.158 -0.231,-0.197c-0.096,-0.039 -0.203,-0.046 -0.303,-0.019c-0.1,0.026 -0.19,0.084 -0.255,0.164c-0.064,0.081 -0.102,0.181 -0.106,0.285z"></path><path transform="translate(-174.8798,-154.9918)" d="M225.083,185.584c2.812,-1.019 5.429,-3.12 4.969,-6.436c-0.324,-2.317 -3.821,-5.555 -5.924,-3.084c-0.127,0.133 -0.218,0.297 -0.263,0.476c-0.046,0.179 -0.045,0.367 0.002,0.545c0.047,0.178 0.14,0.342 0.268,0.474c0.128,0.133 0.289,0.23 0.466,0.283c1.514,0.462 3.063,0.345 2.876,2.515c-0.135,0.833 -0.481,1.617 -1.005,2.279c-0.524,0.662 -1.208,1.179 -1.988,1.502c-0.79,0.408 -0.26,1.754 0.599,1.446z"></path><path transform="translate(-174.8797,-154.992)" d="M205.088,166.115c-0.502,1.398 -0.574,2.914 -0.208,4.353c0.137,0.448 0.429,0.832 0.823,1.085c0.394,0.252 0.865,0.356 1.329,0.293c0.464,-0.062 0.89,-0.288 1.203,-0.636c0.313,-0.348 0.492,-0.796 0.505,-1.264c-0.025,-1.48 -0.492,-2.919 -1.341,-4.133c-0.132,-0.205 -0.32,-0.368 -0.541,-0.471c-0.222,-0.102 -0.468,-0.14 -0.71,-0.109c-0.242,0.032 -0.47,0.132 -0.658,0.288c-0.187,0.156 -0.327,0.362 -0.402,0.594z"></path><path transform="translate(-174.8794,-154.9926)" d="M231.429,165.408c-0.297,0.353 -0.519,0.764 -0.652,1.206c-0.134,0.443 -0.175,0.908 -0.122,1.367c-0.058,0.996 0.095,1.993 0.45,2.926c0.193,0.316 0.475,0.569 0.809,0.729c0.335,0.159 0.709,0.219 1.076,0.17c0.368,-0.048 0.713,-0.201 0.995,-0.442c0.283,-0.24 0.489,-0.557 0.595,-0.912c0.125,-0.997 0.041,-2.008 -0.247,-2.97c-0.053,-0.453 -0.199,-0.891 -0.429,-1.284c-0.231,-0.394 -0.54,-0.736 -0.909,-1.004c-0.251,-0.131 -0.536,-0.181 -0.817,-0.143c-0.281,0.039 -0.542,0.163 -0.749,0.357z"></path><path transform="translate(-174.8798,-154.99232)" d="M230.36,156.672c3.428,3.301 3.501,5.662 5.429,6.435c0.289,0.077 0.597,0.038 0.858,-0.11c0.261,-0.148 0.453,-0.392 0.535,-0.68c0.547,-2.496 -3.278,-5.685 -5.616,-7.209c-0.208,-0.11 -0.449,-0.143 -0.68,-0.093c-0.231,0.051 -0.436,0.181 -0.58,0.368c-0.145,0.186 -0.218,0.418 -0.208,0.654c0.01,0.236 0.103,0.461 0.262,0.635z"></path><path transform="translate(-174.8801,-154.99187)" d="M202.118,165.06c0.797,-1.495 1.801,-2.872 2.98,-4.089c1.04,-1.169 2.444,-1.999 2.819,-3.607c0.034,-0.138 0.037,-0.283 0.008,-0.422c-0.029,-0.14 -0.089,-0.272 -0.175,-0.386c-0.087,-0.113 -0.197,-0.206 -0.324,-0.271c-0.127,-0.066 -0.267,-0.102 -0.41,-0.106c-1.945,-0.221 -3.318,1.493 -4.368,2.897c-1.093,1.592 -1.822,3.405 -2.136,5.311c-0.208,0.921 1.156,1.62 1.606,0.673z"></path><path transform="translate(-174.8801,-154.9918)" d="M213.554,201.662c3.558,1.421 8.32,2.972 12.116,1.637c0.197,-0.061 0.37,-0.183 0.492,-0.349c0.123,-0.166 0.189,-0.367 0.189,-0.573c0,-0.207 -0.066,-0.408 -0.189,-0.574c-0.122,-0.166 -0.295,-0.288 -0.492,-0.349c-2.353,-0.736 -5.363,-0.304 -11.661,-1.443c-0.216,-0.053 -0.445,-0.02 -0.637,0.093c-0.193,0.113 -0.333,0.296 -0.393,0.511c-0.059,0.215 -0.032,0.445 0.075,0.64c0.107,0.196 0.286,0.342 0.5,0.407z"></path><path transform="translate(-174.87979,-154.9918)" d="M187.685,234.071c-1.706,-2.579 -3.513,-5.93 -6.561,-7.174c-0.586,-0.212 -1.21,-0.299 -1.832,-0.255c-0.621,0.045 -1.227,0.219 -1.777,0.511c-0.551,0.293 -1.033,0.698 -1.418,1.188c-0.384,0.491 -0.661,1.057 -0.813,1.661c-1.935,5.935 3.43,11.706 8.586,13.759c1.136,0.456 2.003,-1.231 1.169,-2.009c-2.773,-2.581 -6.808,-4.048 -7.253,-8.378c-0.11,-1.075 0.071,-3.064 1.35,-3.536c0.977,-0.362 1.888,0.636 2.558,1.158c1.664,1.29 3.459,2.461 5.08,3.784c0.466,0.379 1.302,-0.116 0.911,-0.709z"></path><path transform="translate(-174.88,-154.9919)" d="M219.488,245.534c5.343,-1.573 13.16,-6.297 11.766,-13.067c-0.216,-1.378 -0.935,-2.627 -2.018,-3.507c-1.082,-0.88 -2.452,-1.328 -3.845,-1.258c-1.429,0.226 -2.761,0.865 -3.832,1.839c-1.182,0.844 -2.303,1.771 -3.355,2.774c-0.16,0.171 -0.268,0.385 -0.31,0.616c-0.043,0.231 -0.017,0.469 0.073,0.685c0.089,0.217 0.24,0.404 0.433,0.537c0.193,0.133 0.421,0.208 0.655,0.215c0.687,0.071 1.38,-0.03 2.018,-0.295c0.637,-0.265 1.198,-0.685 1.633,-1.221c0.911,-0.774 2.24,-2.267 3.656,-1.86c1.537,0.443 1.872,2.359 1.614,3.678c-0.757,3.902 -5.599,8.041 -8.883,9.932c-0.105,0.064 -0.183,0.163 -0.221,0.28c-0.037,0.117 -0.031,0.243 0.017,0.356c0.047,0.113 0.134,0.205 0.244,0.259c0.11,0.054 0.236,0.067 0.355,0.037z"></path><path transform="translate(-174.88,-154.992)" d="M325.243,297.113c-2.568,-6.583 -7.431,-11.891 -12.336,-16.831c-23.073,-23.242 -49.296,-48.903 -82.449,-52.722c-0.709,-0.087 -0.861,1.096 -0.164,1.248c29.891,6.629 52.879,26.972 73.989,47.971c9.789,9.739 22.29,20.611 18.529,35.984c-2.893,11.833 -14.718,26.142 -23.356,34.809c-15.921,15.97 -27.136,20.582 -37.44,26.832c5.375,-24.013 6.846,-48.735 4.355,-73.216c3.666,4.091 7.858,7.678 12.466,10.668c-2.935,1.922 -9.706,11.73 -9.645,17.98c0.005,0.266 0.096,0.522 0.259,0.732c0.164,0.209 0.39,0.36 0.646,0.431c0.257,0.07 0.529,0.055 0.776,-0.042c0.247,-0.097 0.456,-0.271 0.596,-0.497c0.982,-1.575 1.531,-3.424 2.411,-5.071c6.032,-11.28 6.544,-9.537 7.8,-11.948c4.597,2.345 10.433,4.635 15.548,3.432c0.153,-0.042 0.29,-0.128 0.395,-0.248c0.105,-0.119 0.172,-0.267 0.194,-0.424c0.023,-0.157 -0.002,-0.318 -0.07,-0.461c-0.067,-0.144 -0.176,-0.265 -0.311,-0.348c-4.757,-2.358 -10.202,-2.993 -15.066,-5.254c-5.876,-3.216 -11.346,-7.127 -16.29,-11.648c-0.983,-8.427 -2.569,-16.774 -4.747,-24.974c-0.208,-0.811 -1.364,-0.456 -1.235,0.341c12.952,79.443 -9.666,120.465 -9.866,130.537c0.006,0.215 0.082,0.423 0.215,0.593c0.134,0.169 0.319,0.291 0.527,0.347c0.209,0.056 0.43,0.044 0.63,-0.036c0.201,-0.079 0.37,-0.222 0.484,-0.405c1.129,-1.631 5.372,-11.488 9.131,-27.026c7.113,-3.001 13.884,-6.756 20.197,-11.2c12.066,-8.241 22.758,-18.331 31.682,-29.9c9.094,-11.769 17.562,-25.784 12.145,-39.654z"></path></g><g transform="translate(100.7693,207.06687)" id="questionmark-01" fill="#e5d283" opacity="0"><path transform="translate(-100.7691,-207.06745)" d="M104.911,216.048c-0.481,-0.487 -0.781,-1.125 -0.848,-1.806c-0.068,-0.681 0.1,-1.365 0.476,-1.937c0.376,-0.572 0.937,-0.998 1.59,-1.206c0.652,-0.208 1.356,-0.186 1.994,0.063c5.146,1.516 2.246,9.1 7.28,12.297c4.744,3.024 7.377,-2.272 4.399,-2.998c-1.966,-0.478 -2.927,-0.642 -3.536,-2.849c-0.493,-1.829 -0.768,-8.899 -8.884,-10.502c-1.406,-0.171 -2.826,0.171 -4,0.964c-1.174,0.792 -2.022,1.982 -2.39,3.35c-0.367,1.201 -0.279,2.496 0.246,3.637c0.526,1.141 1.453,2.049 2.604,2.551c0.206,0.098 0.441,0.119 0.662,0.06c0.221,-0.06 0.413,-0.196 0.542,-0.385c0.129,-0.189 0.186,-0.417 0.161,-0.645c-0.024,-0.227 -0.129,-0.438 -0.296,-0.594z"></path><path transform="translate(-100.7692,-207.067)" d="M124.729,221.978c-0.258,0.195 -0.767,0.563 -0.867,0.817c-0.126,0.265 -0.185,0.557 -0.171,0.85c0.014,0.293 0.1,0.578 0.251,0.829c0.15,0.252 0.361,0.462 0.613,0.613c0.252,0.15 0.537,0.236 0.83,0.25c0.297,0.058 0.603,0.042 0.893,-0.046c0.289,-0.088 0.553,-0.246 0.767,-0.46c0.214,-0.214 0.372,-0.478 0.461,-0.767c0.088,-0.29 0.104,-0.596 0.046,-0.893c-0.058,-0.298 -0.188,-0.576 -0.379,-0.811c-0.19,-0.235 -0.436,-0.419 -0.715,-0.537c-0.279,-0.118 -0.582,-0.166 -0.883,-0.139c-0.302,0.027 -0.592,0.128 -0.846,0.294z"></path></g><g transform="translate(68.91552,171.29921)" id="questionmark-02" fill="#e5d283" opacity="0"><path transform="translate(-68.91552,-171.29851)" d="M71.5103,178.017c-0.025,-1.537 0.3952,-3.376 2.3005,-3.474c2.08,-0.11 2.4752,2.097 3.068,3.59c2.3337,5.874 7.0969,3.287 5.2915,1.498c-0.9827,-0.806 -1.7658,-1.828 -2.288,-2.987c-0.3248,-1.006 -0.7535,-1.976 -1.2792,-2.893c-0.5282,-0.785 -1.2481,-1.422 -2.0916,-1.851c-0.8435,-0.428 -1.7824,-0.634 -2.7278,-0.597c-0.8598,0.021 -1.6995,0.264 -2.4377,0.705c-0.7382,0.442 -1.3498,1.066 -1.7756,1.813c-0.4259,0.748 -0.6514,1.592 -0.6548,2.452c-0.0034,0.86 0.2154,1.707 0.6353,2.457c0.1381,0.191 0.3348,0.332 0.5603,0.402c0.2255,0.069 0.4674,0.063 0.6891,-0.018c0.2216,-0.081 0.4109,-0.231 0.539,-0.429c0.1282,-0.198 0.1882,-0.433 0.171,-0.668z"></path><path transform="translate(-68.9156,-171.2993)" d="M86.8151,184.228c0.4249,0.064 0.858,-0.041 1.2066,-0.292c0.3486,-0.251 0.5852,-0.629 0.6591,-1.052c0.0739,-0.424 -0.0207,-0.859 -0.2637,-1.213c-0.2429,-0.355 -0.6148,-0.6 -1.0362,-0.684c-0.4249,-0.064 -0.8579,0.041 -1.2066,0.292c-0.3486,0.251 -0.5852,0.629 -0.6591,1.052c-0.0739,0.423 0.0208,0.859 0.2637,1.213c0.2429,0.355 0.6148,0.6 1.0362,0.684z"></path></g><g transform="translate(135.9613,82.4106)" id="questionmark-03" fill="#e5d283" opacity="0"><path transform="translate(-135.96175,-82.4106)" d="M138.258,91.8174c-0.082,-0.6777 -0.022,-1.365 0.176,-2.0184c0.197,-0.6534 0.528,-1.2589 0.971,-1.7783c0.443,-0.5193 0.988,-0.9413 1.603,-1.2394c0.614,-0.2981 1.283,-0.4658 1.965,-0.4925c3.646,0.2433 4.102,3.6525 3.767,6.5936c-0.389,3.432 -1.119,11.3816 4.32,11.3376c0.286,-0.004 0.566,-0.082 0.813,-0.227c0.247,-0.146 0.451,-0.352 0.594,-0.601c0.142,-0.248 0.218,-0.529 0.219,-0.815c0.001,-0.286 -0.073,-0.568 -0.214,-0.817c-0.971,-1.695 -2.026,-2.5295 -2.08,-4.6594c-0.043,-1.9115 0.516,-3.7773 0.576,-5.6825c0.151,-1.6643 -0.198,-3.3357 -1.003,-4.8c-0.806,-1.4642 -2.03,-2.6545 -3.516,-3.4181c-1.289,-0.6587 -2.747,-0.914 -4.183,-0.7327c-1.436,0.1813 -2.784,0.7909 -3.869,1.7493c-1.085,0.9584 -1.856,2.2212 -2.213,3.6241c-0.357,1.4028 -0.283,2.8806 0.212,4.2409c0.335,0.9235 1.972,0.8736 1.862,-0.2642z"></path><path transform="translate(-135.9615,-82.411)" d="M155.64,107.767c0.455,-0.016 0.886,-0.207 1.202,-0.535c0.317,-0.327 0.493,-0.764 0.493,-1.22c0,-0.455 -0.176,-0.892 -0.493,-1.219c-0.316,-0.328 -0.747,-0.519 -1.202,-0.535c-0.455,0.016 -0.886,0.207 -1.202,0.535c-0.316,0.327 -0.493,0.764 -0.493,1.219c0,0.456 0.177,0.893 0.493,1.22c0.316,0.328 0.747,0.519 1.202,0.535z"></path></g><g transform="translate(261.35839,72.1448)" id="questionmark-04" fill="#e5d283" opacity="0"><path transform="translate(-261.35819,-72.14476)" d="M266.417,73.9648c3.665,1.8574 4.233,5.9841 0.193,7.7792c-2.35,1.04 -4.644,2.1091 -5.116,4.8651c-0.379,2.2235 2.223,2.3712 2.602,2.0093c0.977,-0.9235 0.832,-2.0987 2.036,-2.912c0.901,-0.624 2.015,-0.9111 2.954,-1.456c6.004,-3.5215 4.031,-12.0266 -2.174,-12.1056c-0.211,0.0064 -0.415,0.0805 -0.581,0.2113c-0.166,0.1308 -0.285,0.3115 -0.34,0.5154c-0.056,0.2038 -0.044,0.4201 0.032,0.617c0.077,0.1968 0.215,0.3638 0.394,0.4763z"></path><path transform="translate(-261.3575,-72.1448)" d="M262.716,94.224c0.361,0 0.706,-0.1431 0.961,-0.3978c0.255,-0.2547 0.398,-0.6002 0.398,-0.9604c0,-0.3602 -0.143,-0.7057 -0.398,-0.9604c-0.255,-0.2547 -0.6,-0.3978 -0.961,-0.3978c-0.36,0 -0.705,0.1431 -0.96,0.3978c-0.255,0.2547 -0.398,0.6002 -0.398,0.9604c0,0.3602 0.143,0.7057 0.398,0.9604c0.255,0.2547 0.6,0.3978 0.96,0.3978z"></path></g><g transform="translate(322.94027,162.15536)" id="questionmark-05" fill="#e5d283" opacity="0"><path transform="translate(-322.9405,-162.15537)" d="M335.868,164.551c0.415,-0.012 0.827,0.078 1.2,0.262c0.373,0.184 0.695,0.456 0.939,0.792c0.244,0.337 0.402,0.728 0.461,1.139c0.058,0.412 0.016,0.831 -0.125,1.222c-0.312,0.723 -0.804,1.354 -1.429,1.834c-0.624,0.479 -1.361,0.791 -2.14,0.906c-2.569,0.278 -4.688,-1.209 -7.016,0.686c-0.268,0.199 -0.464,0.479 -0.561,0.798c-0.097,0.319 -0.089,0.661 0.022,0.976c0.112,0.314 0.322,0.584 0.598,0.771c0.277,0.187 0.606,0.279 0.94,0.265c1.29,-0.13 2.591,-0.111 3.877,0.054c1.035,0.23 2.105,0.259 3.151,0.083c1.181,-0.262 2.291,-0.777 3.256,-1.507c0.964,-0.73 1.76,-1.66 2.333,-2.725c1.959,-3.965 -1.367,-9.306 -5.934,-7.638c-0.241,0.089 -0.442,0.262 -0.567,0.487c-0.124,0.224 -0.164,0.486 -0.112,0.738c0.051,0.251 0.192,0.476 0.395,0.633c0.203,0.157 0.456,0.237 0.712,0.224z"></path><path transform="translate(-322.94031,-162.1549)" d="M324.896,176.453c0.363,-0.141 0.658,-0.418 0.82,-0.772c0.163,-0.354 0.182,-0.757 0.052,-1.125c-0.13,-0.367 -0.398,-0.669 -0.747,-0.842c-0.35,-0.173 -0.752,-0.203 -1.123,-0.084c-0.364,0.141 -0.658,0.417 -0.821,0.771c-0.163,0.354 -0.181,0.758 -0.051,1.125c0.13,0.368 0.398,0.67 0.747,0.843c0.349,0.173 0.752,0.203 1.123,0.084z"></path></g><g transform="translate(274.0165,198.31518)" id="questionmark-06" fill="#e5d283" opacity="0"><path transform="translate(-274.016,-198.31499)" d="M291.524,200.818c3.179,-0.179 6.594,2.267 4.809,5.676c-1.553,2.97 -4.413,2.496 -6.951,1.192c-2.897,-1.483 -7.334,-3.037 -9.233,0.797c-0.066,0.17 -0.093,0.354 -0.078,0.536c0.015,0.183 0.071,0.36 0.164,0.517c0.093,0.158 0.22,0.293 0.372,0.395c0.152,0.101 0.326,0.167 0.507,0.193c1.5,0.324 2.862,-0.589 4.337,-0.208c1.221,0.492 2.403,1.076 3.536,1.747c8.374,3.578 14.167,-5.539 10.163,-10.903c-0.437,-0.641 -1.002,-1.183 -1.659,-1.594c-0.657,-0.41 -1.392,-0.68 -2.159,-0.792c-0.766,-0.112 -1.548,-0.064 -2.295,0.142c-0.747,0.205 -1.444,0.563 -2.045,1.052c-0.114,0.099 -0.194,0.231 -0.229,0.378c-0.034,0.148 -0.02,0.302 0.039,0.441c0.059,0.139 0.161,0.256 0.291,0.333c0.13,0.078 0.281,0.112 0.431,0.098z"></path><path transform="translate(-274.01581,-198.3153)" d="M276.164,212.576c0.373,-0.166 0.666,-0.473 0.815,-0.854c0.149,-0.38 0.143,-0.804 -0.018,-1.18c-0.161,-0.375 -0.464,-0.673 -0.842,-0.827c-0.378,-0.155 -0.802,-0.155 -1.18,0.001c-0.374,0.166 -0.667,0.473 -0.816,0.853c-0.149,0.381 -0.142,0.805 0.019,1.181c0.161,0.375 0.463,0.673 0.841,0.827c0.379,0.155 0.803,0.154 1.181,-0.001z"></path></g><g transform="translate(55.199,85.2147)" id="big-questionmark-01" fill="#e5d283" opacity="0"><path transform="translate(-55.1994,-85.2146)" d="M128.563,162.492c5.653,-9.069 -10.498,-16.004 -13.167,-6.906c-0.35,1.216 -0.41,2.497 -0.174,3.74c0.235,1.243 0.76,2.414 1.53,3.417c0.691,0.928 1.592,1.677 2.631,2.185c1.039,0.508 2.184,0.76 3.339,0.735c1.156,-0.024 2.289,-0.325 3.305,-0.877c1.016,-0.551 1.886,-1.338 2.536,-2.294z"></path><path transform="translate(-55.199,-85.2147)" d="M97.5063,147.043c-6.161,-4.074 -12.6235,-10.129 -10.7827,-18.304c1.5745,-6.984 11.0801,-17.451 4.3097,-24.81c-2.0861,-2.11 -4.8918,-3.355 -7.8561,-3.486c-11.9309,-0.8319 -15.625,12.133 -11.9683,21.181c0.1414,0.362 1.04,2.159 0.6635,2.525c-0.0707,0.073 -14.0213,-0.747 -14.56,-1.021c-1.04,-0.533 -3.328,-9.706 -1.3063,-17.321c1.0525,-3.981 2.937,-13.1701 14.4207,-18.0352c9.0584,-3.8376 20.0512,-3.6067 27.8304,2.4107c3.8608,3.0742 6.7708,7.1809 8.3908,11.8425c1.62,4.662 1.884,9.688 0.761,14.494c-1.212,4.816 -5.31,12.225 -1.816,17.776c2.455,3.898 10.952,9.514 11.041,9.776c-1.788,3.365 -4.206,6.355 -7.122,8.809c-1.005,0.684 -9.048,-3.877 -12.0057,-5.837z"></path><path transform="translate(-55.199,-85.2149)" d="M87.0146,137.935c0.1791,2.533 0.7722,5.02 1.7556,7.361c4.1963,3.489 8.6099,6.708 13.2138,9.637c2.417,1.366 3.306,1.377 5.75,-0.89c-6.59,-2.411 -15.7461,-7.896 -20.7194,-16.108z"></path><path transform="translate(-55.199,-85.2145)" d="M85.8728,105.125c2.7124,1.793 4.7106,4.481 5.6472,7.594c2.6707,-0.524 0.5553,-10.14 -7.0284,-11.178c-4.4637,-0.609 -8.1369,0.801 -6.9181,1.756c0.6344,0.495 3.7316,-0.666 8.2993,1.828z"></path><path transform="translate(-55.1989,-85.2142)" d="M74.5514,130.062c-0.0707,0.061 -12.6048,-0.696 -12.8357,-0.769c-1.6142,-1.246 -2.9202,-2.847 -3.8168,-4.678c0.1872,-0.235 13.6115,0.699 14.144,0.923c0.9637,1.434 1.8029,2.948 2.5085,4.524z"></path><path transform="translate(-55.1994,-85.2145)" d="M112.894,162.535c0.435,1.094 1.116,2.073 1.99,2.86c0.875,0.788 1.919,1.363 3.052,1.681c3.898,0.664 6.111,-0.736 5.304,-0.67c-1.926,0.156 -3.851,-0.318 -5.485,-1.35c-4.451,-2.608 -3.409,-9.613 -3.409,-9.613c-0.641,0.835 -1.193,1.735 -1.647,2.685c-0.32,1.461 -0.253,2.98 0.195,4.407z"></path></g><g transform="translate(188.9664,10.4426)" id="big-questionmark-02" fill="#e5d283"><path transform="translate(-188.9658,-10.4425)" d="M208.146,96.0128c9.378,-1.8408 4.047,-16.64 -3.536,-12.819c-1.008,0.5142 -1.882,1.2579 -2.55,2.1712c-0.668,0.9132 -1.113,1.9706 -1.298,3.087c-0.187,1.0182 -0.126,2.0662 0.176,3.0562c0.302,0.99 0.837,1.8931 1.56,2.6336c0.724,0.7406 1.614,1.2969 2.596,1.6224c0.983,0.3256 2.029,0.4108 3.052,0.2486z"></path><path transform="translate(-188.9659,-10.4426)" d="M199.264,66.2896c-1.096,-6.5124 -1.092,-14.4331 5.375,-18.227c2.325,-1.1981 4.789,-2.1062 7.336,-2.704c4.842,-1.4206 11.051,-3.6442 11.507,-9.6408c0.105,-2.6524 -0.795,-5.2468 -2.521,-7.2634c-6.742,-8.3054 -17.472,-2.7996 -21.152,5.1168c-0.15,0.3141 -0.78,1.9989 -1.248,1.9781c-0.094,0 -8.077,-9.6137 -8.224,-10.1296c-0.279,-1.0046 4.31,-8.112 10.518,-11.44c3.012,-1.9984 6.485,-3.1941 10.089,-3.4736c3.604,-0.2796 7.219,0.3662 10.503,1.8762c8.037,3.5734 14.604,10.8971 15.428,19.6539c0.352,4.4008 -0.552,8.8112 -2.608,12.7183c-2.056,3.9071 -5.179,7.1503 -9.005,9.3526c-4.029,2.2297 -11.232,3.9936 -12.725,9.672c-1.04,3.9811 0.472,12.9688 0.362,13.183c-3.299,0.889 -6.737,1.1369 -10.128,0.7301c-1.048,-0.235 -2.974,-8.2742 -3.507,-11.4026z"></path><path transform="translate(-188.96599,-10.4425)" d="M198.808,53.8719c-1.545,1.6655 -2.81,3.5714 -3.744,5.6431c0.284,4.873 0.878,9.723 1.779,14.5205c0.582,2.4169 1.115,3.0035 4.095,3.2136c-3.188,-7.365 -3.934,-15.5573 -2.13,-23.3772z"></path><path transform="translate(-188.966,-10.4425)" d="M219.544,33.072c0.485,2.8646 -0.049,5.8086 -1.51,8.32c1.984,1.429 6.962,-5.849 3.008,-11.4192c-2.328,-3.2885 -5.49,-4.8256 -5.375,-3.4486c0.06,0.7238 2.718,2.0488 3.877,6.5478z"></path><path transform="translate(-188.9655,-10.4425)" d="M196.352,40.9136c-0.081,-0.0104 -7.247,-8.6632 -7.334,-8.8546c-0.17,-1.8166 0.078,-3.6481 0.726,-5.3539c0.268,-0.0208 7.856,9.3184 8.037,9.801c-0.354,1.5061 -0.832,2.9803 -1.429,4.4075z"></path><path transform="translate(-188.9661,-10.4426)" d="M198.544,85.8063c-0.448,0.9529 -0.67,1.9962 -0.65,3.0491c0.019,1.0528 0.281,2.0869 0.765,3.0224c1.949,2.9494 4.216,3.5464 3.679,3.0597c-1.278,-1.1637 -2.143,-2.7114 -2.465,-4.4096c-1.017,-4.5012 4.2,-8.0975 4.2,-8.0975c-0.937,0.0919 -1.863,0.2794 -2.762,0.5595c-1.154,0.6792 -2.108,1.6507 -2.767,2.8164z"></path></g><g transform="translate(278.1556,82.793)" id="big-questionmark-03" fill="#e5d283" opacity="0"><path transform="translate(-278.15591,-82.7935)" d="M283.24,158.895c9.387,5.529 16.03,-11.117 6.687,-13.599c-1.25,-0.324 -2.559,-0.35 -3.82,-0.076c-1.262,0.273 -2.442,0.84 -3.445,1.653c-0.928,0.727 -1.668,1.666 -2.158,2.738c-0.49,1.072 -0.716,2.245 -0.66,3.423c0.057,1.177 0.395,2.323 0.985,3.343c0.591,1.02 1.418,1.884 2.411,2.518z"></path><path transform="translate(-278.1553,-82.7931)" d="M298.162,126.834c3.983,-6.387 9.984,-13.133 18.368,-11.475c7.147,1.41 18.075,10.837 25.399,3.744c2.101,-2.183 3.298,-5.079 3.351,-8.108c0.534,-12.1763 -12.773,-15.6 -21.905,-11.648c-0.361,0.1602 -2.173,1.115 -2.552,0.747c-0.077,-0.071 0.385,-14.3065 0.653,-14.8556c0.516,-1.065 9.806,-3.6462 17.618,-1.795c4.083,0.9651 13.499,2.6457 18.76,14.2188c4.16,9.1288 4.205,20.3358 -1.719,28.4278c-3.027,4.019 -7.134,7.095 -11.843,8.871c-4.708,1.775 -9.824,2.177 -14.751,1.158c-4.94,-1.106 -12.597,-5.087 -18.161,-1.383c-3.904,2.602 -9.406,11.415 -9.662,11.513c-3.485,-1.737 -6.605,-4.126 -9.191,-7.039c-0.724,-0.996 3.717,-9.302 5.635,-12.376z"></path><path transform="translate(-278.1555,-82.7931)" d="M307.164,115.904c-2.576,0.249 -5.095,0.917 -7.455,1.98c-3.442,4.372 -6.605,8.957 -9.47,13.728c-1.329,2.496 -1.317,3.405 1.061,5.836c2.271,-6.789 7.629,-16.263 15.864,-21.544z"></path><path transform="translate(-278.1558,-82.7927)" d="M340.567,113.865c-1.754,2.816 -4.441,4.924 -7.592,5.958c0.613,2.722 10.339,0.257 11.198,-7.461c0.506,-4.576 -1.04,-8.268 -1.972,-7.006c-0.476,0.649 0.791,3.79 -1.634,8.509z"></path><path transform="translate(-278.1554,-82.7931)" d="M314.862,102.991c-0.06,-0.073 0.375,-12.8688 0.445,-13.1038c1.228,-1.6775 2.824,-3.051 4.666,-4.0144c0.247,0.1872 -0.352,13.8902 -0.566,14.4392c-1.438,1.018 -2.958,1.914 -4.545,2.679z"></path><path transform="translate(-278.15571,-82.7931)" d="M282.778,142.925c-1.104,0.472 -2.083,1.193 -2.862,2.106c-0.779,0.913 -1.337,1.994 -1.629,3.159c-0.572,3.985 0.911,6.208 0.832,5.387c-0.208,-1.961 0.226,-3.936 1.236,-5.629c2.542,-4.605 9.705,-3.727 9.705,-3.727c-0.867,-0.631 -1.798,-1.169 -2.777,-1.608c-1.503,-0.287 -3.055,-0.18 -4.505,0.312z"></path></g></g></g></svg>