<svg version="1.1" xmlns="http://www.w3.org/2000/svg" xmlns:xlink="http://www.w3.org/1999/xlink" width="128" height="128" viewBox="0,0,256,256"><g fill="none" fill-rule="nonzero" stroke="none" stroke-width="1" stroke-linecap="butt" stroke-linejoin="miter" stroke-miterlimit="10" stroke-dasharray="" stroke-dashoffset="0" font-family="none" font-weight="none" font-size="none" text-anchor="none" style="mix-blend-mode: normal"><g transform="translate(0.00272,-0.00665) scale(2,2)"><path d="M28.5774,34.797c0.2751,0.144 0.5897,0.1942 0.896,0.1427c0.0536,-0.0211 0.1015,-0.0547 0.1395,-0.098c0.0381,-0.0433 0.0652,-0.0951 0.0791,-0.151c0.014,-0.0559 0.0144,-0.1144 0.0012,-0.1705c-0.0132,-0.0561 -0.0396,-0.1082 -0.0771,-0.152c-0.256,-0.3572 -0.9946,-0.4973 -1.216,-0.1786c-0.1754,0.2528 -0.0371,0.464 0.1773,0.6074z" fill="#213555"></path><path d="M32.9702,33.7282c0.0416,-0.6605 -1.0003,-0.128 -1.0003,0.32c-0.0403,0.6809 1.0003,0.1011 1.0003,-0.32z" fill="#213555"></path><path d="M29.3639,32.8314c0.0731,-0.023 0.1353,-0.0721 0.1748,-0.1379c0.0395,-0.0658 0.0536,-0.1437 0.0396,-0.2192c-0.064,-0.2515 -0.3578,-0.256 -0.5716,-0.2144c-0.4809,0.0413 -0.9517,0.1619 -1.3932,0.3571c-0.0356,0.0117 -0.0653,0.0364 -0.0834,0.0691c-0.018,0.0327 -0.023,0.0711 -0.0139,0.1074c0.009,0.0362 0.0315,0.0677 0.0629,0.088c0.0313,0.0204 0.0692,0.0281 0.106,0.0216c0.5563,-0.0747 1.1182,-0.0986 1.6788,-0.0717z" fill="#213555"></path><path d="M31.5438,32.0103c-0.1728,0.1728 -0.1677,0.368 -0.1069,0.4288c0.1427,0.1427 0.32,-0.0358 0.464,-0.1075c0.193,-0.1046 0.3966,-0.1883 0.6074,-0.2496c0.2144,-0.0359 0.3929,-0.32 0.1792,-0.5005c-0.0717,-0.0717 -0.1434,-0.0717 -0.2503,-0.1069c-0.5376,0 -0.6988,0.3411 -0.8934,0.5357z" fill="#213555"></path><path d="M22.5388,66.0617c1.5098,0.4116 1.9706,0.6938 2.2867,0.5357c0.0247,-0.0129 0.0463,-0.0309 0.0635,-0.0528c0.0172,-0.0219 0.0296,-0.0472 0.0364,-0.0742c0.0067,-0.027 0.0077,-0.0551 0.0029,-0.0825c-0.0049,-0.0274 -0.0155,-0.0535 -0.0311,-0.0766c-0.1785,-0.2854 -0.6438,-0.2796 -0.9293,-0.32c-0.43,-0.064 -0.8576,-0.1401 -1.3216,-0.2144c-0.215,-0.0358 -0.3219,0.2132 -0.1075,0.2848z" fill="#213555"></path><path d="M22.3613,67.8832c0.744,0.2573 1.5092,0.4485 2.2867,0.5715c0.32,0 0.32,-0.4525 0.0717,-0.5357c-0.73,-0.2445 -1.4868,-0.4001 -2.2541,-0.4633c-0.247,-0.0378 -0.3546,0.3558 -0.1043,0.4275z" fill="#213555"></path><path d="M21.9658,69.7053c0.5274,0.1664 2.537,0.7975 2.537,0.2503c-0.0002,-0.0596 -0.017,-0.118 -0.0485,-0.1685c-0.0316,-0.0506 -0.0766,-0.0913 -0.1301,-0.1176c-0.7507,-0.1786 -1.502,-0.1741 -2.2515,-0.3571c-0.0264,-0.0094 -0.0546,-0.0131 -0.0825,-0.0111c-0.028,0.002 -0.0553,0.0098 -0.0801,0.0229c-0.0249,0.013 -0.0468,0.031 -0.0644,0.0529c-0.0175,0.0219 -0.0304,0.0472 -0.0378,0.0743c-0.0073,0.027 -0.009,0.0553 -0.005,0.0831c0.0041,0.0278 0.0138,0.0544 0.0287,0.0782c0.0148,0.0239 0.0344,0.0444 0.0575,0.0603c0.0231,0.016 0.0492,0.027 0.0767,0.0323z" fill="#213555"></path><path d="M18.4325,63.9171c0.1645,-0.896 0.3437,-1.8592 0.4288,-2.752c0.0307,-0.32 -0.4647,-0.3571 -0.5363,-0.0717c-0.2671,0.9036 -0.3401,1.8534 -0.2144,2.7872c0.0332,0.1792 0.2803,0.2503 0.3219,0.0365z" fill="#213555"></path><path d="M33.8279,78.387c0.2868,-1.652 0.3349,-3.3366 0.1427,-5.0022c-1.7146,0.4288 -3.4298,0.896 -5.184,1.2505c-0.2502,0.0359 -0.4998,0.7149 -0.679,0.9293c-0.9031,1.0845 -2.0388,1.9516 -3.3229,2.537c-0.1069,0 -0.1786,-0.0717 -0.1427,-0.1786c0.5004,-0.7507 1.2864,-1.1437 1.9296,-1.7152c0.32,-0.2502 0.9644,-1.3581 1.3216,-1.4291c-1.5242,0.2688 -3.0629,0.4477 -4.608,0.5357c1.2492,12.9766 -0.0077,25.3186 1.143,38.3026c0.0002,0.06 0.017,0.118 0.0485,0.169c0.0316,0.05 0.0766,0.091 0.1301,0.117c1.5689,0.637 3.3096,0.713 4.928,0.215c0.752,-0.246 1.6166,-0.465 1.6076,-1.359c-0.0358,-3.608 -0.5363,-22.9378 -0.5363,-25.1515c0,-2.512 0.2144,-7.6896 0.2144,-7.7536c0.8576,-0.1427 1.9296,-0.2144 2.6087,-0.7859c0.1742,-0.2002 0.3094,-0.4311 0.3987,-0.681zM25.5028,95.002c0.7494,-0.183 2.2508,0.464 2.7872,1.0004c0.0432,0.0546 0.0791,0.1146 0.1068,0.1785c0.32,0.5005 -0.5715,0.2503 -0.679,0.1786c-1.8886,-0.944 -1.9616,-0.7111 -2.2867,-1.0362c-0.0254,-0.0222 -0.0442,-0.0508 -0.0547,-0.0828c-0.0105,-0.032 -0.0121,-0.0662 -0.0048,-0.0991c0.0073,-0.0328 0.0234,-0.0631 0.0465,-0.0877c0.023,-0.0245 0.0523,-0.0423 0.0847,-0.0517z" fill="#e5d283"></path><path d="M40.2255,112.368c0.5244,-0.033 1.0331,-0.193 1.4815,-0.467c0.4484,-0.274 0.823,-0.653 1.0913,-1.105c0.5504,-1.152 -1.2378,-32.8405 -1.3933,-35.3371c-0.8711,-0.9253 -1.5189,-2.0376 -1.8938,-3.2519c-1.6844,0.2574 -3.3542,0.6033 -5.0022,1.0362c0.1495,1.5591 0.1134,3.1304 -0.1075,4.681c0.0033,0.4429 -0.1484,0.8731 -0.4288,1.216c1.486,5.2006 2.688,25.8878 3.0374,31.2278c0.0307,0.465 -0.1075,1.179 0.2854,1.572c0.6074,0.535 2.2516,0.5 2.93,0.428zM38.9768,95.1817c0.6162,-0.5278 1.2734,-1.0057 1.9655,-1.4291c0.0499,-0.0273 0.1073,-0.0378 0.1636,-0.0297c0.0564,0.008 0.1086,0.0341 0.1488,0.0744c0.0403,0.0402 0.0664,0.0924 0.0744,0.1488c0.0081,0.0563 -0.0024,0.1138 -0.0297,0.1637c-0.56,0.8166 -2.1651,1.6 -2.3226,1.2864c-0.0173,-0.0331 -0.0264,-0.0699 -0.0264,-0.1072c0,-0.0374 0.0091,-0.0742 0.0264,-0.1073z" fill="#e5d283"></path><path d="M40.1914,72.1342c0.3013,0.9371 0.7093,1.8364 1.216,2.6803c-0.0717,-0.9293 -0.1075,-1.8227 -0.1786,-2.752c-0.3616,0.0365 -0.6828,0.0365 -1.0374,0.0717z" fill="#e5d283"></path><path d="M19.6091,123.159c0.0361,0 0.0361,-0.036 0,-0.036c-0.0361,0 -0.0361,0.036 0,0.036z" fill="#213555"></path><path d="M30.186,116.692c0.071,0.035 0.2138,-0.608 0.2138,-0.679c0.0164,-0.424 -0.0823,-0.844 -0.2855,-1.216c-0.1785,-0.358 -0.7149,-0.108 -0.6432,0.25c0.0717,0.358 0.2816,0.784 0.1069,1.179c-0.1094,0.249 -0.4614,0.433 -0.6784,0.607c-0.32,0.256 -0.64,0.468 -0.9651,0.715c-1.9571,1.488 -5.3811,4.081 -7.9674,4.574c-0.1433,0.035 -0.2502,0.106 -0.2502,-0.108c0.0803,-0.509 0.3324,-0.976 0.7142,-1.322c0.9976,-1.087 2.0596,-2.113 3.1802,-3.072c0.0717,0.036 0.7859,0.5 1.0361,0.357c0.033,-0.017 0.0606,-0.042 0.0796,-0.074c0.0191,-0.031 0.0287,-0.068 0.028,-0.105c0,-0.285 -0.64,-0.607 -0.6791,-0.607c0.2144,-0.179 0.4647,-0.393 0.6791,-0.571c0.2144,0.106 1.1072,0.679 1.3574,0.5c0.0538,-0.048 0.0901,-0.113 0.103,-0.185c0.013,-0.071 0.002,-0.144 -0.0313,-0.209c-0.2756,-0.214 -0.5765,-0.394 -0.896,-0.535c0.2861,-0.251 0.5357,-0.465 0.8217,-0.715c0.0382,-0.041 0.0605,-0.094 0.0627,-0.149c0.0023,-0.056 -0.0157,-0.111 -0.0505,-0.154c-0.0348,-0.044 -0.0842,-0.073 -0.139,-0.083c-0.0548,-0.01 -0.1113,0 -0.1592,0.029c-0.4015,0.231 -0.7837,0.493 -1.1431,0.786c-0.0717,-0.036 -1.3222,-0.536 -1.8937,-0.715c-0.1786,-0.071 -0.2861,0.215 -0.1428,0.32c0.4999,0.251 1.0004,0.537 1.536,0.822c-0.1785,0.144 -0.64,0.536 -0.6784,0.572c0,0 -1.072,-0.5 -1.5724,-0.715c-0.3386,-0.112 -0.4743,0.244 -0.2503,0.393c0.4647,0.215 0.896,0.465 1.3223,0.715c-0.5005,0.429 -0.9664,0.855 -1.465,1.322c-1.0182,0.953 -3.033,2.683 -2.3942,3.895c0.0972,0.149 0.2413,0.261 0.4097,0.319c0.1683,0.058 0.3511,0.059 0.5195,0.001c0.4534,-0.084 0.8966,-0.216 1.3223,-0.393c2.144,-0.895 4.1524,-2.086 5.9667,-3.537c0.0037,0.035 0.016,0.07 0.0358,0.1c0.0198,0.03 0.0465,0.055 0.0778,0.072c0.0314,0.018 0.0665,0.027 0.1025,0.028c0.0359,0.001 0.0715,-0.006 0.1039,-0.022c0.6629,-0.157 1.2766,-0.476 1.7862,-0.928c0.2887,-0.247 0.9287,-0.715 0.9645,-1.144c-0.0096,-0.07 -0.0373,-0.136 -0.0803,-0.192c-0.043,-0.055 -0.0998,-0.099 -0.1648,-0.126z" fill="#213555"></path><path d="M50.3384,114.94c-0.6874,-0.394 -1.4191,-0.706 -2.1798,-0.929c-0.8211,-0.286 -1.6077,-0.571 -2.432,-0.822c0.3601,-0.318 0.6946,-0.665 1.0003,-1.036c0.0717,-0.178 -0.1421,-0.32 -0.2861,-0.285c-0.526,0.319 -1.0274,0.678 -1.5001,1.072c-0.2861,-0.072 -0.5364,-0.144 -0.8218,-0.215c0.4055,-0.357 0.7762,-0.752 1.1072,-1.179c0,-0.071 -0.071,-0.179 -0.1427,-0.179c-0.5987,0.317 -1.1516,0.714 -1.6435,1.18c-0.4587,-0.113 -0.9241,-0.197 -1.3933,-0.251c-0.2867,-0.028 -0.2861,0.358 -0.0717,0.464c0.32,0.108 0.679,0.215 1.0003,0.32c-0.3163,0.383 -0.603,0.79 -0.8576,1.216c-0.1062,0.18 0.1773,0.428 0.32,0.251c0.3527,-0.433 0.7501,-0.858 1.1431,-1.287c0.2502,0.072 0.7859,0.215 0.8217,0.215c-0.3501,0.343 -0.6725,0.714 -0.9645,1.108c-0.0258,0.025 -0.0462,0.056 -0.0602,0.09c-0.014,0.033 -0.0211,0.07 -0.0211,0.106c0,0.037 0.0071,0.073 0.0211,0.106c0.014,0.034 0.0344,0.065 0.0602,0.091c0.0258,0.025 0.0565,0.046 0.0902,0.06c0.0337,0.014 0.0698,0.021 0.1063,0.021c0.0365,0 0.0726,-0.007 0.1064,-0.021c0.0337,-0.014 0.0643,-0.035 0.0901,-0.06c0.4288,-0.429 0.8576,-0.858 1.3222,-1.287c0.4999,0.143 3.0394,1.03 3.7876,1.322c0.5966,0.159 1.124,0.511 1.5001,1.001c0.1031,0.181 0.0717,0.178 -0.1069,0.214c-0.1785,0.036 -0.3571,0.073 -0.5363,0.107c-2.7424,0.523 -7.9129,-0.86 -9.8253,-1.179c-0.286,-0.072 -0.679,-0.072 -0.896,-0.286c-0.3929,-0.393 -0.2444,-1.216 -0.32,-1.715c0,-0.09 -0.0357,-0.176 -0.0993,-0.239c-0.0636,-0.064 -0.1499,-0.1 -0.2399,-0.1c-0.0899,0 -0.1762,0.036 -0.2398,0.1c-0.0636,0.063 -0.0994,0.149 -0.0994,0.239c-0.0825,0.846 -0.0121,1.958 0.7143,2.394c0,0 -0.1069,0.5 0.1075,0.607c1.0397,0.283 2.1047,0.462 3.1795,0.537c0.0308,-0.007 0.0599,-0.02 0.0857,-0.038c0.0257,-0.018 0.0476,-0.041 0.0643,-0.068c0.0167,-0.026 0.0279,-0.056 0.0329,-0.087c0.005,-0.031 0.0038,-0.063 -0.0037,-0.093c0.4128,0 4.8295,1.094 7.5386,0.64c0.4323,0.008 0.8567,-0.117 1.216,-0.357c0.6105,-0.534 -0.1773,-1.424 -0.6746,-1.748z" fill="#213555"></path><path d="M124.689,17.2168c-0.423,-5.4611 -1.261,-7.6928 -3.968,-8.50368c-9.392,-3.52 -46.2486,-4.72064 -59.7405,-3.25184c-2.2515,0.24512 -4.5792,0.49152 -6.5388,1.7152c-6.5376,4.08452 -9.5559,16.64572 -10.9671,24.22722c-0.2464,1.3229 -0.4403,2.6841 -0.679,4.0019c-0.0327,0.1792 0.2515,0.2502 0.2861,0.071c0.9767,-5.2427 2.3136,-10.4118 4.0012,-15.4707c1.376,-3.8528 3.0541,-7.9878 6.0743,-10.86206c1.138,-1.15284 2.5723,-1.96917 4.1446,-2.35904c9.6218,-2.112 37.7504,-1.07584 51.1302,0.4288c9.408,1.05856 10.752,1.9296 11.183,1.9296c-0.188,0.09472 -1.826,0.21376 -4.359,3.2512c-7.427,8.9107 -10.496,19.456 -12.112,30.8352c-2.279,16.0256 -3.3923,39.7075 -3.3923,55.4534c-0.8812,-0.2515 -39.3958,-0.2617 -40.304,-0.2502c-3.7875,0.0493 -7.616,0.0589 -11.4336,0.3578c-0.3936,0.0307 -0.823,0.0256 -1.216,0.071c-0.0521,0 -0.1021,0.0207 -0.1389,0.0576c-0.0368,0.0368 -0.0575,0.0868 -0.0575,0.1389c0,0.0521 0.0207,0.1021 0.0575,0.1389c0.0368,0.0369 0.0868,0.0576 0.1389,0.0576c3.7159,0.0179 7.3959,-0.0711 11.1117,-0.0711c19.0963,0 41.4765,0.5671 42.4482,0.1786c0.042,0.0005 0.084,-0.01 0.121,-0.0306c0.036,-0.0206 0.067,-0.0504 0.089,-0.0866c0.022,-0.0363 0.033,-0.0775 0.034,-0.1197c0.001,-0.0422 -0.009,-0.0839 -0.03,-0.1209c-0.009,-17.2021 0.945,-34.3913 2.858,-51.4867c1.31,-11.2595 3.403,-21.44 9.576,-30.7283c1.03,-1.5841 2.176,-3.0888 3.431,-4.5018c1.155,-1.2755 2.714,-2.60222 4.537,-2.4659c0.456,0.04482 0.887,0.2306 1.233,0.5316c0.346,0.3009 0.589,0.7021 0.697,1.1478c2.599,7.5084 0.576,16.32 -1.18,24.0467c-0.036,-0.0359 -0.071,-0.1075 -0.143,-0.1427c-4.45,-2.1856 -9.964,-2.9012 -12.255,-2.5728c-0.045,0.0038 -0.086,0.0242 -0.117,0.0573c-0.03,0.033 -0.047,0.0763 -0.047,0.1212c0,0.0449 0.017,0.0882 0.047,0.1213c0.031,0.033 0.072,0.0535 0.117,0.0573c4.073,0.3577 8.147,1.1437 11.827,2.9657c0.075,0.0304 0.156,0.0429 0.236,0.0367c0.081,-0.0062 0.159,-0.0311 0.228,-0.0725c0,0.0358 -0.036,0.1075 -0.036,0.1434c-0.006,0.0217 -0.008,0.0446 -0.006,0.0672c0.003,0.0227 0.01,0.0445 0.021,0.0642c0.012,0.0197 0.027,0.0368 0.045,0.0503c0.019,0.0134 0.04,0.0229 0.062,0.0279c0.022,0.0049 0.045,0.0052 0.067,0.0008c0.023,-0.0045 0.044,-0.0135 0.063,-0.0265c0.018,-0.013 0.034,-0.0298 0.046,-0.0492c0.012,-0.0195 0.019,-0.0411 0.022,-0.0637c1.369,-4.1437 2.303,-8.4184 2.788,-12.7552c0.135,-2.1184 0.135,-4.2432 0,-6.3616z" fill="#213555"></path><path d="M20.6789,74.4571c9.5578,0 14.7904,-3.2909 20.864,-3.3587c0.512,-0.0736 1.7223,-0.0884 2.3226,-0.1428c0.1492,-0.0103 0.299,0.0097 0.4402,0.0589c0.1412,0.0491 0.271,0.1264 0.3816,0.2272c0.0816,0.1188 0.1191,0.2624 0.106,0.4059c-0.0131,0.1436 -0.0759,0.278 -0.1777,0.38c-0.5458,0.6504 -1.2641,1.1334 -2.0723,1.3933c-0.1428,0.0717 -0.1428,0.32 0.0358,0.2861c0.4759,-0.0551 0.9368,-0.2006 1.3581,-0.4288c0.6093,-0.3046 1.344,-0.7546 1.4643,-1.465c0.0358,0 0.0717,-0.0358 0.1075,-0.1068c0.0403,-0.1785 0.0278,-0.3648 -0.0358,-0.5364c-0.185,-1.0099 -2.1063,-15.4572 -2.5011,-18.222c-0.5946,-2.9116 -1.3945,-5.7774 -2.3936,-8.576c-0.0108,-0.037 -0.0072,-0.0767 0.01,-0.1112c0.0172,-0.0345 0.0468,-0.0612 0.0829,-0.0748c0.0361,-0.0135 0.0759,-0.013 0.1116,0.0015c0.0357,0.0146 0.0646,0.042 0.0809,0.0769c1.1365,2.5597 2.0463,5.2141 2.7187,7.9328c5.1738,-3.5904 15.1584,-10.7136 20.08,-14.4377c0.1069,-0.1069 0.2144,-0.2144 0.1427,-0.393c-0.1068,-0.3571 -0.5715,-1.2864 -0.64,-1.4649c0.393,-0.2144 0.7508,-0.5357 1.1079,-0.7501c1.088,-0.544 1.3081,-0.064 1.9296,0.0717c0.6083,0.1603 1.2477,0.1603 1.856,0c0.6468,-0.1041 1.2593,-0.3615 1.7862,-0.7508c0.0247,-0.0276 0.0409,-0.0617 0.0466,-0.0983c0.0057,-0.0366 0.0007,-0.074 -0.0143,-0.1079c-0.0151,-0.0338 -0.0397,-0.0625 -0.0707,-0.0827c-0.0311,-0.0202 -0.0673,-0.031 -0.1043,-0.0311c-0.3174,0.0333 -0.6295,0.1053 -0.9293,0.2144c-2.8589,0.9856 -2.9677,-0.7276 -4.7161,0.32c-0.37,0.2318 -0.7278,0.4824 -1.072,0.7508c0.0358,-0.0359 -0.8218,-1.9296 -0.7501,-1.9655c0.5033,-0.2734 0.9923,-0.5724 1.4649,-0.896c0.3084,-0.2191 0.5545,-0.5147 0.7143,-0.8576c0.1313,-0.3969 0.1186,-0.8275 -0.0359,-1.216c-0.2457,-0.9657 0.5978,-1.6166 1.1796,-2.2509c1.298,-1.399 2.2417,-3.0889 2.752,-4.928c0.2373,0.3066 0.4076,0.6596 0.4998,1.0362c0.1094,0.4701 0.1094,0.959 0,1.4291c-0.2531,0.8307 -0.7989,1.5415 -1.536,2.0007c-0.0359,0.0355 -0.0593,0.0818 -0.0666,0.1317c-0.0073,0.05 0.0018,0.101 0.026,0.1454c0.0242,0.0443 0.0622,0.0796 0.1081,0.1005c0.046,0.0209 0.0976,0.0263 0.1469,0.0153c0.5304,-0.1765 0.9842,-0.5296 1.2858,-1.0003c0.3503,-0.484 0.5732,-1.0484 0.6482,-1.6412c0.0749,-0.5927 -0.0006,-1.1948 -0.2194,-1.7508c-0.1767,-0.4646 -0.464,-1.143 -1.072,-1.1072c-0.0599,0.0018 -0.1173,0.0241 -0.1627,0.0631c-0.0455,0.039 -0.0761,0.0924 -0.0869,0.1513c-0.4401,1.7832 -1.2974,3.4364 -2.5012,4.8237c-0.5344,0.6086 -1.2716,1.1725 -1.5008,2.0006c-0.0874,0.3919 -0.0628,0.8004 0.0711,1.1789c0.057,0.196 0.0571,0.4042 0.0005,0.6003c-0.0567,0.1961 -0.1678,0.3721 -0.3205,0.5075c-0.4899,0.405 -1.016,0.7638 -1.5719,1.072c-0.1792,-0.5715 -0.343,-1.1468 -0.5004,-1.751c-0.0174,-0.0567 -0.0491,-0.108 -0.0921,-0.1488c-0.043,-0.0408 -0.0958,-0.0698 -0.1533,-0.0842c-0.0576,-0.0143 -0.1178,-0.0136 -0.175,0.0022c-0.0571,0.0159 -0.1092,0.0462 -0.1512,0.0881c-0.286,0.2502 -4.4307,2.144 -5.3952,2.608c-8.4025,4.0454 -15.616,7.7152 -23.8681,9.0041c-0.3571,0.0359 -0.32,0.64 0,0.7149c0.0717,0 0.1075,0.0359 0.1785,0.0359c0,0.0352 -0.0358,0.071 -0.0358,0.1427c0,1.0496 0.0282,1.6576 -0.9645,2.432c-0.3994,0.2437 -0.8436,0.4048 -1.3063,0.4738c-0.4627,0.069 -0.9346,0.0445 -1.3877,-0.0721c-0.4531,-0.1166 -0.8782,-0.3229 -1.2502,-0.6067c-0.3719,-0.2838 -0.6832,-0.6394 -0.9153,-1.0456c-0.2005,-0.3315 -0.3454,-0.6936 -0.4288,-1.072c0.5897,0.0585 1.1852,-0.0022 1.751,-0.1785c0.1104,-0.1254 0.1954,-0.271 0.2503,-0.4288c-0.1504,-1.728 -0.5299,-4.1204 -0.6074,-4.4301c0.1427,-0.2503 -0.1779,-0.6061 -0.5005,-0.4647c-0.8204,0.3604 -2.0998,0.178 -2.215,-0.9292c-0.1005,-0.9652 1.1078,-1.1789 1.856,-1.1789c0.052,0.0001 0.1033,-0.012 0.1497,-0.0353c0.0465,-0.0233 0.0869,-0.0571 0.118,-0.0987c0.0311,-0.0417 0.052,-0.09 0.0611,-0.1412c0.0091,-0.0512 0.0061,-0.1038 -0.0088,-0.1536c-0.3622,-1.3868 -0.4591,-2.8295 -0.2854,-4.2522c0.1414,-0.704 0.2374,-1.472 0.9644,-1.3933c0.668,0.0735 1.3196,0.2546 1.9296,0.5364c0.0717,0.0352 0.1069,0 0.1428,-0.0359c0.4378,-0.3187 0.8449,-0.6776 1.216,-1.072c0.11,-0.1049 0.32,-0.4288 0.5363,-0.4288h0.0678c0.9855,0.7176 1.8639,1.5718 2.6087,2.537c0.1427,0.9645 0.256,1.9289 0.3571,2.8941c0.2109,1.0865 0.1245,2.2097 -0.2503,3.2512c-0.338,0.8896 -1.0014,1.6175 -1.856,2.0364c-0.9333,0.3807 -1.9712,0.4188 -2.9299,0.1076c-0.2854,-0.0717 -0.4633,0.3545 -0.2144,0.4646c0.3607,0.1697 0.7473,0.2778 1.1437,0.32c0,0.6093 -0.0416,2.496 0.1786,2.7155c0.0339,0.0291 0.0737,0.0505 0.1166,0.0627c0.0429,0.0122 0.088,0.0151 0.1322,0.0083c0.0441,-0.0069 0.0862,-0.0231 0.1235,-0.0477c0.0372,-0.0247 0.0687,-0.057 0.0923,-0.095c0.0755,-0.155 0.1004,-0.3299 0.071,-0.4998c0,-0.1024 -0.1427,-2.0736 -0.1427,-2.144c0.3047,0.0052 0.608,-0.0431 0.896,-0.1427c0.7755,-0.1483 1.4794,-0.5507 2.0007,-1.1437c1.0566,-1.2749 1.5059,-2.5222 1.216,-4.752c0.192,0 0.0083,0.0454 1.2864,-0.4998c0.1772,-0.0756 0.4646,-0.1434 0.5004,-0.3936c0.0717,-0.2496 -0.0716,-0.4282 -0.1785,-0.64c-0.1786,-0.3578 -0.393,-0.7149 -0.5363,-1.072c-0.0359,-0.0717 -0.0359,-0.1076 -0.0711,-0.1786c0.0352,-0.0358 0.1069,-0.0717 0.1427,-0.1075c0.1208,-0.206 0.2277,-0.4198 0.32,-0.64c0.2713,-0.4233 0.4538,-0.8973 0.5364,-1.3933c0.018,-0.2143 -0.0307,-0.4289 -0.1394,-0.6144c-0.1087,-0.1855 -0.2722,-0.3328 -0.468,-0.4218c-1.4564,-1.0082 -3.0432,-1.8137 -4.7168,-2.3942c-1.6141,-0.5171 -2.3565,-0.7341 -2.8941,-0.4288c-0.8006,0.4557 -0.7993,1.4138 -1.143,1.9296c-0.299,-0.3066 -0.6627,-0.5428 -1.0644,-0.6911c-0.4018,-0.1484 -0.8316,-0.2052 -1.2582,-0.1665c-1.0361,0.1421 -1.4963,1.2525 -1.8937,2.0723c-0.919,2.0566 -1.6717,4.1835 -2.2509,6.3603c-0.2144,0.7143 0.3929,0.896 0.9286,1.072c0.6277,0.2394 1.2728,0.4305 1.9296,0.5716v0.4288c0.192,1.1462 1.3927,1.934 2.8941,1.4649c0,0.6176 0.3782,4.1139 0.384,4.1811c-0.0243,0.0077 -1.3498,0.2848 -1.3498,0.2848c-0.0203,-0.0761 -0.0562,-0.1471 -0.1054,-0.2086c-0.0493,-0.0615 -0.1108,-0.1121 -0.1806,-0.1485c-0.2368,-0.0359 -0.4776,-0.0359 -0.7143,0c-2.0723,-0.2144 -4.1779,0.1607 -6.2528,0.4647c-2.036,0.234 -3.9916,0.9306 -5.7171,2.0364c-13.2448,7.8445 -11.48288,21.746 -0.6803,25.2903c1.268,0.4197 2.5945,0.6357 3.9302,0.64c0.768,0 0.8704,0.0742 1.1437,-0.3578c0.2187,-0.3609 0.3983,-0.744 0.5357,-1.143c2.1497,0.7161 1.9264,0.6041 2.0013,0.679c-0.4935,2.8595 -0.8416,3.2845 -0.5716,3.6442c0.5754,0.1198 1.1632,0.1692 1.7504,0.1472zM32.6847,28.0078c0.7181,0.384 1.3984,0.8134 2.0723,1.2506c0.2294,0.1163 0.4259,0.2884 0.5715,0.5004c0.0711,0.1786 0,0.393 -0.2144,0.393c-0.5004,-0.0358 -1.102,-0.6515 -1.5008,-0.9293c-0.6483,-0.4646 -1.3288,-0.8825 -2.0364,-1.2505c-0.4288,-0.2144 -0.9293,-0.464 -1.3581,-0.1428c-0.1427,0.0717 -0.2855,-0.1068 -0.1786,-0.2144c0.7859,-0.679 1.8976,-0.0076 2.6445,0.393zM25.4668,31.3665c-0.2682,0.2682 -0.4109,1.1437 -0.64,1.1437c-0.0425,-0.0053 -0.0812,-0.027 -0.1079,-0.0605c-0.0267,-0.0335 -0.0392,-0.0761 -0.0348,-0.1187c0.0134,-0.4697 0.2049,-0.9167 0.5356,-1.2506c0.0329,-0.0203 0.071,-0.0302 0.1096,-0.0285c0.0386,0.0017 0.0757,0.015 0.1066,0.0382c0.0309,0.0231 0.0541,0.055 0.0665,0.0916c0.0125,0.0365 0.0137,0.0759 0.0034,0.1131c-0.039,0.0007 -0.039,0.0359 -0.039,0.0717zM24.7525,29.8657c0.4672,0.1562 -0.5395,1.1917 -0.8576,1.9655c-0.0716,0.1427 -0.32,0.0358 -0.286,-0.1076c0.1318,-0.651 0.4131,-1.2625 0.8217,-1.7862c0.0385,-0.0454 0.0908,-0.0769 0.1489,-0.0899c0.0582,-0.0129 0.1189,-0.0065 0.173,0.0182zM23.8949,28.5793c0.0476,-0.0394 0.107,-0.0617 0.1687,-0.0633c0.0617,-0.0016 0.1222,0.0176 0.1717,0.0545c0.0495,0.0369 0.0852,0.0895 0.1012,0.1491c0.016,0.0596 0.0115,0.1229 -0.0128,0.1797c-0.145,0.2511 -0.3256,0.4798 -0.5363,0.6791c-0.5681,0.788 -0.9582,1.6901 -1.143,2.6438c-0.0075,0.0257 -0.0242,0.0478 -0.0469,0.0621c-0.0227,0.0143 -0.0498,0.0197 -0.0763,0.0153c-0.0264,-0.0044 -0.0503,-0.0184 -0.0671,-0.0393c-0.0168,-0.0208 -0.0254,-0.0472 -0.0241,-0.0739c0.0655,-0.6498 0.2217,-1.2873 0.464,-1.8938c0.3513,-0.6118 0.4422,-1.2474 1.0009,-1.7133zM17.6421,63.9169c-0.0163,-0.0696 -0.0517,-0.1332 -0.1023,-0.1838c-0.0505,-0.0505 -0.1142,-0.0859 -0.1837,-0.1023c-1.536,-0.3884 -3.2871,-1.0361 -4.1447,-2.4652c-1.7088,-2.848 2.176,-5.8592 5.3235,-6.2528c0,0.0358 0,0.0358 0.0359,0.0716v0.0359c0.6335,1.7145 1.0423,3.5039 1.216,5.3235c0.1031,1.1407 0.1151,2.2878 0.0358,3.4304c0.0069,0.102 0.0505,0.1979 0.1228,0.2702c0.0722,0.0723 0.1682,0.1159 0.2702,0.1228c1.0353,0.0671 2.063,0.2224 3.072,0.464c0.7698,0.1054 1.4974,0.4147 2.1075,0.896c0.0574,0.0425 0.1059,0.0959 0.1427,0.1572c0.0368,0.0613 0.0612,0.1292 0.0717,0.1999c0.0717,0.2861 -0.1478,0.4979 -0.2496,0.7149c-0.3008,0.6368 -0.0358,1.358 -0.0358,2.0006c0,0.679 -0.1415,1.753 -0.7149,2.2157c-0.5344,0.4307 -1.3216,0.32 -1.929,0.2502c-0.3936,-0.0717 -5.0739,-1.2505 -5.0739,-1.2864c0.5618,-1.912 0.5742,-3.9436 0.0358,-5.8624zM30.7551,63.6308c2.0582,0.9146 3.2275,1.0496 3.968,1.465c0.024,0.0127 0.0427,0.0335 0.0528,0.0587c0.0101,0.0252 0.0109,0.0532 0.0023,0.0789c-0.0086,0.0258 -0.0261,0.0476 -0.0493,0.0617c-0.0232,0.014 -0.0507,0.0194 -0.0775,0.0151c-0.7056,-0.0543 -1.3955,-0.2358 -2.0365,-0.5357c-0.6764,-0.256 -1.358,-0.5363 -2.0364,-0.8576c-0.1799,-0.1094 -0.002,-0.3929 0.1766,-0.2861zM37.7221,63.8811c-0.253,-0.0303 -0.5036,-0.078 -0.75,-0.1427c-0.704,-0.1839 -1.3961,-0.4107 -2.0724,-0.6791c-2.7396,-1.0521 -5.2869,-2.5491 -7.5392,-4.4307c-0.1408,-0.1101 0.0365,-0.2867 0.1786,-0.1786c5.3517,4.0602 9.5322,4.7213 10.2547,5.184c0.1427,0.0327 0.1069,0.2471 -0.0717,0.2471z" fill="#213555"></path><path d="M97.2511,28.2943c-2.6086,-1.4291 -5.575,0.0858 -8.3609,-0.0716c-2.8954,-0.1632 -5.1443,-2.3328 -8.0038,-2.6439c-0.6685,-0.1118 -1.3535,-0.0701 -2.0035,0.1218c-0.65,0.1919 -1.2478,0.5291 -1.7482,0.9861c-0.1063,0.1081 0.0358,0.2496 0.1785,0.1785c0.4968,-0.3807 1.0707,-0.6484 1.6817,-0.7842c0.611,-0.1359 1.2443,-0.1367 1.8556,-0.0023c1.2905,0.2753 2.5315,0.7453 3.6806,1.3939c3.456,1.728 4.2164,1.6729 8.0749,1.143c1.5021,-0.2061 3.072,-0.3929 4.5018,0.1786c0.2144,0.0358 0.3929,-0.393 0.1433,-0.4999z" fill="#213555"></path><path d="M63.7359,45.1598c2.697,-1.3163 5.7733,-1.6337 8.6822,-0.896c2.0237,0.512 3.9136,1.808 5.8957,2.144c5.0874,0.8627 10.1498,-3.1942 15.2563,0.0358c0.0621,0.0337 0.1341,0.0441 0.2032,0.0295c0.0691,-0.0146 0.1307,-0.0534 0.1737,-0.1093c0.0431,-0.056 0.0648,-0.1254 0.0613,-0.1959c-0.0035,-0.0706 -0.032,-0.1375 -0.0804,-0.1889c-1.3894,-1.2518 -3.4656,-1.5309 -5.2525,-1.465c-3.3171,0.1223 -6.464,1.5501 -9.5398,1.3575c-2.4736,-0.1543 -3.7453,-1.3037 -6.1818,-2.0007c-3.1747,-0.838 -6.5498,-0.4287 -9.4323,1.1437c-0.1075,0.0026 0.0352,0.217 0.2144,0.1453z" fill="#213555"></path><path d="M48.9435,53.2339c-0.1427,-0.0365 -0.2137,0.1785 -0.1068,0.2144c5.5744,2.4109 12.9452,-2.112 17.472,-1.2506c1.4662,0.2797 2.752,1.072 4.1088,1.6794c5.1993,2.3257 7.744,1.4381 13.2921,0.1427c2.1763,-0.6092 4.4659,-0.6947 6.6816,-0.2496c0.7173,0.2016 1.4118,0.477 2.0724,0.8218c0.215,0.1049 0.5004,-0.1799 0.2854,-0.3578c-1.943,-1.6077 -5.081,-1.536 -7.5744,-1.143c-4.8711,0.7718 -7.9239,2.7846 -13.3991,0.679c-1.3932,-0.5363 -2.6784,-1.255 -4.0736,-1.7869c-5.5238,-2.1062 -11.088,3.2103 -18.7584,1.2506z" fill="#213555"></path><path d="M92.6784,36.8002c0.7285,0.2078 1.4442,0.4583 2.1433,0.7501c0.3578,0.1075 0.505,-0.3622 0.2503,-0.5715c-0.5621,-0.3794 -1.1924,-0.6463 -1.856,-0.7859c-6.976,-1.9936 -13.6378,2.304 -17.186,-0.6432c-0.176,-0.1459 -0.4288,0.1075 -0.2502,0.2502c3.5174,3.5149 10.4934,-0.7609 16.8986,1.0003z" fill="#213555"></path><path d="M101.145,19.3621c-3.674,-1.6 -7.8718,0.4256 -11.7905,-0.64c-2.3085,-0.6298 -4.064,-2.1716 -6.3961,-2.8583c-4.8679,-1.4342 -9.3159,2.1709 -14.4346,1.6435c-3.8496,-0.3974 -6.0045,-2.816 -10.0762,-2.144c-1.6691,0.2765 -3.2213,1.0338 -4.4665,2.1792c-0.1427,0.1076 0.0717,0.2861 0.1785,0.1792c1.1988,-0.9595 2.6276,-1.589 4.1447,-1.8259c5.184,-0.8441 7.2845,3.5392 14.3635,1.9655c3.4618,-0.768 6.4134,-2.1568 9.3613,-1.6077c2.88,0.5363 5.1987,2.912 8.5037,3.287c3.4656,0.3936 7.1315,-0.9779 10.4322,0.4647c0.397,0.1728 0.576,-0.4711 0.18,-0.6432z" fill="#213555"></path><path d="M52.4782,23.8992c1.4405,1.0701 3.2106,1.6012 5.0023,1.5008c1.5161,-0.0588 3.0233,-0.5177 4.1798,-0.4288c0.4926,0.0385 0.982,0.1102 1.465,0.2144c0.286,0.0384 0.5004,-0.3577 0.2144,-0.5004c-1.3568,-0.7757 -3.6653,-0.064 -5.4311,0.1785c-0.8944,0.1177 -1.8028,0.0693 -2.6797,-0.1427c-0.8832,-0.2628 -1.7434,-0.5974 -2.5721,-1.0003c-0.1427,-0.1434 -0.3213,0.0358 -0.1786,0.1785z" fill="#213555"></path><path d="M51.0525,32.6168c0.9579,-0.1408 1.9261,-0.2005 2.894,-0.1785c0.3211,0.0597 0.6514,0.0475 0.9671,-0.0359c0.0276,-0.0197 0.0508,-0.0451 0.0678,-0.0745c0.017,-0.0294 0.0276,-0.0621 0.031,-0.0959c0.0034,-0.0338 -0.0005,-0.068 -0.0113,-0.1002c-0.0109,-0.0322 -0.0285,-0.0617 -0.0517,-0.0865c-0.2978,-0.1511 -0.6329,-0.2131 -0.9651,-0.1786c-1.026,-0.017 -2.049,0.1153 -3.0368,0.393c-0.0255,0.005 -0.0496,0.0153 -0.0709,0.0302c-0.0213,0.0149 -0.0392,0.0341 -0.0527,0.0563c-0.0134,0.0222 -0.0221,0.0469 -0.0255,0.0727c-0.0033,0.0257 -0.0013,0.0519 0.0061,0.0768c0.0073,0.0249 0.0197,0.048 0.0365,0.0679c0.0167,0.0198 0.0374,0.036 0.0608,0.0474c0.0233,0.0114 0.0487,0.0178 0.0747,0.0188c0.0259,0.001 0.0518,-0.0034 0.076,-0.013z" fill="#213555"></path><path d="M31.0078,36.2238c0.0455,0.4538 1.0765,-0.048 1.216,-0.3929c0.071,-0.1786 0.0378,-0.4954 -0.2502,-0.393c-0.1842,0.0917 -0.3436,0.2265 -0.4647,0.393c-0.1081,0.1094 -0.5011,0.2169 -0.5011,0.3929z" fill="#213555"></path><path d="M70.4158,28.223c0.2182,-0.2074 0.3789,-0.4678 0.4667,-0.7558c0.0877,-0.288 0.0993,-0.5938 0.0338,-0.8877c-0.0062,-0.0286 -0.022,-0.0542 -0.0447,-0.0726c-0.0228,-0.0184 -0.0512,-0.0284 -0.0804,-0.0284c-0.0293,0 -0.0577,0.01 -0.0804,0.0284c-0.0228,0.0184 -0.0386,0.044 -0.0448,0.0726c-0.185,0.6716 -0.6201,1.2468 -1.216,1.6077c-0.215,0.1414 -1.7152,0.7507 -1.3222,1.1437c0.3834,0.5075 1.8554,-0.6061 2.288,-1.1079z" fill="#213555"></path><path d="M68.0238,30.8671c2.5095,0.2086 3.8727,-0.9543 3.968,-1.6084c0.0075,-0.0367 0.0044,-0.0747 -0.0089,-0.1097c-0.0133,-0.035 -0.0363,-0.0655 -0.0662,-0.088c-0.03,-0.0225 -0.0657,-0.036 -0.1031,-0.0389c-0.0373,-0.0029 -0.0747,0.0048 -0.1078,0.0222c-0.32,0.1786 -0.5344,0.4666 -0.8576,0.6791c-0.8499,0.5182 -1.827,0.7903 -2.8224,0.7859c-0.2164,0.0039 -0.2164,0.3219 -0.002,0.3578z" fill="#213555"></path><path d="M68.3456,32.0467c0.6611,0.4403 2.3219,0.1075 3.072,-0.1427c0.1848,-0.0395 0.3596,-0.1167 0.5132,-0.2268c0.1536,-0.1102 0.2829,-0.2508 0.3796,-0.4132c0.018,-0.0313 0.0259,-0.0675 0.0226,-0.1035c-0.0033,-0.036 -0.0178,-0.0701 -0.0413,-0.0975c-0.0235,-0.0275 -0.055,-0.0469 -0.09,-0.0558c-0.0351,-0.0088 -0.072,-0.0065 -0.1057,0.0065c-0.7233,0.3484 -1.4937,0.589 -2.2867,0.7143c-0.4099,0.1075 -0.8407,0.1075 -1.2506,0c-0.2483,-0.1114 -0.4275,0.176 -0.2131,0.3187z" fill="#213555"></path><path d="M31.0388,38.4769c0.0736,-0.1779 -0.071,-0.393 -0.2854,-0.2861c-0.073,0.0442 -0.6272,0.4781 -1.1079,0.2861c-0.2221,-0.0854 -0.4059,-0.2482 -0.5175,-0.4583c-0.1116,-0.2102 -0.1435,-0.4536 -0.0898,-0.6854c0.8584,0.3581 1.7905,0.5043 2.7174,0.4262c0.0717,0 0.0717,-0.1427 0,-0.1427c-0.5357,-0.1427 -1.072,-0.2502 -1.5718,-0.4288c-0.2503,-0.0717 -0.5364,-0.1785 -0.7866,-0.2502c-0.8576,-0.3674 -1.0029,0.6029 -0.6432,1.3581c0.4493,0.9446 1.9885,0.9017 2.2848,0.1811z" fill="#213555"></path><path d="M69.3128,33.5815c1.1603,0.4352 2.6009,-0.1638 2.8224,-0.6073c0.0091,-0.0236 0.0125,-0.049 0.0098,-0.0741c-0.0028,-0.0251 -0.0115,-0.0492 -0.0255,-0.0702c-0.014,-0.021 -0.0328,-0.0384 -0.055,-0.0506c-0.0221,-0.0122 -0.0468,-0.0189 -0.072,-0.0195c-0.361,0.0601 -1.2352,0.8262 -2.6087,0.5363c-0.0372,-0.0077 -0.0759,-0.0006 -0.108,0.0196c-0.0322,0.0203 -0.0552,0.0522 -0.0644,0.089c-0.0092,0.0369 -0.0038,0.0759 0.0151,0.1088c0.0189,0.033 0.0498,0.0573 0.0863,0.068z" fill="#213555"></path></g></g></svg>