<svg version="1.1" xmlns="http://www.w3.org/2000/svg" xmlns:xlink="http://www.w3.org/1999/xlink" width="128" height="128" viewBox="0,0,256,256"><g fill="none" fill-rule="nonzero" stroke="none" stroke-width="1" stroke-linecap="butt" stroke-linejoin="miter" stroke-miterlimit="10" stroke-dasharray="" stroke-dashoffset="0" font-family="none" font-weight="none" font-size="none" text-anchor="none" style="mix-blend-mode: normal"><g transform="translate(-0.0208,-0.02238) scale(2,2)"><path d="M125.047,58.9637c-21.014,-18.4781 -20.664,-18.4307 -20.951,-18.5619c-0.532,-0.256 -1.207,-0.1184 -1.602,0.3174c-3.1797,3.4464 -6.1999,6.6272 -9.2879,10.0128c-0.3251,1.0528 -0.656,2.1152 -0.9952,3.1904l11.3041,-12.2118l20.547,18.3059c0,0 -22.376,25.5211 -23.388,26.6802c-0.299,0.343 -0.8253,0.3596 -1.1466,0.0428c-0.2925,-0.2886 -0.6848,-0.6867 -1.184,-1.1942c-0.5888,-0.5984 -2.871,-2.656 -5.6064,-5.0918l-0.2464,1.703c5.0151,4.4365 5.8944,5.1379 6.6208,5.577c0.6682,0.4038 1.3526,0.2003 1.4676,-0.0653c0.587,-0.3725 1.993,-1.8131 2.824,-2.6464c9.022,-9.0624 11.744,-11.9181 21.829,-24.1624c0.461,-0.5587 0.349,-1.4259 -0.186,-1.895z" fill="#213555"></path><path d="M118.755,60.6441c-1.413,-1.3619 -3.753,-3.5148 -6.56,-6.1446c-1.574,-1.5475 -9.174,-7.849 -9.243,-7.8874c-0.454,-0.2732 -1.081,-0.1792 -1.44,0.233l-9.9365,11.1795c-0.3968,0.4307 -0.3885,1.1123 0.0019,1.5309c3.7063,4.0147 8.2144,8.4088 12.7656,11.6223c0.733,0.5177 2.395,1.6505 3.19,2.0493c0.426,0.2681 0.67,-0.0231 1.035,-0.3284c3.102,-2.5977 10.208,-10.5592 10.371,-10.8344c0.237,-0.3827 0.244,-1.0074 -0.183,-1.4195zM117.55,61.4941c-0.057,0.0646 -6.483,7.3681 -8.578,10.1528c1.581,-3.4663 2.125,-7.7266 1.766,-8.8408c-0.405,-1.2589 -8.754,1.2555 -8.754,1.2555c0,0 0.608,-5.8194 -0.182,-6.7467c-0.608,-0.7143 -6.0377,0.3705 -8.5055,0.9081l9.1065,-10.2221c8.791,7.3978 5.475,4.4301 15.146,13.4932z" fill="#213555"></path><path d="M107.462,55.1588c-0.792,-0.706 -2.007,-0.6362 -2.713,0.1568c-0.706,0.7923 -0.637,2.0076 0.156,2.7136c0.793,0.7059 2.008,0.6361 2.714,-0.1568c0.706,-0.793 0.636,-2.0077 -0.157,-2.7136z" fill="#213555"></path><path d="M97.4605,33.8388c-26.7763,-8.1287 -26.4377,-8.2304 -26.7539,-8.2311c-0.5901,-0.0134 -1.1469,0.3917 -1.3267,0.9511c-2.6618,8.0646 -5.2032,15.12 -7.7119,24.2688c0.1299,1.0278 0.2585,2.0704 0.3865,3.1302c1.0931,-3.3913 2.1491,-6.8486 3.1603,-10.3232l5.5046,-16.5952l26.2797,8.1645l-7.929,26.2598h1.337c3.0637,-8.3648 4.5293,-13.0323 8.0064,-25.9769c0.1875,-0.6989 -0.2733,-1.4419 -0.9536,-1.6487z" fill="#213555"></path><path d="M87.8073,45.7601c-0.1152,-0.3545 -0.3885,-0.4051 -0.6598,-0.4934l-6.0301,-1.8618c-0.2547,-1.0617 -1.1942,-5.0368 -1.6774,-6.1248c-0.0698,-0.16 -0.1735,-0.3865 -0.3373,-0.327c-0.0339,0.016 -0.8371,-0.0007 -1.6646,0.3456c-4.0877,1.7107 -5.4029,6.7475 -3.1738,10.3949c2.7789,4.6432 9.7069,5.031 12.8653,-0.0532c0.1075,-0.1728 0.3948,-0.7379 0.4704,-0.942c0.2156,-0.5812 0.2912,-0.6829 0.208,-0.9376zM84.9452,48.6408c-1.2332,1.1072 -3.0163,1.7811 -4.9619,1.5833c-5.7337,-0.5843 -8,-7.9123 -3.0336,-11.8125c0.4749,-0.3782 1.4682,-1.0086 2.0717,-1.0764c0.2861,2.4454 1.0989,6.4134 1.1546,6.5651c0.078,0.2125 0.254,0.3846 0.4768,0.4531l6.0012,1.8656c-0.3564,0.9299 -1.0188,1.8298 -1.7088,2.4218z" fill="#213555"></path><path d="M83.5569,32.9942c-0.3354,-0.057 -1.4746,-0.7635 -3.6724,-0.336c-0.1676,0.0326 -0.2963,0.1882 -0.2227,0.4525l1.4669,6.5766c0.0282,0.0551 0.0608,0.073 0.0915,0.1114c0.0659,0.087 0.0979,0.0345 0.2599,-0.0743c2.2752,-6.3833 2.0083,-5.6224 2.2457,-6.4185c0.0691,-0.1466 -0.0422,-0.3085 -0.1689,-0.3117z" fill="#213555"></path><path d="M87.9673,43.6335c-0.0525,-3.0656 -2.0224,-5.5572 -4.343,-6.2567c-0.2228,-0.0832 -0.3047,-0.0621 -2.6701,6.3975c-0.0454,0.1248 0.0051,0.2675 0.1126,0.336c0.064,0.0486 0.361,0.0224 6.2439,1.9513c0.1939,0.0634 0.3782,-0.1081 0.3827,-0.2867c0.1715,-0.6982 0.288,-1.2813 0.2739,-2.1414z" fill="#213555"></path><path d="M85.3937,57.0286c-0.1958,-0.4761 -2.6541,-1.3081 -3.1405,-1.4597c-9.6972,-3.008 -13.8003,-4.3604 -14.7404,-4.2414c-0.1543,0.0199 -0.2624,0.0947 -0.2106,0.2202c0.1952,0.4755 2.6451,1.3056 3.1405,1.4598c10.4115,3.2365 13.84,4.3585 14.7405,4.2414c0.1542,-0.0199 0.2623,-0.0948 0.2105,-0.2203z" fill="#213555"></path><path d="M84.4691,59.8664c-0.1952,-0.4755 -2.6458,-1.3062 -3.1405,-1.4598c-10.5677,-3.2858 -15.3024,-4.8775 -14.9511,-4.0218c0.1952,0.4749 2.6413,1.3044 3.1405,1.4593c9.6205,2.9907 15.3223,4.9241 14.9517,4.0217z" fill="#213555"></path><path d="M77.1237,60.6295c-0.0787,-0.4218 -1.5494,-0.9652 -1.959,-1.0925c-7.1232,-2.2176 -8.8787,-2.7955 -9.4624,-2.6016c-0.2202,0.0729 -0.2758,0.3264 0.1645,0.5977c1.0195,0.6259 1.2787,0.6144 8.3238,2.809c0.6362,0.1984 3.0554,0.9395 2.9331,0.2874z" fill="#213555"></path><path d="M34.7056,77.5538c-4.1868,3.049 -7.9948,5.8458 -8.1657,5.9866c-0.8365,0.6867 -0.9901,0.9919 -1.5187,0.9286c-0.2458,-0.0295 -0.4679,-0.1606 -0.6119,-0.3616c-0.5478,-0.7616 -1.3485,-1.7427 -1.8035,-2.4058c-2.7616,-4.0211 -5.696,-8.0857 -8.7072,-12.103l-9.96223,-14.368l22.31163,-16.1082l4.978,6.7808c-0.137,-1.1104 -0.2631,-2.1766 -0.3828,-3.2185c-1.0592,-1.3715 -2.2227,-2.8666 -3.5193,-4.5229c-0.4461,-0.5696 -1.3171,-0.6477 -1.8906,-0.2278c-22.58173,16.526 -22.46013,16.1945 -22.65085,16.4467c-0.3648,0.464 -0.37568,1.152 -0.03584,1.632c6.16063,8.8569 11.13539,16.5798 19.90269,27.1334c0.6471,0.7789 1.5699,1.8867 1.8739,2.1062c0.2272,0.3853 0.8263,0.4397 1.1949,0.2016c1.2659,-0.6649 2.5011,-1.4457 3.6845,-2.3001l5.5514,-4.0096z" fill="#213555"></path><path d="M15.6814,58.2869c0.1844,0.0263 0.3956,-0.3008 0.2106,-0.6291c-0.6835,-1.4918 -1.504,-2.4813 -2.183,-3.4451c-0.2298,-0.3258 -0.7482,-0.4787 -1.1552,-0.1856c-0.0647,0.0461 -3.31844,2.3942 -3.40996,2.4832c-0.2784,0.2707 -0.32768,0.7373 -0.08704,1.0637c0.49216,0.6688 2.3629,3.2473 2.3629,3.2473c0.2656,0.3783 0.6534,0.4551 0.9645,0.3431c0.1299,-0.0467 0.2528,-0.144 0.3699,-0.2285c0.0633,-0.0461 1.6256,-1.2032 1.696,-1.2627c0.2611,-0.2195 0.9977,-0.8787 1.1469,-1.1501c0.0723,-0.1318 0.0748,-0.2618 -0.0538,-0.2976c-0.327,-0.0922 -1.5002,0.5139 -3.3766,1.8675l-2.128,-2.9478l2.9478,-2.128c0.7424,1.0054 1.6378,2.2758 2.4544,2.9958c0.0186,-0.0102 0.0525,-0.0019 0.08,0.0397c0.0563,0.0576 0.0198,0.2144 0.1606,0.2342z" fill="#213555"></path><path d="M21.4788,65.766c0.1568,-0.56 -1.9213,-3.6034 -2.2528,-3.7903c-0.247,-0.1395 -0.6048,-0.1741 -0.9049,0.0416c-0.4756,0.3418 -3.1629,2.2946 -3.3799,2.4533c-0.3059,0.265 -0.3686,0.7539 -0.1184,1.0944c2.5895,3.5226 2.4615,3.5379 2.8992,3.6256c0.4333,0.0864 0.6874,-0.1939 0.8467,-0.2957c1.6596,-1.2141 2.1504,-1.5257 2.9984,-2.423c0.1511,-0.1408 0.1984,-0.361 0.1383,-0.5024c-0.1011,-0.2387 -0.2663,-0.1869 -0.3008,-0.0768c-0.0365,0.0736 -0.089,0.135 -0.1395,0.1421c-0.0314,0.0102 -0.0256,-0.016 -0.0711,0c-1.2736,0.5843 -2.1433,1.2416 -3.2601,2.048l-2.128,-2.9479l2.9478,-2.1282c0.4333,0.5837 2.5254,3.4703 2.7251,2.758z" fill="#213555"></path><path d="M27.2484,73.758c0.1574,-0.56 -1.9239,-3.6045 -2.2528,-3.7901c-0.2471,-0.1395 -0.6048,-0.1741 -0.905,0.0416c-0.4755,0.3417 -3.1629,2.2944 -3.3798,2.4531c-0.306,0.265 -0.3687,0.7539 -0.1184,1.0944c2.5894,3.5226 2.4614,3.5379 2.8992,3.6256c0.4339,0.0864 0.6873,-0.1939 0.8467,-0.2957c1.6307,-1.1929 2.1581,-1.5347 2.9984,-2.423c0.151,-0.1408 0.1984,-0.361 0.1382,-0.5024c-0.1011,-0.2387 -0.2662,-0.1869 -0.3008,-0.0768c-0.0365,0.0736 -0.0889,0.135 -0.1395,0.1421c-0.0314,0.0102 -0.0256,-0.016 -0.071,0c-1.2736,0.5843 -2.1434,1.2416 -3.2602,2.048l-2.128,-2.9479l2.9478,-2.128c0.4448,0.5984 2.5268,3.4656 2.7252,2.7578z" fill="#213555"></path><path d="M14.4339,51.922c-0.3719,0.0525 -0.6471,0.9331 -0.7156,1.2992c-0.0019,0.009 -0.784,4.2816 -0.7929,4.2803c-0.1184,0.016 -0.3226,-0.1171 -0.8634,0.0077c-0.311,0.0723 -0.3565,0.4013 -0.0461,0.6131c0.4455,0.3034 0.7892,0.3802 1.0746,0.4532c0.2502,0.064 0.5005,-0.032 0.6547,-0.2215c0.1523,-0.1869 0.089,-0.0493 0.9293,-4.5011c0.1094,-0.5786 0.3443,-2.0141 -0.2413,-1.9315z" fill="#213555"></path><path d="M20.0353,59.6837c-0.3718,0.0525 -0.647,0.9332 -0.7155,1.2992c-0.0019,0.009 -0.784,4.2815 -0.793,4.2802c-0.1292,0.0173 -0.3059,-0.121 -0.8633,0.0077c-0.311,0.0723 -0.3565,0.4012 -0.0454,0.6131c0.446,0.304 0.7935,0.3814 1.0745,0.4531c0.2509,0.0646 0.5005,-0.0326 0.6547,-0.2214c0.1524,-0.1869 0.0896,-0.0487 0.9293,-4.501c0.1094,-0.5792 0.3443,-2.0134 -0.2413,-1.9309z" fill="#213555"></path><path d="M25.8752,67.7717c-0.3719,0.0525 -0.6464,0.9306 -0.7156,1.2992c-0.0019,0.009 -0.784,4.2816 -0.7929,4.2803l-0.0141,0.0019c-0.2189,-0.0384 -0.4506,-0.0857 -0.8493,0.0058c-0.3085,0.071 -0.3584,0.4 -0.0461,0.6131c0.4461,0.304 0.7911,0.3808 1.0746,0.4531c0.249,0.064 0.4986,-0.0301 0.6547,-0.2214c0.1562,-0.1914 0.0896,-0.0493 0.9293,-4.5011c0.1094,-0.5792 0.3443,-2.0148 -0.2413,-1.9316z" fill="#213555"></path><path d="M26.9896,46.428c-0.4103,-0.1792 -1.9008,0.8019 -2.2631,1.0643c-8.0358,5.7958 -7.9443,5.7939 -8.27,6.1325c-0.2349,0.2438 -0.6759,0.7001 -0.3648,0.8358c0.1484,0.0646 0.3769,-0.0096 0.528,-0.0742c1.1558,-0.4909 1.1398,-0.5754 8.0979,-5.584c0.5677,-0.4084 2.9094,-2.098 2.272,-2.3744z" fill="#213555"></path><path d="M28.3804,48.3772c-0.4103,-0.1792 -1.9002,0.8019 -2.2631,1.0643c-7.7958,5.6224 -7.9232,5.7722 -8.27,6.1325c-0.2362,0.2445 -0.6759,0.7001 -0.3648,0.8358c0.1484,0.0653 0.3769,-0.0096 0.528,-0.0742c1.1558,-0.4909 1.1475,-0.5645 8.0979,-5.5834c0.5728,-0.4134 2.9101,-2.0966 2.272,-2.375z" fill="#213555"></path><path d="M32.5483,54.1448c-0.4103,-0.1792 -1.9008,0.8019 -2.2631,1.0643c-8.0345,5.7958 -7.9443,5.7939 -8.2701,6.1325c-0.2355,0.2438 -0.6758,0.7001 -0.3648,0.8358c0.1485,0.0653 0.377,-0.0096 0.528,-0.0742c1.1559,-0.4909 1.1482,-0.5639 8.098,-5.5834c0.5625,-0.4064 2.9139,-2.0954 2.272,-2.375z" fill="#213555"></path><path d="M28.4087,59.9994c-0.2867,-0.2214 -0.9792,0.137 -1.2665,0.345c-0.1434,0.1037 -3.7453,2.7142 -3.9322,2.9152c-0.1229,0.1318 -0.3251,0.4089 -0.3309,0.5606c-0.0076,0.1916 0.176,0.3696 0.457,0.3139c0.7206,-0.1449 0.8896,-0.3798 4.1114,-2.7056c0.462,-0.3334 1.4131,-1.0809 0.9619,-1.4284z" fill="#213555"></path><path d="M34.0347,64.8691c-6.0294,4.3648 -5.8483,4.2855 -6.1523,4.601c-0.2361,0.2445 -0.6758,0.7002 -0.3648,0.8358c0.1485,0.0647 0.377,-0.0096 0.528,-0.0742c1.12,-0.4755 1.5322,-0.8243 6.1856,-4.1997z" fill="#213555"></path><path d="M34.2892,68.0153c0.1671,-0.2439 0.3616,-0.4685 0.5792,-0.6688c-0.1267,-0.9242 -0.3648,-2.1389 -0.4524,-2.9248c-0.5434,-4.8482 -1.2199,-9.8153 -1.9853,-14.7772l-2.0269,-17.3657l27.2678,-3.7095l4.7437,32.8954h0.8986l-0.0755,-0.9415c-1.0196,-12.7468 -1.4189,-16.672 -4.1652,-32.2956c-0.1254,-0.713 -0.8569,-1.1917 -1.5609,-1.0912c-27.7024,3.9526 -27.4387,3.7171 -27.7255,3.8502c-0.5401,0.2374 -0.8742,0.8397 -0.8,1.4227c1.2666,10.7143 2.0199,19.8701 4.7872,33.3084c0.1524,0.7392 0.3533,1.7113 0.5146,2.2982z" fill="#213555"></path><path d="M41.3643,33.6456c-0.0634,-0.185 -0.2471,-0.3392 -0.4423,-0.3686c-0.1075,-0.0231 -0.2393,0.0019 -0.3641,0.0153c-0.1018,0.0128 -6.7392,0.9453 -6.8858,0.9703c-0.2112,0.0358 -0.5459,0.0499 -0.6752,0.1529c-0.3834,0.2515 -0.2656,0.5939 -0.1786,0.992c0.0551,0.1568 0.1031,0.3066 0.2183,0.5287c0.1811,0.35 0.4973,0.3008 0.5862,-0.2004c0.0333,-0.1894 0.0391,-0.5305 0.0819,-0.4736c0.0205,-0.0121 0.041,-0.0096 0.0576,0.0026c0.0404,0.0275 0.0192,0.0141 2.8122,-0.3661c0.0768,0.8781 0.8179,6.0826 0.9984,6.6643c0.4211,1.3543 1.0925,0.6432 0.8934,-0.8192c-0.0249,-0.1856 -0.6521,-4.7846 -0.8544,-5.9859c1.0887,-0.1478 2.8647,-0.4032 2.8647,-0.4032l0.0211,-0.0192c0.0205,-0.0121 0.0525,0.0064 0.0717,0.0199c0.0281,0.0806 0.1869,0.5529 0.3264,0.6803c0.1613,0.1465 0.4115,0.0793 0.4781,-0.3546c0.0428,-0.2784 0.0774,-0.7808 -0.0096,-1.0355z" fill="#213555"></path><path d="M52.8306,31.8375l-7.1919,0.9784c-1.1327,0.1541 -1.926,1.1972 -1.7719,2.3298l0.5687,4.1804c0.1541,1.1327 1.1972,1.926 2.3299,1.7719l7.192,-0.9784c1.1326,-0.1541 1.9259,-1.1972 1.7719,-2.3299l-0.5687,-4.1804c-0.1542,-1.1326 -1.1973,-1.9259 -2.33,-1.7718z" fill="#e5d283"></path><path d="M56.6408,44.7624c-0.4256,-0.3437 -3.4016,-0.0038 -3.9436,0.0698c-12.0967,1.6486 -18.1895,2.3469 -17.417,2.9702c0.4269,0.345 3.4003,0.0039 3.9437,-0.0697c11.3619,-1.5482 18.2182,-2.3239 17.4169,-2.9703z" fill="#e5d283"></path><path d="M57.0644,47.8838c-0.4275,-0.3443 -3.4004,-0.0039 -3.9437,0.0704c-5.5757,0.7565 -14.9836,2.0237 -16.2393,2.3417c-0.4039,0.1018 -1.504,0.3648 -1.177,0.6285c0.4256,0.3437 3.4016,0.0039 3.9436,-0.0697c11.4048,-1.5546 18.2068,-2.3303 17.4164,-2.9709z" fill="#e5d283"></path><path d="M57.4885,51.0071c-0.4269,-0.3449 -3.3997,-0.0038 -3.9437,0.0704c-12.3206,1.6723 -18.176,2.3578 -17.4169,2.9703c0.4256,0.3436 3.4016,0.0038 3.9436,-0.0698c10.8128,-1.4733 18.2279,-2.3168 17.417,-2.9709z" fill="#e5d283"></path><path d="M45.3819,55.8353c-0.1908,-0.3417 -1.2852,-0.2918 -1.6724,-0.2387c-5.4329,0.7386 -6.8339,0.8966 -7.1513,1.2986c-0.1274,0.1612 -0.0557,0.4096 0.3155,0.4832c0.8563,0.1702 0.9082,0.0953 6.4717,-0.6656c0.6061,-0.0826 2.3366,-0.3412 2.0371,-0.8781z" fill="#e5d283"></path><path d="M33.7118,70.4745c0.1005,-1.4688 0.928,-2.8461 2.281,-3.4266c0.953,-0.4096 1.1341,-0.3411 7.3754,-0.3232c0.8953,0.0026 1.8035,-0.1798 2.6937,-0.7821c0.4275,-0.2899 0.464,-0.432 3.1239,-2.9467c0.5363,-0.5075 1.2121,-0.7795 1.895,-0.8435l40.1421,0.0454c1.4931,0.0327 2.935,1.4579 2.9344,3.1253c0.0147,0.1831 -0.0205,0.3507 -0.0339,0.5479c-4.8116,33.232 -4.6644,32.631 -4.9165,33.216c-0.4736,1.097 -1.6103,1.891 -2.8877,1.898c-45.2755,0.281 -44.7034,0.087 -45.2794,-0.064c-1.1552,-0.304 -2.1728,-1.2491 -2.4172,-2.6276c-0.0493,-0.2765 -4.2381,-25.0004 -4.4301,-25.8637c-0.2995,-1.3447 -0.5613,-2.1018 -0.5728,-1.2506c-0.0352,2.6522 2.208,17.4739 3.6243,27.2147c0.3232,2.2232 2.0038,3.7182 3.9603,3.9762l45.0682,0.045c2.0537,-0.015 3.9347,-1.299 4.5209,-3.5924c4.9626,-34.1344 4.9127,-33.1219 4.7476,-34.2009c-0.3085,-2.0117 -2.0647,-3.9087 -4.7668,-3.8812c-0.6022,0.0058 -39.2729,0.0404 -39.6627,0.0666c-1.063,0.071 -2.0915,0.5491 -2.7552,1.1904c-4.3859,4.237 -2.0045,3.3986 -9.7849,3.8146c-1.2596,0.0672 -2.0909,-0.0192 -3.2634,0.7174c-0.9766,0.6131 -1.6346,1.6365 -1.8253,2.5645c-0.1497,0.727 -0.0633,1.3088 0.0416,1.5674c0.0915,0.2643 0.1607,0.2272 0.1888,-0.1863z" fill="#e5d283"></path></g></g></svg>