<svg version="1.1" xmlns="http://www.w3.org/2000/svg" xmlns:xlink="http://www.w3.org/1999/xlink" width="128" height="128" viewBox="0,0,256,256"><g fill="none" fill-rule="nonzero" stroke="none" stroke-width="1" stroke-linecap="butt" stroke-linejoin="miter" stroke-miterlimit="10" stroke-dasharray="" stroke-dashoffset="0" font-family="none" font-weight="none" font-size="none" text-anchor="none" style="mix-blend-mode: normal"><g transform="translate(-0.84123,-1.65747) scale(2,2)"><path d="M79.1295,66.7378c0.2861,-0.0071 0.9069,-0.825 1.1943,-1.049c1.287,-1.0073 2.304,-1.0681 2.64,-1.3382c0.04,-0.0277 0.0706,-0.0669 0.0877,-0.1124c0.0172,-0.0455 0.0201,-0.0951 0.0084,-0.1423c-0.0118,-0.0472 -0.0376,-0.0897 -0.0741,-0.1218c-0.0365,-0.0321 -0.0819,-0.0524 -0.1302,-0.0581c-0.2109,-0.0168 -0.4226,0.0207 -0.615,0.1088c-0.7886,0.3068 -1.5311,0.7207 -2.2067,1.2301c-0.1447,0.1805 -1.664,1.5008 -0.9044,1.4829z" fill="#e5d283"></path><path d="M77.7601,65.6891c0.8482,-0.6549 1.7427,-1.2473 2.6765,-1.7728c0.1811,-0.0724 0.5382,-0.1792 0.4704,-0.434c-0.0774,-0.288 -0.4704,-0.2169 -0.6873,-0.1446c-1.065,0.4823 -2.0238,1.1707 -2.8212,2.0256c-0.1971,0.1984 0.0506,0.5414 0.3616,0.3258z" fill="#e5d283"></path><path d="M76.5621,64.4579c1.088,-0.615 2.1543,-1.2941 3.2551,-1.8809c0.0717,-0.0378 0.0365,-0.1805 -0.0358,-0.1805c-0.6633,0.069 -1.3049,0.2754 -1.8841,0.6059c-0.5791,0.3306 -1.0831,0.7781 -1.4798,1.3141c-0.1088,0.0665 0.0358,0.1779 0.1446,0.1414z" fill="#e5d283"></path><path d="M74.7892,63.1937c0.9875,-0.2598 1.4426,-0.9484 3.7261,-1.5193c0.0723,0 1.2659,-0.3251 0.7597,-0.5421c-0.1811,-0.1088 -0.3623,-0.0365 -0.5792,-0.0365c-0.7761,0.1191 -1.5307,0.3507 -2.24,0.6874c-0.6769,0.2386 -1.294,0.6211 -1.8087,1.1213c-0.1126,0.1433 -0.0384,0.3283 0.1421,0.2892z" fill="#e5d283"></path><path d="M62.5271,44.2384c1.1631,0.349 2.3697,0.5317 3.584,0.5428c0.0864,0 0.1692,-0.0344 0.2303,-0.0955c0.0611,-0.061 0.0954,-0.1439 0.0954,-0.2303c0,-0.0864 -0.0343,-0.1693 -0.0954,-0.2303c-0.0611,-0.0611 -0.1439,-0.0955 -0.2303,-0.0955c-0.3012,-0.0179 -0.6032,-0.0179 -0.9044,0c-0.8935,0.0202 -1.7874,-0.0159 -2.6764,-0.1081c-0.0264,0.0031 -0.0507,0.0156 -0.0685,0.0353c-0.0178,0.0197 -0.0278,0.0452 -0.0282,0.0718c-0.0004,0.0265 0.0089,0.0523 0.0261,0.0725c0.0172,0.0202 0.0411,0.0335 0.0674,0.0373z" fill="#213555"></path><path d="M66.0389,42.8286c3.09,-0.2292 5.6192,-1.936 8.5005,-1.9898c0.9402,-0.0173 1.7716,0.3078 2.713,0.3258c0.0488,-0.0031 0.0958,-0.0197 0.1357,-0.0482c0.0398,-0.0284 0.0709,-0.0674 0.0897,-0.1126c0.0188,-0.0452 0.0246,-0.0947 0.0166,-0.143c-0.0079,-0.0483 -0.0293,-0.0934 -0.0615,-0.1302c-1.2058,-1.2057 -3.7863,-0.7449 -5.426,-0.256c-2.0275,0.608 -3.904,1.664 -6.0038,2.1344c-0.0235,0.0101 -0.043,0.0278 -0.0553,0.0502c-0.0124,0.0224 -0.0168,0.0484 -0.0127,0.0736c0.0041,0.0253 0.0166,0.0485 0.0354,0.0658c0.0188,0.0174 0.0429,0.0279 0.0684,0.03z" fill="#213555"></path><path d="M67.413,90.4667c23.6935,-3.4758 19.2039,-2.7053 20.256,-2.9299c0.3258,-0.0691 0.217,-0.5389 -0.0723,-0.5421c-3.8118,-0.0429 -16.5088,2.3853 -20.256,3.1104c-0.3257,0 -0.1811,0.3987 0.0723,0.3616z" fill="#213555"></path><path d="M72.9453,50.3526c0.0055,0.0364 0.0186,0.0713 0.0383,0.1024c0.0198,0.0311 0.0459,0.0578 0.0766,0.0782c0.0306,0.0204 0.0652,0.0342 0.1016,0.0405c0.0363,0.0062 0.0735,0.0048 0.1093,-0.0042c0.3946,-0.0953 0.7567,-0.2941 1.0489,-0.576c0.3486,-0.3238 0.6418,-0.7026 0.8679,-1.1212c0.0165,-0.0277 0.0257,-0.0591 0.0269,-0.0913c0.0012,-0.0322 -0.0057,-0.0641 -0.0201,-0.0929c-0.0144,-0.0289 -0.0358,-0.0536 -0.0623,-0.072c-0.0265,-0.0183 -0.0571,-0.0297 -0.0892,-0.0331c-0.1798,-0.0403 -0.3257,0.1811 -0.4339,0.256c-0.3616,0.2893 -0.6873,0.5421 -1.0489,0.832c-0.2426,0.1401 -0.6151,0.3981 -0.6151,0.6816z" fill="#213555"></path><path d="M70.9921,49.3747c0.0723,-0.1082 0.1811,-0.1447 0.1088,-0.2893c-0.1792,-0.537 -1.4221,0.4685 -0.7597,1.447c0.448,0.663 1.5206,0.5638 1.591,0.1082c0.0101,-0.0513 0.008,-0.1041 -0.006,-0.1544c-0.0141,-0.0503 -0.0397,-0.0966 -0.0748,-0.1352c-0.0352,-0.0387 -0.0789,-0.0685 -0.1276,-0.0873c-0.0487,-0.0187 -0.1012,-0.0257 -0.1532,-0.0206c-0.2169,0 -0.4339,0.0359 -0.615,-0.1446c-0.0652,-0.1111 -0.0965,-0.2388 -0.09,-0.3674c0.0065,-0.1286 0.0504,-0.2525 0.1265,-0.3564z" fill="#213555"></path><path d="M71.1361,50.2069c-0.0337,-0.0363 0,-0.0363 0,0z" fill="#213555"></path><path d="M72.586,48.1463c-0.0387,0.0675 -0.0559,0.1451 -0.0495,0.2225c0.0064,0.0775 0.0361,0.1512 0.0853,0.2114c0.3712,0.3891 1.3024,-0.1088 1.0131,-0.615c-0.2118,-0.3699 -0.8409,-0.1312 -1.0489,0.1811z" fill="#213555"></path><path d="M73.1992,46.6624c-0.0256,0.008 -0.0475,0.025 -0.0616,0.0478c-0.014,0.0229 -0.0194,0.05 -0.015,0.0765c0.0043,0.0265 0.0181,0.0505 0.0388,0.0676c0.0206,0.0172 0.0468,0.0263 0.0736,0.0257c0.3629,-0.0278 0.7277,-0.0158 1.088,0.0358c0.217,0.1088 0.1805,0.3981 0.3616,0.5427c0.0727,0.0705 0.1701,0.11 0.2714,0.11c0.1013,0 0.1986,-0.0395 0.2713,-0.11c0.2944,-0.247 0.0723,-0.7232 -0.1811,-0.9043c-0.5024,-0.3002 -1.3555,0.0262 -1.847,0.1082z" fill="#213555"></path><path d="M67.9889,64.6764c1.8873,-0.3142 2.0704,0.217 2.752,0.217c0.0747,-0.0015 0.1474,-0.0251 0.2088,-0.0679c0.0613,-0.0427 0.1087,-0.1026 0.1361,-0.1722c0.0274,-0.0696 0.0335,-0.1458 0.0177,-0.2189c-0.0158,-0.0731 -0.0529,-0.1398 -0.1066,-0.1919c-0.4666,-0.4666 -1.9988,-0.7187 -3.2192,-0.1088c-0.0579,0.037 -0.1011,0.0928 -0.1224,0.1581c-0.0213,0.0652 -0.0194,0.1359 0.0055,0.1998c0.0249,0.064 0.0712,0.1174 0.131,0.1511c0.0598,0.0336 0.1295,0.0456 0.1971,0.0337z" fill="#213555"></path><path d="M86.7629,61.203c-0.7711,-0.0825 -1.5503,0.0376 -2.2608,0.3484c-0.7105,0.3108 -1.3276,0.8015 -1.7904,1.4238c-0.1766,0.2202 0.1786,0.5043 0.3975,0.2893c0.9666,-0.8798 2.2386,-1.3472 3.5449,-1.3024c0.0902,-0.005 0.1759,-0.0412 0.2425,-0.1022c0.0666,-0.0611 0.11,-0.1433 0.1229,-0.2328c0.0128,-0.0894 -0.0058,-0.1805 -0.0525,-0.2578c-0.0468,-0.0774 -0.1189,-0.1361 -0.2041,-0.1663z" fill="#213555"></path><path d="M83.3296,61.3126c0.2643,-0.1977 1.113,-0.4141 0.8685,-0.832c-0.1472,-0.2515 -0.5063,-0.1805 -0.7232,-0.1081c-0.4167,0.1379 -0.7963,0.3693 -1.1099,0.6765c-0.3136,0.3071 -0.5528,0.6819 -0.6994,1.0956c-0.0118,0.0626 -0.0043,0.1273 0.0215,0.1854c0.0259,0.0582 0.0688,0.1072 0.1231,0.1404c0.4141,0.1382 0.3968,-0.5971 1.5194,-1.1578z" fill="#213555"></path><path d="M83.002,60.0468c0.0314,-0.0321 0.054,-0.0717 0.0657,-0.115c0.0118,-0.0433 0.0122,-0.0889 0.0013,-0.1324c-0.0109,-0.0436 -0.0328,-0.0836 -0.0636,-0.1162c-0.0308,-0.0327 -0.0694,-0.0569 -0.1122,-0.0703c-0.2816,-0.1408 -0.7297,0.11 -0.8679,0.1446c-0.3609,0.1788 -0.672,0.4441 -0.9054,0.7723c-0.2335,0.3282 -0.3822,0.7091 -0.4328,1.1087c-0.0113,0.0734 0.0052,0.1484 0.0463,0.2103c0.041,0.0619 0.1037,0.1062 0.1758,0.1243c0.072,0.0181 0.1483,0.0086 0.2137,-0.0265c0.0655,-0.0352 0.1154,-0.0935 0.1402,-0.1635c0.0025,-0.7514 1.591,-1.5885 1.7389,-1.7363z" fill="#213555"></path><path d="M83.0031,57.7307c0.0266,-0.0501 0.0405,-0.106 0.0405,-0.1628c0,-0.0568 -0.0139,-0.1127 -0.0405,-0.1629c-0.2761,-0.2964 -0.5929,-0.5522 -0.9408,-0.7597c-0.8128,-0.7164 -1.5856,-1.477 -2.3149,-2.2784c-0.183,-0.1421 -0.5062,0 -0.3974,0.2528c0.3004,0.7301 0.7572,1.3855 1.3382,1.92c0.4006,0.4249 0.8498,0.8013 1.3383,1.1213c0.1356,0.1188 0.2964,0.2053 0.4704,0.2528c-1.3024,0.5427 -2.6048,1.4822 -2.5683,2.8941c0.002,0.0516 0.0217,0.1009 0.0559,0.1397c0.0342,0.0387 0.0806,0.0645 0.1316,0.073c0.0509,0.0085 0.1033,-0.0009 0.1481,-0.0264c0.0449,-0.0256 0.0796,-0.0659 0.0983,-0.114c0.4864,-1.5143 2.1363,-2.2682 3.5808,-2.5319c1.148,-0.2173 2.333,-0.129 3.4361,0.256c0.3635,0.1044 0.6874,0.3616 1.088,0.3258c0.0558,0.0012 0.111,-0.0122 0.16,-0.0389c0.049,-0.0268 0.0902,-0.0658 0.1195,-0.1134c0.0292,-0.0476 0.0455,-0.1019 0.0472,-0.1577c0.0018,-0.0558 -0.0111,-0.1111 -0.0374,-0.1604c-0.695,-0.7757 -3.7568,-1.5277 -5.7536,-0.729z" fill="#213555"></path><path d="M70.5236,63.2662c0.0369,-0.0201 0.0693,-0.0476 0.095,-0.0808c0.0258,-0.0333 0.0444,-0.0715 0.0546,-0.1123c0.0102,-0.0407 0.0119,-0.0832 0.0048,-0.1246c-0.007,-0.0415 -0.0225,-0.081 -0.0456,-0.1162c-0.1036,-0.1055 -0.2276,-0.1889 -0.3645,-0.2449c-0.1369,-0.056 -0.2838,-0.0835 -0.4317,-0.0808c-0.7759,-0.1579 -1.5811,-0.0833 -2.3148,0.2144c-0.2183,0.0678 -0.1812,0.432 0.0364,0.398c0.7764,-0.1177 2.7194,0.242 2.9658,0.1472z" fill="#213555"></path><path d="M108.105,64.024c0.091,0.048 0.188,0.0844 0.289,0.1082c0.809,0.1018 0.976,-0.7155 0.506,-1.0125c-0.544,-0.3443 -1.416,0.5946 -0.795,0.9043z" fill="#213555"></path><path d="M113.891,64.9643c0.103,0.0699 0.224,0.1087 0.349,0.1118c0.125,0.0031 0.247,-0.0297 0.354,-0.0943c0.107,-0.0647 0.192,-0.1587 0.247,-0.2707c0.055,-0.112 0.077,-0.2374 0.062,-0.3613c-0.071,-0.32 -0.489,-0.4832 -0.94,-0.1446c-0.109,0.0919 -0.177,0.2228 -0.191,0.3648c-0.014,0.1419 0.029,0.2834 0.119,0.3943z" fill="#213555"></path><path d="M111.252,65.4417c0.044,0.1446 -0.056,0.7174 0.36,0.7174c0.256,0 0.326,-0.217 0.326,-0.4339c0.013,-0.2884 -0.049,-0.5753 -0.182,-0.832c-0.144,-0.217 -0.399,-0.1127 -0.576,-0.0359c-0.492,0.1774 -0.965,0.4079 -1.408,0.6874c-0.026,0.0275 -0.044,0.0623 -0.05,0.1c-0.007,0.0376 -0.002,0.0764 0.013,0.1113c0.016,0.0349 0.041,0.0644 0.074,0.0847c0.032,0.0202 0.07,0.0304 0.108,0.0291c0.454,-0.1127 0.9,-0.2557 1.335,-0.4281z" fill="#213555"></path><path d="M120.619,63.8082c-0.785,-0.2441 -1.601,-0.3781 -2.423,-0.398c-0.071,0.0031 -0.138,0.0302 -0.19,0.0768c-0.053,0.0466 -0.088,0.1098 -0.1,0.1792c0,0.1446 0.073,0.2892 0.217,0.2892c2.184,0.4679 2.986,0.96 3.039,0.434c0.036,-0.2919 -0.326,-0.473 -0.543,-0.5812z" fill="#213555"></path><path d="M119.969,65.8686c-0.648,-0.3797 -1.325,-0.7064 -2.026,-0.9766c-0.289,-0.1082 -0.506,0.3981 -0.217,0.5427c2.013,1.0067 1.877,1.2301 2.46,1.408c0.056,0.0158 0.116,0.0141 0.172,-0.0047c0.055,-0.0189 0.104,-0.0541 0.139,-0.101c0.035,-0.0468 0.056,-0.1033 0.058,-0.1618c0.003,-0.0586 -0.012,-0.1166 -0.043,-0.1664c-0.123,-0.2301 -0.312,-0.4182 -0.543,-0.5402z" fill="#213555"></path><path d="M117.547,66.4478c-0.053,-0.0528 -0.125,-0.0825 -0.199,-0.0826c-0.075,0 -0.146,0.0295 -0.199,0.0823c-0.053,0.0527 -0.083,0.1242 -0.083,0.1988c0,0.0746 0.03,0.1461 0.083,0.1989c0.55,0.6419 1.155,1.235 1.808,1.7728c0.471,0.1447 0.471,-0.3981 0.256,-0.6515c-0.502,-0.5617 -1.061,-1.0706 -1.666,-1.5187z" fill="#213555"></path><path d="M105.211,60.4796c0.072,0 0.144,-0.0723 0.18,-0.1805c0.072,-0.3257 -0.256,-0.615 -0.47,-0.832c-1.447,-1.4476 -1.762,-1.6428 -1.881,-2.1702c-0.064,-0.2912 -0.439,-0.1818 -0.47,0.0723c-0.083,0.6682 0.536,1.3671 1.664,2.496c0.253,0.2528 0.614,0.6867 0.977,0.6144z" fill="#213555"></path><path d="M102.101,59.1778c-0.176,-0.185 -0.466,0.0326 -0.325,0.2169c0.57,0.8198 1.295,1.5201 2.134,2.0615c0.25,0.1497 0.576,0.3981 0.904,0.2893c0.059,-0.0201 0.109,-0.0599 0.142,-0.1125c0.033,-0.0527 0.047,-0.1151 0.039,-0.1768c-0.236,-0.5511 -1.455,-0.7763 -2.894,-2.2784z" fill="#213555"></path><path d="M101.74,62.0711c0.591,0.4641 1.267,0.8081 1.989,1.0125c0.143,0.0628 0.297,0.0952 0.452,0.0952c0.156,0 0.31,-0.0324 0.453,-0.0952c0.023,-0.0153 0.042,-0.0354 0.057,-0.0589c0.015,-0.0235 0.024,-0.0499 0.027,-0.0774c0.004,-0.0275 0.001,-0.0554 -0.007,-0.0818c-0.008,-0.0264 -0.022,-0.0507 -0.041,-0.0712c-0.128,-0.1371 -0.29,-0.237 -0.47,-0.2893c-1.758,-0.4186 -2.247,-1.0061 -2.46,-0.6874c-0.021,0.0139 -0.038,0.0327 -0.05,0.0548c-0.012,0.0221 -0.018,0.0468 -0.018,0.072c0,0.0251 0.006,0.0498 0.018,0.0719c0.012,0.0222 0.029,0.041 0.05,0.0548z" fill="#213555"></path><path d="M97.6889,44.4199c-0.1229,-6.0218 11.3961,-2.944 13.6001,-7.9936c0.507,-1.1578 0.507,-2.6042 -0.506,-3.4727c-0.079,-0.0671 -0.18,-0.102 -0.283,-0.0978c-0.103,0.0042 -0.201,0.0472 -0.274,0.1204c-0.073,0.0733 -0.115,0.1713 -0.119,0.2745c-0.003,0.1032 0.032,0.204 0.1,0.2821c1.007,1.1674 0.361,2.9293 -0.76,3.7978c-2.309,1.7734 -7.538,1.8656 -10.2388,3.4374c-1.1936,0.6874 -2.4595,2.24 -1.92,3.7255c0.0169,0.0456 0.0493,0.0839 0.0916,0.108c0.0423,0.0241 0.0918,0.0325 0.1397,0.0237c0.0479,-0.0088 0.0911,-0.0342 0.1221,-0.0718c0.031,-0.0376 0.0477,-0.0849 0.0473,-0.1335z" fill="#213555"></path><path d="M109.624,31.4714c0.651,0.1447 1.338,-0.0723 2.025,0.1447c1.28,0.4269 1.7,1.9021 1.7,3.2557c0,1.591 -1.229,2.9299 -2.424,3.87c-3.598,2.7194 -8.24,1.536 -11.7909,3.904c-0.1446,0.1088 0,0.3616 0.1447,0.256c3.6712,-2.176 8.5302,-0.6284 12.4432,-3.726c1.338,-1.049 2.531,-2.496 2.568,-4.2682c0,-1.792 -0.586,-3.4771 -2.24,-4.16c-0.397,-0.1709 -0.828,-0.25 -1.26,-0.2312c-0.433,0.0187 -0.855,0.1347 -1.236,0.3394c-0.066,0.0253 -0.122,0.072 -0.159,0.1326c-0.037,0.0606 -0.052,0.1317 -0.045,0.2022c0.008,0.0705 0.04,0.1363 0.089,0.1871c0.05,0.0509 0.115,0.0838 0.185,0.0937z" fill="#213555"></path><path d="M94.7554,62.4341c-0.256,-0.3258 -0.825,0.0339 -0.6874,0.3981c0.192,0.503 0.4436,1.0086 0.6516,1.5193c0.1895,0.4823 0.4863,0.9152 0.8678,1.2659c0.3898,0.3348 1.049,0.3975 1.2659,-0.1446c0.0598,-0.288 0.0475,-0.5864 -0.0358,-0.8685c-0.3763,-1.8797 -1.3651,-3.8854 -0.1811,-5.568c0.8319,-1.1942 1.8086,-2.1709 2.0979,-3.6537c0.1526,-0.6462 0.1065,-1.3234 -0.1323,-1.9429c-0.2388,-0.6196 -0.6592,-1.1525 -1.206,-1.5291c-0.1785,-0.1127 -0.398,0.1446 -0.256,0.2892c1.1578,1.0125 1.088,2.7488 0.434,4.0148c-0.6868,1.3382 -2.0615,2.279 -2.3508,3.7977c-0.3488,1.92 0.6509,3.9898 0.6509,4.6304c-0.4672,-0.5888 -0.576,-1.5027 -1.1187,-2.2086z" fill="#213555"></path><path d="M79.1668,55.1626c-1.0445,-0.8736 -1.5917,-2.9657 -1.664,-3.328c0.361,-0.8428 0.8007,-3.0041 0.5427,-4.0153c-0.023,-0.0781 -0.0706,-0.1466 -0.1358,-0.1954c-0.0652,-0.0487 -0.1444,-0.0751 -0.2258,-0.0751c-0.0813,0 -0.1606,0.0264 -0.2257,0.0751c-0.0652,0.0488 -0.1129,0.1173 -0.1359,0.1954c-0.1502,0.7152 -0.2471,1.4406 -0.2899,2.1702c-0.4287,1.8259 -1.5244,3.4256 -3.072,4.4851c-2.8614,1.746 -5.5213,1.3863 -7.3427,1.7728c1.0541,-2.1081 0.768,-5.6441 -1.3382,-7.3792c-0.6619,-0.5537 -1.4622,-0.9164 -2.3149,-1.0489c-0.7984,-0.1175 -1.6132,0.0353 -2.3149,0.4339c-0.1811,0.0723 -0.0365,0.3616 0.1446,0.3258c0.6671,-0.1646 1.3649,-0.1581 2.0288,0.0189c0.6639,0.177 1.2724,0.5187 1.769,0.9935c1.8061,1.7069 2.0685,5.4932 0,7.6327c-0.7313,0.7255 -1.5157,1.3953 -2.3469,2.0038c-0.4685,1.1175 -0.7289,1.7965 -0.8358,1.9751c2.2763,-0.5165 4.6174,-0.6874 6.9446,-0.5069c0.9004,0.0573 1.7892,0.2337 2.6432,0.5248c5.6685,-1.4336 10.1043,-4.1869 10.304,-4.5395c0.224,-0.393 -1.1904,-0.7284 -2.1344,-1.5188z" fill="#e5d283"></path><path d="M71.3561,61.4211c-0.5702,-0.4614 -2.304,-0.6662 -3.0022,-0.7238c-2.3272,-0.1615 -4.6656,0.0092 -6.9447,0.5069c0.192,-0.32 0.8711,-2.2324 2.3507,-5.3901c0.073,-0.1805 -0.1446,-0.3975 -0.2892,-0.217c-1.392,1.5085 -3.0023,5.3888 -2.9658,5.7875c-0.2087,0.0312 -0.4144,0.0796 -0.615,0.1447c-0.5724,0.094 -1.1235,0.289 -1.6276,0.576c-0.0347,0.0237 -0.061,0.0579 -0.0751,0.0975c-0.0141,0.0397 -0.0152,0.0828 -0.0031,0.1231c0.012,0.0403 0.0366,0.0758 0.0701,0.1012c0.0335,0.0255 0.0742,0.0396 0.1163,0.0404c0.5306,0.0378 0.5818,-0.0704 3.072,-0.5792c2.1744,-0.4605 4.4019,-0.6186 6.6195,-0.4697c0.9683,0.0857 4.4474,0.9356 3.2941,0.0025z" fill="#213555"></path><path d="M46.7188,59.7575c1.0425,0.3476 3.7759,1.266 3.9039,1.266c0.5888,-2.944 1.8445,-5.106 3.3639,-7.4151c0.015,-0.0247 0.0352,-0.046 0.0591,-0.0622c0.024,-0.0162 0.0512,-0.0271 0.0798,-0.0319c0.2067,-0.527 0.3423,-1.0793 0.4032,-1.6422c-0.0109,-0.0921 -0.0526,-0.1778 -0.1184,-0.2432c-2.6772,3.0048 -5.4906,6.0397 -7.6915,8.1286z" fill="#e5d283"></path><path d="M25.0913,26.3339c1.0195,0.7143 2.6336,1.5565 2.8941,2.8935c0.1405,0.4781 0.3337,0.9392 0.576,1.3747c0.2233,0.5395 0.1088,0.832 0.576,1.2294c-0.9043,0.9767 0.0723,1.8451 1.1213,1.8087c-0.0051,0.3312 0.0438,0.661 0.1446,0.9766c0.0486,0.4358 0.256,1.984 0.4704,3.2915c0.128,0.7738 0.5933,0.9133 0.4339,-0.3616c-0.0111,-1.334 -0.132,-2.6647 -0.3616,-3.9789c0.7511,-0.05 1.4927,-0.1958 2.2067,-0.4339c0.2904,1.0103 0.6604,1.996 1.1066,2.9479c0.1478,-0.1568 0.2925,-0.3136 0.4384,-0.4704c-0.2758,-0.6324 -0.704,-1.618 -0.896,-2.1159c-0.0689,-0.1989 -0.1546,-0.3915 -0.256,-0.576c0.1839,-0.1124 0.354,-0.246 0.5069,-0.3981c0.1333,-0.1129 0.2214,-0.2703 0.248,-0.443c0.0266,-0.1728 -0.0101,-0.3493 -0.1034,-0.4971c-0.1842,-0.1915 -0.4253,-0.3185 -0.6873,-0.3623c0.1081,0.0365 0.2892,-0.759 0.2892,-0.8678c-0.0364,-0.4704 -0.398,-0.3981 -0.576,-0.7232c-0.1088,-0.256 0.1447,-0.576 0.217,-0.7962c0.0597,-0.2662 0.0344,-0.5444 -0.0723,-0.7955c1.0125,-0.832 1.8701,-2.432 0.2169,-3.072c-1.1398,-0.4435 -2.56,0.0749 -3.6531,-0.1446c-1.3107,-0.3744 -2.624,-1.6455 -3.8707,-1.6999c-1.1597,-0.0512 -2.9766,0.1792 -3.0022,1.3383c-0.0109,0.8269 1.4579,1.4726 2.0326,1.8758z" fill="#213555"></path><path d="M14.0973,34.3283c0.544,0.32 1.2294,-0.0365 1.7721,-0.217c1.5828,-0.5273 4.2976,-1.8387 5.0279,-0.1088c0.2457,0.5824 0.2893,1.088 0.9766,1.1936c0.059,0.3825 0.1559,0.7581 0.2893,1.1213c0.1234,0.1856 0.2999,0.3298 0.5064,0.4137c0.2065,0.0839 0.4335,0.1036 0.6514,0.0567c0.0723,0.5062 0.2406,1.0509 0.3257,1.5194c0.3475,1.927 0.6163,3.8777 1.0483,5.751c0.0138,0.0584 0.0492,0.1095 0.0989,0.143c0.0498,0.0336 0.1104,0.0471 0.1697,0.038c0.0593,-0.0091 0.1131,-0.0402 0.1505,-0.0872c0.0374,-0.0469 0.0557,-0.1063 0.0513,-0.1661c-0.1158,-2.5232 -0.467,-5.0301 -1.0489,-7.488c0.576,-0.256 1.1936,-0.4339 1.7363,-0.7232c0.5128,2.2171 1.1857,4.3941 2.0134,6.5139c0.2144,-0.192 0.4256,-0.384 0.64,-0.576c-0.0429,-0.4115 -1.4124,-3.0963 -2.1798,-6.336c0.023,-0.064 1.5558,-1.1667 -0.1088,-2.6042c0.121,-0.2901 0.207,-0.5937 0.256,-0.9043c0.0007,-0.2217 -0.036,-0.442 -0.1088,-0.6515c-0.151,-0.3955 -0.3974,-1.0125 -0.9043,-1.0125c0.0963,-0.4295 0.091,-0.8755 -0.0157,-1.3026c-0.1067,-0.427 -0.3117,-0.8232 -0.5987,-1.1569c-0.912,-0.8243 -2.233,-0.496 -3.072,0.256c-0.5038,0.5162 -1.0908,0.9441 -1.7363,1.2659c-1.5482,0.6522 -3.968,0.08 -5.4983,2.0621c-0.5126,0.6502 -1.488,2.3795 -0.4422,2.9997z" fill="#213555"></path><path d="M89.4769,47.5671c-1.6736,-3.136 -6.912,-9.4963 -12.3341,-17.3984c-3.264,-4.7565 -2.7463,-6.8614 -3.584,-7.0893c-0.1779,-0.0358 -22.9978,-6.695 -23.6167,-6.8723c-1.664,-0.4826 -1.9526,-0.576 -2.6406,1.0125c-0.2643,0.6105 -1.5584,3.8688 -2.1344,4.8109c-6.6688,10.9107 -18.1581,22.9171 -33.7101,32.4096c0,0.0358 0.1447,1.2294 0.1447,1.4464c3.5961,3.6633 11.2102,8.32 17.3984,12.8409c0.0741,0.052 0.1625,0.0799 0.2531,0.0799c0.0906,0 0.1789,-0.0279 0.2531,-0.0799c16.1267,-11.6825 32.6701,-29.303 41.2339,-41.9584c0.4205,-0.512 0.7527,-2.8576 2.496,-2.8576c0,2.8064 10.1581,16.6707 11.792,18.9178c1.2634,1.7376 2.3872,3.5808 3.7978,5.2083c0.0671,0.0726 0.1585,0.118 0.2568,0.1278c0.0984,0.0098 0.1969,-0.0168 0.277,-0.0747c0.0801,-0.0579 0.1362,-0.1431 0.1578,-0.2395c0.0216,-0.0965 0.0071,-0.1975 -0.0407,-0.284zM48.6039,20.3671c-0.0398,-0.0205 -0.0712,-0.0543 -0.0887,-0.0955c-0.0175,-0.0412 -0.0201,-0.0873 -0.0073,-0.1302c0.0129,-0.0429 0.0403,-0.08 0.0776,-0.1048c0.0372,-0.0248 0.082,-0.0358 0.1266,-0.0311c3.392,0.9357 18.7756,5.2378 20.4371,5.824c0.1032,0.0309 0.1903,0.1009 0.2426,0.1952c0.0522,0.0942 0.0656,0.2051 0.0372,0.3091c-0.0284,0.1039 -0.0963,0.1927 -0.1893,0.2472c-0.0929,0.0545 -0.2035,0.0706 -0.3081,0.0447c-1.7389,-0.384 -3.4343,-1.0176 -5.136,-1.5194c-4.8685,-1.4362 -10.4487,-3.0982 -15.1917,-4.7392zM39.3079,42.3588c-0.1446,0.1446 -0.3622,-0.0365 -0.2899,-0.217c0.5914,-1.1584 1.4463,-2.1619 2.496,-2.9299c0.1104,-0.0617 0.2407,-0.0774 0.3625,-0.0436c0.1219,0.0338 0.2255,0.1143 0.2884,0.2241c0.3481,0.5504 -0.841,0.9497 -2.857,2.9664zM39.5249,44.3844c1.8214,-2.304 3.5916,-3.5789 5.2083,-5.4983c0.3968,-0.471 1.0489,0.217 0.6873,0.6874c-1.7075,1.9725 -4.2675,3.9091 -5.3555,5.2813c-0.1747,0.2214 -0.3974,0.6144 -0.7232,0.576c-0.0511,-0.0017 -0.1003,-0.0205 -0.1396,-0.0533c-0.0393,-0.0328 -0.0665,-0.0778 -0.0773,-0.1278c-0.1428,-0.3213 0.2246,-0.6413 0.4,-0.8653zM34.6052,43.8084c3.3881,-3.6557 4.0147,-4.208 6.3302,-6.5837c0.6963,-0.7142 1.3671,-1.527 2.0979,-2.2061c0.0784,-0.0654 0.1785,-0.0991 0.2804,-0.0944c0.102,0.0046 0.1986,0.0471 0.2707,0.1193c0.0722,0.0722 0.1148,0.1688 0.1194,0.2707c0.0046,0.102 -0.0291,0.202 -0.0945,0.2804c-1.1148,1.2583 -5.7907,5.9559 -8.7174,8.464c-0.0157,0.0217 -0.0358,0.0398 -0.0589,0.0533c-0.0231,0.0134 -0.0488,0.0219 -0.0754,0.0249c-0.0266,0.0029 -0.0535,0.0003 -0.079,-0.0078c-0.0255,-0.008 -0.0491,-0.0213 -0.0691,-0.039c-0.0201,-0.0177 -0.0363,-0.0394 -0.0474,-0.0637c-0.0112,-0.0243 -0.0172,-0.0507 -0.0176,-0.0775c-0.0004,-0.0267 0.0048,-0.0533 0.0152,-0.0779c0.0105,-0.0246 0.026,-0.0468 0.0455,-0.0651zM36.9201,53.5018c0.5356,-0.0817 1.049,-0.2714 1.5092,-0.5574c0.4602,-0.286 0.8575,-0.6625 1.1679,-1.1066c0.4457,-0.8028 0.8324,-1.637 1.1571,-2.496c1.1072,-2.32 2.4749,-2.2291 4.0154,-3.111c2.7366,-1.5661 2.1632,-3.2384 2.423,-4.2682c0.4659,-1.8457 2.432,-2.4787 4.0512,-3.0381c1.5283,-0.5273 1.664,-0.5286 2.24,-1.5916c0.6874,-1.0797 1.703,-1.3837 1.7728,-2.24c0.0022,-0.0827 0.0333,-0.1619 0.0878,-0.224c0.0545,-0.0621 0.129,-0.1032 0.2107,-0.1161c0.0816,-0.0129 0.1652,0.0031 0.2362,0.0454c0.071,0.0422 0.125,0.108 0.1527,0.1859c0.448,1.3382 -0.8711,1.9564 -1.4112,2.6771c-0.2418,0.4638 -0.5328,0.9002 -0.8679,1.3017c-1.2915,1.1245 -4.3673,1.1271 -5.2448,2.9664c-0.156,0.4526 -0.2295,0.9295 -0.2169,1.408c-0.1632,1.8823 -1.6282,3.2186 -3.2192,3.9789c-0.832,0.3975 -1.8452,0.6151 -2.5319,1.3018c-1.1616,1.1616 -1.2748,3.223 -2.8576,4.4493c-0.7302,0.5516 -1.6174,0.8559 -2.5324,0.8684c-0.3252,0.034 -0.3943,-0.3961 -0.1421,-0.4364zM29.505,68.5105c-0.4422,0.2214 -0.576,-1.1847 -0.6509,-1.6999c-0.768,-0.3648 -3.4604,-2.1606 -3.9424,-2.496c-3.6268,-2.5235 -7.815,-5.2985 -10.9587,-8.3917c-0.1094,-0.1075 0.0378,-0.2912 0.1447,-0.2169c0.064,0.0454 15.1974,10.6758 15.264,10.743c2.2796,-1.9462 6.2585,-4.6176 12.9856,-10.4537c4.5107,-3.913 5.952,-5.6212 7.9212,-7.1616c0.1831,-0.1428 0.3277,0.1459 0.2176,0.2892c-2.4076,3.1162 -16.448,15.0759 -20.9075,17.5789c0.0858,0.5197 0.3648,1.6627 -0.0736,1.8087z" fill="#e5d283"></path><path d="M98.6435,98.3719c-1.184,0.2285 -3.2851,0.8691 -4.2464,1.1008c-0.0794,0.0173 -48.0531,10.1643 -51.5443,10.1643c1.2972,-1.945 1.6,-5.718 1.5558,-8.064c0,-0.144 3.1104,-0.868 4.6656,-1.121c13.1373,-2.1896 13.76,-2.2184 15.6986,-2.7131c0.0553,-0.0167 0.1028,-0.0528 0.1337,-0.1017c0.0308,-0.049 0.043,-0.1074 0.0342,-0.1646c-0.0088,-0.0571 -0.038,-0.1092 -0.0821,-0.1466c-0.0442,-0.0374 -0.1003,-0.0576 -0.1582,-0.0568c-2.5222,0.0524 -18.574,2.8458 -20.3641,3.3998c-0.0972,-2.3303 -0.4862,-4.6391 -1.1578,-6.8725c1.1194,-0.096 14.7315,-2.0301 16.5664,-2.5318c0.0626,-0.0195 0.1162,-0.0605 0.1515,-0.1158c0.0352,-0.0552 0.0498,-0.1211 0.0411,-0.1861c-0.0086,-0.0649 -0.04,-0.1247 -0.0884,-0.1688c-0.0485,-0.0441 -0.111,-0.0696 -0.1765,-0.072c-1.5942,0 -15.5667,2.0806 -16.7834,2.3513c-1.2204,-3.5667 -3.3875,-7.0835 -6.7276,-8.8262c-0.0709,-0.0293 -0.1499,-0.0322 -0.2227,-0.0082c-0.0728,0.024 -0.1346,0.0734 -0.1741,0.1392c-0.0394,0.0657 -0.054,0.1435 -0.0409,0.219c0.013,0.0756 0.0527,0.144 0.1119,0.1927c2.9267,1.8285 4.736,4.8832 5.8598,8.1024c-8.9504,-4.544 -17.1968,-10.7942 -25.4284,-14.6854c-0.1812,-0.0724 -0.3258,0.1446 -0.1447,0.2528c9.049,4.736 17.5463,11.3779 25.9712,15.5904c0.4884,2.0617 0.8507,4.1514 1.0848,6.257c-6.6195,-3.7617 -13.0937,-7.7764 -19.6409,-11.6106c-0.1812,-0.1088 -0.3616,0.1804 -0.1812,0.2892c6.4384,4.3405 13.1668,8.32 19.858,12.2984c0.0582,2.6 -0.2138,6.073 -1.408,8.392c-3.3831,-2.469 -26.4448,-16.4824 -31.65,-19.4244c0.2336,-0.4357 0.4158,-0.897 0.5428,-1.3748c0.5347,-1.5895 0.8512,-3.2443 0.9408,-4.919c0.3251,0.217 4.992,3.4003 6.1491,4.1235c1.1571,0.7597 5.8957,3.7255 7.1257,4.3405c0.0384,0.0239 0.0847,0.0316 0.1287,0.0214c0.0441,-0.0102 0.0823,-0.0374 0.1062,-0.0758c0.024,-0.0384 0.0317,-0.0847 0.0215,-0.1287c-0.0102,-0.0441 -0.0375,-0.0822 -0.0759,-0.1062c-1.1213,-0.832 -2.3872,-1.5193 -3.5449,-2.279c-1.1578,-0.7597 -9.4765,-6.1485 -9.8746,-6.4c0.1293,-3.4869 -0.323,-6.9709 -1.3382,-10.3091c-0.44629,-1.6916 -1.18043,-3.2936 -2.17028,-4.736c-0.07232,-0.1088 -0.28928,0 -0.21696,0.1081c1.408,2.5683 2.0256,5.568 2.45954,8.464c0.7539,5.0253 0.4147,8.1696 -0.43394,11.1411c-0.07232,0.2528 -0.18112,0.4698 -0.256,0.7232c-1.4464,0.3616 -2.89344,0.7232 -4.34048,1.049c-0.05384,0.0161 -0.10335,0.0442 -0.14483,0.0821c-0.04147,0.0379 -0.07385,0.0847 -0.09471,0.1369c-0.02086,0.0521 -0.02966,0.1084 -0.02575,0.1644c0.0039,0.0561 0.02043,0.1105 0.04833,0.1593c0.28928,0.4339 0.94016,0.6509 1.33824,0.9043c6.63874,3.7338 20.67844,12.7082 23.43934,14.5412c2.0615,1.367 10.3891,7.07 10.8871,7.408c0.256,0.175 0.5427,0.471 0.8684,0.471c0.8493,0 48.8064,-10.51 58.5124,-12.682c-0.7025,-0.785 -1.2352,-1.7064 -1.5645,-2.7071z" fill="#213555"></path><path d="M115.882,91.2261c-2.052,-7.1821 -6.189,-8.5491 -5.208,-14.7578c0.019,-0.2028 -0.07,-0.3104 -0.215,-0.3385c-0.063,-0.0206 -0.132,-0.0158 -0.191,0.0133c-0.06,0.0292 -0.106,0.0804 -0.129,0.1428c-0.704,1.36 -1.607,2.5108 -2.215,3.9444c-0.896,2.176 -1.044,2.3193 -1.352,3.0368c-0.234,-0.3567 -0.496,-0.6948 -0.783,-1.0112c-1.325,-1.3078 -2.852,-2.3946 -4.521,-3.2192c-0.259,-0.1433 -0.541,-0.2411 -0.832,-0.2893c-0.036,-0.0423 -0.08,-0.0763 -0.129,-0.0997c-0.05,-0.0234 -0.104,-0.0355 -0.159,-0.0355c-0.055,0 -0.11,0.0121 -0.1596,0.0355c-0.0497,0.0234 -0.0937,0.0574 -0.1289,0.0997c1.1885,2.1235 2.1035,4.4249 3.1115,6.656c0.759,1.6275 1.518,3.255 2.133,4.9555c0.74,2.0333 1.737,5.0086 1.737,7.1616c-0.043,0.6767 -0.23,1.3366 -0.548,1.9354c-0.318,0.5991 -0.76,1.1231 -1.297,1.5371c-0.3,0.273 -0.653,0.481 -1.037,0.611c-0.383,0.13 -0.79,0.179 -1.194,0.146c-0.404,-0.034 -0.796,-0.151 -1.153,-0.344c-0.357,-0.192 -0.67,-0.456 -0.92,-0.774c-1.2664,-1.5921 -1.0885,-3.9435 -1.3752,-5.8603c-0.2867,-1.9168 -0.9043,-4.0154 -2.5677,-5.1366c-0.1446,-0.0724 0,-0.2868 0.1082,-0.217c4.2987,2.7206 2.3341,8.5971 4.4497,10.9239c1.065,1.178 3.031,1.015 4.34,-1.4833c0.378,-0.9297 0.454,-1.9546 0.217,-2.9299c-0.538,-2.7303 -1.369,-5.3946 -2.478,-7.9469c-2.225,0.441 -7.0663,0.9773 -8.9524,1.28c0.96,0.5536 2.4909,1.216 3.4003,3.3063c0.7232,1.7005 0.1447,3.5449 0.6509,5.3171c0.3861,1.576 1.3067,2.9697 2.6052,3.9427c1.532,1.024 3.15,0.409 4.955,0.109c1.622,-0.25 8.485,-1.728 8.609,-1.808c2.386,-2.1752 2.024,-6.1176 1.228,-8.9029zM115.122,97.5922c-0.256,0.6873 -0.686,1.5917 -1.483,1.7363c-0.051,0.0123 -0.105,0.0092 -0.154,-0.009c-0.049,-0.0182 -0.092,-0.0507 -0.123,-0.0933c-0.031,-0.0426 -0.049,-0.0935 -0.051,-0.1461c-0.002,-0.0527 0.012,-0.1048 0.039,-0.1497c0.442,-0.6989 0.806,-0.7321 1.194,-2.0256c0.798,-2.736 -0.264,-5.2595 -1.157,-7.8848c-0.073,-0.1446 0.18,-0.256 0.289,-0.1088c0.904,1.8087 1.735,3.6147 1.844,5.6787c0.078,1.0176 -0.057,2.0402 -0.398,3.0023z" fill="#e5d283"></path><path d="M92.5486,89.3448c0.8363,0.065 1.6777,0.0041 2.496,-0.1805c4.1881,-0.5587 6.7364,-0.8614 8.3914,-1.1936c0.508,-0.1024 0.289,-0.839 -0.217,-0.7597c-9.8659,1.5437 -9.8916,1.408 -10.7428,1.7722c-0.0249,0.0262 -0.0432,0.058 -0.0532,0.0927c-0.0101,0.0348 -0.0117,0.0714 -0.0046,0.1069c0.0071,0.0355 0.0227,0.0687 0.0453,0.0969c0.0227,0.0282 0.0518,0.0505 0.0849,0.0651z" fill="#213555"></path><path d="M93.6003,54.8738c-1.3705,-3.1991 -3.9425,-5.732 -7.1622,-7.0534c0,-0.5722 -4.3866,-4.2835 -11.0682,-17.0003c-0.9016,-1.5885 -1.583,-3.2922 -2.0256,-5.0644c-0.1919,-0.8595 0.3751,-0.32 -5.7151,8.2836c-5.5345,7.4895 -11.5135,14.64 -17.9047,21.4131c-4.6317,4.9881 -11.9187,12.375 -18.6291,12.1037c-0.2323,0.1741 -0.4646,0.343 -0.697,0.512c2.7072,0.3731 5.4272,-0.4634 7.8234,-1.728c1.1223,-0.7205 2.3399,-1.2806 3.6173,-1.664c4.2361,-1.0189 8.2093,1.1161 9.1149,1.3721c0.5026,1.1422 1.3019,2.1289 2.3148,2.8576c2.4743,1.856 6.0941,2.368 9.9629,0.4877c0.2759,0.5479 -0.1702,3.1533 0.672,2.985c1.9891,-0.3623 3.9424,-1.122 5.8957,-1.664c1.9891,-0.5428 7.017,-1.3383 7.4515,-1.1936c0.4346,0.1446 0.7232,0.576 1.1213,0.7955c1.408,0.8141 2.6042,-0.1107 2.6042,-1.049c-0.006,-0.1695 0.006,-0.3392 0.0358,-0.5062c0.0723,-0.3981 5.5347,-3.2192 10.4902,-4.377c0.0683,-0.0143 0.1313,-0.0471 0.1821,-0.0948c0.0509,-0.0477 0.0877,-0.1085 0.1063,-0.1757c0.0186,-0.0672 0.0184,-0.1382 -0.0006,-0.2053c-0.019,-0.0671 -0.0561,-0.1276 -0.1073,-0.1751c-0.3013,-0.1532 -0.6404,-0.216 -0.9766,-0.1811c-1.1322,-0.1331 -4.096,-0.32 -6.1127,-0.7597c-0.038,-0.0087 -0.078,-0.0021 -0.1113,0.0183c-0.0332,0.0204 -0.0572,0.053 -0.0667,0.0909c-0.0094,0.0379 -0.0037,0.078 0.0161,0.1117c0.0197,0.0336 0.0519,0.0582 0.0896,0.0684c1.2696,0.4249 2.5769,0.7277 3.904,0.9043c-0.1088,0.0365 -4.4518,0.85 -6.9453,2.6049c-0.7405,0.4714 -1.3908,1.0716 -1.92,1.7721c-1.2659,-0.9401 -6.08,-4.6662 -7.4515,-5.1725c0.1447,-0.1088 2.5319,-1.5552 3.1469,-1.8086c1.2839,-0.5753 2.6516,-0.9415 4.0512,-1.0848c0.3258,-0.0365 0.3258,-0.5792 0,-0.5427c-2.1409,0.2567 -4.2012,0.9723 -6.0403,2.0979c-0.6236,0.3062 -1.1777,0.737 -1.6282,1.2659c-0.0723,0.1088 5.7152,4.4851 6.6195,5.1725c-4.7693,-1.3626 -9.9494,0.8032 -14.0704,2.6765c-0.0885,-0.6188 -0.2679,-1.2212 -0.5324,-1.7875c0.7596,-0.3892 1.5065,-0.8167 2.2687,-1.216c1.6513,-0.9632 3.5552,-1.4045 5.4618,-1.266c0.0886,-0.0014 0.1743,-0.0313 0.2446,-0.0852c0.0702,-0.0539 0.1213,-0.129 0.1456,-0.2142c0.0243,-0.0851 0.0206,-0.1758 -0.0106,-0.2587c-0.0312,-0.0829 -0.0882,-0.1536 -0.1626,-0.2016c-1.3747,-0.6867 -3.1469,-0.2892 -4.5216,0.2176c-1.4829,0.576 -2.8576,1.4465 -4.2682,2.1338c-2.6406,1.3024 -5.8598,1.6275 -8.4281,0c-1.033,-0.6121 -1.8621,-1.5157 -2.3833,-2.5974c-0.5211,-1.0817 -0.7111,-2.2933 -0.546,-3.4826c0.2477,-2.7296 1.7485,-6.2611 2.8569,-8.4282c0.0136,-0.0214 0.0227,-0.0454 0.0266,-0.0704c0.004,-0.0251 0.0028,-0.0507 -0.0034,-0.0752c-0.0063,-0.0246 -0.0175,-0.0477 -0.033,-0.0677c-0.0155,-0.0201 -0.0349,-0.0368 -0.0571,-0.0492c-0.0222,-0.0123 -0.0466,-0.0199 -0.0719,-0.0224c-0.0252,-0.0026 -0.0507,0.0001 -0.0749,0.0078c-0.0242,0.0077 -0.0465,0.0202 -0.0657,0.0368c-0.0191,0.0167 -0.0347,0.037 -0.0457,0.0599c-1.5193,2.3091 -2.775,4.4697 -3.3638,7.415c0.087,0.073 -3.1949,-1.0285 -3.904,-1.2659c3.9846,-3.7856 9.9904,-10.6765 13.5641,-14.8666c0.9503,0.7454 2.0907,1.2091 3.2916,1.3383c1.1642,0.1758 2.3535,0.0768 3.4726,-0.2893c0,0 0.5421,1.0489 1.0848,1.088c0.0561,-0.0001 0.1109,-0.0175 0.1567,-0.05c0.0459,-0.0324 0.0805,-0.0782 0.0993,-0.1311c0.1446,-0.3258 -0.5062,-0.9402 -0.615,-1.3024c-0.0142,-0.2369 0.0476,-0.472 0.1765,-0.6713c0.1288,-0.1992 0.3179,-0.3521 0.5398,-0.4363c0.2218,-0.0842 0.4647,-0.0954 0.6933,-0.0319c0.2286,0.0635 0.431,0.1984 0.5776,0.3849c1.767,1.7664 6.0115,-0.2003 8.32,0.7232c-0.0724,0.217 -0.1031,0.4359 -0.1805,0.6509c-0.5378,1.3046 -1.3523,2.477 -2.3872,3.4361c-0.8723,1.0256 -2.0116,1.7894 -3.2915,2.2068c-2.5466,0.679 -4.3079,-1.554 -4.0877,-3.9789c0.0365,-0.1811 -0.217,-0.1811 -0.2893,-0.0359c-0.201,0.5092 -0.2825,1.0577 -0.2381,1.6033c0.0444,0.5456 0.2134,1.0737 0.4941,1.5436c1.2531,2.0243 3.481,2.3104 5.568,1.2295c1.2739,-0.7145 2.3734,-1.7027 3.2192,-2.8935c1.127,-1.3868 1.2467,-1.8086 1.3389,-1.8086c0.4101,-0.0118 0.8147,-0.0985 1.1936,-0.256c0.4076,-0.0519 0.8194,-0.0639 1.2294,-0.0359c2.8858,0.1528 5.6696,1.1183 8.0301,2.7853c1.3932,1.0538 2.546,2.3921 3.3818,3.9259c0.8358,1.5339 1.3354,3.2282 1.4655,4.9701c0.1184,2.2541 -0.8486,3.072 -1.4112,3.8701c-0.1804,0.217 0.1088,0.5069 0.3258,0.4346c1.4829,-0.3981 2.0979,-2.2432 2.1338,-3.584c-0.0141,-1.6138 -0.3453,-3.209 -0.9748,-4.6951zM80.4701,44.9282c-0.4893,0.7396 -1.1292,1.3677 -1.8777,1.8432c0.1106,-0.231 0.1954,-0.4735 0.2527,-0.7232c0.1965,-0.6867 0.3988,-1.52 -0.2527,-1.92c-0.4595,-0.1907 -0.9709,-0.2162 -1.4471,-0.0723c-1.9289,0.3014 -3.2736,1.7165 -6.4749,0.6874c-0.287,-0.3483 -0.6444,-0.6319 -1.0489,-0.832c-0.4516,-0.2159 -0.9678,-0.2545 -1.4464,-0.1082c-0.3131,0.1134 -0.5912,0.3064 -0.8069,0.5601c-0.2157,0.2536 -0.3616,0.5591 -0.4232,0.8863c-0.5222,0.1548 -1.0539,0.2756 -1.5917,0.3616c-1.701,0.1968 -3.4226,-0.1047 -4.9555,-0.8678c0.5792,-0.6509 1.1213,-1.3383 1.7005,-1.9891c2.295,-0.1152 4.6451,-2.5997 7.7043,-4.0877c2.2067,-1.049 5.4982,-1.266 7.4515,0.398c0.9115,0.6642 1.6243,1.5646 2.0615,2.6042c-1.2916,-0.112 -2.288,0.592 -4.7744,1.3024c-0.7959,0.1751 -1.6089,0.2599 -2.4237,0.2528c-0.0576,-0.0002 -0.1134,0.0203 -0.1572,0.0578c-0.0438,0.0374 -0.0727,0.0893 -0.0815,0.1463c-0.0087,0.0569 0.0033,0.1151 0.0338,0.164c0.0305,0.0489 0.0775,0.0852 0.1326,0.1023c1.6851,0.4595 3.847,-0.2989 5.4617,-0.9043c1.3062,-0.4896 2.3149,-0.5971 3.0387,0.576c0.1751,0.2269 0.2636,0.5088 0.2497,0.795c-0.0138,0.2863 -0.1291,0.5582 -0.3252,0.7672z" fill="#213555"></path><path d="M125.212,82.3629c-0.103,-3.072 -0.256,-6.3622 -2.387,-8.8256c-1.951,-2.256 -5.629,-3.5462 -8.611,-3.6115c-0.543,-0.7714 -1.187,-1.4666 -1.915,-2.0672c1.156,-0.2356 2.228,-0.7755 3.106,-1.564c0.877,-0.7885 1.528,-1.7969 1.886,-2.9211c0.181,-0.882 0.29,-1.7774 0.325,-2.6772c0.187,-0.9476 0.542,-1.854 1.049,-2.6764c0.036,-0.0669 0.052,-0.1426 0.046,-0.2183c-0.005,-0.0757 -0.033,-0.1482 -0.078,-0.2088c-0.046,-0.0607 -0.108,-0.1069 -0.179,-0.1333c-0.072,-0.0264 -0.149,-0.0318 -0.223,-0.0156c-0.814,0.1843 -1.603,0.4635 -2.351,0.832c-0.724,-1.9744 -3.133,-2.736 -5.064,-2.4602c0.167,-0.2075 0.301,-0.439 0.398,-0.6867c0.053,-0.3719 -0.151,-0.7495 -0.832,-0.5792c-1.337,0.3922 -2.615,0.9643 -3.798,1.7005c-0.96,-1.7728 -0.217,-4.7207 -1.339,-7.5239c-0.723,-1.8086 -2.206,-3.5808 -4.231,-3.9424c-1.9843,-0.3053 -4.6575,0.9709 -6.1494,2.24c-1.2608,1.1573 -2.0793,2.7176 -2.3149,4.4128c-0.032,0.1818 0.217,0.256 0.256,0.0723c0.2856,-1.4539 1.0192,-2.7819 2.098,-3.7977c1.3747,-1.3024 3.7619,-2.5325 5.7153,-2.2067c2.64,0.4339 3.942,3.0022 4.34,5.4259c0.29,1.8809 -0.036,4.0512 0.94,5.751c-0.878,0.7322 -1.145,1.001 -1.229,1.0848c-0.181,0.1811 0.072,0.3981 0.253,0.256c1.335,-1.0257 2.826,-1.8316 4.416,-2.3872c0.251,-0.0781 0.795,-0.256 0.832,-0.256c0,0.121 -1.31,1.609 -1.339,1.8087c-0.015,0.06 -0.014,0.1229 0.002,0.1825c0.017,0.0596 0.048,0.1139 0.092,0.1577c0.044,0.0437 0.098,0.0753 0.158,0.0917c0.06,0.0165 0.123,0.0171 0.183,0.002c0.289,-0.0359 0.469,-0.2893 0.65,-0.5063c0.18,-0.2079 0.349,-0.4252 0.507,-0.6508c0,0 0.217,-0.0724 0.289,-0.1088c0.899,-0.1706 1.829,-0.0353 2.642,0.3843c0.813,0.4195 1.462,1.0992 1.844,1.9305c-0.208,0.1241 -0.402,0.2697 -0.58,0.4346c-0.037,0.0375 -0.06,0.0871 -0.065,0.14c-0.004,0.0529 0.01,0.1057 0.041,0.1491c0.03,0.0433 0.075,0.0744 0.127,0.0877c0.051,0.0132 0.106,0.0079 0.153,-0.0152c0.856,-0.4564 1.752,-0.8317 2.677,-1.1213c-1.195,2.0903 -0.691,2.896 -1.049,4.4487c-0.197,0.7602 -0.553,1.4697 -1.046,2.0811c-0.493,0.6113 -1.11,1.1104 -1.812,1.4638c-2.893,1.5552 -7.587,0.7943 -9.187,-2.24c-0.113,-0.2144 -0.543,-0.1446 -0.506,0.1447c0.333,2.9958 4.942,4.11 7.632,3.7254c3.112,3.1744 4.032,7.3306 3.291,10.4896c-0.089,0.6124 -0.367,1.1817 -0.796,1.6282c-0.441,0.3532 -0.867,0.0723 -1.049,-0.3981c-0.527,-1.4323 0.31,-3.392 0.724,-4.8109c0.108,-0.3616 -0.398,-0.6509 -0.615,-0.3616c-0.072,0.1088 -0.144,0.1811 -0.217,0.2893c-0.072,-0.1447 -1.591,-3.6896 -3.725,-5.8599c-0.181,-0.1804 -0.435,0.1447 -0.362,0.256c0.036,0.0724 0.072,0.1082 0.108,0.1812c-0.144,0 -1.881,0.1804 -1.953,0.1804c-0.222,-0.6936 -0.588,-1.3326 -1.074,-1.8749c-0.486,-0.5423 -1.082,-0.9757 -1.747,-1.2719c-0.031,-0.0168 -0.065,-0.0274 -0.1,-0.0311c-0.035,-0.0037 -0.07,-0.0005 -0.104,0.0094c-0.034,0.01 -0.065,0.0265 -0.092,0.0486c-0.028,0.0221 -0.05,0.0494 -0.067,0.0803c-0.017,0.0309 -0.028,0.0647 -0.031,0.0997c-0.004,0.035 -0.001,0.0703 0.009,0.1041c0.01,0.0337 0.027,0.0651 0.049,0.0925c0.022,0.0273 0.049,0.0501 0.08,0.0669c1.181,0.8524 2.774,2.8044 2.062,4.0512c-0.687,1.1571 -1.809,0 -2.279,-0.6516c-0.326,-0.4697 -0.568,-0.9459 -0.832,-1.408c-0.611,-1.0739 -1.973,-2.5216 -2.641,-3.6889c-0.3356,-0.7991 -0.4479,-1.6745 -0.3248,-2.5325c-0.0058,-0.0946 -0.0442,-0.1842 -0.1087,-0.2537c-0.0645,-0.0694 -0.1511,-0.1143 -0.245,-0.1271c-0.0939,-0.0128 -0.1893,0.0074 -0.27,0.0572c-0.0807,0.0497 -0.1416,0.1258 -0.1724,0.2154c-0.0688,0.2611 -0.1171,0.527 -0.1447,0.7956c-0.786,-0.6829 -1.5232,-1.4201 -2.2061,-2.2061c-0.0748,-0.1069 -0.2899,-0.0723 -0.256,0.0723c0.1184,0.7416 0.4889,1.4197 1.049,1.92c0.4316,0.3832 0.8911,0.7339 1.3747,1.049c0,1.0636 0.704,2.0601 1.408,2.8576c0.727,0.8519 1.373,1.7698 1.93,2.7417c-3.082,0.1824 -10.2455,1.0944 -13.0346,1.4541c-18.88,2.416 -45.897,8.1536 -54.8717,11.4304c-0.0365,-0.0723 -0.0365,-0.1453 -0.1446,-0.2176c-1.6314,-1.4182 -9.4477,-6.3661 -11.2858,-7.5232c-5.8091,-3.7777 -11.9186,-7.072 -18.26689,-9.8496c0.064,-0.0147 11.47389,-2.768 11.53859,-2.7853c0.514,-0.0587 1.0085,-0.2317 1.447,-0.5062c0.0474,-0.046 0.0812,-0.104 0.098,-0.1679c0.0168,-0.0638 0.0158,-0.131 -0.0029,-0.1943c-0.0186,-0.0633 -0.0542,-0.1203 -0.1029,-0.1649c-0.0487,-0.0446 -0.1086,-0.075 -0.1733,-0.088c-0.5041,-0.0344 -1.0098,0.0395 -1.4829,0.217c-0.9017,0.2253 -1.9494,0.4102 -5.3536,1.3382c-2.30816,0.5272 -4.57961,1.2038 -6.79999,2.0256c-0.06722,0.0096 -0.12787,0.0455 -0.16862,0.0998c-0.04075,0.0544 -0.05825,0.1226 -0.04866,0.1898c0.00959,0.0673 0.04549,0.1279 0.0998,0.1687c0.05431,0.0407 0.12258,0.0582 0.1898,0.0486c12.11777,5.5175 27.51557,16.7776 29.69597,17.9405c0.0603,0.0356 0.129,0.0545 0.1991,0.0545c0.07,0 0.1387,-0.0189 0.199,-0.0545c6.3962,-1.0829 10.4512,-2.6208 26.6944,-5.8957c14.0077,-2.8216 28.1542,-4.9036 42.3808,-6.2374c0.502,0.7501 0.982,1.2896 1.531,1.3907c0.57,0.0832 1.149,-0.0593 1.615,-0.3971c0.467,-0.3378 0.783,-0.8443 0.881,-1.4115c0.86,0.0196 1.719,-0.0411 2.568,-0.1812c0.108,0.1812 1.989,3.6173 2.279,4.2682c0.144,0.3258 0.434,1.088 0.47,1.1213c-0.175,0.4044 -0.297,0.83 -0.362,1.2659c-0.924,4.0659 1.702,5.0611 3.002,3.6173c1.028,-1.1411 1.194,-3.072 1.194,-4.5216c-0.005,-1.9931 -0.556,-3.9467 -1.593,-5.6487c1.384,0.3776 2.869,0.6541 4.016,1.4893c2.955,2.1511 3.617,6.656 3.509,10.0192c-0.142,4.4346 -1.394,10.0704 -5.719,12.3923c0.117,1.3022 -0.066,2.614 -0.535,3.8343c2.176,-0.384 4.288,-1.1239 5.82,-2.8071c3.226,-3.5385 3.627,-8.5363 3.473,-13.1302z" fill="#213555"></path></g></g></svg>