<svg version="1.1" xmlns="http://www.w3.org/2000/svg" xmlns:xlink="http://www.w3.org/1999/xlink" width="128" height="128" viewBox="0,0,256,256"><g fill="none" fill-rule="nonzero" stroke="none" stroke-width="1" stroke-linecap="butt" stroke-linejoin="miter" stroke-miterlimit="10" stroke-dasharray="" stroke-dashoffset="0" font-family="none" font-weight="none" font-size="none" text-anchor="none" style="mix-blend-mode: normal"><g transform="translate(-0.00825,-0.00971) scale(2,2)"><path d="M66.1768,48.6196c-0.0968,-1.0033 -0.4716,-1.9598 -1.0821,-2.7618c-0.6105,-0.8021 -1.4326,-1.4179 -2.3739,-1.7784c-0.9863,-0.3365 -2.0395,-0.4287 -3.0692,-0.2685c-1.0297,0.1602 -2.0051,0.5679 -2.8425,1.1882c-0.4918,-0.3455 -1.0486,-0.5877 -1.6367,-0.7118c-0.5881,-0.1241 -1.1953,-0.1275 -1.7848,-0.0101c-0.5894,0.1174 -1.149,0.3532 -1.6446,0.6931c-0.4957,0.3399 -0.9173,0.7769 -1.2392,1.2845c-1.0289,1.7394 -1.4444,3.7737 -1.1802,5.7773c0.0065,0.0571 0.0278,0.1115 0.0619,0.1578c0.034,0.0462 0.0796,0.0828 0.1323,0.1059c0.0526,0.0231 0.1103,0.0321 0.1675,0.0259c0.0571,-0.0062 0.1116,-0.0273 0.158,-0.0612c0.1544,-0.136 0.3348,-0.2392 0.5303,-0.3033c0.1955,-0.0642 0.402,-0.0879 0.607,-0.0698c0.1555,0.0231 0.295,0.1626 0.5197,0.1626c0.0617,0.0004 0.1217,-0.0201 0.1702,-0.0582c0.0485,-0.0382 0.0826,-0.0917 0.0967,-0.1517c1.4777,0.2515 3.0336,-0.6048 3.9878,-1.8791c0.9856,1.6755 3.6096,3.1968 6.4314,2.9671c2.6944,-0.2317 4.1708,-2.1268 3.9904,-4.3085zM55.0248,46.0961c-0.0762,0.414 -0.9844,0.1696 -1.9239,0.576c-0.9203,0.4006 -1.351,1.2467 -1.6851,1.0291c-0.2931,-0.169 0.0282,-0.7475 0.1549,-0.9421c0.3172,-0.3806 0.7178,-0.683 1.1708,-0.8839c0.4529,-0.2009 0.946,-0.2948 1.441,-0.2745c0.2496,0.0314 0.8999,0.1792 0.8423,0.4954zM61.3608,45.3517c-0.0762,0.4128 -1.1245,0.1991 -1.8816,0.3412c-0.832,0.1478 -1.6903,0.6489 -1.8957,0.2822c-0.1677,-0.2944 0.4697,-0.727 0.8563,-0.8915c0.2849,-0.1151 0.5815,-0.199 0.8845,-0.2503c0.9005,-0.1497 2.1305,-0.0102 2.0339,0.5184z" fill="#213555"></path><path d="M104.41,77.9391c0.66,0.7839 1.28,1.6012 1.856,2.4486c1.702,2.5785 3.141,5.3207 4.297,8.1856c0.975,2.0999 1.729,4.2959 2.247,6.5523c0.009,0.0745 0.046,0.1425 0.105,0.1891c0.059,0.0466 0.133,0.0681 0.208,0.0596c0.074,-0.0085 0.142,-0.0462 0.189,-0.1049c0.047,-0.0586 0.068,-0.1333 0.059,-0.2078c-0.209,-2.5401 -0.937,-4.3142 -2.007,-6.8288c-1.674,-3.9308 -3.567,-7.936 -6.586,-10.656c-0.048,-0.0487 -0.114,-0.0763 -0.182,-0.0768c-0.069,-0.0005 -0.135,0.0262 -0.183,0.0743c-0.049,0.048 -0.077,0.1134 -0.077,0.1818c-0.001,0.0685 0.026,0.1343 0.074,0.183z" fill="#213555"></path><path d="M50.2763,53.9823c-0.2884,-0.1691 -0.5148,-0.4265 -0.6458,-0.7341c0,-0.0102 -0.0141,-0.0198 -0.0141,-0.0294c-0.0014,-0.0651 -0.0271,-0.1273 -0.0719,-0.1744c-0.0448,-0.0472 -0.1056,-0.076 -0.1705,-0.0808c-0.0649,-0.0048 -0.1292,0.0148 -0.1805,0.0548c-0.0512,0.0401 -0.0857,0.0978 -0.0967,0.162c-0.6368,2.2092 -0.3936,1.8726 -0.9408,3.8566c-0.0287,0.1051 -0.0169,0.2172 0.0331,0.3141c0.0499,0.0968 0.1344,0.1714 0.2367,0.2089c0.1023,0.0376 0.215,0.0354 0.3158,-0.0061c0.1007,-0.0415 0.1823,-0.1193 0.2284,-0.218c0.3764,-0.7783 0.9984,-2.0173 1.4471,-2.8103c0.0268,-0.0448 0.0444,-0.0945 0.0518,-0.1462c0.0074,-0.0517 0.0045,-0.1043 -0.0086,-0.1549c-0.0131,-0.0505 -0.0361,-0.098 -0.0677,-0.1396c-0.0316,-0.0415 -0.0711,-0.0764 -0.1163,-0.1026z" fill="#213555"></path><path d="M73.4609,59.731c-0.3812,-0.0426 -0.7494,-0.1635 -1.0816,-0.3552c-0.8026,-0.4819 -0.7751,-1.2019 -0.3789,-2.048c0.313,-0.6707 0.5466,-0.7814 0.2106,-2.1856c-0.0185,-0.0652 -0.0114,-0.1351 0.0199,-0.1953c0.0313,-0.0601 0.0843,-0.1061 0.1484,-0.1285c0.0671,-0.0203 0.1394,-0.0142 0.2021,0.0171c0.0627,0.0313 0.111,0.0854 0.1352,0.1512c0.384,0.9715 0.512,1.5635 0.1683,2.4039c-0.2221,0.5459 -0.5063,0.9939 -0.0845,1.2416c0.2792,0.156 0.5928,0.2401 0.9126,0.2444c0.4519,-0.0153 0.4173,0.4256 0.969,1.1949c0.2229,0.3623 0.5265,0.6683 0.8871,0.8941c0.3605,0.2258 0.7683,0.3653 1.1916,0.4077c0.491,0.0518 0.9867,-0.0333 1.4323,-0.2458c0.0505,-0.0268 0.106,-0.0429 0.163,-0.0473c0.057,-0.0044 0.1143,0.0029 0.1683,0.0216c0.054,0.0187 0.1036,0.0483 0.1457,0.0869c0.0421,0.0387 0.0758,0.0856 0.099,0.1379c0.4179,0.969 0.7698,1.9652 1.0535,2.9817c0.0134,0.0341 0.02,0.0706 0.0194,0.1073c-0.0006,0.0366 -0.0085,0.0728 -0.0231,0.1064c-0.0146,0.0337 -0.0357,0.0641 -0.0621,0.0896c-0.0264,0.0255 -0.0575,0.0455 -0.0917,0.059c-0.0341,0.0134 -0.0705,0.02 -0.1072,0.0194c-0.0367,-0.0007 -0.0729,-0.0085 -0.1065,-0.0231c-0.0336,-0.0147 -0.0641,-0.0358 -0.0895,-0.0621c-0.0255,-0.0264 -0.0456,-0.0576 -0.059,-0.0917l-1.1232,-2.4576c-0.5534,0.1903 -1.1452,0.2416 -1.7231,0.1493c-0.5779,-0.0923 -1.1242,-0.3253 -1.5908,-0.6786c-0.5859,-0.4962 -1.064,-1.1071 -1.4048,-1.7952z" fill="#213555"></path><path d="M75.7358,59.6533c1.0778,0.7277 2.2816,-0.3629 2.345,-1.8393c0.0098,-0.0714 -0.0059,-0.144 -0.0444,-0.2049c-0.0386,-0.0609 -0.0974,-0.1062 -0.1662,-0.1279c-0.6585,-0.1415 -0.3315,2.0556 -1.9379,1.6979c-0.3366,-0.0749 -0.4947,0.2765 -0.1965,0.4742z" fill="#213555"></path><path d="M73.6731,53.7947c0.0693,-0.1409 0.1746,-0.261 0.3051,-0.3482c0.1306,-0.0872 0.2819,-0.1384 0.4386,-0.1484c0.4928,-0.064 0.576,-0.0384 0.6464,-0.2208c0.1165,-0.2996 -0.3584,-0.5332 -0.576,-0.5927c-0.192,-0.0363 -0.3898,-0.027 -0.5776,0.0271c-0.1877,0.0542 -0.3602,0.1516 -0.5034,0.2846c-1.1008,0.8698 -0.51,2.5126 0.2669,0.9984z" fill="#213555"></path><path d="M84.0904,69.4197c0.32,0.7546 2.6093,6.6611 3.008,7.7203c2.8474,7.5474 4.9864,15.3434 6.3892,23.287c0.0113,0.075 0.0518,0.142 0.1126,0.186c0.0607,0.045 0.1367,0.064 0.2112,0.052c0.0745,-0.011 0.1415,-0.052 0.1861,-0.112c0.0447,-0.061 0.0634,-0.137 0.052,-0.212c-0.9351,-8.4867 -4.2419,-19.2496 -7.4285,-26.6877c-1.111,-2.5926 -1.5117,-3.2557 -2.0646,-4.4448c-0.028,-0.0614 -0.079,-0.1092 -0.142,-0.1332c-0.0631,-0.024 -0.133,-0.0221 -0.1947,0.0052c-0.0608,0.0294 -0.108,0.0808 -0.1321,0.1439c-0.024,0.0631 -0.023,0.133 0.0028,0.1953z" fill="#213555"></path><path d="M49.8436,54.351c-1.8604,-1.5059 -0.0915,-4.1177 2.048,-2.8646c0.0642,0.035 0.1123,0.0936 0.1342,0.1634c0.0218,0.0698 0.0157,0.1454 -0.0171,0.2108c-0.0328,0.0654 -0.0896,0.1155 -0.1586,0.1398c-0.069,0.0242 -0.1448,0.0208 -0.2113,-0.0097c-1.4246,-0.6675 -2.5024,1.0035 -1.024,1.856c0.0982,0.0546 0.171,0.1456 0.2025,0.2534c0.0315,0.1079 0.0192,0.2238 -0.0341,0.3226c-1.065,1.9251 -3.5002,6.4474 -3.6935,6.7738c-0.2861,0.4857 -0.599,0.9561 -0.8845,1.4464c-0.0327,0.0584 -0.0868,0.1019 -0.1508,0.1214c-0.0641,0.0196 -0.1333,0.0136 -0.193,-0.0166c-0.0598,-0.0302 -0.1056,-0.0824 -0.1279,-0.1455c-0.0222,-0.0632 -0.0192,-0.1326 0.0084,-0.1936c0.5792,-1.3459 0.3232,-1.1712 4.1017,-8.0576z" fill="#213555"></path><path d="M58.7995,52.8968c-0.1408,1.2199 -0.7865,4.1216 -1.1372,5.4778c-0.8116,-0.4199 -0.905,-0.5184 -1.1373,-0.4365c-0.0602,0.0194 -0.1153,0.052 -0.1615,0.0952c-0.0461,0.0433 -0.0821,0.0962 -0.1054,0.155c-0.9414,2.4359 -3.0214,3.8503 -5.0413,2.1037c-0.1971,-0.1709 -0.6784,-0.5197 -0.8845,-0.3597c-0.206,0.16 -0.0204,0.6535 0.32,0.9972c0.3059,0.2837 0.6531,0.5194 1.0298,0.6988c-0.3418,0.6023 -0.6867,1.472 -0.903,1.9719c-0.0199,0.0325 -0.0329,0.0687 -0.0382,0.1064c-0.0053,0.0378 -0.0028,0.0762 0.0074,0.1129c0.0102,0.0367 0.0278,0.0709 0.0518,0.1005c0.024,0.0296 0.0538,0.054 0.0875,0.0716c0.0338,0.0176 0.0709,0.028 0.1089,0.0307c0.038,0.0027 0.0761,-0.0025 0.112,-0.0152c0.0359,-0.0127 0.0689,-0.0327 0.0967,-0.0586c0.0279,-0.026 0.0502,-0.0574 0.0654,-0.0923c0.7539,-1.28 0.7897,-1.3984 1.2077,-1.9955c2.0211,0.3321 3.5244,-1.0599 4.3955,-2.914c0.9293,0.4775 0.9881,0.5543 1.2211,0.4608c0.0626,-0.0239 0.1186,-0.0626 0.1631,-0.1127c0.0446,-0.0502 0.0764,-0.1103 0.0929,-0.1753c0.5907,-2.4486 0.9683,-3.4771 0.9683,-6.1958c0.0003,-0.0669 -0.0252,-0.1314 -0.0712,-0.1801c-0.046,-0.0486 -0.1089,-0.0777 -0.1758,-0.0811c-0.0669,-0.0035 -0.1325,0.0189 -0.1833,0.0626c-0.0507,0.0436 -0.0827,0.1051 -0.0894,0.1717z" fill="#213555"></path><path d="M51.8216,56.8034c-0.8678,1.1981 0.1882,3.2 1.9098,2.5389c0.0361,-0.0084 0.0703,-0.0238 0.1005,-0.0454c0.0301,-0.0216 0.0557,-0.049 0.0754,-0.0805c0.0196,-0.0315 0.0328,-0.0665 0.0388,-0.1031c0.0061,-0.0366 0.0049,-0.0741 -0.0035,-0.1102c-0.0084,-0.0361 -0.0238,-0.0703 -0.0454,-0.1004c-0.0216,-0.0302 -0.049,-0.0558 -0.0804,-0.0754c-0.0315,-0.0197 -0.0666,-0.0329 -0.1032,-0.0389c-0.0366,-0.0061 -0.074,-0.0049 -0.1102,0.0035c-1.4016,0.128 -1.5322,-0.9395 -1.3197,-1.7664c0.0954,-0.368 -0.2669,-0.4915 -0.4621,-0.2221z" fill="#213555"></path><path d="M56.2027,52.9647c0.1824,0.3399 0.64,1.2205 1.0112,1.0464c0.5273,-0.2477 -0.2855,-1.5616 -0.6176,-2.039c-0.2343,-0.2919 -0.688,-0.6042 -0.8852,-0.448c-0.3219,0.2592 0.352,1.207 0.4916,1.4406z" fill="#213555"></path><path d="M63.1134,61.5629c-0.0581,-0.0475 -0.1279,-0.0785 -0.2021,-0.0898c-0.0742,-0.0112 -0.1501,-0.0023 -0.2196,0.0258c-0.8334,0.3905 -1.6161,0.8809 -2.3309,1.4605c-0.32,-0.7315 -0.6023,-1.4419 -0.9549,-2.1517c-0.0342,-0.066 -0.0926,-0.1163 -0.163,-0.1401c-0.0704,-0.0239 -0.1473,-0.0196 -0.2146,0.0121c-0.0673,0.0316 -0.1196,0.0881 -0.1461,0.1576c-0.0265,0.0694 -0.0251,0.1465 0.004,0.2149c0.2176,0.3033 -0.2496,0.4678 0.5197,5.5001c0.013,0.0764 0.0464,0.1478 0.0967,0.2068c0.0502,0.059 0.1154,0.1033 0.1887,0.1283c0.0733,0.0251 0.152,0.0299 0.2278,0.0139c0.0758,-0.0159 0.1459,-0.052 0.203,-0.1045c0.32,-0.3021 0.6457,-0.6054 0.9689,-0.9171c0,-0.0947 0.2221,1.3728 0.3514,2.1011c0.0179,0.102 0.0717,0.1941 0.1517,0.2598c0.08,0.0657 0.1809,0.1006 0.2844,0.0984c0.1035,-0.0023 0.2028,-0.0415 0.2798,-0.1106c0.0771,-0.0691 0.1269,-0.1635 0.1404,-0.2661c0.864,-6.1415 1.1821,-6.098 0.8147,-6.3994z" fill="#213555"></path><path d="M68.5462,63.5729c-0.5471,-0.4282 -1.1522,-0.7766 -1.7971,-1.0349c-0.0371,-0.1345 -0.0607,-0.2723 -0.0704,-0.4115c-0.1024,-1.2538 0.1152,-1.7549 -0.2669,-1.8266c-0.0553,-0.0319 -0.1206,-0.042 -0.183,-0.0283c-0.0624,0.0137 -0.1175,0.0503 -0.1543,0.1026c-1.1763,1.4521 -1.6902,3.0022 -2.432,4.5145c-0.032,0.0723 -0.0436,0.152 -0.0335,0.2304c0.01,0.0784 0.0413,0.1526 0.0905,0.2145c0.0492,0.0619 0.1144,0.1092 0.1885,0.1367c0.0741,0.0275 0.1543,0.0342 0.232,0.0194c0.3844,-0.0762 0.774,-0.1234 1.1654,-0.1414c-0.1523,0.3104 -0.8275,1.3926 -1.3619,2.3507c-0.0526,0.0983 -0.0657,0.213 -0.0367,0.3207c0.029,0.1077 0.0979,0.2002 0.1928,0.2589c0.0948,0.0586 0.2085,0.0789 0.3177,0.0567c0.1093,-0.0222 0.2061,-0.0852 0.2705,-0.1762c1.0464,-1.4892 2.5223,-2.5862 3.904,-3.9571c0.0435,-0.0409 0.0777,-0.0907 0.1003,-0.146c0.0225,-0.0552 0.033,-0.1147 0.0305,-0.1744c-0.0024,-0.0597 -0.0176,-0.1181 -0.0446,-0.1714c-0.027,-0.0532 -0.0651,-0.1001 -0.1118,-0.1373z" fill="#213555"></path><path d="M69.1218,67.9149c-1.046,0.0446 -2.0907,-0.1158 -3.0752,-0.4724c-0.068,-0.0123 -0.1283,-0.0511 -0.1678,-0.1078c-0.0395,-0.0567 -0.0548,-0.1268 -0.0427,-0.1949c0.0146,-0.0677 0.0551,-0.1271 0.1128,-0.1654c0.0578,-0.0384 0.1282,-0.0527 0.1963,-0.04c0.5904,-0.014 1.1811,0.0033 1.7696,0.0518c1.7722,0.1063 1.856,0.0109 2.0218,0.2304c0.0397,0.0461 0.0691,0.1001 0.0861,0.1586c0.017,0.0584 0.0213,0.1198 0.0124,0.18c-0.2784,2.1491 -0.192,2.1216 -0.5478,3.328c-0.0034,0.0366 -0.0143,0.0721 -0.0319,0.1043c-0.0176,0.0323 -0.0416,0.0606 -0.0706,0.0832c-0.0289,0.0227 -0.0622,0.0392 -0.0977,0.0485c-0.0355,0.0094 -0.0726,0.0114 -0.1089,0.0059c-0.0372,-0.0043 -0.073,-0.0162 -0.1054,-0.0348c-0.0324,-0.0187 -0.0606,-0.0438 -0.083,-0.0737c-0.0223,-0.03 -0.0383,-0.0642 -0.047,-0.1006c-0.0087,-0.0363 -0.0098,-0.0741 -0.0034,-0.1109c-0.0413,-0.9671 0.0199,-1.936 0.1824,-2.8902z" fill="#213555"></path><path d="M70.921,68.0688c1.4851,-0.0718 2.9432,-0.4245 4.297,-1.0393c1.4035,-0.4699 2.7219,-1.1637 3.904,-2.0544c0.032,-0.0185 0.0601,-0.0431 0.0827,-0.0724c0.0226,-0.0293 0.0391,-0.0628 0.0488,-0.0985c0.0096,-0.0357 0.0121,-0.073 0.0073,-0.1096c-0.0048,-0.0367 -0.0167,-0.0721 -0.0352,-0.1042c-0.0184,-0.032 -0.043,-0.0602 -0.0723,-0.0827c-0.0293,-0.0226 -0.0628,-0.0391 -0.0985,-0.0488c-0.0721,-0.0194 -0.149,-0.0094 -0.2138,0.0278c-0.393,0.1812 -0.8,0.3335 -1.1936,0.512c-1.784,0.9069 -3.657,1.6269 -5.5891,2.1485c-0.3418,0.1024 -1.0093,0.3405 -1.2352,0.4116c-0.0334,0.0064 -0.0652,0.0193 -0.0935,0.038c-0.0284,0.0187 -0.0528,0.0428 -0.0718,0.071c-0.0191,0.0281 -0.0324,0.0597 -0.0392,0.093c-0.0069,0.0333 -0.0071,0.0676 -0.0006,0.101c0.0064,0.0334 0.0193,0.0651 0.038,0.0935c0.0187,0.0284 0.0429,0.0528 0.071,0.0718c0.0281,0.0191 0.0597,0.0324 0.093,0.0392c0.0333,0.0068 0.0676,0.007 0.101,0.0006z" fill="#213555"></path><path d="M85.4275,61.5688c0.9507,-0.3839 1.9157,-0.7314 2.8928,-1.042c3.2135,-1.0163 6.3898,-1.4009 9.577,-0.0908c3.3847,1.3888 3.4557,3.0796 3.9877,2.5862c0.028,-0.0249 0.05,-0.0552 0.066,-0.0889c0.015,-0.0337 0.024,-0.0703 0.026,-0.1075c0.001,-0.0372 -0.005,-0.0742 -0.019,-0.109c-0.013,-0.0348 -0.033,-0.0665 -0.059,-0.0933c-0.865,-1.3698 -2.1586,-2.4156 -3.6792,-2.9754c-3.3657,-1.4393 -8.192,-1.344 -13.0169,1.4592c-0.0612,0.0298 -0.1081,0.0827 -0.1303,0.147c-0.0222,0.0644 -0.0179,0.1349 0.0119,0.1961c0.0298,0.0612 0.0827,0.108 0.147,0.1302c0.0643,0.0222 0.1348,0.0179 0.196,-0.0118z" fill="#213555"></path><path d="M91.6345,62.842c0.2035,0.064 0.6317,0.2784 0.7443,0.3277c1.1603,0.4627 2.1032,1.3463 2.64,2.4742c0.128,0.2394 0.281,0.4659 0.393,0.72c0.0095,0.0351 0.0258,0.0679 0.048,0.0967c0.0222,0.0287 0.0498,0.0528 0.0813,0.0709c0.0315,0.018 0.0662,0.0297 0.1023,0.0343c0.036,0.0047 0.0725,0.0022 0.1076,-0.0073c0.035,-0.0095 0.0679,-0.0258 0.0966,-0.048c0.0288,-0.0222 0.0529,-0.0498 0.0709,-0.0813c0.0181,-0.0315 0.0298,-0.0663 0.0344,-0.1023c0.0046,-0.036 0.0021,-0.0726 -0.0074,-0.1076c-0.0467,-0.5212 -0.1959,-1.0279 -0.4389,-1.4913c-0.2431,-0.4633 -0.5752,-0.8742 -0.9774,-1.2089c-0.5301,-0.516 -1.1749,-0.8991 -1.8816,-1.1181c-0.308,-0.0722 -0.6254,-0.0962 -0.9408,-0.071c-0.0681,-0.0075 -0.1365,0.0112 -0.1913,0.0523c-0.0548,0.0412 -0.0919,0.1016 -0.1037,0.1691c-0.0076,0.0679 0.0114,0.136 0.0529,0.1901c0.0415,0.0542 0.1024,0.0902 0.1698,0.1005z" fill="#213555"></path><path d="M96.8026,64.0718c0.1549,0.249 0.295,0.512 0.448,0.768c0.0755,0.1786 0.4524,0.7283 0.7296,0.6035c0.576,-0.2592 -0.4167,-1.8957 -0.8563,-2.4083c-0.2733,-0.32 -0.7975,-0.6925 -1.0112,-0.473c-0.2733,0.2861 0.432,1.104 0.6899,1.5098z" fill="#213555"></path><path d="M98.8373,63.3078c0.2522,0.3693 0.7142,1.408 1.1232,1.2314c0.6045,-0.2599 -0.4358,-1.8592 -0.8845,-2.3565c-0.2432,-0.272 -0.8121,-0.6496 -1.0112,-0.448c-0.2829,0.2937 0.4314,1.0707 0.7725,1.5731z" fill="#213555"></path><path d="M57.0599,75.8886c-0.0732,-0.0195 -0.1512,-0.0093 -0.2169,0.0283c-0.0658,0.0376 -0.1141,0.0996 -0.1345,0.1726c-0.2387,0.8103 -0.407,1.6947 -0.704,2.5107c-0.8409,2.329 -2.711,2.6458 -5.184,3.7229c-4.7392,2.0864 -11.44,4.8602 -16.4691,6.0883c0.3955,-1.2319 0.7898,-2.8204 0.896,-3.2505c0.0138,-0.0317 0.0209,-0.0658 0.0211,-0.1003c0.0002,-0.0345 -0.0065,-0.0687 -0.0199,-0.1006c-0.0134,-0.0318 -0.033,-0.0606 -0.0578,-0.0846c-0.0247,-0.0241 -0.0541,-0.0429 -0.0863,-0.0553c-0.0323,-0.0124 -0.0666,-0.0181 -0.1011,-0.0169c-0.0345,0.0013 -0.0684,0.0095 -0.0997,0.0241c-0.0312,0.0147 -0.0592,0.0356 -0.0822,0.0613c-0.0229,0.0258 -0.0405,0.0559 -0.0515,0.0886c-0.5398,1.1394 -0.9154,2.3495 -1.1155,3.5943c-0.7924,0.1825 -1.5982,0.3004 -2.4096,0.3526c-0.034,0.0018 -0.0672,0.0104 -0.0979,0.0251c-0.0307,0.0147 -0.0581,0.0353 -0.0808,0.0606c-0.0227,0.0253 -0.0402,0.0548 -0.0515,0.0869c-0.0113,0.0321 -0.0162,0.0661 -0.0143,0.1c0.0018,0.034 0.0104,0.0672 0.0251,0.0979c0.0147,0.0307 0.0353,0.0581 0.0606,0.0808c0.0253,0.0227 0.0548,0.0402 0.0869,0.0515c0.0321,0.0113 0.0661,0.0162 0.1,0.0143c3.6602,-0.0077 6.5447,-1.1443 9.984,-2.3085c3.5443,-1.2262 6.4672,-2.5017 9.9136,-4.0205c1.5271,-0.6745 3.5079,-1.2313 4.6624,-2.5996c1.0586,-1.2992 1.088,-2.985 1.4183,-4.2784c0.0178,-0.0712 0.008,-0.1464 -0.0275,-0.2106c-0.0356,-0.0641 -0.0941,-0.1124 -0.1639,-0.135z" fill="#213555"></path><path d="M70.2609,77.1107c0.0931,-0.2165 0.1419,-0.4495 0.1434,-0.6853c0.0015,-0.2357 -0.0442,-0.4693 -0.1346,-0.687c-0.0903,-0.2178 -0.2234,-0.4152 -0.3913,-0.5806c-0.168,-0.1654 -0.3674,-0.2954 -0.5865,-0.3824c0.1162,-0.3427 0.1203,-0.7135 0.0116,-1.0587c-0.1086,-0.3452 -0.3243,-0.6469 -0.6157,-0.8613c0.8115,-1.6135 -1.1066,-3.4862 -2.604,-2.1728c-0.1325,-0.2473 -0.229,-0.4177 -0.393,-0.6443c-0.2082,-0.2876 -0.441,-0.5573 -0.6958,-0.806c-0.7008,-0.6643 -1.8234,-0.6304 -2.1626,0.2119c-0.2305,-0.1127 -0.4844,-0.169 -0.7409,-0.1644c-0.2565,0.0047 -0.5082,0.0701 -0.7345,0.191c-0.2262,0.1209 -0.4205,0.2938 -0.5669,0.5045c-0.1464,0.2107 -0.2407,0.4531 -0.2751,0.7073c-0.3328,-0.0493 -0.6719,0.0266 -0.952,0.2129c-0.28,0.1863 -0.4811,0.4698 -0.5642,0.7957c-0.204,-0.0093 -0.4077,0.0248 -0.5975,0.1002c-0.1898,0.0753 -0.3614,0.1901 -0.5035,0.3368c-0.1421,0.1467 -0.2514,0.3219 -0.3206,0.514c-0.0693,0.1921 -0.0969,0.3968 -0.0811,0.6004c0,1.3555 0.2432,3.4918 1.3619,4.2649c0.1853,0.1603 0.4072,0.2723 0.6461,0.3262c0.2389,0.054 0.4875,0.0481 0.7236,-0.0171c0.2361,-0.0651 0.4525,-0.1875 0.63,-0.3563c0.1775,-0.1688 0.3106,-0.3788 0.3875,-0.6113c0.2265,0.1125 0.4774,0.1671 0.7302,0.1587c0.576,-0.0262 1.097,-0.384 1.3485,-1.2627c0.2783,0.1091 0.5853,0.1206 0.871,0.0326c0.2856,-0.088 0.5329,-0.2703 0.7015,-0.5171c0.1407,-0.1999 0.2365,-0.4278 0.281,-0.6682c0.2164,0.02 0.4345,-0.0075 0.6392,-0.0804c0.2047,-0.073 0.3911,-0.1897 0.5461,-0.3419c0.155,-0.1523 0.275,-0.3366 0.3516,-0.5399c0.0766,-0.2034 0.1079,-0.421 0.0919,-0.6378c-0.0276,-0.5915 -0.167,-1.1724 -0.4109,-1.712l-0.1077,-0.1305c1.0995,-1.0003 2.5614,0.5881 1.6565,1.6601c-0.4518,0.2904 -0.8509,0.6555 -1.1802,1.0797c-0.0761,0.128 -0.1158,0.2618 -0.0281,0.3655c0.2739,0.32 1.2608,-0.5901 1.5136,-0.8845c0.1083,0.0482 0.2027,0.123 0.2744,0.2174c0.0717,0.0944 0.1184,0.2054 0.1358,0.3227c0.0527,0.1641 0.0678,0.3379 0.0439,0.5086c-0.0238,0.1706 -0.0858,0.3337 -0.1815,0.477c-0.3898,0.4295 -1.191,0.9773 -0.9408,1.2743c0.0941,0.112 0.2387,0.0787 0.3648,0.0281c0.391,-0.1568 0.6464,-0.6867 0.9408,-0.8096c0.5274,-0.2195 1.1123,1.0983 0.576,1.6768c-0.3521,0.333 -0.6636,0.7063 -0.928,1.1124c-0.0525,0.1363 -0.0813,0.2681 0.0282,0.3654c0.1094,0.0973 0.2406,0.0512 0.3647,-0.0256c0.2829,-0.1734 0.4749,-0.6202 0.8039,-0.7494c0.409,-0.1607 0.7168,0.1824 0.8672,0.384c0.5427,0.7334 -0.9453,2.8454 -1.3619,3.4892c-4.5082,7.0343 -11.8893,15.2109 -16.3047,18.8381c-1.5267,1.287 -3.1943,2.396 -4.9708,3.307c-5.3367,2.611 -11.3294,3.576 -17.216,2.773c-7.7722,-1.167 -13.2333,-5.622 -14.6887,-13.5728c-0.5193,-3.0293 -0.6089,-6.1168 -0.2662,-9.1712c0.5549,-4.551 1.4528,-5.1993 0.9267,-5.3869c-0.0666,-0.0223 -0.1392,-0.0175 -0.2023,0.0132c-0.0631,0.0308 -0.1116,0.0851 -0.135,0.1513c-1.5396,4.6832 -1.9202,9.6699 -1.1091,14.5325c1.2378,7.0779 5.5328,11.5009 11.7818,13.4729c6.8384,2.16 15.2217,1.024 21.3024,-2.034c1.8332,-0.946 3.5569,-2.091 5.1398,-3.415c7.0624,-5.8127 17.664,-19.4057 17.9744,-22.2978c0.0379,-0.194 0.0366,-0.3936 -0.004,-0.587c-0.0406,-0.1934 -0.1195,-0.3767 -0.2322,-0.5391c-0.1126,-0.1623 -0.2567,-0.3005 -0.4237,-0.4062c-0.167,-0.1057 -0.3535,-0.1768 -0.5484,-0.2092zM59.3636,76.7907c-0.823,-0.5465 -1.0106,-2.5408 -1.0106,-3.5443c0,-0.5056 0.2644,-0.8077 0.7783,-0.6931c0.4166,2.0563 1.0317,2.4762 1.2857,3.5763c0.1434,0.7296 -0.4179,1.1085 -1.0534,0.6637zM62.3831,75.7936c-0.1798,0.3667 -0.4595,0.425 -0.832,0.2362c-0.6726,-0.3603 -1.8713,-3.6269 -1.8393,-3.7959c0.1478,-0.7801 0.5625,-0.9196 0.983,-0.67c0.064,0.039 1.8195,3.3696 1.8253,3.4336c0.0254,0.2736 -0.0218,0.5491 -0.137,0.7987zM64.3485,74.3799c-0.1523,0.7283 -0.7494,0.711 -1.0527,0.3142c-0.7438,-1.1434 -1.4245,-2.3266 -2.0391,-3.5443c-0.0536,-0.1891 -0.0506,-0.3897 0.0084,-0.5771c0.0591,-0.1874 0.1717,-0.3534 0.324,-0.4776c0.1523,-0.1241 0.3375,-0.201 0.533,-0.2212c0.1955,-0.0201 0.3925,0.0174 0.5669,0.1079c0.4041,1.3618 0.9608,2.6736 1.6595,3.9104c0.0214,0.1627 0.0214,0.3275 0,0.4902zM65.1069,73.5664c-0.7231,-1.1741 -1.3297,-2.416 -1.8111,-3.7081c0.1337,-0.5933 0.791,-0.5652 1.2076,-0.128c0.831,0.9013 1.344,2.05 1.4605,3.2704c0.0122,0.5088 -0.4563,1.031 -0.857,0.5683z" fill="#213555"></path><path d="M61.849,94.4115c0.4931,1.2203 1.1294,2.3776 1.8957,3.4477c3.8157,5.3118 10.56,8.1378 16.3315,5.0308c1.1555,-0.654 2.2102,-1.472 3.1316,-2.429c0.0267,-0.025 0.0482,-0.056 0.063,-0.09c0.0149,-0.034 0.0229,-0.071 0.0235,-0.108c0.0007,-0.037 -0.0059,-0.074 -0.0195,-0.109c-0.0136,-0.035 -0.0339,-0.066 -0.0597,-0.093c-0.0258,-0.027 -0.0566,-0.048 -0.0907,-0.0629c-0.0341,-0.0149 -0.0707,-0.0229 -0.1079,-0.0236c-0.0372,-0.0007 -0.0741,0.006 -0.1087,0.0196c-0.0346,0.0139 -0.0662,0.0339 -0.093,0.0599c-0.9239,0.854 -1.9698,1.566 -3.1034,2.112c-6.8217,3.367 -13.6409,-1.074 -17.399,-7.9747c-0.0145,-0.0304 -0.0348,-0.0577 -0.0598,-0.0802c-0.025,-0.0226 -0.0542,-0.04 -0.0859,-0.0513c-0.0317,-0.0113 -0.0654,-0.0163 -0.099,-0.0145c-0.0337,0.0017 -0.0666,0.01 -0.0971,0.0244c-0.0304,0.0145 -0.0577,0.0348 -0.0802,0.0598c-0.0226,0.025 -0.04,0.0542 -0.0513,0.0859c-0.0113,0.0318 -0.0163,0.0654 -0.0145,0.0991c0.0017,0.0336 0.01,0.0666 0.0244,0.097z" fill="#213555"></path><path d="M77.9972,85.3709c-1.915,-0.2923 -3.8485,-0.4472 -5.7856,-0.4634c-0.0336,0.0028 -0.0675,-0.0011 -0.0996,-0.0114c-0.0321,-0.0103 -0.0619,-0.0268 -0.0876,-0.0486c-0.0258,-0.0218 -0.0469,-0.0485 -0.0624,-0.0785c-0.0154,-0.03 -0.0248,-0.0627 -0.0275,-0.0963c-0.0028,-0.0337 0.0011,-0.0675 0.0114,-0.0996c0.0103,-0.0321 0.0268,-0.0619 0.0486,-0.0877c0.0218,-0.0257 0.0485,-0.0469 0.0785,-0.0623c0.03,-0.0154 0.0627,-0.0248 0.0963,-0.0276c2.0628,-0.2053 4.1432,-0.1515 6.1927,0.16c0.085,0.0066 0.1658,0.0395 0.2313,0.0941c0.0655,0.0546 0.1123,0.1282 0.1341,0.2106c1.4163,5.1629 4.2035,11.136 5.4624,17.7508c0.017,0.073 0.0044,0.149 -0.035,0.213c-0.0393,0.063 -0.1022,0.108 -0.1749,0.125c-0.0726,0.017 -0.1491,0.005 -0.2124,-0.035c-0.0634,-0.039 -0.1085,-0.102 -0.1255,-0.175c-1.5111,-5.6171 -4.1722,-12.3703 -5.6448,-17.3681z" fill="#213555"></path><path d="M90.7059,61.8244c-1.5143,-0.35 -4.9312,0.4071 -5.4771,0.7892c-1.152,1.0924 -1.6525,2.6284 -2.3732,4.1414c-1.0777,-0.32 -2.5881,-0.7245 -3.44,-1.0534c-0.1041,-0.0382 -0.2192,-0.0336 -0.32,0.0128c-3.9475,1.838 -7.527,4.615 -8.8467,8.7808c-0.0129,0.0318 -0.0192,0.066 -0.0184,0.1004c0.0009,0.0344 0.0088,0.0683 0.0232,0.0995c0.0145,0.0312 0.0352,0.0591 0.0609,0.0819c0.0257,0.0229 0.0559,0.0402 0.0886,0.051c0.4908,0.1862 0.256,-0.8058 2.2329,-3.2564c1.8157,-2.1426 4.0907,-3.8488 6.656,-4.992c1.1565,0.4173 2.4384,0.738 3.6794,1.1066c0.0966,0.0282 0.2001,0.0216 0.2924,-0.0185c0.0924,-0.0401 0.1678,-0.1112 0.2132,-0.201c0.7193,-1.4413 1.2499,-3.1603 2.2886,-4.1984c0.8139,-0.2783 1.6441,-0.5068 2.4858,-0.6842c0.0613,1.9239 -0.0799,3.849 -0.4212,5.7434c-1.3214,-0.3637 -2.6696,-0.6218 -4.0319,-0.7719c-0.0851,-0.0145 -0.1726,-0.0023 -0.2505,0.0348c-0.0779,0.0371 -0.1424,0.0974 -0.1847,0.1726l-2.048,3.4771c-0.7637,-1.1975 -1.6034,-2.3448 -2.514,-3.4349c-0.0387,-0.0577 -0.0987,-0.0976 -0.1669,-0.1111c-0.0682,-0.0134 -0.1389,0.0008 -0.1966,0.0395c-0.0577,0.0387 -0.0977,0.0987 -0.1111,0.1669c-0.0135,0.0681 0.0007,0.1389 0.0394,0.1966c0.841,1.344 2.0941,3.2857 2.5696,4.192c0.035,0.0677 0.0877,0.1247 0.1524,0.165c0.0647,0.0403 0.139,0.0624 0.2152,0.064c0.0762,0.0015 0.1514,-0.0175 0.2177,-0.0551c0.0663,-0.0376 0.1213,-0.0924 0.1591,-0.1586l2.2752,-3.84c0.814,0.128 1.6,0.2176 2.359,0.3668c1.655,0.32 1.657,0.6137 1.9942,0.4531c0.0547,-0.0253 0.1031,-0.0622 0.1419,-0.1082c0.0388,-0.046 0.0671,-0.1 0.0828,-0.1581c0.6189,-2.3795 0.5062,-3.8816 0.2867,-6.5427c0.5841,-0.1223 1.1834,-0.1548 1.7773,-0.0966c0.0715,0.0098 0.1441,-0.0081 0.2028,-0.0501c0.0588,-0.042 0.0992,-0.1048 0.1131,-0.1757c0.014,-0.0708 0.0002,-0.1443 -0.0383,-0.2054c-0.0385,-0.0611 -0.0989,-0.1051 -0.1688,-0.1231z" fill="#213555"></path><path d="M93.8523,76.427c0.2522,-0.0966 2.7002,-1.0579 2.8928,-1.1584c0.4627,-0.231 0.9159,-0.4442 0.8,-0.7443c-0.1209,-0.3111 -0.6253,-0.1581 -1.2358,0.0243c-1.0259,0.3426 -2.0294,0.7487 -3.0048,1.216c-0.1741,0.0947 -0.9107,0.5331 -0.7866,0.8186c0.1626,0.2937 0.8871,0.0179 1.3344,-0.1562z" fill="#213555"></path><path d="M111.56,69.4159c-2.409,-2.5922 -5.274,-4.7184 -8.454,-6.272c-0.068,-0.0316 -0.12,-0.089 -0.146,-0.1594c-0.025,-0.0703 -0.022,-0.148 0.01,-0.2159c0.031,-0.0679 0.089,-0.1205 0.159,-0.1461c0.071,-0.0256 0.148,-0.0222 0.216,0.0094c1.198,0.519 2.366,1.1059 3.497,1.7581c2.101,1.2545 3.983,2.8419 5.574,4.7002c0.056,0.0678 0.089,0.1506 0.097,0.2376c0.007,0.0871 -0.012,0.1744 -0.054,0.2507c-0.413,0.7334 -0.893,1.4273 -1.433,2.073c-1.598,1.8649 -3.3,3.6384 -5.097,5.3119c-0.913,0.8244 -1.879,1.5873 -2.893,2.2836c-0.09,0.0611 -0.2,0.0854 -0.307,0.0679c-0.107,-0.0175 -0.203,-0.0755 -0.269,-0.162c-1.297,-1.7043 -2.088,-2.9517 -3.5949,-4.7917c-0.0435,-0.0524 -0.0649,-0.1197 -0.0596,-0.1877c0.0053,-0.0679 0.0369,-0.1311 0.0881,-0.1761c0.0512,-0.045 0.1179,-0.0683 0.1859,-0.0649c0.0681,0.0034 0.1321,0.0332 0.1786,0.0831c1.2999,1.3559 2.5099,2.7951 3.6229,4.3085c3.329,-2.3763 7.596,-7.0912 8.679,-8.9082z" fill="#213555"></path><path d="M111.839,71.3691c2.363,3.0861 4.392,6.4142 6.053,9.9283c1.555,3.5621 2.768,7.2638 3.623,11.0554c0.013,0.0744 0.055,0.1406 0.117,0.1839c0.062,0.0433 0.139,0.0603 0.213,0.0471c0.074,-0.0131 0.141,-0.0553 0.184,-0.1173c0.043,-0.0619 0.06,-0.1385 0.047,-0.2129c-0.542,-3.9263 -1.688,-7.7449 -3.398,-11.3203c-1.142,-2.5242 -2.53,-4.93 -4.142,-7.1828c-0.713,-0.9514 -1.482,-1.8587 -2.304,-2.7168c-0.045,-0.052 -0.108,-0.0842 -0.176,-0.0896c-0.069,-0.0053 -0.136,0.0167 -0.188,0.0612c-0.052,0.0444 -0.085,0.1078 -0.09,0.176c-0.005,0.0682 0.017,0.1358 0.061,0.1878z" fill="#213555"></path><path d="M70.5277,82.3975c0.1876,0.3251 0.658,1.095 0.8845,1.4227c0.32,0.4614 3.8458,4.9094 5.952,7.3242c0.0453,0.0583 0.1115,0.0969 0.1846,0.1075c0.0731,0.0106 0.1474,-0.0076 0.2075,-0.0507c0.06,-0.0431 0.1009,-0.1078 0.1142,-0.1804c0.0133,-0.0727 -0.0021,-0.1477 -0.0429,-0.2092c-0.3136,-0.4743 -0.5895,-0.9549 -0.9127,-1.4138c-0.8876,-1.2544 -4.5958,-5.7766 -5.0272,-6.2771c-0.3052,-0.3546 -0.6316,-0.6823 -0.9548,-1.0311c-0.0185,-0.0309 -0.0433,-0.0576 -0.0728,-0.0783c-0.0295,-0.0207 -0.063,-0.0349 -0.0984,-0.0418c-0.0353,-0.0068 -0.0717,-0.0061 -0.1068,0.002c-0.0351,0.0082 -0.0681,0.0237 -0.0968,0.0455c-0.0286,0.0218 -0.0524,0.0494 -0.0697,0.081c-0.0173,0.0316 -0.0277,0.0665 -0.0306,0.1024c-0.0028,0.036 0.0019,0.0721 0.014,0.106c0.012,0.034 0.0311,0.065 0.0559,0.0911z" fill="#213555"></path><path d="M58.3363,66.3484c-2.1511,-0.1476 -4.2821,-0.5104 -6.3609,-1.0829c-0.0445,-0.0115 -0.0909,-0.0139 -0.1363,-0.0072c-0.0455,0.0067 -0.0891,0.0224 -0.1284,0.0463c-0.0392,0.0239 -0.0733,0.0554 -0.1002,0.0926c-0.0269,0.0373 -0.046,0.0796 -0.0563,0.1243c-0.4155,1.7447 -1.2384,3.3662 -2.4012,4.7316c-0.8724,-3.328 -1.728,-6.7879 -4.7328,-8.4666c-3.0388,-1.7107 -7.424,-1.3664 -10.7847,-0.4774c-7.9488,2.103 -13.7933,7.9609 -19.2941,14.263c-0.044,0.0508 -0.0758,0.1111 -0.0928,0.1761c-0.017,0.065 -0.0188,0.1331 -0.0052,0.199c0.0135,0.0659 0.0421,0.1277 0.0834,0.1807c0.0413,0.0531 0.0943,0.0959 0.1548,0.1252c1.657,0.7808 3.328,1.486 5.0272,2.1568c2.5421,1.0016 15.0534,5.8393 15.8963,6.1088c0.0919,0.0302 0.1919,0.0231 0.2786,-0.0198c0.0867,-0.0428 0.153,-0.118 0.1848,-0.2094c0.6246,-2.206 1.452,-4.3496 2.4717,-6.4032c0.019,-0.0323 0.0311,-0.0682 0.0357,-0.1054c0.0046,-0.0372 0.0015,-0.0749 -0.009,-0.1109c-0.0106,-0.036 -0.0284,-0.0694 -0.0523,-0.0983c-0.024,-0.0288 -0.0536,-0.0524 -0.0871,-0.0694c-0.0654,-0.0342 -0.1415,-0.0416 -0.2123,-0.0205c-0.0707,0.021 -0.1305,0.0688 -0.1666,0.1332c-1.0359,1.9545 -1.8915,3.9995 -2.5561,6.1094c-2.4013,-0.8377 -5.4957,-2.24 -7.8355,-3.175c-4,-1.5712 -8.2868,-3.072 -12.0768,-4.8288c5.4323,-5.9443 10.6374,-11.5008 18.48,-13.5738c3.143,-0.832 7.3107,-1.1904 10.1388,0.384c1.1364,0.6592 2.0501,1.6426 2.624,2.8243c0.8543,1.8859 1.5122,3.8547 1.9636,5.8752c-1.4027,0.6903 -2.8755,1.228 -4.393,1.6039c-0.2189,-3.4816 -1.0022,-6.4928 -1.3056,-8.9427c0.0006,-0.0362 -0.0065,-0.0722 -0.0208,-0.1054c-0.0143,-0.0333 -0.0355,-0.0631 -0.0622,-0.0876c-0.0267,-0.0245 -0.0582,-0.043 -0.0926,-0.0543c-0.0344,-0.0114 -0.0708,-0.0154 -0.1068,-0.0116c-0.036,0.0037 -0.0708,0.0151 -0.1021,0.0332c-0.0313,0.0182 -0.0584,0.0428 -0.0795,0.0723c-0.0211,0.0294 -0.0357,0.063 -0.0429,0.0984c-0.0072,0.0355 -0.0067,0.0721 0.0013,0.1074c0.1459,3.3216 0.8467,6.4941 0.983,9.4375c0.0041,0.062 0.0213,0.1225 0.0505,0.1773c0.0292,0.0549 0.0696,0.103 0.1187,0.1411c0.0491,0.0381 0.1058,0.0654 0.1662,0.08c0.0604,0.0146 0.1232,0.0162 0.1843,0.0048c1.8031,-0.3841 3.5493,-0.9986 5.1955,-1.8285c1.0476,0.9086 1.977,1.9452 2.7661,3.0854c0.0451,0.0615 0.1057,0.1098 0.1756,0.1402c0.0699,0.0303 0.1466,0.0416 0.2223,0.0326c0.0757,-0.009 0.1476,-0.0379 0.2085,-0.0837c0.0609,-0.0459 0.1085,-0.1071 0.1379,-0.1774c0.991,-2.3939 1.3914,-4.9912 1.1674,-7.5725c-0.0013,-0.037 -0.01,-0.0734 -0.0257,-0.107c-0.0156,-0.0335 -0.0379,-0.0636 -0.0654,-0.0884c-0.0276,-0.0248 -0.0598,-0.0438 -0.0948,-0.0558c-0.0351,-0.0121 -0.0722,-0.017 -0.1091,-0.0144c-0.0742,0.0061 -0.1431,0.0403 -0.1928,0.0957c-0.0496,0.0553 -0.0762,0.1276 -0.0741,0.2019c0.0024,2.2154 -0.3776,4.4145 -1.1232,6.5005c-0.7436,-1.0473 -1.633,-1.983 -2.6413,-2.7789c1.3121,-1.4569 2.2434,-3.2158 2.711,-5.12c2.023,0.4807 4.0876,0.7651 6.1652,0.8493c0.0683,0.0038 0.1353,-0.0198 0.1862,-0.0655c0.051,-0.0456 0.0817,-0.1097 0.0854,-0.178c0.0038,-0.0683 -0.0198,-0.1353 -0.0654,-0.1863c-0.0457,-0.0509 -0.1098,-0.0816 -0.1781,-0.0854z" fill="#213555"></path><path d="M48.7025,72.7869c-0.1952,0.6707 -0.3674,1.1872 -0.6042,2.1671c-1.6691,6.912 -0.9273,3.278 -2.2188,8.704c-0.0128,0.0351 -0.0181,0.0726 -0.0156,0.1099c0.0024,0.0374 0.0125,0.0738 0.0297,0.107c0.0172,0.0333 0.0411,0.0626 0.0701,0.0862c0.0291,0.0235 0.0627,0.0408 0.0988,0.0508c0.035,0.0111 0.0719,0.0152 0.1085,0.012c0.0365,-0.0031 0.0722,-0.0135 0.1047,-0.0304c0.0326,-0.0169 0.0615,-0.0402 0.0851,-0.0683c0.0236,-0.0281 0.0414,-0.0607 0.0524,-0.0957c0.7181,-1.792 0.6887,-1.472 1.728,-5.3856c1.0586,-3.9911 0.9907,-4.7885 1.0669,-5.5597c0.0064,-0.0332 0.0062,-0.0673 -0.0006,-0.1004c-0.0068,-0.0332 -0.0201,-0.0646 -0.039,-0.0926c-0.019,-0.028 -0.0433,-0.052 -0.0715,-0.0706c-0.0282,-0.0186 -0.0599,-0.0314 -0.0931,-0.0378c-0.0331,-0.0064 -0.0673,-0.0062 -0.1004,0.0006c-0.0331,0.0068 -0.0646,0.0201 -0.0926,0.039c-0.0279,0.019 -0.0519,0.0433 -0.0705,0.0715c-0.0186,0.0282 -0.0315,0.0598 -0.0379,0.093z" fill="#213555"></path><path d="M23.4829,65.3963c-0.2492,-0.7378 -0.5887,-1.442 -1.0105,-2.0966c-0.0486,-0.0708 -0.1171,-0.1256 -0.1969,-0.1575c-0.0797,-0.0319 -0.1671,-0.0394 -0.2511,-0.0217c-0.6054,0.138 -1.2013,0.3152 -1.7837,0.5306c0.0606,-0.8795 0.0418,-1.7627 -0.0563,-2.6388c0.0042,-0.0688 -0.0191,-0.1365 -0.0647,-0.1881c-0.0457,-0.0517 -0.11,-0.0831 -0.1788,-0.0874c-0.0689,-0.0042 -0.1366,0.019 -0.1882,0.0647c-0.0517,0.0457 -0.0831,0.11 -0.0874,0.1788c-0.2136,1.0749 -0.3208,2.1682 -0.32,3.264c-0.0018,0.0699 0.0124,0.1392 0.0415,0.2027c0.0292,0.0635 0.0726,0.1194 0.1269,0.1634c0.2912,0.2259 0.4947,0 1.9091,-0.4352c-0.2605,0.4437 -0.4956,0.9018 -0.704,1.3722c-1.4426,3.0227 -1.1066,2.6342 -1.376,3.3619c-0.0318,0.0689 -0.035,0.1477 -0.0088,0.2189c0.0263,0.0712 0.0797,0.1291 0.1486,0.1609c0.0689,0.0319 0.1477,0.035 0.2189,0.0088c0.0712,-0.0262 0.1291,-0.0797 0.161,-0.1486c0.5911,-0.8715 1.0767,-1.8101 1.4464,-2.7962c0.1996,-0.4352 0.704,-1.4547 0.8697,-1.9033c0.2778,0.432 0.512,0.7987 0.8154,1.216c0.0163,0.0345 0.0395,0.0653 0.0682,0.0905c0.0287,0.0252 0.0622,0.0443 0.0986,0.0561c0.0363,0.0117 0.0747,0.0159 0.1127,0.0123c0.038,-0.0037 0.0749,-0.0151 0.1083,-0.0335c0.0335,-0.0184 0.0628,-0.0435 0.0862,-0.0737c0.0233,-0.0302 0.0403,-0.0649 0.0498,-0.1019c0.0094,-0.037 0.0112,-0.0755 0.0052,-0.1132c-0.0059,-0.0377 -0.0196,-0.0738 -0.0401,-0.1061z" fill="#e5d283"></path><path d="M14.2288,78.1375c-0.5209,0.8856 -0.9898,1.8009 -1.4042,2.7411c-0.1075,0.313 -0.3385,0.992 -0.0281,1.1136c0.2477,0.1043 0.3584,-0.1331 0.5337,-0.3962c0.3386,-0.5371 0.6434,-1.0947 0.9127,-1.6697c0.256,-0.4839 1.3523,-2.3149 0.8704,-2.56c-0.2778,-0.1466 -0.6509,0.4582 -0.8845,0.7712z" fill="#e5d283"></path><path d="M14.2729,39.7345c0.2374,-0.3732 1.1277,-1.552 0.7584,-1.8311c-0.489,-0.416 -1.6717,1.6141 -1.9802,2.1715c-0.1581,0.3053 -0.5062,1.0381 -0.1965,1.2116c0.3994,0.2496 1.138,-1.1066 1.4183,-1.552z" fill="#e5d283"></path><path d="M15.6073,38.3892c-0.247,0.384 -0.7193,1.1827 -0.32,1.408c0.3668,0.2336 0.8032,-0.4595 0.9965,-0.8512c0.3008,-0.6144 0.1626,-0.9395 0.0423,-1.0009c-0.1204,-0.0615 -0.4532,0.03 -0.7188,0.4441z" fill="#e5d283"></path><path d="M16.799,38.9031c-0.6362,1.0534 0.2163,1.4637 0.8429,0.2925c0.0679,-0.113 0.1014,-0.2434 0.0964,-0.3751c-0.005,-0.1317 -0.0483,-0.2591 -0.1246,-0.3667c-0.215,-0.1478 -0.6125,0.1664 -0.8147,0.4493z" fill="#e5d283"></path><path d="M15.9722,42.9511c0.375,-0.368 0.3955,-0.3981 0.5197,-0.448c0.2521,-0.1472 0.8825,-0.1741 1.2633,-0.3341c1.193,-0.4992 1.4771,-1.9155 0.3373,-2.3808c-0.0625,-0.0349 -0.1358,-0.045 -0.2054,-0.0285c-0.0696,0.0165 -0.1305,0.0585 -0.1707,0.1177c-0.0402,0.0592 -0.0567,0.1314 -0.0463,0.2022c0.0104,0.0708 0.0469,0.1351 0.1024,0.1803c0.0966,0.0958 0.1646,0.2165 0.1965,0.3488c0.0147,0.0352 0,0.0717 0.0147,0.1062c-0.0218,0.1505 -0.0863,0.2917 -0.1859,0.4066c-0.0996,0.1149 -0.2301,0.1988 -0.376,0.2417c-0.5383,0.2183 -1.4675,0.0935 -1.7978,1.0125c-0.0281,0.1063 -0.0557,0.2048 -0.0838,0.304c-0.0294,0.057 -0.0363,0.123 -0.0194,0.1849c0.0169,0.0618 0.0564,0.1151 0.1107,0.1492c0.0544,0.0341 0.1195,0.0466 0.1826,0.035c0.0631,-0.0116 0.1195,-0.0465 0.1581,-0.0977z" fill="#e5d283"></path><path d="M27.1371,62.3777c-0.4787,-0.2694 -0.896,-0.4633 -1.4464,-0.8006c-0.0625,-0.0398 -0.1382,-0.0533 -0.2106,-0.0378c-0.8928,0.1893 -1.77,0.4461 -2.624,0.768c-0.5881,-0.9517 -1.152,-1.9648 -2.1062,-2.5197c-1.1101,-0.6292 -2.1503,-1.3743 -3.1034,-2.2227c-2.4166,-2.1856 -3.5501,-4.544 -3.216,-8.1081c0.181,-1.8109 0.6553,-3.5804 1.4042,-5.2391c0.042,-0.0907 0.051,-0.1933 0.0254,-0.2899c-0.0256,-0.0967 -0.0842,-0.1813 -0.1656,-0.2394c-1.1554,-0.7827 -2.25,-1.6517 -3.2742,-2.5996c-0.0496,-0.0454 -0.1089,-0.0789 -0.1734,-0.098c-0.0644,-0.019 -0.1324,-0.0232 -0.1987,-0.0121c-0.0663,0.0111 -0.1292,0.0372 -0.1839,0.0762c-0.0548,0.039 -0.0999,0.09 -0.132,0.1491c-1.78562,3.0828 -3.60514,6.272 -4.3117,10.2848c-0.58044,2.8887 -0.17479,5.8887 1.152,8.5196c0.8685,1.7076 2.0012,3.2672 3.3562,4.6215c-3.24868,5.3261 -5.06052,7.952 -6.96516,13.4137c-0.02501,0.0726 -0.02607,0.1514 -0.00303,0.2246c0.02304,0.0733 0.06896,0.1372 0.13103,0.1825c0.4736,0.3577 0.95488,0.6963 1.44768,1.0208c-1.51042,3.0441 -2.62867,6.2674 -3.328,9.5929c-0.01595,0.0785 -0.00851,0.16 0.02142,0.2343c0.02992,0.0743 0.081,0.1381 0.1469,0.1837c2.14346,1.4756 4.47561,2.6563 6.93376,3.5104c-2.83328,7.9742 -2.0736,6.2137 -2.92032,8.5302c-0.0226,0.069 -0.01752,0.145 0.01418,0.211c0.0317,0.066 0.08759,0.118 0.15611,0.144c0.06851,0.026 0.14439,0.024 0.21193,-0.004c0.06755,-0.029 0.12157,-0.082 0.1509,-0.149c2.105,-5.147 -0.16576,-0.907 6.839,-18.2202c0.0262,-0.0626 0.0276,-0.1328 0.0038,-0.1963c-0.0238,-0.0635 -0.0709,-0.1156 -0.1318,-0.1455c-0.0161,-0.0547 -0.0431,-0.1056 -0.0794,-0.1496c-0.0363,-0.044 -0.0811,-0.0802 -0.1318,-0.1064c-4.54396,-2.4154 -5.63196,-2.5421 -8.69244,-4.8742c1.63904,-4.6528 4.56764,-9.0919 7.12004,-13.2589c0.0529,-0.087 0.0735,-0.1899 0.058,-0.2906c-0.0154,-0.1007 -0.0659,-0.1927 -0.1425,-0.2598c-1.9358,-1.8176 -3.39257,-4.0853 -4.24066,-6.6016c-1.56736,-5.3703 0.96,-10.7891 3.69346,-15.5309c0.8516,0.756 1.747,1.4613 2.6816,2.112c-0.8718,2.0012 -1.3441,4.1536 -1.3901,6.336c0,3.543 1.5027,6.9325 6.8666,9.9027c0.8716,0.4775 1.4649,1.6 2.0364,2.4647c0.0421,0.0657 0.1057,0.1148 0.1799,0.1389c0.0743,0.024 0.1546,0.0215 0.2272,-0.0071c0.8663,-0.3577 1.7582,-0.6501 2.6681,-0.8749c0.5018,0.2887 0.8532,0.4352 1.3767,0.7162c0.0329,0.0176 0.069,0.0286 0.1062,0.0323c0.0372,0.0037 0.0748,0 0.1105,-0.0108c0.0358,-0.0108 0.0691,-0.0285 0.098,-0.0522c0.0289,-0.0237 0.0529,-0.0529 0.0706,-0.0858c0.0176,-0.033 0.0286,-0.0691 0.0323,-0.1062c0.0037,-0.0372 0,-0.0748 -0.0108,-0.1106c-0.0108,-0.0357 -0.0286,-0.069 -0.0522,-0.098c-0.0237,-0.0289 -0.0529,-0.0528 -0.0858,-0.0705z" fill="#e5d283"></path><path d="M33.7916,52.6348c-0.0986,-0.4665 -0.3514,-0.9139 -0.4352,-1.3709c0.1164,-0.2113 0.1887,-0.444 0.2128,-0.6841c0.024,-0.2401 -0.0008,-0.4825 -0.073,-0.7128c-0.0722,-0.2302 -0.1902,-0.4434 -0.347,-0.6268c-0.1568,-0.1834 -0.3491,-0.3332 -0.5653,-0.4403c0.4627,-2.24 -2.473,-3.5705 -4.1146,-2.1516c-1.0758,-1.0458 -2.8499,-0.5024 -3.4969,0.823c-1.2307,-0.448 -2.1875,0.768 -2.1344,2.0826c-0.2566,-0.0026 -0.5109,0.0492 -0.7461,0.152c-0.2351,0.1028 -0.4459,0.2542 -0.6183,0.4443c-0.1724,0.1901 -0.3026,0.4145 -0.3821,0.6585c-0.0794,0.2441 -0.1063,0.5022 -0.0788,0.7573c-1.024,0.2855 -1.2877,1.728 -0.6323,2.5152c-0.8807,0.5875 -0.8813,2.2765 0.6605,2.88c0.7653,0.262 1.5816,0.34 2.3827,0.2279c0.0147,0.071 0.0301,0.1414 0.0467,0.2118c-0.3852,0.7351 -0.7138,1.4985 -0.983,2.2835c-0.016,0.0333 -0.0251,0.0695 -0.0266,0.1064c-0.0016,0.0369 0.0044,0.0738 0.0175,0.1083c0.0131,0.0346 0.0331,0.0661 0.0587,0.0926c0.0257,0.0266 0.0565,0.0477 0.0905,0.062c0.0705,0.0279 0.149,0.0279 0.2195,-0.0001c0.0705,-0.0279 0.1278,-0.0817 0.16,-0.1503c0.1671,-0.3398 0.7111,-1.0822 1.0951,-1.831c0.2899,-0.5671 0.2246,-0.6631 0.2246,-0.7853c-0.245,-0.801 -0.2252,-1.6597 0.0563,-2.4487c0.0252,-0.0552 0.0385,-0.1151 0.0392,-0.1758c0.0008,-0.0607 -0.0111,-0.1209 -0.0349,-0.1767c-0.0238,-0.0559 -0.0589,-0.1062 -0.1032,-0.1477c-0.0442,-0.0416 -0.0966,-0.0735 -0.1539,-0.0937c-0.656,-0.2208 -1.024,-1.2928 -0.1683,-1.5155c0.1361,-0.0435 0.2783,-0.0651 0.4211,-0.064c0.0671,0.0149 0.1373,0.0025 0.1952,-0.0344c0.0579,-0.0369 0.0988,-0.0953 0.1136,-0.1624c0.0149,-0.067 0.0025,-0.1372 -0.0344,-0.1951c-0.0369,-0.058 -0.0953,-0.0988 -0.1624,-0.1137c-0.1837,-0.0824 -0.3838,-0.1221 -0.5851,-0.1162c-0.2013,0.006 -0.3986,0.0574 -0.5772,0.1505c-0.1786,0.0931 -0.3338,0.2255 -0.4539,0.3871c-0.1201,0.1617 -0.2021,0.3484 -0.2398,0.5463c-0.0319,0.3341 0.0255,0.6706 0.1661,0.9753c0.1407,0.3047 0.3596,0.5667 0.6346,0.7591c-0.1732,0.585 -0.2102,1.202 -0.1082,1.8035c-0.6939,0.0564 -1.3915,-0.0456 -2.0403,-0.2982c-1.113,-0.5172 -0.921,-1.728 -0.169,-1.7076c0.0819,0 0.1617,-0.0253 0.2286,-0.0724c0.0669,-0.0471 0.1177,-0.1137 0.1454,-0.1907c0.0276,-0.077 0.0308,-0.1607 0.0091,-0.2396c-0.0216,-0.0789 -0.0671,-0.1492 -0.1303,-0.2013c-0.1389,-0.1036 -0.2618,-0.2272 -0.3648,-0.3667c-0.3564,-0.5056 -0.128,-1.3593 0.5197,-1.2089c0.0868,0.0199 0.1776,0.012 0.2596,-0.0224c0.0821,-0.0345 0.1512,-0.0938 0.1977,-0.1697c0.0466,-0.0758 0.0681,-0.1644 0.0616,-0.2531c-0.0065,-0.0888 -0.0407,-0.1733 -0.0978,-0.2416c-0.0662,-0.1368 -0.0964,-0.2883 -0.0876,-0.4401c0.0088,-0.1518 0.0563,-0.2989 0.1379,-0.4271c0.0817,-0.1283 0.1948,-0.2336 0.3286,-0.3058c0.1338,-0.0722 0.2838,-0.1091 0.4359,-0.107c0.1497,0.0245 0.2929,0.0789 0.4211,0.16c0.078,0.0474 0.1691,0.0687 0.26,0.0608c0.0909,-0.0078 0.177,-0.0444 0.2458,-0.1044c0.0688,-0.06 0.1167,-0.1403 0.1367,-0.2294c0.0201,-0.089 0.0114,-0.1821 -0.0249,-0.2658c-0.3642,-0.8519 0.1856,-2.2688 1.152,-1.5924c0.0576,0.0391 0.1239,0.0636 0.1931,0.0715c0.0692,0.0078 0.1393,-0.0012 0.2042,-0.0264c0.0649,-0.0252 0.1228,-0.0657 0.1686,-0.1181c0.0459,-0.0525 0.0783,-0.1152 0.0946,-0.183c0.3136,-1.1788 1.8208,-1.6953 2.4569,-0.6451c0.0372,0.0602 0.0886,0.1104 0.1496,0.1461c0.061,0.0358 0.1299,0.0561 0.2005,0.0592c0.0707,0.0031 0.1411,-0.0111 0.205,-0.0414c0.0639,-0.0303 0.1194,-0.0758 0.1617,-0.1325c1.0311,-1.3799 3.5341,-0.3303 2.8365,1.3606c-0.0253,0.0619 -0.036,0.1289 -0.0312,0.1956c0.0048,0.0667 0.025,0.1314 0.059,0.189c0.0339,0.0576 0.0807,0.1066 0.1368,0.1431c0.056,0.0366 0.1197,0.0597 0.1861,0.0675c0.1227,0.0094 0.241,0.0495 0.3441,0.1166c0.1032,0.0671 0.1877,0.1591 0.246,0.2674c0.0713,0.1164 0.1181,0.2462 0.1374,0.3814c0.0192,0.1352 0.0106,0.2728 -0.0254,0.4045c-0.0644,0.1077 -0.1206,0.22 -0.1683,0.336c-0.1479,0.4416 0.3123,1.1348 0.4352,1.769c0.0386,0.173 0.033,0.3529 -0.0161,0.5232c-0.049,0.1704 -0.1401,0.3256 -0.2649,0.4515c-0.375,0.2157 -0.5625,0.3936 -0.4633,0.832c0.0281,0.1811 0.1574,0.4128 0.1689,0.5632c0.0205,0.2288 -0.0392,0.4575 -0.1689,0.6471c-0.3335,0.4857 -0.768,0.2899 -0.8423,0.7302c-0.0137,0.0794 -0.0037,0.1611 0.0288,0.2348c0.0324,0.0738 0.0859,0.1364 0.1536,0.1799c0.6253,0.4371 0.5018,1.2653 -0.3232,1.3184c-0.0756,0.004 -0.1485,0.0289 -0.2108,0.0719c-0.0623,0.0429 -0.1114,0.1024 -0.142,0.1716c-0.0305,0.0693 -0.0412,0.1456 -0.0309,0.2206c0.0103,0.075 0.0413,0.1456 0.0893,0.2041c0.6567,0.7942 0.0314,1.3203 -0.8851,1.3171c-0.5031,-0.0177 -0.9931,-0.1647 -1.4229,-0.4268c-0.4297,-0.2621 -0.7848,-0.6304 -1.0309,-1.0695c0.9122,-0.4613 1.6393,-1.2205 2.0608,-2.1517c0.319,0.041 0.6427,-0.0219 0.923,-0.1795c0.2804,-0.1575 0.5024,-0.4012 0.6333,-0.695c0.1308,-0.2937 0.1635,-0.6219 0.0931,-0.9356c-0.0704,-0.3138 -0.2401,-0.5965 -0.4839,-0.8062c0.1574,-0.32 0.3053,-1.1207 0.448,-1.5584c0.016,-0.0334 0.025,-0.0697 0.0266,-0.1067c0.0016,-0.037 -0.0043,-0.0739 -0.0174,-0.1086c-0.0131,-0.0346 -0.0331,-0.0662 -0.0588,-0.0929c-0.0257,-0.0267 -0.0565,-0.0479 -0.0906,-0.0624c-0.4653,-0.2003 -0.4947,0.6791 -1.1654,1.8323c-0.0295,0.0437 -0.0499,0.0928 -0.0603,0.1445c-0.0103,0.0516 -0.0102,0.1048 0.0002,0.1564c0.0104,0.0517 0.031,0.1007 0.0605,0.1443c0.0296,0.0436 0.0675,0.0809 0.1116,0.1097c0.6713,0.4551 0.512,1.4816 -0.6035,1.2583c-0.0989,-0.02 -0.2016,-0.0055 -0.291,0.0411c-0.0895,0.0466 -0.1603,0.1224 -0.2006,0.2149c-0.4832,1.1814 -1.4918,2.2867 -2.7667,2.2176c-0.0794,-0.0028 -0.158,0.0162 -0.2273,0.0551c-0.0693,0.0388 -0.1266,0.0959 -0.1656,0.165c-0.0845,0.1882 -0.1824,0.3783 -0.2669,0.5716c-0.1824,0.4396 -0.3373,0.8876 -0.5479,1.3158c-0.0177,0.0286 -0.0296,0.0604 -0.0351,0.0935c-0.0054,0.0332 -0.0043,0.0672 0.0034,0.0999c0.0077,0.0328 0.0217,0.0637 0.0413,0.091c0.0196,0.0273 0.0444,0.0505 0.073,0.0682c0.0286,0.0178 0.0604,0.0297 0.0936,0.0351c0.0331,0.0055 0.0671,0.0044 0.0998,-0.0033c0.0328,-0.0077 0.0637,-0.0217 0.091,-0.0413c0.0273,-0.0197 0.0505,-0.0445 0.0682,-0.073c1.552,-2.0948 0.4218,-1.344 1.5879,-1.6122c0.216,0.4949 0.5553,0.9262 0.9856,1.2525c2.0947,1.664 4.5869,0.448 3.8758,-1.2422c0.2064,-0.0866 0.3903,-0.2189 0.5381,-0.3869c0.1478,-0.168 0.2555,-0.3674 0.3149,-0.5831c0.0595,-0.2157 0.0692,-0.4421 0.0284,-0.6621c-0.0407,-0.22 -0.131,-0.4279 -0.2638,-0.608c0.2486,-0.1875 0.4458,-0.4348 0.5734,-0.7188c0.1277,-0.2841 0.1816,-0.5957 0.1569,-0.9061c-0.0412,-0.1904 -0.0927,-0.3784 -0.1543,-0.5632c0.2886,-0.2166 0.5093,-0.5111 0.6362,-0.8488c0.1269,-0.3378 0.1546,-0.7048 0.08,-1.0578z" fill="#e5d283"></path><path d="M26.3489,51.0396c-0.0851,0.1659 -0.1916,0.32 -0.3168,0.4582c-0.2345,0.2834 -0.5629,0.4733 -0.9255,0.535c-0.0733,0.0166 -0.1503,0.0037 -0.2142,-0.0359c-0.0639,-0.0396 -0.1097,-0.1028 -0.1275,-0.1759c-0.0083,-0.0363 -0.0093,-0.0739 -0.003,-0.1106c0.0064,-0.0367 0.0199,-0.0718 0.0399,-0.1033c0.02,-0.0314 0.0461,-0.0585 0.0766,-0.0798c0.0306,-0.0213 0.0651,-0.0363 0.1015,-0.0442c0.3712,-0.2606 0.6295,-0.6525 0.7226,-1.0963c0.0171,-0.064 0.049,-0.123 0.0931,-0.1724c0.0441,-0.0494 0.0992,-0.0878 0.1608,-0.112c0.0616,-0.0243 0.128,-0.0338 0.194,-0.0278c0.0659,0.0061 0.1295,0.0275 0.1857,0.0626c0.2019,0.0822 0.4256,0.0936 0.6348,0.0324c0.2092,-0.0613 0.3915,-0.1916 0.5172,-0.3697c0.0292,-0.0525 0.0693,-0.0982 0.1176,-0.134c0.0483,-0.0357 0.1037,-0.0608 0.1624,-0.0735c0.0587,-0.0128 0.1195,-0.0128 0.1783,-0.0002c0.0587,0.0126 0.1141,0.0376 0.1625,0.0733c0.2047,0.162 0.4593,0.2482 0.7204,0.2439c0.261,-0.0044 0.5126,-0.0989 0.7119,-0.2676c0.0595,-0.0643 0.1375,-0.1085 0.2232,-0.1267c0.0858,-0.0182 0.175,-0.0094 0.2555,0.0252c0.0805,0.0346 0.1483,0.0932 0.1942,0.1679c0.0458,0.0747 0.0674,0.1617 0.0618,0.2491c0.002,0.3581 0.0577,0.7138 0.1651,1.0554c0.0726,0.2262 0.2037,0.4291 0.3802,0.5881c0.0577,0.0373 0.0983,0.0958 0.113,0.1628c0.0147,0.0671 0.0022,0.1372 -0.0346,0.1951c-0.0369,0.058 -0.0952,0.0989 -0.1621,0.114c-0.067,0.0151 -0.1372,0.0031 -0.1953,-0.0335c-0.3899,-0.1911 -0.7025,-0.5101 -0.8858,-0.9036c-0.3725,-0.7501 0.176,-0.3751 -0.7731,-0.3584c-0.3193,0.0021 -0.6351,-0.0663 -0.9248,-0.2004c-0.2134,0.1977 -0.4702,0.3425 -0.7498,0.4228c-0.2795,0.0804 -0.574,0.0941 -0.8598,0.04z" fill="#e5d283"></path><path d="M42.0189,42.0622c0.0807,-1.9168 0.1786,-2.8883 0.2669,-3.6646c0.0091,-0.0663 0.0433,-0.1266 0.0955,-0.1685c0.0523,-0.0418 0.1186,-0.062 0.1853,-0.0563c0.0667,0.0057 0.1287,0.0367 0.1731,0.0868c0.0445,0.05 0.068,0.1152 0.0658,0.1821c-0.0371,0.496 0.0141,3.1399 0.0141,4.0698c-0.003,0.0569 -0.0176,0.1125 -0.0428,0.1636c-0.0252,0.0511 -0.0606,0.0964 -0.104,0.1333c-0.0434,0.0369 -0.0938,0.0646 -0.1483,0.0813c-0.0544,0.0168 -0.1117,0.0222 -0.1683,0.016c-0.1492,-0.0181 -0.3002,-0.0136 -0.448,0.0135c-0.192,0.0422 -0.256,0.3641 -0.1824,0.5523c0.0631,0.1386 0.1666,0.255 0.2968,0.3339c0.1303,0.0788 0.2814,0.1166 0.4334,0.1083c0.0599,0.0002 0.119,0.013 0.1735,0.0375c0.0546,0.0246 0.1033,0.0604 0.1431,0.1051c0.0397,0.0447 0.0696,0.0973 0.0876,0.1544c0.018,0.057 0.0238,0.1172 0.017,0.1766c-0.0794,0.7392 -0.0167,1.7428 0.688,1.9911c0.0931,0.0325 0.1727,0.0952 0.2261,0.1781c0.0534,0.0829 0.0777,0.1812 0.0689,0.2795l-0.0563,0.9465c0.1869,0.1812 0.295,0.3252 0.4915,0.32c0.0474,-0.0013 0.0935,-0.0157 0.1332,-0.0417c0.0396,-0.026 0.0713,-0.0625 0.0914,-0.1055c0.4282,-0.9254 0.0416,-1.4521 0.4775,-1.7088c0.6611,-0.3737 0.8013,-1.1673 0.8147,-1.9276c0.0014,-0.0584 0.0146,-0.1159 0.039,-0.1689c0.0244,-0.0531 0.0593,-0.1006 0.1027,-0.1397c0.0434,-0.039 0.0943,-0.0688 0.1496,-0.0875c0.0553,-0.0187 0.1139,-0.0259 0.1721,-0.0212c0.2739,0.0243 0.6432,-0.3091 0.5894,-0.5818c-0.0282,-0.128 -0.2918,-0.2835 -0.4211,-0.32c-0.0919,-0.03 -0.1703,-0.0912 -0.2217,-0.1731c-0.0513,-0.0819 -0.0723,-0.1791 -0.0593,-0.2749l0.6042,-3.911c0.0036,-0.0369 0.0144,-0.0726 0.0319,-0.1052c0.0175,-0.0326 0.0412,-0.0615 0.0699,-0.0848c0.0287,-0.0234 0.0617,-0.0409 0.0972,-0.0515c0.0355,-0.0105 0.0727,-0.0139 0.1095,-0.01c0.0743,0.008 0.1425,0.0451 0.1898,0.103c0.0473,0.058 0.0699,0.1322 0.063,0.2067c-0.025,0.32 -0.0973,1.4381 -0.32,3.6429c1.1686,0.6272 0.7577,2.0294 -0.3514,2.3616c0.0056,0.415 -0.0837,0.8257 -0.2612,1.2009c-0.1775,0.3751 -0.4384,0.7047 -0.7628,0.9636c-0.0064,0.5171 -0.1262,1.0266 -0.3507,1.4925c-0.0915,0.169 -0.223,0.313 -0.3831,0.4194c-0.16,0.1063 -0.3437,0.1719 -0.5349,0.1908c-0.1913,0.019 -0.3842,-0.0092 -0.5621,-0.0822c-0.1778,-0.0729 -0.335,-0.1883 -0.4578,-0.336c-0.5248,-0.5472 -0.4404,-0.4717 -0.3655,-1.4983c-0.7987,-0.4601 -1.0086,-1.4265 -0.9824,-2.3437c-1.5501,-0.4044 -1.5417,-2.5721 0.0224,-2.6483z" fill="#e5d283"></path><path d="M43.3395,37.6723c-0.089,0.6157 -0.3367,2.809 0.2809,2.7552c0.0746,-0.0086 0.1433,-0.0447 0.1927,-0.1013c0.0494,-0.0566 0.0758,-0.1296 0.0742,-0.2046c0.0854,-0.8214 0.076,-1.6499 -0.0281,-2.4691c-0.0027,-0.069 -0.0326,-0.134 -0.0832,-0.1809c-0.0506,-0.0468 -0.1177,-0.0717 -0.1866,-0.0691c-0.0689,0.0027 -0.134,0.0326 -0.1808,0.0832c-0.0469,0.0505 -0.0718,0.1177 -0.0691,0.1866z" fill="#e5d283"></path><path d="M44.8453,37.5041c-0.2831,0.8333 -0.4117,1.7113 -0.3795,2.5907c0.0179,0.3316 0.4416,0.4596 0.5619,0.0461c0.2172,-0.834 0.3305,-1.6917 0.3373,-2.5536c-0.0141,-0.3187 -0.3751,-0.439 -0.5197,-0.0832z" fill="#e5d283"></path><path d="M46.0379,37.4168c-0.2687,0.8021 -0.4246,1.6376 -0.4634,2.4826c-0.0128,0.4121 0.4256,0.4525 0.5472,0.1197c0.2573,-0.8135 0.3992,-1.6591 0.4218,-2.512c0.0012,-0.3239 -0.361,-0.441 -0.5056,-0.0903z" fill="#e5d283"></path><path d="M44.141,41.9522c-0.1454,0.8022 -0.1785,1.6207 -0.0985,2.432c0.0313,0.384 0.455,0.4333 0.5619,0.064c0.1565,-0.8102 0.1753,-1.641 0.0557,-2.4576c-0.0461,-0.3257 -0.3949,-0.4025 -0.5191,-0.0384z" fill="#e5d283"></path><path d="M27.9216,52.3556c-0.3092,0.4881 -0.5317,1.0259 -0.6579,1.5898c-0.0268,0.0682 -0.0286,0.1436 -0.0052,0.2131c0.0234,0.0694 0.0706,0.1283 0.1332,0.1664c0.4736,0.2342 1.0042,-1.2455 1.024,-1.7882c0.0109,-0.3417 -0.2445,-0.4845 -0.4941,-0.1811z" fill="#e5d283"></path><path d="M25.6318,55.1831c-0.0405,0.2298 -0.0143,0.4665 0.0755,0.6819c0.0898,0.2155 0.2395,0.4006 0.4312,0.5336c0.1918,0.133 0.4177,0.2083 0.651,0.2169c0.2332,0.0086 0.464,-0.0499 0.6651,-0.1684c0.3308,-0.1805 0.2227,-0.5882 -0.1824,-0.5338c-0.7303,0.098 -0.8896,-0.1433 -1.138,-0.8102c-0.112,-0.3104 -0.4716,-0.3008 -0.5024,0.08z" fill="#e5d283"></path><path d="M38.6661,30.6276c-0.1709,3.5756 -0.704,6.8332 -0.8845,10.2796c-0.0876,1.6884 -0.6528,14.9312 -0.688,16.9037c-0.0007,0.0745 -0.0311,0.1457 -0.0843,0.1978c-0.0532,0.0522 -0.125,0.0811 -0.1995,0.0803c-0.0745,-0.0008 -0.1457,-0.0311 -0.1978,-0.0843c-0.0522,-0.0533 -0.081,-0.125 -0.0803,-0.1995c-0.1139,-18.0346 0.9792,-21.5181 1.2941,-27.6135c0.0067,-0.1062 0.0515,-0.2065 0.1264,-0.2823c0.0748,-0.0757 0.1745,-0.1218 0.2806,-0.1298c1.0491,-0.049 2.1004,-0.0221 3.1456,0.0806c0.1073,0.0093 0.2068,0.0599 0.2776,0.141c0.0708,0.0812 0.1073,0.1867 0.102,0.2942c-0.1588,3.7446 0.0051,4.6803 -0.6183,11.296c-0.0066,0.0686 -0.0396,0.1319 -0.092,0.1767c-0.0524,0.0447 -0.1201,0.0674 -0.1889,0.0633c-0.0339,-0.0022 -0.067,-0.0111 -0.0974,-0.0262c-0.0304,-0.0151 -0.0575,-0.0361 -0.0797,-0.0617c-0.0223,-0.0257 -0.0391,-0.0555 -0.0497,-0.0878c-0.0106,-0.0323 -0.0147,-0.0663 -0.012,-0.1001c0.0423,-1.1232 0.2528,-9.4356 0.281,-10.8749c-0.7435,-0.0563 -1.4895,-0.074 -2.2349,-0.0531z" fill="#e5d283"></path><path d="M45.7007,48.9331c-0.1997,0.6166 -0.4881,1.2009 -0.8563,1.7344c-0.2528,-0.3078 -0.6182,-0.8666 -0.6464,-0.9075c-0.0653,-0.0907 -0.1635,-0.1523 -0.2736,-0.1717c-0.1101,-0.0194 -0.2234,0.005 -0.3158,0.068c-0.3974,0.3298 -0.8148,0.6346 -1.2499,0.9126c-0.0085,-0.6167 -0.079,-1.231 -0.2106,-1.8336c-0.0068,-0.0684 -0.0399,-0.1315 -0.0923,-0.176c-0.0524,-0.0445 -0.12,-0.067 -0.1887,-0.0627c-0.0339,0.0022 -0.0671,0.0111 -0.0975,0.0263c-0.0305,0.0151 -0.0576,0.0361 -0.0798,0.0619c-0.0222,0.0257 -0.0391,0.0556 -0.0496,0.088c-0.0106,0.0323 -0.0146,0.0664 -0.0118,0.1003c-0.0881,0.7558 -0.1164,1.5175 -0.0844,2.2778c0.064,0.5625 0.7481,0.5068 1.2639,0.2515c0.3207,-0.179 0.6224,-0.39 0.9005,-0.6298c-0.2236,1.5989 -0.3601,3.2087 -0.4089,4.8224c-0.114,1.15 -0.0998,2.3091 0.0422,3.456c-0.0002,0.037 0.007,0.0736 0.021,0.1077c0.0141,0.0342 0.0348,0.0652 0.0609,0.0914c0.0261,0.0261 0.0572,0.0468 0.0914,0.0608c0.0341,0.0141 0.0707,0.0212 0.1077,0.0211c0.0747,-0.0009 0.146,-0.0311 0.1986,-0.0841c0.0526,-0.0531 0.0822,-0.1247 0.0823,-0.1994c0.2125,-1.728 0.192,-2.432 0.2944,-4.0864c0.1171,-1.1418 0.1732,-2.2891 0.1683,-3.4368c0.0676,0.0707 0.152,0.1231 0.2454,0.1523c0.0934,0.0291 0.1926,0.0339 0.2884,0.0141c0.3143,-0.139 0.5878,-0.3562 0.7945,-0.6307c0.2067,-0.2746 0.3397,-0.5975 0.3863,-0.938c0.0768,-0.3341 0.112,-0.6675 0.1542,-0.9197c0.0112,-0.0351 0.0154,-0.072 0.0123,-0.1087c-0.0031,-0.0367 -0.0134,-0.0724 -0.0303,-0.1051c-0.0169,-0.0328 -0.0401,-0.0618 -0.0683,-0.0856c-0.0281,-0.0237 -0.0606,-0.0417 -0.0957,-0.0529c-0.0351,-0.0112 -0.0721,-0.0153 -0.1088,-0.0122c-0.0367,0.0031 -0.0724,0.0134 -0.1051,0.0303c-0.0327,0.0169 -0.0618,0.0401 -0.0855,0.0682c-0.0238,0.0282 -0.0418,0.0607 -0.053,0.0958z" fill="#e5d283"></path><path d="M39.0446,28.4592c0.032,-0.2714 0.0704,-2.7584 0.0704,-3.0477c0,-0.4998 0.0281,-1.2729 -0.3373,-1.3011c-0.3277,-0.0256 -0.3891,0.4288 -0.4774,0.976c-0.0884,0.5472 -0.0922,3.0963 -0.0704,3.3574c0.0601,0.5184 0.0966,0.9741 0.3795,0.9831c0.3033,0.0128 0.4006,-0.6663 0.4352,-0.9677z" fill="#e5d283"></path><path d="M40.363,25.3685c0.039,-0.32 -0.064,-0.9907 -0.3648,-1.0086c-0.2906,-0.0173 -0.3725,0.3955 -0.4634,0.6746c-0.0399,0.3299 -0.0587,0.6621 -0.0563,0.9945c-0.0378,0.5235 0.1069,1.2282 0.448,1.2064c0.457,-0.0281 0.4365,-1.4086 0.4365,-1.8669z" fill="#e5d283"></path><path d="M40.7865,25.0008c-0.0275,0.3923 -0.0487,0.7853 -0.0557,1.1795c-0.007,0.3942 0.096,1.0573 0.448,1.0374c0.448,-0.0249 0.4634,-1.5392 0.4634,-1.9929c0,-0.4922 -0.2407,-1.0304 -0.4916,-1.001c-0.2508,0.0295 -0.3641,0.6522 -0.3641,0.777z" fill="#e5d283"></path><path d="M41.7119,28.6724c0.1863,-0.2875 0.408,-0.5505 0.6599,-0.7827c0.2118,-0.1811 0.6342,-0.4934 0.5337,-0.7539c-0.112,-0.288 -0.6611,-0.1344 -0.8147,-0.071c-0.4819,0.2812 -0.872,0.696 -1.1232,1.1942c-0.192,0.425 -0.1741,0.9824 0.0979,1.0374c0.2003,0.0397 0.5619,-0.4384 0.6464,-0.624z" fill="#e5d283"></path><path d="M47.2604,27.9947c0.1219,0.0717 0.2349,0.1576 0.3367,0.256c0.2457,0.2707 0.4742,1.0918 0.8428,1.0048c0.496,-0.1069 0.29,-1.5136 -0.7724,-2.0148c-0.368,-0.1676 -0.9178,-0.1708 -0.9972,0.0864c-0.064,0.2068 0.3783,0.5428 0.5901,0.6676z" fill="#e5d283"></path><path d="M48.9705,27.1452c0.4089,-0.0781 0.2848,-1.1124 0.3091,-1.472c0,-0.1082 0.128,-1.3543 -0.3507,-1.3876c-0.6695,-0.0448 -0.738,3.0087 0.0416,2.8596z" fill="#e5d283"></path><path d="M49.7445,25.4453c-0.0461,0.4845 -0.2022,1.7734 0.281,1.8157c0.5536,0.0486 0.5626,-1.5111 0.6042,-2.112c0,-0.306 -0.0468,-0.9018 -0.3514,-0.9293c-0.3866,-0.0333 -0.4967,0.8384 -0.5338,1.2256z" fill="#e5d283"></path><path d="M51.6941,25.527c0,-0.1037 -0.0525,-1.1097 -0.3789,-1.1149c-0.448,-0.0064 -0.4595,1.4522 -0.5901,2.7213c-0.1387,0.9007 -0.2078,1.8107 -0.2067,2.7219c-0.6547,-0.1062 -1.2934,-0.1401 -1.9418,-0.247c-0.0607,-0.008 -0.1224,-0.0035 -0.1813,0.0133c-0.0589,0.0168 -0.1138,0.0454 -0.1611,0.0842c-0.0474,0.0389 -0.0863,0.087 -0.1144,0.1414c-0.0281,0.0544 -0.0447,0.1141 -0.0488,0.1752c-0.0729,2.8729 -0.398,3.8035 -0.688,8.5555c-0.0029,0.0744 0.0231,0.1472 0.0724,0.203c0.0494,0.0558 0.1184,0.0904 0.1927,0.0966c0.0742,0.0061 0.148,-0.0166 0.2059,-0.0634c0.058,-0.0469 0.0956,-0.1143 0.105,-0.1882c0.2189,-1.993 0.7616,-4.416 0.969,-8.0947c0.4141,0.0537 1.143,0.1216 1.5162,0.192c0.3641,2.368 0.2528,4.0461 0.2528,13.2147c-0.0078,0.0358 -0.0079,0.0728 -0.0001,0.1086c0.0078,0.0358 0.0231,0.0696 0.045,0.0989c0.0219,0.0294 0.0499,0.0537 0.082,0.0713c0.0321,0.0177 0.0676,0.0282 0.1041,0.0309c0.0366,0.0028 0.0732,-0.0024 0.1076,-0.0151c0.0344,-0.0126 0.0656,-0.0325 0.0917,-0.0583c0.026,-0.0258 0.0462,-0.0569 0.0592,-0.0911c0.013,-0.0343 0.0184,-0.0709 0.0161,-0.1074c0.128,-1.0944 0.2246,-2.1818 0.2809,-3.2743c0.0512,-1.3254 0.128,-5.7337 0.0563,-7.5443c-0.0378,-0.9615 -0.1316,-1.9199 -0.2809,-2.8704c-0.0092,-0.0622 -0.032,-0.1216 -0.0667,-0.1741c-0.0348,-0.0524 -0.0806,-0.0965 -0.1343,-0.1293c0.4,-0.7097 0.6483,-3.7017 0.6362,-4.4563z" fill="#e5d283"></path><path d="M102.01,47.6361c-0.071,0.6022 0.237,2.2464 0.772,2.048c0.067,-0.0303 0.121,-0.0835 0.152,-0.1499c0.031,-0.0664 0.037,-0.1417 0.017,-0.2124c-0.079,-0.6115 -0.225,-1.2124 -0.435,-1.792c-0.124,-0.2745 -0.457,-0.3072 -0.506,0.1063z" fill="#e5d283"></path><path d="M104.812,49.9782c0.096,0.2258 0.143,0.4692 0.139,0.7145c-0.004,0.2453 -0.059,0.4871 -0.163,0.7095c-0.556,1.1405 -2.097,1.28 -2.926,-0.3405c-0.03,-0.0566 -0.046,-0.1191 -0.049,-0.183c-0.003,-0.0639 0.009,-0.1276 0.034,-0.1865c0.025,-0.0589 0.062,-0.1115 0.11,-0.1541c0.048,-0.0426 0.104,-0.074 0.166,-0.092c0.46,-0.1248 0.912,-0.2925 1.362,-0.4314c0.308,-0.0973 0.628,-0.1619 0.948,-0.2496c0.039,-0.0169 0.081,-0.0247 0.123,-0.0226c0.042,0.0021 0.083,0.014 0.12,0.0346c0.036,0.0207 0.068,0.0496 0.092,0.0845c0.023,0.0349 0.038,0.0748 0.044,0.1166zM104.255,50.5216c-0.418,0.2444 -0.864,0.4404 -1.327,0.5843c0.062,0.0969 0.149,0.1753 0.251,0.2266c0.103,0.0514 0.218,0.0739 0.332,0.065c0.115,-0.0089 0.225,-0.0488 0.318,-0.1154c0.094,-0.0666 0.167,-0.1573 0.213,-0.2626c0.089,-0.1582 0.161,-0.3251 0.216,-0.4979z" fill="#e5d283"></path><path d="M88.543,74.3696c0,0.2234 0.0887,0.4376 0.2466,0.5955c0.158,0.158 0.3722,0.2467 0.5956,0.2467c0.2234,0 0.4376,-0.0887 0.5956,-0.2467c0.1579,-0.1579 0.2466,-0.3721 0.2466,-0.5955c0,-0.2234 -0.0887,-0.4376 -0.2466,-0.5956c-0.158,-0.1579 -0.3722,-0.2467 -0.5956,-0.2467c-0.2234,0 -0.4376,0.0888 -0.5956,0.2467c-0.1579,0.158 -0.2466,0.3722 -0.2466,0.5956z" fill="#213555"></path><path d="M91.0703,81.1098c0,0.2234 0.0887,0.4376 0.2467,0.5956c0.1579,0.1579 0.3722,0.2467 0.5956,0.2467c0.2233,0 0.4376,-0.0888 0.5955,-0.2467c0.158,-0.158 0.2467,-0.3722 0.2467,-0.5956c0,-0.2234 -0.0887,-0.4376 -0.2467,-0.5955c-0.1579,-0.158 -0.3722,-0.2467 -0.5955,-0.2467c-0.2234,0 -0.4377,0.0887 -0.5956,0.2467c-0.158,0.1579 -0.2467,0.3721 -0.2467,0.5955z" fill="#213555"></path><path d="M93.0391,87.5688c0,0.2234 0.0887,0.4376 0.2467,0.5956c0.1579,0.1579 0.3721,0.2466 0.5955,0.2466c0.2234,0 0.4376,-0.0887 0.5956,-0.2466c0.1579,-0.158 0.2466,-0.3722 0.2466,-0.5956c0,-0.2234 -0.0887,-0.4376 -0.2466,-0.5955c-0.158,-0.158 -0.3722,-0.2467 -0.5956,-0.2467c-0.2234,0 -0.4376,0.0887 -0.5955,0.2467c-0.158,0.1579 -0.2467,0.3721 -0.2467,0.5955z" fill="#213555"></path><path d="M95.0039,94.8715c0,0.2234 0.0887,0.4376 0.2467,0.5956c0.1579,0.1579 0.3722,0.2467 0.5956,0.2467c0.2233,0 0.4376,-0.0888 0.5955,-0.2467c0.158,-0.158 0.2467,-0.3722 0.2467,-0.5956c0,-0.2233 -0.0887,-0.4376 -0.2467,-0.5955c-0.1579,-0.158 -0.3722,-0.2467 -0.5955,-0.2467c-0.2234,0 -0.4377,0.0887 -0.5956,0.2467c-0.158,0.1579 -0.2467,0.3722 -0.2467,0.5955z" fill="#213555"></path><path d="M26.4183,53.2394c0.105,0.0381 0.231,0.0052 0.3502,-0.0916c0.0591,-0.048 0.1147,-0.1101 0.1637,-0.183c0.049,-0.0728 0.0905,-0.1549 0.122,-0.2415c0.0315,-0.0867 0.0525,-0.1762 0.0617,-0.2635c0.0092,-0.0873 0.0065,-0.1706 -0.008,-0.2452c-0.0145,-0.0746 -0.0404,-0.1391 -0.0764,-0.1896c-0.036,-0.0506 -0.0812,-0.0864 -0.1332,-0.1052c-0.105,-0.0381 -0.231,-0.0052 -0.3503,0.0916c-0.1192,0.0968 -0.222,0.2495 -0.2856,0.4245c-0.0637,0.175 -0.083,0.358 -0.0538,0.5087c0.0293,0.1507 0.1047,0.2567 0.2097,0.2948z" fill="#e5d283"></path><path d="M28.9456,54.3625c0.105,0.0381 0.231,0.0051 0.3502,-0.0917c0.1193,-0.0968 0.2221,-0.2495 0.2857,-0.4245c0.0637,-0.175 0.083,-0.358 0.0538,-0.5087c-0.0293,-0.1506 -0.1047,-0.2567 -0.2097,-0.2948c-0.052,-0.0189 -0.1097,-0.0205 -0.1698,-0.0047c-0.06,0.0157 -0.1214,0.0485 -0.1804,0.0964c-0.0591,0.0479 -0.1147,0.1101 -0.1637,0.1829c-0.049,0.0728 -0.0905,0.1549 -0.122,0.2416c-0.0315,0.0866 -0.0525,0.1762 -0.0617,0.2634c-0.0092,0.0873 -0.0065,0.1706 0.008,0.2452c0.0144,0.0746 0.0404,0.1391 0.0764,0.1897c0.036,0.0506 0.0812,0.0863 0.1332,0.1052z" fill="#e5d283"></path><path d="M74.0579,55.8594c0.0645,0.0383 0.1411,0.0534 0.2252,0.0442c0.0842,-0.0092 0.1742,-0.0423 0.2649,-0.0975c0.0906,-0.0552 0.18,-0.1314 0.2629,-0.224c0.0829,-0.0925 0.1577,-0.1997 0.2198,-0.3152c0.0622,-0.1154 0.1105,-0.2368 0.1422,-0.357c0.0317,-0.1201 0.046,-0.2367 0.0422,-0.3427c-0.0038,-0.1061 -0.0257,-0.1995 -0.0644,-0.2748c-0.0387,-0.0753 -0.0934,-0.1309 -0.1609,-0.1636c-0.0645,-0.0383 -0.141,-0.0533 -0.2252,-0.0442c-0.0842,0.0092 -0.1742,0.0424 -0.2649,0.0976c-0.0906,0.0552 -0.18,0.1313 -0.2629,0.2239c-0.0829,0.0926 -0.1577,0.1998 -0.2198,0.3152c-0.0622,0.1154 -0.1105,0.2368 -0.1422,0.357c-0.0316,0.1202 -0.046,0.2367 -0.0422,0.3428c0.0039,0.106 0.0258,0.1994 0.0644,0.2747c0.0387,0.0753 0.0934,0.1309 0.1609,0.1636z" fill="#213555"></path><path d="M55.4373,55.3502c0.0768,0.0331 0.1615,0.0454 0.2492,0.0363c0.0876,-0.0092 0.1764,-0.0396 0.2612,-0.0896c0.0848,-0.0499 0.1639,-0.1184 0.2327,-0.2015c0.0689,-0.0831 0.1261,-0.179 0.1683,-0.2823c0.0422,-0.1033 0.0687,-0.2118 0.0777,-0.3193c0.0091,-0.1075 0.0006,-0.2119 -0.0249,-0.3069c-0.0254,-0.0951 -0.0675,-0.1791 -0.1236,-0.247c-0.0561,-0.0679 -0.1252,-0.1185 -0.2032,-0.1487c-0.0769,-0.0331 -0.1616,-0.0455 -0.2492,-0.0363c-0.0876,0.0091 -0.1764,0.0396 -0.2612,0.0895c-0.0848,0.05 -0.1639,0.1185 -0.2328,0.2016c-0.0688,0.083 -0.126,0.179 -0.1682,0.2823c-0.0423,0.1032 -0.0687,0.2118 -0.0777,0.3193c-0.0091,0.1075 -0.0006,0.2118 0.0248,0.3069c0.0255,0.0951 0.0676,0.179 0.1237,0.247c0.0561,0.0679 0.1251,0.1185 0.2032,0.1487z" fill="#213555"></path><path d="M83.6998,40.0044c0.0475,0.1439 0.1086,0.283 0.1824,0.4154c0.192,0.384 0.6131,1.0675 0.9689,0.832c0.3482,-0.2093 -0.1408,-1.1143 -0.1683,-1.1783c-0.112,-0.2214 -0.4768,-1.0694 -0.871,-0.896c-0.2119,0.08 -0.217,0.5991 -0.112,0.8269z" fill="#e5d283"></path><path d="M85.0193,39.3518c0.1549,0.3257 0.6035,1.2928 1.024,1.056c0.3731,-0.192 0.0077,-0.9351 -0.1683,-1.2864c-0.7994,-1.5482 -1.3946,-0.8327 -0.8557,0.2304z" fill="#e5d283"></path><path d="M109.638,29.2838c0.105,0.6823 0.348,1.3357 0.716,1.92c0.205,0.32 0.607,0.1786 0.534,-0.2106c-0.144,-0.6682 -0.4,-1.307 -0.759,-1.8886c-0.247,-0.3341 -0.537,-0.119 -0.491,0.1792z" fill="#e5d283"></path><path d="M111.308,28.8992c-0.039,0.4813 0.281,1.9623 0.758,1.8093c0.066,-0.0303 0.119,-0.0816 0.153,-0.1459c0.033,-0.0642 0.043,-0.1377 0.03,-0.2087c-0.053,-0.551 -0.205,-1.088 -0.448,-1.5852c-0.069,-0.1236 -0.169,-0.2208 -0.309,-0.185c-0.141,0.0358 -0.173,0.1715 -0.184,0.3155z" fill="#e5d283"></path><path d="M124.787,73.1187c-1.711,-5.1668 -3.397,-9.9744 -4.48,-15.0452c-1.664,-7.712 -2.389,-14.8422 -4.521,-22.5651c-0.03,-0.1086 -0.101,-0.2013 -0.198,-0.2584c-0.097,-0.057 -0.212,-0.0739 -0.321,-0.0469c-0.064,0.0154 -0.128,0.0301 -0.192,0.0442c-0.323,-1.9006 -0.805,-3.7708 -1.44,-5.591c-0.14,-0.3449 -0.299,-0.6816 -0.477,-1.0087c-0.011,-0.0323 -0.028,-0.0621 -0.05,-0.0878c-0.023,-0.0257 -0.05,-0.0467 -0.08,-0.0619c-0.031,-0.0152 -0.064,-0.0242 -0.098,-0.0266c-0.034,-0.0023 -0.068,0.002 -0.1,0.0128c-0.033,0.0108 -0.062,0.0278 -0.088,0.0502c-0.026,0.0223 -0.047,0.0495 -0.062,0.0799c-0.015,0.0305 -0.024,0.0636 -0.027,0.0976c-0.002,0.0339 0.002,0.068 0.013,0.1003c0.071,0.4862 0.169,0.9678 0.295,1.4426c1.249,4.4454 1.12,4.3123 1.428,5.1328c-0.938,0.174 -2.016,0.2912 -3.003,0.4294c-0.061,-0.5304 -0.26,-1.0356 -0.576,-1.4656c-0.355,-0.4659 -0.934,-0.3309 -1.166,-0.3942c-0.489,-0.1236 -0.889,-0.5876 -0.688,-1.0471c0.179,-0.344 0.465,-0.6205 0.814,-0.7878c0.068,-0.0111 0.128,-0.0486 0.168,-0.1042c0.04,-0.0555 0.056,-0.1247 0.045,-0.1921c-0.011,-0.0675 -0.049,-0.1278 -0.104,-0.1676c-0.056,-0.0399 -0.125,-0.056 -0.193,-0.0449c-0.312,0.0115 -0.616,0.1018 -0.885,0.2624c-0.276,0.1564 -0.497,0.3954 -0.631,0.6835c-0.089,0.2294 -0.126,0.4756 -0.108,0.7209c0.017,0.2453 0.089,0.4837 0.21,0.6979c0.121,0.2142 0.288,0.399 0.489,0.541c0.201,0.142 0.43,0.2377 0.673,0.2802c0.146,0.0378 0.68,0.0461 0.704,0.08c0.222,0.3264 0.41,0.6749 0.56,1.04c-0.373,0.0602 -0.743,0.128 -1.108,0.2086c-0.112,0.0247 -0.21,0.092 -0.273,0.1876c-0.063,0.0956 -0.086,0.2121 -0.064,0.3244c0.96,4.4391 2.579,12.352 0.757,16.56c-0.32,-0.6579 -2.219,-4.7264 -2.466,-5.2774c0.182,-0.2028 0.301,-0.4546 0.341,-0.7242c0.041,-0.2696 0.001,-0.545 -0.114,-0.7922c-0.115,-0.2472 -0.3,-0.4552 -0.532,-0.5983c-0.232,-0.1431 -0.501,-0.2149 -0.773,-0.2066c-1.044,-2.2361 -1.192,-3.0566 -1.987,-3.6064c-0.352,-0.2445 -0.787,-0.4019 -1.28,-0.6694c-2.922,-1.5559 -6.6947,3.4905 -5.126,7.367c0.0172,0.0468 0.0425,0.0901 0.0748,0.128c-0.1099,0.3297 -0.1111,0.686 -0.0033,1.0164c0.1077,0.3305 0.3186,0.6176 0.6018,0.8191c0.2764,0.9716 1.5927,5.4829 1.6797,5.7888c-3.5082,-1.8457 -6.2993,-6.5721 -8.2929,-9.6134c-0.94,-1.3692 -1.798,-2.7929 -2.5696,-4.2637c-0.0259,-0.0515 -0.0623,-0.0971 -0.107,-0.1336c-0.0447,-0.0365 -0.0966,-0.0632 -0.1522,-0.0783c-0.0557,-0.0151 -0.114,-0.0183 -0.171,-0.0093c-0.057,0.0089 -0.1115,0.0298 -0.1598,0.0612c-0.384,0.2522 -0.7629,0.512 -1.1405,0.768c-0.1381,-0.4782 -0.2218,-0.9705 -0.2496,-1.4675c0.064,-0.1376 0.7507,-0.4403 0.8281,-1.1398c0.0099,-0.212 -0.0327,-0.4232 -0.1241,-0.6147c-0.0914,-0.1916 -0.2287,-0.3576 -0.3997,-0.4833c-0.171,-0.1257 -0.3704,-0.2072 -0.5804,-0.2373c-0.2101,-0.0301 -0.4244,-0.0078 -0.6238,0.0649c-0.0336,0.0027 -0.0663,0.012 -0.0964,0.0274c-0.03,0.0154 -0.0567,0.0365 -0.0785,0.0622c-0.0218,0.0258 -0.0384,0.0555 -0.0487,0.0876c-0.0104,0.0321 -0.0143,0.0659 -0.0116,0.0996c0.0028,0.0336 0.0121,0.0663 0.0275,0.0963c0.0154,0.0301 0.0365,0.0567 0.0622,0.0786c0.0257,0.0218 0.0555,0.0384 0.0876,0.0487c0.0321,0.0104 0.0659,0.0143 0.0995,0.0116c0.2259,0.0531 0.4371,0.1559 0.6183,0.3008c0.0653,0.0392 0.1183,0.096 0.1531,0.1639c0.0347,0.0679 0.0497,0.1441 0.0434,0.2201c-0.0384,0.3404 -0.9325,0.4838 -0.8288,1.4438c0.0591,0.5731 0.2726,1.1194 0.6175,1.5808c-0.5448,0.3769 -1.0964,0.7442 -1.6543,1.1014c-0.3462,-0.7264 -0.7458,-1.4261 -1.1956,-2.0934c-0.4246,-0.8704 -0.9168,-1.7063 -1.472,-2.4998c-0.0134,-0.0308 -0.0329,-0.0587 -0.0571,-0.082c-0.0243,-0.0233 -0.0529,-0.0416 -0.0842,-0.0538c-0.0313,-0.0123 -0.0647,-0.0182 -0.0984,-0.0176c-0.0336,0.0007 -0.0667,0.008 -0.0975,0.0215c-0.0316,0.0131 -0.0601,0.0324 -0.0838,0.0569c-0.0237,0.0245 -0.0421,0.0537 -0.0541,0.0856c-0.0121,0.0319 -0.0174,0.066 -0.0157,0.1c0.0017,0.0341 0.0104,0.0674 0.0256,0.098c0.0281,0.1446 0.0556,0.2822 0.0979,0.4262c0.5812,1.5645 1.4194,3.0211 2.48,4.3098l-0.1856,0.1146c-0.0809,0.0468 -0.1424,0.1209 -0.1733,0.2091c-0.031,0.0881 -0.0295,0.1844 0.0043,0.2715c1.689,4.032 4.1683,8.0173 6.4602,11.7395c0.0192,0.0314 0.0444,0.0586 0.0741,0.0802c0.0297,0.0217 0.0635,0.0372 0.0992,0.0458c0.0357,0.0086 0.0728,0.01 0.1091,0.0043c0.0364,-0.0058 0.0712,-0.0186 0.1025,-0.0378c0.0314,-0.0192 0.0586,-0.0444 0.0803,-0.0741c0.0216,-0.0298 0.0371,-0.0635 0.0457,-0.0992c0.0086,-0.0358 0.01,-0.0729 0.0043,-0.1092c-0.0057,-0.0363 -0.0186,-0.0711 -0.0378,-0.1025c-2.1574,-3.6723 -4.4608,-7.5001 -6.0947,-11.4316c0.8922,-0.5204 2.4838,-1.6052 3.4266,-2.2324c0.7299,1.3572 1.5316,2.6745 2.4019,3.9463c2.8608,4.375 6.6125,10.7379 11.8518,10.7789c1.525,4.2048 6.021,1.8201 5.842,-2.0909c1.78,-1.6416 2.4,-4.096 2.541,-6.528c0.202,-4.1402 -0.602,-8.489 -1.472,-12.5645c1.621,-0.313 3.212,-0.4032 4.872,-0.7507c1.968,7.3075 2.849,14.7737 4.452,22.1056c1.442,6.2003 3.176,10.2592 4.775,15.0438c0.01,0.033 0.027,0.0636 0.049,0.09c0.023,0.0264 0.05,0.048 0.081,0.0636c0.031,0.0155 0.065,0.0248 0.1,0.0272c0.034,0.0023 0.069,-0.0022 0.102,-0.0134c0.032,-0.0113 0.062,-0.0289 0.088,-0.052c0.026,-0.023 0.047,-0.051 0.062,-0.0823c0.015,-0.0312 0.023,-0.0652 0.025,-0.0998c0.001,-0.0345 -0.004,-0.0691 -0.016,-0.1016zM106.644,59.2153c-0.2,0.1186 -0.424,0.1896 -0.655,0.2076c-0.231,0.0179 -0.464,-0.0176 -0.679,-0.1039c-0.323,-0.1782 -0.603,-0.4235 -0.823,-0.7194c-0.22,-0.2958 -0.374,-0.6354 -0.452,-0.9958c0.128,-0.0192 0.25,-0.0455 0.377,-0.0711c0.073,-0.0136 0.137,-0.0557 0.179,-0.1171c0.043,-0.0613 0.059,-0.1368 0.045,-0.2099c-0.42,-2.112 0.082,-0.8269 -0.73,-3.9782c-0.028,-0.1039 -0.094,-0.1934 -0.185,-0.2506c-0.092,-0.0573 -0.201,-0.0782 -0.307,-0.0586c-1.472,0.2509 -2.112,-1.2633 -2.71,-2.624c-0.045,-0.0979 -0.123,-0.1762 -0.222,-0.2199c-0.098,-0.0438 -0.209,-0.05 -0.312,-0.0175c-0.5252,0.1683 -1.2797,-0.073 -1.2797,-0.7245c-0.0583,-0.6208 0.2687,-0.9645 0.6175,-1.0112c0.0402,-0.0021 0.0793,-0.0137 0.1141,-0.0338c0.0349,-0.0201 0.0645,-0.0481 0.0865,-0.0817c0.022,-0.0337 0.0358,-0.0721 0.0402,-0.112c0.0044,-0.04 -0.0007,-0.0804 -0.0148,-0.1181l0.6112,-1.0752c0.059,0.0272 0.123,0.0433 0.188,0.0474c1.263,0.0557 1.079,-0.7738 0.273,-0.8589c1.288,-2.2669 1.456,-2.5715 1.51,-2.6438c0.475,0.6352 1.015,1.2183 1.613,1.7395c-0.223,0.0476 -0.435,0.1343 -0.627,0.256c-0.457,0.2893 -0.484,0.7571 -0.379,0.8665c0.268,0.2452 0.888,-0.1632 0.955,-0.1977c0.231,-0.1113 0.433,-0.2761 0.589,-0.4807c0.288,0.2245 0.588,0.4378 0.899,0.64c0.236,0.1645 0.308,0.0301 0.829,0.0045c0.16,-0.0239 0.324,0.0035 0.468,0.0783c0.143,0.0749 0.26,0.1933 0.332,0.3384c0.172,0.3436 -0.05,0.686 -0.351,0.9241c-0.198,0.1438 -0.409,0.2671 -0.632,0.368c-0.083,0.0411 -0.152,0.1062 -0.197,0.1869c-0.046,0.0807 -0.066,0.1732 -0.059,0.2656c0.14,0.7033 0.163,1.4247 0.071,2.1357c-0.073,0.5968 -0.306,1.1629 -0.674,1.6384c-0.087,0.0676 -0.144,0.1666 -0.159,0.2758c-0.055,0.0987 -0.069,0.2151 -0.038,0.3239c0.403,1.4239 0.9,2.8196 1.488,4.1779c0.021,0.0545 0.053,0.104 0.094,0.1452c0.041,0.0412 0.091,0.0731 0.145,0.0937c0.055,0.0206 0.113,0.0293 0.171,0.0257c0.058,-0.0037 0.115,-0.0197 0.166,-0.047c0.438,-0.222 0.853,-0.4844 1.242,-0.784c-0.016,0.5638 -0.172,1.1148 -0.454,1.603c-0.283,0.4882 -0.683,0.8981 -1.164,1.1925z" fill="#e5d283"></path><path d="M100.861,48.7811c0.027,0.0687 0.063,0.1333 0.105,0.19c0.042,0.0567 0.09,0.1045 0.141,0.1406c0.052,0.036 0.105,0.0597 0.157,0.0696c0.052,0.0099 0.102,0.0059 0.147,-0.0118c0.045,-0.0177 0.084,-0.0488 0.116,-0.0915c0.031,-0.0427 0.054,-0.0962 0.067,-0.1573c0.013,-0.0611 0.016,-0.1288 0.008,-0.1991c-0.008,-0.0703 -0.026,-0.1419 -0.053,-0.2106c-0.027,-0.0687 -0.062,-0.1333 -0.104,-0.19c-0.043,-0.0567 -0.091,-0.1045 -0.142,-0.1406c-0.051,-0.036 -0.104,-0.0597 -0.156,-0.0696c-0.052,-0.0099 -0.102,-0.0059 -0.147,0.0118c-0.045,0.0177 -0.085,0.0488 -0.116,0.0915c-0.032,0.0427 -0.054,0.0962 -0.067,0.1573c-0.013,0.0612 -0.016,0.1288 -0.008,0.1991c0.008,0.0703 0.025,0.1419 0.052,0.2106z" fill="#e5d283"></path><path d="M103.77,47.841c0.027,0.0694 0.062,0.1347 0.104,0.1921c0.042,0.0574 0.091,0.1058 0.142,0.1424c0.051,0.0366 0.105,0.0607 0.157,0.0708c0.052,0.0102 0.103,0.0062 0.148,-0.0116c0.046,-0.0179 0.085,-0.0493 0.117,-0.0924c0.031,-0.0431 0.054,-0.0971 0.067,-0.1588c0.012,-0.0618 0.015,-0.13 0.006,-0.2008c-0.008,-0.0708 -0.026,-0.1428 -0.054,-0.2117c-0.026,-0.0694 -0.062,-0.1347 -0.104,-0.1921c-0.042,-0.0574 -0.091,-0.1058 -0.142,-0.1424c-0.051,-0.0366 -0.104,-0.0607 -0.157,-0.0709c-0.052,-0.0101 -0.103,-0.0061 -0.148,0.0117c-0.046,0.0179 -0.085,0.0493 -0.117,0.0924c-0.031,0.0431 -0.054,0.0971 -0.066,0.1588c-0.013,0.0617 -0.015,0.13 -0.007,0.2008c0.008,0.0708 0.026,0.1428 0.054,0.2117z" fill="#e5d283"></path><path d="M76.0456,37.8977c0.5395,0.7988 1.6685,-0.192 1.5219,-1.0688c-0.0422,-0.2528 -0.0608,-0.3142 -0.2022,-0.3731c-0.153,-0.064 -0.4032,-0.0089 -0.3789,0.1491c0.0557,0.3604 0.1414,0.9735 -0.6042,0.896c-0.144,-0.0147 -0.2764,-0.0742 -0.3648,0.0314c-0.0385,0.0547 -0.0568,0.1211 -0.0517,0.1878c0.0051,0.0667 0.0334,0.1295 0.0799,0.1776z" fill="#e5d283"></path><path d="M72.6739,26.2161c-0.183,0.75 -0.2483,2.0339 -0.3935,3.1744c-0.9114,7.1801 -0.1024,9.4528 -0.5613,13.6569c-0.0088,0.0669 -0.0431,0.1278 -0.0958,0.17c-0.0527,0.0421 -0.1196,0.0622 -0.1868,0.0561c-0.0672,-0.0061 -0.1294,-0.038 -0.1736,-0.089c-0.0442,-0.051 -0.067,-0.1171 -0.0635,-0.1844c0.1792,-2.3354 -0.7731,-6.393 0.2106,-13.7223c0.0945,-1.2021 0.2586,-2.3977 0.4915,-3.5808c0.0216,-0.0893 0.0716,-0.1692 0.1424,-0.2277c0.0709,-0.0585 0.1588,-0.0924 0.2505,-0.0968l3.0899,-0.158c0.0661,-0.0058 0.1325,0.0042 0.1939,0.0289c0.0615,0.0248 0.1163,0.0637 0.1599,0.1135c0.0436,0.0499 0.0749,0.1093 0.0913,0.1735c0.0164,0.0642 0.0174,0.1314 0.0029,0.1961c-0.311,1.4675 -0.5312,4.2092 -0.7161,6.1171c-0.0078,0.075 -0.0444,0.144 -0.102,0.1926c-0.0577,0.0486 -0.1319,0.0729 -0.2071,0.0679c-0.0369,-0.0024 -0.0729,-0.0122 -0.1059,-0.0288c-0.033,-0.0167 -0.0624,-0.0397 -0.0863,-0.0679c-0.0238,-0.0282 -0.0418,-0.0609 -0.0528,-0.0962c-0.011,-0.0353 -0.0147,-0.0724 -0.011,-0.1092c-0.0119,-1.9085 0.1053,-3.8155 0.3507,-5.7082z" fill="#e5d283"></path><path d="M73.2375,24.825c0.0774,-0.32 0.2048,-1.2435 0.5049,-2.5031c0.0267,-0.0706 0.0244,-0.1489 -0.0066,-0.2178c-0.0309,-0.0688 -0.0878,-0.1227 -0.1583,-0.1497c-0.0705,-0.027 -0.1488,-0.0249 -0.2178,0.0057c-0.069,0.0306 -0.1231,0.0873 -0.1504,0.1577c-0.4,0.8311 -0.5697,1.7543 -0.4915,2.6733c-0.0027,0.0678 0.0212,0.1341 0.0667,0.1845c0.0454,0.0505 0.1088,0.0812 0.1766,0.0856c0.0678,0.0045 0.1346,-0.0178 0.1862,-0.0619c0.0516,-0.0441 0.084,-0.1067 0.0902,-0.1743z" fill="#e5d283"></path><path d="M74.5852,24.0098c0.1069,-0.256 0.2003,-0.9792 0.4071,-1.8644c0.0902,-0.384 -0.3015,-0.5401 -0.5197,-0.2323c-0.3622,0.6111 -0.5058,1.3273 -0.4071,2.0307c0.0647,0.3757 0.3872,0.3808 0.5197,0.066z" fill="#e5d283"></path><path d="M75.8063,23.5804c0.2345,-0.3974 0.3783,-0.8417 0.4211,-1.3011c0.0147,-0.1555 -0.0147,-0.3059 -0.1683,-0.3635c-0.448,-0.1671 -0.8032,1.0707 -0.7584,1.5462c0.0371,0.3975 0.3277,0.4109 0.5056,0.1184z" fill="#e5d283"></path><path d="M86.8579,23.6799c0.1034,-0.2982 0.1443,-0.6145 0.12,-0.9292c-0.0242,-0.3147 -0.113,-0.621 -0.2608,-0.8999c-0.0717,-0.1357 -0.1824,-0.2438 -0.3366,-0.2067c-0.4179,0.0998 -0.089,0.7155 -0.0282,1.9334c0.0154,0.3149 0.32,0.457 0.5056,0.1024z" fill="#e5d283"></path><path d="M87.8569,22.2019c0.3537,-0.4506 0.6596,-0.9369 0.9126,-1.4509c0.1799,-0.32 -0.096,-0.6086 -0.4211,-0.3654c-0.4724,0.4171 -0.8057,0.9691 -0.9549,1.5814c-0.0806,0.311 0.1863,0.5229 0.4634,0.2349z" fill="#e5d283"></path><path d="M88.7253,22.9768c0.5047,-0.392 0.9332,-0.8734 1.264,-1.4202c0.1837,-0.288 -0.0896,-0.6214 -0.4211,-0.3795c-0.5027,0.403 -0.9224,0.8996 -1.2359,1.4624c-0.1632,0.3181 0.0909,0.5414 0.393,0.3373z" fill="#e5d283"></path><path d="M90.8487,22.4057c-0.0554,-0.0474 -0.1265,-0.0722 -0.1992,-0.0696c-0.0728,0.0026 -0.142,0.0325 -0.1938,0.0836c-0.9483,0.7698 -1.7565,1.6976 -2.3891,2.7424c-0.6162,-0.4482 -1.2528,-0.8676 -1.9079,-1.2569c-0.0935,-0.0555 -0.2043,-0.0741 -0.3108,-0.0522c-0.1065,0.0219 -0.2011,0.0827 -0.2651,0.1706c-1.7527,2.5881 -3.3294,5.2912 -4.7194,8.0909c-0.2669,-0.4839 -0.9056,0.2342 -1.2064,0.3008c-0.1549,0.0339 -0.3514,-0.1204 -0.5056,-0.144c-0.3011,-0.0303 -0.6052,-0.0029 -0.896,0.0806c0.3576,-0.1324 0.6762,-0.3525 0.9267,-0.64c0.1824,-0.16 0.5613,-0.2112 0.7859,-0.3789c0.1127,-0.0845 0.4359,-0.3577 0.3514,-0.5261c-0.3373,-0.6246 -1.1373,0.2503 -1.4464,0.3674c-0.2106,0.08 -0.4211,-0.0442 -0.6739,0.105c-0.1649,0.1062 -0.32,0.227 -0.4634,0.3609c-0.0717,0.064 -0.1965,0.2848 -0.2105,0.192c-0.0423,-0.3654 0.2668,-0.3635 0.4633,-0.5869c0.1824,-0.2163 0.1402,-0.5056 0.2669,-0.7417c0.1542,-0.2938 0.688,-0.512 0.519,-0.9511c-0.0556,-0.1523 -0.2822,-0.0889 -0.3929,-0.0172c-0.2243,0.199 -0.3772,0.4661 -0.4352,0.7603c-0.4071,-0.256 -0.7725,0.2835 -0.8429,0.6176c-0.5056,-0.0224 -0.7302,0.4864 -0.7578,0.9171c-0.2006,-0.0302 -0.4058,-0.003 -0.5916,0.0784c-0.1859,0.0815 -0.3449,0.2138 -0.4587,0.3819c-0.1138,0.168 -0.1777,0.3648 -0.1844,0.5676c-0.0066,0.2028 0.0442,0.4034 0.1467,0.5785c-0.5206,0.9691 -0.9019,2.0067 -1.1328,3.0822c-0.0164,0.0598 -0.0198,0.1224 -0.0098,0.1836c0.01,0.0611 0.0331,0.1194 0.0678,0.1708c0.0347,0.0514 0.08,0.0946 0.133,0.1268c0.053,0.0322 0.1123,0.0525 0.1738,0.0596c0.6132,0.0922 0.4212,-0.1484 0.4212,0.3578c-0.0781,0.9395 0.224,1.9034 1.1942,2.0282l0.2106,0.6252c0.0119,0.0745 0.053,0.1411 0.1141,0.1853c0.061,0.0441 0.1372,0.0622 0.2116,0.0503c0.0744,-0.012 0.1411,-0.0531 0.1852,-0.1141c0.0442,-0.0611 0.0623,-0.1373 0.0503,-0.2117c-0.025,-0.3331 -0.0677,-0.6647 -0.128,-0.9933c-0.1209,-0.455 -0.6035,-0.1619 -0.832,-0.5561c-0.2096,-0.5389 -0.2096,-1.1367 0,-1.6756c0.0272,-0.0681 0.035,-0.1423 0.0227,-0.2146c-0.0123,-0.0722 -0.0443,-0.1397 -0.0924,-0.195c-0.1728,-0.24 -0.4141,-0.1632 -0.7443,-0.142c0.135,-0.4928 0.4371,-1.4656 0.6873,-2.7124c0.2111,-0.1384 0.3889,-0.322 0.5203,-0.5376c0.1118,0.1519 0.2578,0.2754 0.4261,0.3605c0.1683,0.085 0.3543,0.1293 0.5429,0.1291c-0.2528,0.5415 -0.3654,1.1751 0.1824,1.5533c0.0019,0.1462 0.0469,0.2886 0.1293,0.4094c0.0824,0.1208 0.1986,0.2146 0.3341,0.2697c0.1139,0.0569 0.2668,-0.0596 0.3929,-0.0551c0.1109,0.0055 0.2187,0.0379 0.3142,0.0944c0.0955,0.0566 0.1758,0.1355 0.2339,0.2301c0.0581,0.0945 0.0923,0.2018 0.0996,0.3125c0.0074,0.1108 -0.0124,0.2216 -0.0576,0.323c-0.0845,0.1992 -0.2251,0.3695 -0.4046,0.4903c-0.1795,0.1207 -0.3903,0.1868 -0.6066,0.19c0.0863,0.1648 0.2218,0.2986 0.3876,0.3829c0.1659,0.0843 0.3538,0.1149 0.5378,0.0875c-0.4102,1.285 -1.0734,2.4749 -1.9507,3.4996c-0.1746,0.2001 -0.404,0.3447 -0.6598,0.416c-0.0845,0.0192 -0.1683,0.0435 -0.2106,-0.0052c-0.0319,-0.0345 -0.056,-0.0756 -0.0706,-0.1203c-0.0146,-0.0448 -0.0193,-0.0921 -0.0139,-0.1389c0.0006,-0.0337 -0.0055,-0.0672 -0.0179,-0.0986c-0.0124,-0.0313 -0.0308,-0.06 -0.0543,-0.0842c-0.0235,-0.0242 -0.0516,-0.0435 -0.0825,-0.0568c-0.031,-0.0133 -0.0643,-0.0204 -0.0981,-0.0208c-0.069,-0.0003 -0.1353,0.0263 -0.1851,0.0741c-0.0498,0.0477 -0.0791,0.1129 -0.0817,0.1819c-0.0161,0.0998 -0.0115,0.2018 0.0136,0.2998c0.025,0.0979 0.0698,0.1897 0.1317,0.2696c0.062,0.0799 0.1396,0.1463 0.2282,0.195c0.0886,0.0487 0.1863,0.0786 0.2869,0.088c0.4896,-0.0144 0.9537,-0.2214 1.2916,-0.576c0.6072,-0.644 1.1397,-1.3546 1.5872,-2.1184c1.0112,-1.792 0.5696,-2.2656 2.2464,-6.0627c1.4059,-2.989 3.0348,-5.868 4.8729,-8.6125c0.8205,0.5261 1.088,0.7104 1.545,1.0375c-1.7728,2.9837 -4.3476,8.5165 -5.184,11.7677c-0.0197,0.0726 -0.0097,0.1501 0.0277,0.2154c0.0375,0.0653 0.0993,0.113 0.172,0.1327c0.0726,0.0197 0.1501,0.0097 0.2154,-0.0277c0.0653,-0.0375 0.113,-0.0993 0.1327,-0.172c0.6258,-1.8344 1.3766,-3.6237 2.2471,-5.3555c2.9728,-6.5446 3.7171,-6.4505 3.3075,-6.9459c1.7958,-2.3558 2.7219,-2.7373 2.3296,-3.1078zM80.4013,33.1257c-0.2707,0.6182 -0.2221,0.5593 -0.2669,0.544c-0.0915,-0.0244 -0.0531,-0.1991 -0.4217,-0.3072c-0.3085,-0.08 -0.6035,0.0262 -0.8704,-0.1524c0.1683,-0.0147 0.2387,-0.2259 0.3654,-0.2598c0.1267,-0.0339 0.4775,0.2413 0.6317,0.1344c0.0845,-0.064 0.1683,-0.256 0.281,-0.2803c0.272,-0.0685 0.2918,-0.0243 0.5324,-0.24c-0.0851,0.1862 -0.1696,0.3737 -0.2515,0.5613z" fill="#e5d283"></path><path d="M81.129,45.4225c-0.7321,0.0302 -1.4355,0.2935 -2.0076,0.7513c-0.1127,-0.2228 -0.2596,-0.4266 -0.4352,-0.6041c-1.9488,-1.7703 -4.6944,-0.32 -7.12,0.6726c-1.0093,0.4141 -2.2048,0.624 -3.1034,1.4605c-1.2307,1.152 -1.6909,3.4208 -1.4464,4.8486c0.217,1.3197 1.2358,2.9076 2.5843,2.7693c0.1111,-0.0122 0.2183,-0.0483 0.3141,-0.106c0.0957,-0.0577 0.1778,-0.1354 0.2406,-0.228c0.0627,-0.0925 0.1046,-0.1975 0.1228,-0.3078c0.0181,-0.1103 0.0121,-0.2232 -0.0176,-0.331c0.0023,-0.027 -0.0025,-0.0542 -0.0141,-0.0787c0.2192,0.0979 0.4602,0.1368 0.6991,0.1129c0.2389,-0.0239 0.4673,-0.1098 0.6628,-0.2492c0.1504,-0.1476 0.2575,-0.3337 0.3095,-0.538c0.0521,-0.2042 0.047,-0.4188 -0.0145,-0.6204c1.0004,0.2003 1.4605,-0.2778 1.4605,-0.8736c1.1108,0.4652 2.3518,0.5151 3.4963,0.1408c0.2723,0.4184 0.6651,0.7443 1.1265,0.9348c0.4614,0.1905 0.9697,0.2365 1.4579,0.1321c1.1564,-0.2618 1.8156,-0.9677 2.5696,-0.4436c0.1358,0.1017 0.2396,0.24 0.2993,0.3988c0.0596,0.1588 0.0726,0.3313 0.0373,0.4972c-0.1114,0.6132 -0.8518,1.1098 -1.4323,1.3159c-0.0549,0.0189 -0.1054,0.0489 -0.1482,0.0882c-0.0429,0.0392 -0.0772,0.0868 -0.1009,0.1398c-0.0237,0.0531 -0.0363,0.1104 -0.0369,0.1685c-0.0007,0.0581 0.0106,0.1157 0.0332,0.1692c0.0249,0.064 2.0352,4.9818 2.0646,5.0471c0.256,0.5657 0.5479,1.1091 0.8423,1.6486c0.0142,0.0337 0.0351,0.064 0.0614,0.0894c0.0263,0.0253 0.0575,0.0451 0.0917,0.058c0.0341,0.013 0.0705,0.0189 0.107,0.0175c0.0365,-0.0015 0.0723,-0.0103 0.1053,-0.026c0.0341,-0.0151 0.0648,-0.0369 0.0904,-0.064c0.0255,-0.0272 0.0454,-0.0592 0.0585,-0.0941c0.013,-0.0349 0.019,-0.0721 0.0175,-0.1093c-0.0015,-0.0373 -0.0104,-0.0739 -0.0262,-0.1076c-0.0045,-0.0128 -0.3879,-1.168 -1.2679,-3.5239c0.2368,-1.3497 1.2499,-2.4569 1.872,-4.9651c0.7667,-2.7386 -0.2022,-8.3008 -3.5533,-8.1907zM73.1393,47.85c-0.2778,0.1229 -0.5869,0.3059 -0.9971,0.512c-1.2244,0.6054 -2.2688,1.4035 -2.5556,2.7328c-0.0508,0.179 -0.0884,0.3615 -0.1126,0.5459c-0.0115,0.128 -0.0422,0.2515 -0.0422,0.3879c0.0066,0.0671 -0.0129,0.1342 -0.0544,0.1874c-0.0415,0.0532 -0.1019,0.0885 -0.1686,0.0984c-0.0668,0.0099 -0.1348,-0.0061 -0.19,-0.0449c-0.0552,-0.0388 -0.0934,-0.0973 -0.1067,-0.1635c-0.1243,-0.3681 -0.172,-0.7577 -0.1402,-1.145c0.1395,-1.5052 1.6,-2.7833 3.0189,-3.3612c0.3844,-0.1457 0.7853,-0.2435 1.1936,-0.2912c0.0357,-0.0107 0.0732,-0.0142 0.1103,-0.0103c0.037,0.0039 0.073,0.0151 0.1057,0.033c0.0327,0.0179 0.0615,0.0421 0.0848,0.0712c0.0232,0.0291 0.0405,0.0625 0.0508,0.0984c0.0102,0.0358 0.0132,0.0733 0.0089,0.1103c-0.0044,0.0371 -0.016,0.0729 -0.0343,0.1053c-0.0183,0.0325 -0.0429,0.061 -0.0723,0.0839c-0.0294,0.023 -0.0631,0.0398 -0.099,0.0496zM75.7511,47.0711c-0.2422,0.0455 -0.4814,0.106 -0.7161,0.1811c-0.0645,0.0224 -0.1353,0.0181 -0.1967,-0.0117c-0.0613,-0.0298 -0.1084,-0.0828 -0.1307,-0.1473c-0.0223,-0.0645 -0.0181,-0.1352 0.0117,-0.1966c0.0299,-0.0614 0.0828,-0.1084 0.1473,-0.1308c0.2385,-0.1078 0.4881,-0.1891 0.7444,-0.2425c0.0364,-0.0105 0.0745,-0.0137 0.1121,-0.0092c0.0376,0.0045 0.074,0.0165 0.1069,0.0353c0.0329,0.0188 0.0617,0.0441 0.0846,0.0742c0.023,0.0301 0.0396,0.0646 0.049,0.1013c0.0094,0.0367 0.0114,0.0749 0.0057,0.1124c-0.0057,0.0375 -0.0188,0.0734 -0.0386,0.1057c-0.0199,0.0323 -0.046,0.0603 -0.0768,0.0823c-0.0308,0.022 -0.0658,0.0376 -0.1028,0.0458z" fill="#213555"></path></g></g></svg>