<svg xmlns="http://www.w3.org/2000/svg" width="32" height="32" viewBox="0 0 32 32" fill="none">
  <g clip-path="url(#clip0_2582_5859)">
    <path d="M15.7876 11.3107V9.71065C15.8436 6.36665 13.0409 3.35198 9.64893 3.40398C6.3916 3.45465 3.69026 6.19732 3.6956 9.45732V11.9773C3.6956 13.3773 3.2156 14.732 2.3356 15.8187C2.25486 15.9309 2.20646 16.0632 2.19567 16.201C2.18487 16.3389 2.2121 16.4771 2.27438 16.6005C2.33666 16.724 2.43161 16.828 2.5489 16.9013C2.66619 16.9745 2.80132 17.0142 2.9396 17.016H13.4289" stroke="#E5D283" stroke-width="2" stroke-linecap="round" stroke-linejoin="round"/>
    <path d="M1.08105 5.01733C1.90442 3.36776 3.16726 1.97757 4.73039 1" stroke="#E5D283" stroke-width="2" stroke-linecap="round" stroke-linejoin="round"/>
    <path d="M14.7969 1C16.3503 1.9911 17.6121 3.37763 18.4529 5.01733" stroke="#E5D283" stroke-width="2" stroke-linecap="round" stroke-linejoin="round"/>
    <path d="M7.79688 20.1094C7.90736 20.5411 8.15839 20.9237 8.51038 21.1969C8.86236 21.4702 9.29528 21.6185 9.74088 21.6185C10.1865 21.6185 10.6194 21.4702 10.9714 21.1969C11.3234 20.9237 11.5744 20.5411 11.6849 20.1094" stroke="#E5D283" stroke-width="2" stroke-linecap="round" stroke-linejoin="round"/>
    <path d="M19.0576 31.0001L13.8242 26.8814C13.4957 26.5995 13.2887 26.2016 13.2463 25.7708C13.204 25.3399 13.3296 24.9093 13.597 24.5688C13.8644 24.2284 14.253 24.0043 14.6816 23.9432C15.1102 23.8822 15.5458 23.9891 15.8976 24.2414L19.1229 26.7841L16.8256 16.0374C16.7795 15.822 16.7764 15.5996 16.8163 15.3829C16.8562 15.1662 16.9384 14.9595 17.0582 14.7746C17.1779 14.5897 17.333 14.4302 17.5144 14.3052C17.6958 14.1802 17.9001 14.0921 18.1156 14.0461C18.5507 13.9531 19.005 14.0368 19.3784 14.2787C19.5633 14.3985 19.7228 14.5535 19.8478 14.7349C19.9728 14.9164 20.0609 15.1206 20.1069 15.3361L21.6269 22.4454L24.9069 21.7441C26.0673 21.4962 27.2787 21.7193 28.2746 22.3644C29.2705 23.0095 29.9694 24.0237 30.2176 25.1841L30.9189 28.4641" stroke="#E5D283" stroke-width="2" stroke-linecap="round" stroke-linejoin="round"/>
  </g>
  <defs>
    <clipPath id="clip0_2582_5859">
      <rect width="32" height="32" fill="white"/>
    </clipPath>
  </defs>
</svg>