<svg xmlns="http://www.w3.org/2000/svg" width="32" height="32" viewBox="0 0 32 32" fill="none">
  <path d="M2 22.3368C1.44772 22.3368 1 21.8891 1 21.3368V12.9531C1 12.4795 1.33226 12.0708 1.79593 11.9741L15.7568 9.06383C15.8911 9.03584 16.0297 9.03577 16.164 9.06362L30.2031 11.9756C30.6672 12.0719 31 12.4808 31 12.9548V21.3368C31 21.8891 30.5523 22.3368 30 22.3368H2Z" stroke="#E5D283" stroke-width="2"/>
  <path d="M10.3125 16.7727C10.3125 17.4038 10.1971 17.9202 9.96635 18.4366C9.73558 18.8957 9.44712 19.2973 8.98558 19.6416C8.63943 19.8711 8.29327 20.0432 7.88942 20.1579C7.48558 20.2727 6.85096 20.3301 5.98557 20.3301H5.69711H4.3702C4.3702 20.3301 4.3125 20.3301 4.3125 20.2727V13.3875C4.3125 13.3301 4.3125 13.3301 4.3702 13.3301H5.69711C6.73557 13.3301 7.48558 13.3875 7.88942 13.5022C8.29327 13.617 8.69712 13.7891 9.04327 14.0186C9.44712 14.3055 9.79327 14.7071 10.024 15.2235C10.1971 15.5678 10.3125 16.1416 10.3125 16.7727Z" fill="#E5D283"/>
  <path d="M7.94772 18.2073C8.29387 17.9204 8.46694 17.404 8.46694 16.7155C8.46694 16.0269 8.29387 15.5679 7.94772 15.2237C7.60156 14.9368 7.08233 14.7646 6.39002 14.7646H6.10156V18.6089H6.39002C7.14002 18.6663 7.65925 18.5515 7.94772 18.2073Z" fill="#E5D283"/>
  <path d="M26.625 16.6006C27.1875 16.6579 27.5625 16.8301 27.875 17.117C28.1875 17.4038 28.3125 17.8629 28.3125 18.3793C28.3125 18.7235 28.25 19.0678 28.0625 19.3547C27.875 19.6416 27.625 19.8711 27.3125 19.9858C27.0625 20.1006 26.75 20.2153 26.375 20.2727C26 20.3301 25.375 20.3301 24.5 20.3301H22.375C22.3125 20.3301 22.3125 20.3301 22.3125 20.2727V13.3301H24.375C25.25 13.3301 25.8125 13.3301 26.1875 13.3875C26.5625 13.4448 26.8125 13.5022 27.0625 13.6743C27.3125 13.8465 27.5625 14.0186 27.6875 14.2481C27.8125 14.4776 27.9375 14.7645 27.9375 15.1088C27.9375 15.5104 27.8125 15.7973 27.625 16.0842C27.4375 16.3137 27.0625 16.4858 26.625 16.6006Z" fill="#E5D283"/>
  <path d="M25.75 16.0269C25.9375 15.9122 26.0625 15.7401 26.0625 15.5105C26.0625 15.2237 26 15.0515 25.8125 14.9368C25.625 14.822 25.3125 14.7646 24.75 14.7646H24.3125V16.1991H24.75C25.1875 16.1417 25.5625 16.1417 25.75 16.0269Z" fill="#E5D283"/>
  <path d="M26.0625 18.7813C26.25 18.6666 26.375 18.4945 26.375 18.2076C26.375 17.9207 26.25 17.6912 26.125 17.5764C25.9375 17.4617 25.5625 17.4043 25.0625 17.4043H24.3125V18.9535H25.0625C25.5 18.9535 25.8125 18.8961 26.0625 18.7813Z" fill="#E5D283"/>
  <path d="M20.3125 20.2153C20.3125 20.2727 20.3125 20.2727 20.3125 20.2153H18.4758C18.4758 20.2153 18.4145 20.2153 18.4145 20.1579L17.986 17.1743C17.986 16.9448 17.9247 16.7153 17.9247 16.4858C17.9247 16.1989 17.8635 15.912 17.8635 15.6252C17.8023 15.912 17.7411 16.3137 17.5574 16.7153C17.5574 16.8301 17.4962 16.8875 17.4962 16.9448L16.5166 20.2153C16.5166 20.2153 16.5166 20.2153 16.4554 20.2727H15.1696L14.1288 17.0022C14.1288 16.9448 14.0676 16.8875 14.0676 16.7727C13.9452 16.3137 13.8227 15.9694 13.7615 15.6825C13.7615 15.9694 13.7003 16.1989 13.7003 16.4858C13.7003 16.7727 13.639 17.0022 13.5778 17.2891L13.1492 20.3301H11.3737C11.3125 20.3301 11.3125 20.3301 11.3125 20.2727L12.4145 13.3875C12.4145 13.3875 12.4145 13.3301 12.4758 13.3875H14.435C14.435 13.3875 14.4962 13.3875 14.4962 13.4448L15.5982 17.0022C15.5982 17.0022 15.5982 17.0596 15.6594 17.117C15.7819 17.4612 15.8431 17.6907 15.8431 17.9202C15.8431 17.8055 15.9043 17.6334 15.9043 17.5186C15.9656 17.3465 15.9656 17.1743 16.088 16.9448L17.1901 13.3875L17.2513 13.3301H19.2105H19.2717L20.3125 20.2153Z" fill="#E5D283"/>
</svg>