<svg xmlns="http://www.w3.org/2000/svg" width="32" height="32" viewBox="0 0 32 32" fill="none">
  <g id="Icon/Legal Scale" clip-path="url(#clip0_2355_5744)">
    <path id="Vector" d="M9 13H29" stroke="#E5D283" stroke-width="2" stroke-linecap="round" stroke-linejoin="round"/>
    <path id="Vector_2" d="M19 11V27" stroke="#E5D283" stroke-width="2" stroke-linecap="round" stroke-linejoin="round"/>
    <path id="Vector_3" d="M15 31C15 29.9391 15.4214 28.9217 16.1716 28.1716C16.9217 27.4214 17.9391 27 19 27C20.0609 27 21.0783 27.4214 21.8284 28.1716C22.5786 28.9217 23 29.9391 23 31H15Z" stroke="#E5D283" stroke-width="2" stroke-linecap="round" stroke-linejoin="round"/>
    <path id="Vector_4" d="M7 21L11 13L15 21" stroke="#E5D283" stroke-width="2" stroke-linecap="round" stroke-linejoin="round"/>
    <path id="Vector_5" d="M23 21L27 13L31 21" stroke="#E5D283" stroke-width="2" stroke-linecap="round" stroke-linejoin="round"/>
    <path id="Vector_6" d="M15 21C15 22.0609 14.5786 23.0783 13.8284 23.8284C13.0783 24.5786 12.0609 25 11 25C9.93913 25 8.92172 24.5786 8.17157 23.8284C7.42143 23.0783 7 22.0609 7 21H15Z" stroke="#E5D283" stroke-width="2" stroke-linecap="round" stroke-linejoin="round"/>
    <path id="Vector_7" d="M31 21C31 22.0609 30.5786 23.0783 29.8284 23.8284C29.0783 24.5786 28.0609 25 27 25C25.9391 25 24.9217 24.5786 24.1716 23.8284C23.4214 23.0783 23 22.0609 23 21H31Z" stroke="#E5D283" stroke-width="2" stroke-linecap="round" stroke-linejoin="round"/>
    <path id="Vector_8" d="M9 29H3C2.46957 29 1.96086 28.7893 1.58579 28.4142C1.21071 28.0391 1 27.5304 1 27V3C1 2.46957 1.21071 1.96086 1.58579 1.58579C1.96086 1.21071 2.46957 1 3 1H16.5853C16.8509 1.00003 17.1056 1.10554 17.2933 1.29333L22.7067 6.70667C22.8945 6.89443 23 7.14911 23 7.41467V9" stroke="#E5D283" stroke-width="2" stroke-linecap="round" stroke-linejoin="round"/>
  </g>
  <defs>
    <clipPath id="clip0_2355_5744">
      <rect width="32" height="32" fill="white"/>
    </clipPath>
  </defs>
</svg>