<svg xmlns="http://www.w3.org/2000/svg" width="32" height="32" viewBox="0 0 32 32" fill="none">
  <path d="M31 19.9999V24.6666C31 25.197 30.7893 25.7057 30.4142 26.0808C30.0391 26.4559 29.5304 26.6666 29 26.6666H3C2.46957 26.6666 1.96086 26.4559 1.58579 26.0808C1.21071 25.7057 1 25.197 1 24.6666V19.9999C2.06087 19.9999 3.07828 19.5785 3.82843 18.8283C4.57857 18.0782 5 17.0608 5 15.9999C5 14.9391 4.57857 13.9216 3.82843 13.1715C3.07828 12.4213 2.06087 11.9999 1 11.9999V7.33325C1 6.80282 1.21071 6.29411 1.58579 5.91904C1.96086 5.54397 2.46957 5.33325 3 5.33325H29C29.5304 5.33325 30.0391 5.54397 30.4142 5.91904C30.7893 6.29411 31 6.80282 31 7.33325V11.9999C29.9391 11.9999 28.9217 12.4213 28.1716 13.1715C27.4214 13.9216 27 14.9391 27 15.9999C27 17.0608 27.4214 18.0782 28.1716 18.8283C28.9217 19.5785 29.9391 19.9999 31 19.9999Z" stroke="#E5D283" stroke-width="2" stroke-linecap="round" stroke-linejoin="round"/>
  <path d="M9.66699 12C9.66699 12.5304 9.87771 13.0391 10.2528 13.4142C10.6279 13.7893 11.1366 14 11.667 14C12.1974 14 12.7061 13.7893 13.0812 13.4142C13.4563 13.0391 13.667 12.5304 13.667 12C13.667 11.4696 13.4563 10.9609 13.0812 10.5858C12.7061 10.2107 12.1974 10 11.667 10C11.1366 10 10.6279 10.2107 10.2528 10.5858C9.87771 10.9609 9.66699 11.4696 9.66699 12Z" stroke="#E5D283" stroke-width="2" stroke-linecap="round" stroke-linejoin="round"/>
  <path d="M19.333 20C19.333 20.5304 19.5437 21.0391 19.9188 21.4142C20.2939 21.7893 20.8026 22 21.333 22C21.8634 22 22.3721 21.7893 22.7472 21.4142C23.1223 21.0391 23.333 20.5304 23.333 20C23.333 19.4696 23.1223 18.9609 22.7472 18.5858C22.3721 18.2107 21.8634 18 21.333 18C20.8026 18 20.2939 18.2107 19.9188 18.5858C19.5437 18.9609 19.333 19.4696 19.333 20Z" stroke="#E5D283" stroke-width="2" stroke-linecap="round" stroke-linejoin="round"/>
  <path d="M21 11L11 21" stroke="#E5D283" stroke-width="2" stroke-linecap="round" stroke-linejoin="round"/>
</svg>