<svg version="1.1" xmlns="http://www.w3.org/2000/svg" xmlns:xlink="http://www.w3.org/1999/xlink" width="416" height="414" viewBox="0,0,256,254.76563"><g fill="none" fill-rule="nonzero" stroke="none" stroke-width="1" stroke-linecap="butt" stroke-linejoin="miter" stroke-miterlimit="10" stroke-dasharray="" stroke-dashoffset="0" font-family="none" font-weight="none" font-size="none" text-anchor="none" style="mix-blend-mode: normal"><g transform="translate(15.33575,9.8109) scale(0.61538,0.61538)"><path d="M206.014,358.965c-27.798,0.167 -69.485,0.826 -72.711,11.689c-2.255,7.604 48.83,11.683 71.492,11.445c28.259,-0.295 80.265,-3.99 78.208,-12.458c-2.057,-8.468 -53.142,-10.819 -76.989,-10.676z" fill="#e5d283"></path><g transform="translate(66.2076,167.4616)" id="mosquito-path" fill="#e5d283"><path transform="translate(-66.20754,-167.46107)" d="M66.4852,167.923c-0.9901,1.354 0.8881,1.86 2.1736,3.269c1.2854,1.409 2.6894,0.228 2.4502,-0.866c-0.1269,-0.591 -3.3779,-4.107 -4.6238,-2.403z" opacity="0"></path><path transform="translate(-66.2075,-167.4613)" d="M75.712,178.631c0.9193,1.636 1.352,3.568 2.7643,2.942c1.1377,-0.502 0.624,-1.632 0.2309,-2.436c-1.9303,-3.951 -4.4242,-3.056 -2.9952,-0.506z" opacity="0"></path><path transform="translate(-66.2075,-167.4616)" d="M86.6298,192.581c0.1832,-0.131 0.3355,-0.299 0.4462,-0.494c0.1107,-0.195 0.1771,-0.411 0.1945,-0.635c0.0998,-1.014 -3.4382,-2.959 -3.6858,-2.992c-2.7476,-0.2 1.2792,5.323 3.0451,4.121z" opacity="0"></path><path transform="translate(-66.2075,-167.4612)" d="M100.075,199.788c0.217,-0.012 0.427,-0.08 0.61,-0.196c0.184,-0.116 0.334,-0.278 0.436,-0.468c0.103,-0.19 0.154,-0.404 0.15,-0.62c-0.005,-0.216 -0.065,-0.427 -0.175,-0.613c-0.593,-0.866 -1.1999,-0.316 -3.9164,-1.424c-3.5526,-1.444 -3.2094,2.895 2.8954,3.321z" opacity="0"></path></g><path d="M301.419,118.646c-9.25,-16.465 -38.644,-28.3997 -51.808,-32.96c-4.784,6.9635 -9.448,9.2033 -13.891,8.7942c-8.097,15.2908 -35.549,3.4342 -28.275,-16.3487c-34.297,-2.2564 -78.764,17.977 -91.834,38.7975c-11.284,17.977 -6.864,60.917 -2.846,71.773c3.784,-4.17 13.281,-6.72 20.9,-5.901c0.164,-9.336 5.714,-42.36 8.674,-46.858c1.516,-2.304 23.633,-10.561 28.768,-10.104c1.284,0.115 0.984,1.475 -0.208,1.733c-2.799,0.614 -5.553,1.415 -8.243,2.399c-0.765,16.889 -0.661,33.805 0.312,50.683c25.097,8.829 67.675,6.033 79.984,-0.163c0.807,-10.857 6.057,-32.855 10.781,-51.681c-2.14,-0.636 -4.181,-1.308 -6.271,-1.944c-0.179,-0.018 -0.344,-0.105 -0.458,-0.243c-0.114,-0.138 -0.169,-0.315 -0.152,-0.493c0.018,-0.178 0.106,-0.342 0.244,-0.455c0.139,-0.114 0.318,-0.168 0.497,-0.15c6.583,0.262 27.778,7.914 29.345,10.823c2.333,4.339 4.064,26.339 2.352,37.326c6.386,-1.081 14.45,-0.827 19.454,3.564c2.082,-9.397 10.887,-43.975 2.675,-58.592z" fill="#e5d283"></path><path d="M89.7562,299.822c-1.04,0.703 0,2.104 0.988,1.8c9.3138,-2.868 14.1648,2.451 11.5208,4.753c-2.9658,2.587 -11.2483,2.153 -13.3637,-2.517c-0.4659,-1.033 -2.3754,-1.015 -2.4024,0.293c-0.1747,7.865 14.2021,7.852 17.8551,4.121c5.53,-5.648 -6.4941,-13.934 -14.5978,-8.45z" fill="#213555"></path><path d="M66.1439,348.028c-1.2189,0.194 -1.3333,2.126 0,2.239c2.5334,0.207 -2.9619,6.313 -11.207,7.233c-3.9333,0.442 -3.482,-1.654 -1.1357,-3.026c2.6832,-1.565 5.5373,-2.821 8.5072,-3.744c0.2238,-0.103 0.4038,-0.282 0.5088,-0.504c0.1049,-0.222 0.1281,-0.474 0.0655,-0.711c-0.0626,-0.237 -0.2071,-0.445 -0.4082,-0.587c-0.2011,-0.143 -0.4461,-0.21 -0.6924,-0.192c-3.2905,0.556 -11.2548,2.988 -12.2283,6.883c-1.664,6.681 10.6288,5.604 17.472,-0.719c4.4762,-4.145 1.1981,-7.203 -0.8819,-6.872z" fill="#213555"></path><path d="M325.595,284.641c-0.921,-0.186 -1.485,1.13 -0.888,1.765c1.872,1.988 4.07,2.62 6.155,6.866c1.612,3.288 1.152,4.777 -2.519,1.783c-3.404,-2.793 -5.825,-6.589 -6.912,-10.84c-0.055,-0.281 -0.221,-0.53 -0.461,-0.691c-0.239,-0.16 -0.533,-0.22 -0.817,-0.165c-0.284,0.055 -0.534,0.219 -0.696,0.457c-0.162,0.239 -0.222,0.531 -0.166,0.813c0.771,5.023 3.408,9.578 7.39,12.767c4.755,3.703 9.545,2.426 7.471,-3.644c-1.194,-3.501 -4.9,-8.377 -8.557,-9.111z" fill="#213555"></path><path d="M116.599,193.215c0.767,-1.948 11.086,-4.959 13.166,-5.182c4.925,-0.542 10.87,1.992 10.962,7.488c0.027,1.635 2.317,1.339 2.254,-0.262c-0.255,-6.377 -6.583,-9.809 -12.426,-9.809c-4.197,0 -13.936,3.277 -16.145,6.612c-3.488,5.261 -2.643,18.44 3.934,22.889c0.969,0.657 1.909,-0.996 1.052,-1.765c-5.412,-4.862 -5.09,-14.142 -2.797,-19.971z" fill="#213555"></path><path d="M123.067,199.263c-0.445,-1.944 -3.866,-1.012 -1.04,5.036c1.273,2.274 3.068,4.219 5.238,5.676c2.17,1.458 4.656,2.387 7.255,2.713c1.514,0 1.949,-0.977 0.805,-1.637c-2.829,-1.63 -10.648,-2.368 -12.258,-11.788z" fill="#213555"></path><path d="M140.167,206.588c1.003,-0.018 1.19,-1.653 0.148,-2.01c-3.717,-1.284 -8.47,0.741 -10.781,-3.269c-1.023,-1.781 -1.645,-5.315 0.117,-6.313c0.835,-0.373 1.749,-0.541 2.664,-0.49c0.26,-0.007 0.508,-0.109 0.697,-0.287c0.189,-0.178 0.304,-0.419 0.325,-0.677c0.021,-0.257 -0.055,-0.513 -0.213,-0.719c-0.158,-0.205 -0.387,-0.345 -0.643,-0.393c-10.237,-1.209 -6.978,13.294 0,13.945c2.556,0.216 5.122,0.287 7.686,0.213z" fill="#213555"></path><path d="M127.504,214.436c-1.248,-1.827 -5.225,-3.61 -7.34,-9.596c-0.479,-1.358 -0.624,-2.781 -1.005,-4.17c-0.275,-0.998 -3.307,-1.434 -1.217,4.906c1.175,3.566 5.647,9.263 8.64,10.151c0.172,0.075 0.364,0.089 0.545,0.04c0.18,-0.05 0.338,-0.16 0.446,-0.312c0.109,-0.152 0.161,-0.336 0.148,-0.522c-0.012,-0.185 -0.089,-0.361 -0.217,-0.497z" fill="#213555"></path><path d="M152.212,224.803c5.055,-2.829 18.903,-19.711 17.397,-21.387c-2.704,-2.996 -28.161,-6.806 -34.561,-4.38c-3.014,1.14 -0.526,3.269 1.005,3.269c1.531,0 6.394,-0.362 7.28,2.686c0.699,2.417 -2.798,4.071 -4.741,4.037c3.94,5.742 8.507,11.033 13.62,15.775z" fill="#213555"></path><g transform="translate(197.40837,35.02856) rotate(-12)" id="man-head" fill="#213555"><path transform="translate(-209.327,-31.1539)" d="M249.906,72.3107c-1.248,-0.7997 -3.488,2.5023 -2.222,3.271c1.267,0.7687 3.703,-2.3226 2.222,-3.271z"></path><path transform="translate(-209.3265,-31.154)" d="M242.927,77.9848c2.008,-0.4133 3.16,-6.5399 3.16,-7.4057c0,-0.8658 -0.953,-1.0125 -1.456,-0.0826c-0.951,1.7832 -2.14,5.6265 -2.633,5.3724c-4.206,-2.1097 -3.499,-0.1385 -2.6,0.7356c0.459,0.4611 1.01,0.8221 1.618,1.0597c0.608,0.2377 1.259,0.3469 1.911,0.3206z"></path><path transform="translate(-209.3271,-31.154)" d="M237.677,61.0803c-1.131,0.562 -1.233,2.0477 0.298,2.0663c1.037,0.0138 2.069,0.1455 3.076,0.3926c0.87,0.2066 1.993,-0.6695 0.988,-1.8473c-0.584,-0.5205 -1.31,-0.8566 -2.087,-0.9655c-0.777,-0.1089 -1.569,0.0143 -2.275,0.3539z"></path><path transform="translate(-209.3266,-31.1539)" d="M229.499,78.4581c-0.179,1.9134 1.645,2.4527 3.291,2.0766c1.645,-0.3761 3.02,0.562 4.476,0.1157c0.165,-0.0496 0.318,-0.1321 0.45,-0.2423c0.132,-0.1102 0.241,-0.246 0.318,-0.399c0.078,-0.153 0.124,-0.3201 0.135,-0.4911c0.011,-0.1711 -0.013,-0.3426 -0.071,-0.5041c-1.255,-3.2648 -8.297,-3.8 -8.599,-0.5558z"></path><path transform="translate(-209.3271,-31.1539)" d="M240.015,66.866c-1.266,-1.1778 -4.461,2.5188 -2.585,3.6636c1.876,1.1447 3.706,-2.6181 2.585,-3.6636z"></path><path transform="translate(-209.3272,-31.1539)" d="M252.868,69.7278c1.822,1.3617 2.215,-2.8928 -0.822,-3.988c-1.51,-0.5413 -2.238,0.9319 -1.333,1.6345c0.905,0.7025 1.618,1.9527 2.155,2.3535z"></path><path transform="translate(-209.3269,-31.1539)" d="M211.18,84.1156c3.032,-6.6519 6.862,-12.9156 11.407,-18.6547c2.08,-2.6036 -0.863,-2.5643 -0.331,-5.9345c0.974,-6.1617 7.349,-5.3311 7.28,-2.0105c-0.014,0.8658 1.215,1.0848 1.976,0.8162c1.753,-0.6056 3.349,-1.592 4.67,-2.8874c1.32,-1.2954 2.334,-2.8672 2.966,-4.6009c4.543,7.4883 11.109,12.59 18.795,13.431c-3.802,6.5399 -12.838,23.7027 -20.95,25.3413c-5.976,1.2088 -10.238,-3.7194 -12.162,-8.7777c-0.052,-0.1754 -0.17,-0.3241 -0.33,-0.415c-0.159,-0.0908 -0.348,-0.1168 -0.527,-0.0725c-0.178,0.0443 -0.333,0.1554 -0.431,0.3102c-0.098,0.1548 -0.132,0.3412 -0.095,0.5203c2.045,7.9409 8.229,11.9144 14.055,10.8234c8.228,-1.5436 19.421,-20.1259 23.04,-27.794c7.126,-1.0146 11.583,-11.6003 8.228,-19.8821c-6.473,-15.9892 -44.435,-21.9732 -45.899,8.6c-3.521,1.963 -4.576,8.0111 -2.419,11.1994c-4.187,4.0603 -9.256,14.0034 -10.997,19.1444c-0.066,0.1138 -0.108,0.2399 -0.123,0.3705c-0.015,0.1306 -0.003,0.2629 0.036,0.3885c0.039,0.1256 0.104,0.2419 0.19,0.3416c0.086,0.0997 0.192,0.1806 0.311,0.2377c0.12,0.057 0.249,0.089 0.382,0.0939c0.132,0.005 0.264,-0.0173 0.387,-0.0653c0.123,-0.0481 0.235,-0.1209 0.328,-0.2138c0.094,-0.093 0.167,-0.2042 0.215,-0.3266z"></path></g><path d="M282.524,183.282c-1.645,0.606 -1.052,2.031 0.329,1.767c6.358,-1.223 5.341,7.627 3.293,9.891c-2.361,2.608 -6.584,1.013 -10.172,2.91c-0.225,0.098 -0.404,0.279 -0.499,0.505c-0.094,0.226 -0.097,0.479 -0.008,0.707c0.089,0.228 0.263,0.413 0.487,0.517c0.223,0.103 0.478,0.116 0.711,0.037c4.368,-0.964 14.369,1.046 12.969,-11.904c0.003,-0.834 -0.207,-1.656 -0.612,-2.387c-0.406,-0.731 -0.992,-1.348 -1.703,-1.791c-0.712,-0.444 -1.526,-0.699 -2.365,-0.743c-0.839,-0.045 -1.675,0.125 -2.43,0.491z" fill="#213555"></path><path d="M284.631,205.412c-0.145,0.182 -0.218,0.41 -0.206,0.642c0.013,0.232 0.111,0.451 0.275,0.616c0.164,0.164 0.384,0.264 0.617,0.279c0.233,0.015 0.463,-0.055 0.648,-0.198c5.11,-4.01 10.088,-12.883 7.933,-18.262c-0.06,-0.227 -0.2,-0.425 -0.395,-0.559c-0.195,-0.133 -0.431,-0.192 -0.666,-0.167c-0.235,0.025 -0.453,0.132 -0.615,0.304c-0.162,0.171 -0.257,0.394 -0.267,0.629c0.353,3.18 -0.297,6.391 -1.859,9.189c-1.532,2.705 -3.365,5.23 -5.465,7.527z" fill="#213555"></path><path d="M296.103,188.539c1.246,5.223 0.505,10.72 -2.081,15.433c-0.561,1.112 1.12,1.841 1.746,0.827c1.513,-2.463 2.509,-5.204 2.928,-8.058c0.418,-2.855 0.251,-5.765 -0.493,-8.553c-0.347,-1.228 -2.292,-0.877 -2.1,0.351z" fill="#213555"></path><path d="M296.169,178.53c-5.493,-2.686 -22.268,-3.271 -26.135,3.269c-0.796,1.103 -1.209,2.433 -1.177,3.79c0.033,1.357 0.509,2.667 1.358,3.731c0.751,0.917 1.988,-0.238 1.547,-1.194c-0.465,-1.049 -0.57,-2.22 -0.299,-3.334c0.27,-1.113 0.902,-2.108 1.797,-2.83c4.299,-3.554 18.46,-3.441 21.774,-1.422c1.604,1.122 2.963,2.555 3.996,4.213c1.032,1.658 1.716,3.506 2.011,5.433c0.31,3.061 0.126,6.152 -0.543,9.156c-0.133,0.826 1.248,1.339 1.562,0.572c4.399,-10.675 -2.582,-19.768 -5.891,-21.384z" fill="#213555"></path><path d="M278.541,189.374c-8.228,1.63 -32.448,11.158 -31.697,14.257c1.04,4.267 14.285,17.25 20.384,21.254c5.25,-5.345 11.519,-18.163 13.824,-23.591c-2.55,0.36 -7.11,2.044 -8.443,-2.043c-1.333,-4.087 7.802,-3.893 9.25,-5.373c1.447,-1.479 2.722,-5.703 -3.318,-4.504z" fill="#213555"></path><path d="M247.728,340.702c3.586,-1.39 19.321,-1.553 24.159,-1.239c2.024,-3.565 14.818,-62.473 13.52,-77.074c-0.998,-11.158 -9.464,-28.087 -15.173,-34.094c-9.167,-0.672 -27.492,-20.422 -27.188,-25.554c0.112,-1.914 5.25,-5.003 9.874,-6.916c-2.867,-4.271 -6.088,-8.296 -9.629,-12.034c-36.321,8.829 -71.244,2.944 -80.641,0c-2.413,4.408 -4.275,9.091 -5.548,13.947c1.417,0.393 14.352,1.635 15.291,4.806c0.938,3.172 -17.15,27.336 -23.157,24.523c-1.456,5.315 -10.87,24.526 -10.816,43.736c0.044,14.388 9.568,54.95 14.664,67.653c2.704,-0.196 20.785,0.207 25.047,2.224c-0.624,-3.269 -0.397,-59.382 1.04,-64.432c3.006,-10.58 28.833,-41.659 32.733,-41.349c3.9,0.31 30.876,21.68 34.776,34.073c3.9,12.394 1.826,61.822 1.048,71.73z" fill="#213555"></path><path d="M174.364,345.788c3.863,10.089 -0.751,16.48 -11.683,12.703c-9.375,-3.24 -19.633,-6.643 -28.687,-10.563c-5.939,-2.57 -6.359,-5.006 1.04,-5.459c7.27,-0.397 14.559,-0.343 21.823,0.163c1.04,0 1.236,-2.066 0.229,-2.192c-7.537,-0.878 -15.14,-1.064 -22.712,-0.556c-10.843,0.62 -10.202,6.54 -1.512,10.58c8.69,4.039 20.176,7.796 29.623,11.067c13.496,4.674 19.209,-6.319 14.088,-16.808c-0.844,-1.715 -2.883,-0.702 -2.209,1.065z" fill="#213555"></path><path d="M291.479,346.343c-4.626,-1.83 -18.096,-3.647 -23.783,-4.61c-1.893,-0.322 -2.221,2.652 -0.312,2.959c6.448,1.034 15.669,2.156 21.79,3.72c5.712,1.446 1.248,3.665 -2.057,4.364c-11.419,2.415 -22.895,4.717 -34.299,7.232c-10.517,2.331 -6.588,-8.013 -3.834,-14.714c0.591,-1.447 -1.381,-2.025 -2.08,-0.736c-3.581,6.674 -8.033,21.077 5.431,18.312c11.519,-2.374 22.907,-5.025 34.447,-7.16c8.333,-1.543 12.628,-6.228 4.697,-9.367z" fill="#213555"></path><g transform="translate(10.408,197.342)" id="puff-comp-01"><path transform="translate(-10.4084,-197.3415)" d="M110.163,222.35c-4.244,2.654 -8.257,5.657 -11.9973,8.976c-0.6739,0.8 0.5075,1.889 1.248,1.422c4.1603,-2.614 8.2323,-5.373 12.1283,-8.354c0.23,-0.198 0.379,-0.473 0.419,-0.772c0.04,-0.3 -0.031,-0.604 -0.201,-0.855c-0.169,-0.25 -0.425,-0.431 -0.719,-0.508c-0.294,-0.077 -0.606,-0.045 -0.878,0.091z" id="motion-left-01" fill="#e5d283" opacity="0"></path><path transform="translate(-10.4082,-197.3413)" d="M104.815,215.973c-7.4066,1.635 -13.162,3.286 -19.7597,5.053c-1.1669,0.312 -0.624,2.107 0.5096,1.994c6.7178,-1.133 13.3497,-2.721 19.8491,-4.753c1.244,-0.477 0.735,-2.589 -0.599,-2.294z" id="motion-left-02" fill="#e5d283" opacity="0"></path><path transform="translate(-10.408,-197.3421)" d="M91.0396,210.675c5.5287,0.476 10.4184,0.484 15.6354,0.476c1.219,0 1.645,-2.209 0.231,-2.273c-5.317,-0.239 -10.6268,-0.239 -15.9308,0c-1.038,-0.066 -0.857,1.719 0.0644,1.797z" id="motion-left-03" fill="#e5d283" opacity="0"></path><g transform="translate(36.99103,9.0547) scale(0.50892,0.50892)" id="puff-01" fill="#213555" opacity="0"><path transform="translate(-10.4079,-197.342)" d="M75.273,224.883c-1.9115,-0.927 -2.9556,1.329 -0.9859,2.273c10.1171,4.846 13.181,14.903 9.568,21.548c-4.6217,8.472 -21.7651,9.794 -27.2376,1.897c-1.2958,-1.86 -2.496,-2.583 -3.8688,0.359c-1.3728,2.943 -2.7809,8.307 -10.9928,6.883c-8.2118,-1.424 -6.24,-8.319 -5.2665,-11.606c0.4472,-1.521 0.3806,-3.854 -1.8928,-2.687c-3.4078,1.788 -7.3883,2.165 -11.0748,1.051c-3.6866,-1.115 -6.7806,-3.631 -8.6083,-7.002c-5.84894,-10.895 4.8963,-24.237 15.1071,-19.799c2.5188,1.095 3.1595,-1.634 2.3545,-3.269c-2.7206,-5.525 -1.1045,-12.681 5.5453,-14.028c6.9118,-1.401 10.0381,0 14.0712,5.688c0.9048,1.277 2.3213,1.065 3.2926,-0.413c9.2997,-14.094 24.8456,-0.335 17.8152,9.962c-1.248,1.835 0.857,2.802 1.9344,1.401c1.7328,-2.258 2.6212,-5.043 2.5131,-7.88c-0.1082,-2.837 -1.2062,-5.548 -3.1059,-7.669c-1.3648,-1.498 -3.0668,-2.654 -4.9671,-3.374c-1.9003,-0.719 -3.945,-0.982 -5.9671,-0.767c-2.0222,0.215 -3.9644,0.903 -5.6682,2.006c-1.7037,1.103 -3.1207,2.591 -4.1352,4.342c-3.6857,-5.821 -10.1774,-7.544 -16.64,-5.821c-1.7239,0.48 -3.315,1.345 -4.6521,2.528c-1.3372,1.182 -2.3852,2.653 -3.0644,4.299c-0.6793,1.645 -0.9718,3.423 -0.8554,5.198c0.1163,1.775 0.6386,3.5 1.527,5.045c-10.4499,-4.906 -21.55506,8.17 -19.3211,19.128c0.4882,2.408 1.4874,4.686 2.9312,6.681c1.4437,1.995 3.2988,3.661 5.4416,4.888c2.1428,1.227 4.5242,1.986 6.9855,2.227c2.4614,0.24 4.9461,-0.042 7.2887,-0.83c-2.4357,7.645 2.107,12.16 7.4214,13.487c7.1282,1.779 11.3236,-1.635 14.2023,-7.716c5.8926,8.437 27.9344,7.914 32.3065,-4.906c3.3364,-9.777 -3.3696,-18.935 -12.0016,-23.124z"></path></g></g><g transform="translate(295.275,187.5463)" id="puff-comp-02"><path transform="translate(-295.2746,-187.5461)" d="M315.309,224.654c-6.202,-3.781 -12.374,-6.79 -18.63,-10.071c-0.217,-0.095 -0.46,-0.111 -0.686,-0.044c-0.227,0.066 -0.423,0.21 -0.553,0.406c-0.13,0.196 -0.186,0.432 -0.158,0.665c0.028,0.233 0.138,0.449 0.311,0.609c5.899,4.06 12.08,7.698 18.497,10.888c1.542,0.808 2.717,-1.538 1.219,-2.453z" id="motion-path-01" fill="#e5d283" opacity="0"></path><path transform="translate(-295.2745,-187.5463)" d="M303.59,209.041c3.083,1.409 6.268,2.583 9.529,3.513c0.168,0.042 0.344,0.05 0.515,0.025c0.172,-0.026 0.337,-0.084 0.486,-0.173c0.15,-0.089 0.279,-0.206 0.383,-0.344c0.103,-0.139 0.178,-0.297 0.221,-0.464c0.042,-0.167 0.05,-0.341 0.025,-0.512c-0.026,-0.171 -0.085,-0.335 -0.174,-0.483c-0.089,-0.148 -0.207,-0.277 -0.347,-0.38c-0.139,-0.103 -0.298,-0.177 -0.466,-0.219c-3.177,-1.228 -6.24,-2.066 -9.398,-2.976c-1.167,-0.332 -1.909,1.509 -0.774,2.013z" id="motion-path-02" fill="#e5d283" opacity="0"></path><path transform="translate(-295.2751,-187.5458)" d="M329.002,199.788c-5.846,-1.292 -11.852,-1.722 -17.824,-1.275c-0.283,0 -0.555,0.112 -0.755,0.311c-0.201,0.199 -0.314,0.469 -0.314,0.751c0,0.282 0.113,0.552 0.314,0.751c0.2,0.199 0.472,0.311 0.755,0.311c5.74,0.108 11.46,0.693 17.1,1.75c1.71,0.319 2.43,-2.233 0.724,-2.599z" id="motion-path-03" fill="#e5d283" opacity="0"></path><g transform="translate(25.408,1.05024) scale(0.53544,0.53544)" id="puff-02" fill="#213555" opacity="0"><path transform="translate(-320.6744,-187.4762)" d="M390.684,215.973c6.584,-4.233 8.131,-14.079 -1.102,-17.069c-2.347,-0.736 -4.843,-0.871 -7.256,-0.394c-2.414,0.478 -4.667,1.552 -6.551,3.125c-0.314,-8.846 -8.231,-14.078 -16.459,-14.158c-8.229,-0.081 -18.764,6.131 -16.983,15.497c0.044,0.27 0.191,0.512 0.411,0.677c0.219,0.164 0.494,0.238 0.768,0.207c0.273,-0.032 0.523,-0.167 0.699,-0.377c0.175,-0.211 0.263,-0.48 0.243,-0.753c-0.53,-8.432 8.578,-13.108 16.081,-12.507c7.192,0.576 13.586,6.405 12.145,13.979c-0.262,1.374 0.553,2.82 2.616,1.014c4.069,-3.564 10.113,-6.259 15.157,-2.911c7.37,4.889 -1.15,11.757 -3.588,12.786c-1.824,0.769 -0.416,2.37 0.676,2.686c10.205,2.877 17.938,5.544 14.581,18.262c-3.357,12.719 -18.566,17.725 -25.376,6.263c-0.971,-1.634 -3.059,0 -3.059,1.095c0.027,4.491 -1.72,8.812 -4.865,12.037c-3.145,3.225 -7.438,5.096 -11.956,5.211c-19.043,1.277 -30.104,-15.665 -17.362,-27.548c2.496,-2.335 0,-3.769 -0.791,-3.073c-2.236,1.951 -14.878,1.389 -14.942,-9.548c-0.054,-8.863 9.865,-11.136 14.3,-9.941c0.938,0.252 1.664,-1.653 0.676,-2.027c-3.196,-1.169 -6.719,-1.086 -9.855,0.232c-3.136,1.318 -5.65,3.772 -7.031,6.863c-4.222,9.47 3.422,18.36 13.479,17.977c-10.484,12.378 1.069,30.282 18.876,29.937c10.928,-0.206 20.211,-5.411 22.048,-16.824c8.902,9.352 25.889,4.782 28.883,-10.856c2.136,-11.127 -3.272,-18.031 -14.463,-19.862z"></path></g></g><g id="mosquito-01-comp" fill="#213555" opacity="0"><path transform="translate(-52.98412,-151.94267)" d="M55.0473,156.951c-0.1706,-0.488 0,-2.926 1.119,-2.926c2.338,0 2.2215,4.546 1.4311,6.278c-6.6976,-1.488 -5.2333,6.837 2.2547,6.343c2.5521,-0.167 3.2926,-2.124 2.4357,-3.645c10.766,-0.954 6.1588,-11.172 0.7176,-8.486c-1.3,0.643 -2.756,2.568 -1.4664,3.196c0.2179,0.107 0.4695,0.123 0.6996,0.046c0.2301,-0.078 0.4198,-0.243 0.5276,-0.459c0.1692,-0.337 0.4297,-0.621 0.7523,-0.819c0.3226,-0.199 0.6945,-0.304 1.0739,-0.304c0.3794,0 0.7513,0.105 1.0739,0.304c0.3226,0.198 0.5831,0.482 0.7523,0.819c1.976,3.399 -4.9358,3.908 -6.6809,3.416c1.976,-5.771 -1.3998,-9.092 -4.0643,-8.747c-2.9474,0.387 -3.5027,4.639 -1.5143,6.654c0.3994,0.403 1.6848,0.613 0.8882,-1.67zM59.9852,164.572c-1.4976,0.489 -4.9317,-1.337 -4.4117,-2.046c0.9173,-1.24 6.4023,1.358 4.368,2.046z"></path></g><g transform="translate(314.3307,100.0472)" id="mosquito-02-comp"><path transform="translate(-314.32996,-100.0472)" d="M319.588,185.826c-0.327,-1.033 -1.646,-1.447 -2.6,0.44c-0.955,1.887 -3.289,2.141 -2.496,3.647c1.119,2.155 5.759,-1.996 5.096,-4.087z" id="motion-path-01-2" fill="#e5d283" opacity="0"></path><path transform="translate(-314.33024,-100.0467)" d="M318.962,171.831c0.324,1.632 -0.262,3.262 0.988,3.465c1.647,0.269 1.793,-2.533 1.645,-3.513c-0.247,-2.977 -3.147,-2.523 -2.633,0.048z" id="motion-path-02-2" fill="#e5d283" opacity="0"></path><path transform="translate(-314.33078,-100.0466)" d="M319.604,159.47c1.432,0 1.178,-1.915 1.941,-3.744c0.208,-0.508 0.859,-1.754 -0.345,-2.273c-2.415,-1.039 -3.736,5.87 -1.596,6.017z" id="motion-path-03-2" fill="#e5d283" opacity="0"></path><path transform="translate(-314.3307,-100.0473)" d="M325.826,146.456c0.95,0.546 1.431,-0.392 2.319,-1.275c0.888,-0.882 3.03,-1.177 2.402,-2.518c-1.231,-2.633 -7.034,2.467 -4.721,3.793z" id="motion-path-04" fill="#e5d283" opacity="0"></path><path transform="translate(-314.3306,-100.0473)" d="M340.866,137.398c-2.795,1.13 -1.897,3.306 0.891,2.306c1.553,-0.556 4.415,-1.18 3.571,-2.813c-0.687,-1.326 -2.764,-0.177 -4.462,0.507z" id="motion-path-05" fill="#e5d283" opacity="0"></path><path transform="translate(-314.3305,-100.0473)" d="M358.28,124.417c-0.121,-0.203 -0.299,-0.367 -0.511,-0.473c-0.213,-0.105 -0.452,-0.148 -0.688,-0.122c-0.236,0.026 -0.46,0.119 -0.644,0.268c-0.184,0.15 -0.322,0.348 -0.395,0.573c-0.659,1.257 -1.402,2.47 -2.224,3.628c-0.116,0.189 -0.166,0.41 -0.141,0.63c0.024,0.22 0.121,0.425 0.275,0.584c0.155,0.159 0.358,0.263 0.578,0.295c0.22,0.032 0.445,-0.01 0.638,-0.118c0.72,-0.279 4.133,-3.533 3.112,-5.265z" id="motion-path-06" fill="#e5d283" opacity="0"></path><g id="mosquito-02" fill="#213555"><path transform="translate(-347.345,-99.57016)" d="M358.313,113.674c-1.647,2.067 1.958,6.406 6.581,1.145c0.608,-0.538 1.03,-1.252 1.207,-2.041c0.178,-0.788 0.101,-1.613 -0.219,-2.356c-1.008,-2.302 -3.635,-2.159 -5.628,0.277c-1.069,-2.224 -2.864,-8.358 -1.169,-8.811c2.6,-0.694 1.498,4.753 1.548,5.036c0.178,0.996 1.872,1.634 2.338,-2.552c0.416,-3.842 -2.274,-5.1909 -4.369,-4.7074c-4.744,1.0934 -1.645,9.0914 -0.378,12.0654c-0.659,0 -8.509,1.634 -8.376,0c0,-1.211 3.095,-1.641 4.312,-1.447c2.19,0.364 2.417,-1.107 0.64,-1.832c-2.585,-1.054 -7.365,0.491 -7.454,3.531c-0.121,4.261 8.251,2.92 10.967,1.692zM360.485,114.1c0.639,-1.171 1.499,-2.209 2.533,-3.056c1.105,-0.606 1.745,1.24 -0.378,2.992c-0.872,0.719 -3.126,1.618 -2.155,0.064z"></path></g></g></g></g></svg>