<svg version="1.1" xmlns="http://www.w3.org/2000/svg" xmlns:xlink="http://www.w3.org/1999/xlink" width="174" height="173" viewBox="0,0,256,254.52501"><g fill="none" fill-rule="nonzero" stroke="none" stroke-width="1" stroke-linecap="butt" stroke-linejoin="miter" stroke-miterlimit="10" stroke-dasharray="" stroke-dashoffset="0" font-family="none" font-weight="none" font-size="none" text-anchor="none" style="mix-blend-mode: normal"><g transform="translate(0.00958,0.00844) scale(1.47126,1.47126)"><path d="M41.7659,26.3332c2.423,0.7448 8.9071,0.1168 15.9741,0c0.7256,-0.0121 0.7256,-1.1859 0,-1.1729c-11.397,0.1955 -5.7003,0.4506 -13.8861,0.4506c-0.6642,-0.0739 -1.3328,-0.1028 -2.001,-0.0865c-0.5403,-0.0069 -0.6351,0.6401 -0.087,0.8088z" fill="#213555"></path><path d="M57.1027,31.116c0.1445,0 0.283,-0.0571 0.3852,-0.1586c0.1021,-0.1016 0.1595,-0.2393 0.1595,-0.3829c0,-0.1436 -0.0574,-0.2814 -0.1595,-0.3829c-0.1022,-0.1016 -0.2407,-0.1586 -0.3852,-0.1586c-16.8997,0 -14.5803,-0.0303 -14.7943,0c-0.0982,0.0062 -0.191,0.0466 -0.262,0.1143c-0.071,0.0676 -0.1157,0.1581 -0.1261,0.2553c-0.0104,0.0973 0.0141,0.195 0.0692,0.276c0.0551,0.081 0.1372,0.14 0.2319,0.1666c4.9455,0.4797 9.9215,0.5703 14.8813,0.2708z" fill="#213555"></path><path d="M41.9469,34.4547c-0.0857,0.0145 -0.1634,0.0587 -0.2195,0.1247c-0.056,0.066 -0.0868,0.1496 -0.0868,0.236c0,0.0864 0.0308,0.17 0.0868,0.236c0.0561,0.066 0.1338,0.1102 0.2195,0.1247c1.6826,0.5579 13.699,0.9515 16.2455,0.2707c0.1317,-0.0482 0.2427,-0.1403 0.314,-0.2606c0.0713,-0.1202 0.0987,-0.2613 0.0774,-0.3993c-0.0213,-0.138 -0.0899,-0.2645 -0.1942,-0.3579c-0.1043,-0.0935 -0.2379,-0.1483 -0.3782,-0.1551c-0.0878,-0.0104 -15.9775,0.1531 -16.0645,0.1808z" fill="#213555"></path><path d="M48.2993,38.6963c-2.001,0 -3.9933,0 -5.8986,0.1808c-0.5447,0.0865 -0.5447,0.8114 0,0.8114c1.9966,0.1808 3.9933,0.0908 5.8986,0.0908c0.6359,0 0.6359,-1.1729 0,-1.083z" fill="#213555"></path><path d="M10.0906,74.9724c4.2709,2.4981 10.5732,3.0785 15.4286,2.7066c2.3505,3.8226 5.9818,6.6984 10.2547,8.1214c0.6325,0.1921 0.9988,-0.6314 0.636,-1.0829c-1.9132,-2.0748 -3.0089,-4.7663 -3.0859,-7.58c1.7252,-0.3658 3.4233,-0.8482 5.0825,-1.4437c6.5494,-3.0526 10.4557,-10.8385 6.8974,-17.5059c-6.6137,-12.392 -29.8949,-10.6118 -37.66492,-1.8044c-1.23115,1.3092 -2.15549,2.8732 -2.70663,4.5797c-0.55114,1.7065 -0.71542,3.5131 -0.48105,5.2902c0.23438,1.7771 0.8616,3.4805 1.83663,4.988c0.97503,1.5075 2.27368,2.7817 3.80267,3.731zM15.4446,61.9783c0.5763,-0.1296 1.1804,-0.0452 1.6985,0.2373c0.5181,0.2825 0.9144,0.7436 1.1142,1.2964c0.8927,2.262 -2.155,4.3094 -3.9019,2.5267c-0.3177,-0.2943 -0.549,-0.6689 -0.669,-1.0838c-0.12,-0.4149 -0.1243,-0.8544 -0.0124,-1.2715c0.1119,-0.4171 0.3358,-0.7962 0.6477,-1.0965c0.3119,-0.3003 0.7,-0.5107 1.1229,-0.6086zM27.6055,63.422c0.1143,0.3314 0.1572,0.6829 0.1262,1.0319c-0.0311,0.3489 -0.1356,0.6874 -0.3067,0.9937c-0.1711,0.3062 -0.405,0.5733 -0.6866,0.7839c-0.2815,0.2106 -0.6044,0.36 -0.9477,0.4386c-0.3838,0.0631 -0.7772,0.0343 -1.1475,-0.084c-0.3704,-0.1183 -0.707,-0.3226 -0.9821,-0.5961c-0.275,-0.2735 -0.4805,-0.6082 -0.5995,-0.9764c-0.119,-0.3682 -0.1479,-0.7593 -0.0845,-1.1409c0.0969,-0.5121 0.3584,-0.9791 0.745,-1.331c0.3866,-0.3518 0.8776,-0.5694 1.3992,-0.6202c0.5216,-0.0508 1.0457,0.068 1.4936,0.3386c0.448,0.2705 0.7955,0.6783 0.9906,1.1619zM37.045,63.5085c0.1124,0.3316 0.154,0.6828 0.122,1.0313c-0.0319,0.3484 -0.1367,0.6864 -0.3076,0.9922c-0.171,0.3058 -0.4042,0.5728 -0.6849,0.7838c-0.2807,0.2111 -0.6027,0.3615 -0.9452,0.4417c-0.3834,0.061 -0.776,0.0309 -1.1454,-0.0881c-0.3694,-0.119 -0.7052,-0.3234 -0.9798,-0.5964c-0.2745,-0.273 -0.4801,-0.6068 -0.5998,-0.9741c-0.1196,-0.3673 -0.15,-0.7576 -0.0886,-1.1388c0.0764,-0.5275 0.3286,-1.0142 0.7162,-1.3822c0.3876,-0.3681 0.8882,-0.5962 1.4216,-0.6478c0.5335,-0.0516 1.0689,0.0762 1.5206,0.363c0.4517,0.2868 0.7936,0.716 0.9709,1.2189z" fill="#e5d283"></path><path d="M13.5383,42.1254c0.9144,0.4034 1.9037,0.6117 2.9041,0.6117c1.0003,0 1.9896,-0.2083 2.904,-0.6117c0.4291,-0.2178 0.8273,-0.4913 1.1841,-0.8131c0.1751,-0.1823 0.2729,-0.4248 0.2729,-0.6769c0,-0.2521 -0.0978,-0.4945 -0.2729,-0.6768c-0.5437,-0.5415 -1.0831,-0.173 -1.5425,0.1808c-1.867,1.4376 -6.619,0.5665 -8.6217,-3.2481c-2.29419,-4.37 0.6038,-10.207 5.0825,-11.2805c3.9472,-0.9446 7.3507,1.7413 7.3507,7.1293c0,4.8328 -3.3574,3.5517 -3.3574,-1.6244c0,-0.4152 -2.697,-3.1763 -4.992,-0.8123c-1.7522,1.8079 -1.8601,5.5542 0.3628,6.8578c0.3569,0.1829 0.7469,0.293 1.1472,0.3238c0.4003,0.0309 0.8028,-0.0182 1.1838,-0.1442c0.381,-0.126 0.7327,-0.3266 1.0346,-0.5897c0.3019,-0.2632 0.5479,-0.5838 0.7234,-0.9428c1.0387,2.0665 2.9127,2.249 3.9933,1.1729c1.894,-1.8839 2.4734,-8.5531 -1.3616,-11.7311c-2.8658,-2.3744 -7.6177,-2.281 -10.982,1.1729c-5.08775,5.216 -3.65225,13.0313 2.9867,15.7024zM17.7143,33.6432c-0.087,0.993 -0.4541,2.076 -1.6338,1.9895c-2.9528,0 -0.007,-7.1414 1.5425,-4.0603c0.1565,0.6788 0.1872,1.3802 0.0904,2.0699z" fill="#e5d283"></path><path d="M108.384,26.6046c3.267,0.7223 7.008,0.148 9.984,1.9895c3.015,1.8624 3.741,5.7774 3.358,9.1137c-0.348,3.0699 -1.725,5.9564 -2.996,8.7529c-7.403,-2.3242 -14.105,7.5688 -9.801,13.9871c-0.087,0.0268 -7.989,2.8311 -8.352,3.4288c-0.059,0.1237 -0.092,0.2582 -0.096,0.395c-0.004,0.1368 0.02,0.273 0.071,0.4001c0.051,0.1271 0.128,0.2423 0.226,0.3385c0.098,0.0961 0.215,0.1711 0.344,0.2202c1.189,0.6141 2.817,0.3814 4.083,0.1807c2.344,-0.3719 5.23,-1.1383 6.899,-2.7974c9.338,2.7308 15.339,-11.0313 8.258,-15.4307c1.907,-3.9704 3.909,-8.304 3.267,-12.8132c-0.224,-1.8686 -0.945,-3.6442 -2.088,-5.1442c-2.125,-2.6772 -5.356,-3.287 -8.531,-3.4289c-1.418,-0.106 -2.841,-0.1349 -4.263,-0.0865c-0.726,0.0822 -0.907,0.8045 -0.363,0.8944zM120.182,49.8861c0.129,0.1283 0.206,0.2985 0.217,0.4789c0.011,0.1805 -0.043,0.359 -0.154,0.5023c-0.111,0.1433 -0.27,0.2418 -0.449,0.277c-0.178,0.0353 -0.363,0.005 -0.521,-0.0852c-3.35,-1.666 -5.677,0.1885 -7.352,3.5188c-0.272,0.4515 -0.916,0.0865 -0.816,-0.3607c0.783,-3.5647 3.385,-5.5049 6.171,-5.5049c1.058,0.12 2.062,0.526 2.904,1.1738z" fill="#213555"></path><path d="M102.029,36.171c0.255,2.3096 3.855,8.0237 7.986,11.0089c0.632,0.4567 1.634,-0.3607 2.088,-0.7223c2.95,-2.0527 4.642,-0.4965 4.357,-6.497c-0.121,-2.525 -0.25,-5.2532 -1.997,-7.2185c-1.703,-1.9151 -4.45,-3.3492 -7.079,-2.7074c-0.364,0.0865 -2.917,-5.2229 -4.629,-7.1285c-4.1131,-4.5767 -10.3483,-5.9641 -16.3366,-4.6018c-10.259,2.3321 -8.6251,10.649 -6.9008,13.8063c0.8473,1.4405 1.987,2.6898 3.3464,3.6685c1.3594,0.9788 2.9088,1.6654 4.5497,2.0163c3.9489,0.9584 10.5409,0.4887 14.6153,-1.6245zM99.3066,24.26c0.3698,0.6271 -0.3636,1.4436 -0.9987,0.9921c-2.7231,-1.7144 -5.4462,-3.2636 -8.7131,-3.1581c-2.4508,0.0787 -5.6271,0.7223 -6.8973,3.1581c-0.0418,0.0652 -0.096,0.1216 -0.1596,0.166c-0.0636,0.0444 -0.1354,0.0758 -0.2113,0.0926c-0.0758,0.0168 -0.1543,0.0186 -0.2308,0.0052c-0.0766,-0.0133 -0.1497,-0.0415 -0.2153,-0.083c-0.0656,-0.0415 -0.1223,-0.0954 -0.1669,-0.1586c-0.0446,-0.0633 -0.0763,-0.1347 -0.0932,-0.2101c-0.0169,-0.0754 -0.0187,-0.1534 -0.0052,-0.2295c0.0134,-0.0761 0.0418,-0.1488 0.0835,-0.214c2.7057,-6.574 14.5716,-5.5153 17.6079,-0.3607zM82.6975,28.0495c-0.0127,0.3508 0.0823,0.6972 0.2723,0.993c0.3654,0.9074 0.0774,1.6747 -0.9075,1.4437c-1.0309,-0.2422 -1.4363,-1.9895 -0.5446,-2.7974c0.6099,-0.5553 1.1798,-0.1799 1.1798,0.3607z" fill="#213555"></path><path d="M91.5009,142.38c2.4508,-0.813 5.0843,-1.648 7.7143,-1.444c1.0178,0.066 2.0108,0.341 2.9168,0.807c0.906,0.466 1.705,1.113 2.348,1.9c0.444,0.549 1.361,-0.18 0.997,-0.812c-1.041,-1.524 -2.634,-2.591 -4.446,-2.978c-3.3218,-0.788 -6.5251,0.281 -9.8024,1.444c-0.6351,0.359 -0.3628,1.352 0.2723,1.083z" fill="#213555"></path><path d="M87.6885,138.857c5.033,-4.325 11.4605,-6.676 16.7915,-2.797c0.629,0.459 1.451,-0.541 0.816,-1.083c-2.048,-1.634 -4.641,-2.44 -7.2606,-2.256c-4.4309,0.149 -8.0692,2.459 -11.163,5.414c-0.4637,0.442 0.2793,1.184 0.8161,0.722z" fill="#213555"></path><path d="M101.305,130.198c1.002,0.332 1.121,-0.832 0.635,-0.993c-2.9008,-1.455 -6.2409,-1.79 -9.3754,-0.94c-3.1345,0.85 -5.841,2.825 -7.5967,5.543c-0.0722,0.131 -0.0889,0.286 -0.0464,0.43c0.0425,0.144 0.1407,0.265 0.273,0.337c0.1324,0.072 0.288,0.088 0.4326,0.046c0.1446,-0.042 0.2665,-0.14 0.3387,-0.272c1.653,-2.38 4.0994,-4.102 6.9066,-4.862c2.8071,-0.76 5.794,-0.508 8.4326,0.711z" fill="#213555"></path><path d="M88.9612,47.6277c0.5446,0.1799 0.9074,-0.1808 1.1797,-0.6323c0.2565,-0.4038 0.3831,-0.8758 0.3628,-1.3529c-0.087,-0.6323 -0.5438,-1.1738 -1.1797,-0.9031c-0.9979,0.3616 -1.5399,2.6175 -0.3628,2.8883z" fill="#213555"></path><path d="M101.393,47.4474c-0.087,-0.6315 -0.542,-1.1652 -1.18,-0.9022c-0.9032,0.372 -1.5435,2.6166 -0.3638,2.8874c0.9168,0.3036 1.5438,-1.0112 1.5438,-1.9852z" fill="#213555"></path><path d="M92.4095,40.2312c-0.4829,-0.3168 -1.0591,-0.4624 -1.6355,-0.4133c-0.5764,0.0492 -1.1193,0.2902 -1.5409,0.684c-0.085,0.1014 -0.1315,0.2292 -0.1315,0.3612c0,0.1319 0.0465,0.2597 0.1315,0.3611c0.3628,0.4515 1.1797,-0.0865 1.6339,0c0.6351,0.0865 1.452,1.083 2.001,0.4515c0.4489,-0.6323 0.0809,-1.1642 -0.4585,-1.4445z" fill="#213555"></path><path d="M94.7683,45.191c0.1809,-0.3607 -0.4542,-0.6314 -0.636,-0.2707c-0.4533,0.9022 -3.3582,6.6778 -1.7243,7.0385c0.8925,0.2146 1.8052,0.3355 2.7231,0.3607c0.1068,0.0009 0.211,-0.0327 0.297,-0.0957c0.086,-0.063 0.1491,-0.1521 0.1798,-0.2538c0.0307,-0.1017 0.0273,-0.2106 -0.0096,-0.3103c-0.0368,-0.0996 -0.1052,-0.1847 -0.1949,-0.2424c-0.6351,-0.6315 -1.6339,-0.3607 -2.4508,-0.3607c0.4471,-2.0002 1.0542,-3.9616 1.8157,-5.8656z" fill="#213555"></path><path d="M90.141,57.9171c0.0914,0 1.7244,-0.2707 2.4508,-0.4507c0.1985,1.0083 0.6692,1.944 1.3616,2.7066c0.7421,0.9809 1.8148,1.9895 2.9945,1.8952c2.5413,0 3.3781,-3.2506 3.1761,-5.2341c-0.082,-0.8131 -0.453,-0.9921 -1.2699,-0.9921c-2.8934,-0.0363 -5.7739,0.3901 -8.5312,1.2629c-0.5864,0.1946 -0.8248,0.8122 -0.1819,0.8122zM98.9446,57.1049c0,1.903 -0.6369,4.3431 -2.3595,3.7904c-0.6973,-0.3123 -1.3087,-0.787 -1.7827,-1.3838c-0.474,-0.5968 -0.7965,-1.2982 -0.9404,-2.0451c1.6868,-0.2077 3.3832,-0.3284 5.0826,-0.3615z" fill="#213555"></path><path d="M130.257,47.8091c0.817,-0.18 16.975,-6.2237 18.332,-8.304c0.501,-0.7197 0.799,-1.5596 0.863,-2.4324c0.064,-0.8728 -0.108,-1.7468 -0.499,-2.531c-0.817,-1.8952 -5.247,-5.1286 -3.54,-7.1285c1.376,-1.6123 7.624,-7.3992 9.167,-8.9337c0.363,-0.4507 0.908,-0.9921 0.817,-1.6245c0.001,-0.1498 -0.036,-0.2974 -0.108,-0.429c-0.072,-0.1317 -0.176,-0.2432 -0.303,-0.3241c-0.127,-0.081 -0.272,-0.1287 -0.422,-0.1389c-0.151,-0.0102 -0.301,0.0176 -0.438,0.0807c-18.225,9.5634 -19.964,10.4665 -20.511,12.001c-0.479,1.3451 3.993,5.1433 4.719,6.5878c1.18,2.3459 -6.081,7.1285 -7.442,8.4822c-0.817,0.8122 -3.449,2.7066 -2.814,4.0603c0.455,0.7249 1.452,0.7249 2.179,0.6341z" fill="#e5d283"></path><path d="M147.864,51.2383c-1.18,0.0908 -2.299,0.3555 -2.542,1.6244c-0.103,0.5398 0.817,3.7905 0.727,4.7826c-0.091,0.9922 -0.816,1.0674 -1.634,0.9931c-2.537,-0.2301 -12.071,-1.2638 -13.523,0c-0.086,0.0801 -0.15,0.1796 -0.189,0.2901c-0.038,0.1104 -0.048,0.2284 -0.03,0.3438c0.017,0.1154 0.063,0.2248 0.133,0.3187c0.07,0.0939 0.162,0.1695 0.267,0.2203c2.632,1.6245 5.64,2.486 8.622,3.4289c1.641,0.519 8.526,2.7887 10.165,2.3458c2.719,-0.7352 2.541,-5.1433 2.632,-6.1354c0,-0.6323 -0.087,-1.5345 0.636,-1.8053c1.452,-0.5415 12.558,-1.4609 16.155,-3.1581c0.732,-0.346 0.181,-1.2629 -0.272,-1.5336c-0.428,-0.2033 -0.889,-0.3259 -1.361,-0.3616c-2.27,0 -19.061,-1.3537 -19.786,-1.3537z" fill="#e5d283"></path><path d="M79.7944,150.952c1.4349,0.043 2.8691,-0.109 4.263,-0.451c4.0098,-0.827 14.616,-4.696 15.2476,-4.152c0.729,0.628 0.736,2.076 0.5437,2.888c-0.174,0.725 -0.9117,0.8 -1.452,0.993c-2.3795,0.848 -12.6098,4.172 -15.3381,4.872c-1.0523,0.355 -2.1556,0.538 -3.2669,0.542c-1.3606,-0.101 -53.9156,-6.747 -54.8187,-6.949c-0.1903,-0.041 -0.3895,-0.007 -0.5551,0.095c-0.1656,0.102 -0.2847,0.264 -0.3319,0.452c-0.0472,0.188 -0.0189,0.387 0.079,0.555c0.0979,0.167 0.2576,0.29 0.4453,0.343c1.9931,0.378 52.0042,6.677 53.8199,6.768c0.8416,0.118 1.6935,0.147 2.5413,0.086c0.6325,-0.114 15.5938,-4.482 18.3335,-5.685c0.6463,-0.189 1.238,-0.529 1.724,-0.993c0.454,-0.631 0.181,-3.88 -0.182,-4.602c-0.228,-0.395 -0.593,-0.695 -1.0264,-0.845c-0.4336,-0.149 -0.9069,-0.137 -1.3326,0.033c-0.5472,0.173 -16.6996,5.324 -17.9707,4.693c-1.2702,-5.144 -7.4289,-30.683 -8.8035,-37.178c-1.5286,-7.222 -3.6262,-8.51 -6.8069,-8.934c-1.4503,-0.192 -9.2577,-0.993 -18.424,-1.804c0.5211,-2.5635 1.3762,-5.0486 2.5439,-7.3922c5.769,-12.2458 17.8829,-18.4375 31.3122,-20.574c1.0851,5.7846 2.4791,11.5078 4.176,17.1451c0.0415,0.1022 0.1086,0.1921 0.1951,0.2611c0.0864,0.0689 0.1892,0.1147 0.2985,0.1328c0.1094,0.0182 0.2215,0.0081 0.3258,-0.0292c0.1043,-0.0373 0.1972,-0.1006 0.2698,-0.1839c0.7265,-1.1729 7.8961,-11.9119 8.352,-12.5425c0,0.0908 4.9912,13.5355 5.6272,14.6185c0.0412,0.0656 0.0951,0.1225 0.1586,0.1672c0.0635,0.0447 0.1353,0.0764 0.2113,0.0932c0.0757,0.0168 0.1547,0.0185 0.2307,0.0048c0.077,-0.0137 0.15,-0.0424 0.215,-0.0844c6.412,-4.4115 20.501,-17.6867 20.693,-17.6867c9.739,2.9791 19.401,7.6397 25.958,15.3399c8.893,10.4513 10.862,24.6643 8.352,36.6373c-3.654,17.393 -15.146,22.378 -30.768,22.378c-5.901,0.01 -11.782,-0.688 -17.516,-2.076c-0.073,-0.02 -0.148,-0.025 -0.222,-0.016c-0.075,0.01 -0.146,0.034 -0.211,0.072c-0.065,0.037 -0.121,0.087 -0.166,0.147c-0.045,0.059 -0.078,0.127 -0.096,0.199c-0.018,0.073 -0.022,0.148 -0.01,0.221c0.011,0.074 0.037,0.145 0.077,0.208c0.039,0.063 0.091,0.118 0.152,0.161c0.061,0.044 0.13,0.074 0.203,0.09c2.031,0.701 4.131,1.185 6.264,1.445c20.01,3.078 36.813,0.109 42.748,-19.221c2.411,-7.854 2.28,-17.161 0.544,-24.454c-3.562,-14.9436 -14.068,-24.5632 -28.233,-29.9625c-5.107,-1.8867 -10.357,-3.3654 -15.701,-4.4219c0.087,-0.9922 0.545,-5.4141 0.817,-6.587c0.012,-0.0535 0.014,-0.1089 0.005,-0.163c-0.009,-0.0541 -0.029,-0.1058 -0.059,-0.1522c-0.029,-0.0464 -0.068,-0.0866 -0.113,-0.1181c-0.045,-0.0316 -0.096,-0.054 -0.15,-0.066c-0.054,-0.0119 -0.109,-0.0131 -0.164,-0.0035c-0.054,0.0096 -0.106,0.0297 -0.152,0.0593c-0.047,0.0296 -0.087,0.0681 -0.119,0.1132c-0.031,0.045 -0.053,0.0959 -0.065,0.1495c-0.588,2.1917 -1.013,4.4238 -1.27,6.6778c-2.088,0.6315 -15.5199,4.0612 -16.791,4.3319c-0.181,0.0865 -3.2668,-3.2489 -4.263,-4.152c0.0914,-0.4515 0.0914,-4.7826 0.0914,-5.5948c1.1797,0.0865 2.2707,0.0675 3.3573,0.1808c0.7282,0.0753 0.9117,-1.1911 0.1818,-1.3537c-3.212,-0.7188 -6.1848,0.4783 -9.0758,-1.9895c-0.6141,-0.6614 -0.9403,-1.5373 -0.9074,-2.4367c0.2461,-7.3492 1.7182,-14.6067 4.3561,-21.4762c0.174,-0.4533 -0.6325,-0.8114 -0.817,-0.3608c-1.944,4.575 -3.3454,9.3596 -4.176,14.257c-0.4385,2.4454 -0.7114,4.9174 -0.8169,7.3992c-0.0717,1.1254 0.2487,2.241 0.9074,3.159c1.4677,1.8493 3.6279,2.4488 5.99,2.6166c-0.087,0.8122 -0.2724,4.6926 -0.2724,5.0533c-4.7699,-0.0539 -9.5274,0.4928 -14.1592,1.6271c-8.7191,2.082 -15.2067,5.6389 -20.5137,10.9206c-4.7225,4.6928 -7.9704,10.6497 -9.3482,17.1456c-10.8002,-0.993 -23.0498,-2.1084 -28.4081,-2.6171c-10.15899,-0.9644 -10.614,1.9851 -9.52911,5.5951c1.08489,3.609 15.52251,39.886 15.52251,39.886c0,0 55.7253,6.314 57.2687,6.495zM111.56,73.3486c2.692,0.4983 5.358,1.1308 7.986,1.8952c-6.934,6.0317 -11.827,11.1204 -19.422,16.781c-0.4936,-0.9809 -5.0707,-12.9352 -5.3543,-14.3478c0.087,-0.0216 16.4293,-4.3284 16.7903,-4.3284zM93.2263,77.3189c0,0.3694 -0.6864,0.1376 -8.1684,12.0919c-1.639,-5.1821 -2.9723,-10.4549 -3.9933,-15.7915c2.5412,-0.3607 5.173,-0.5414 7.8056,-0.7222c0.0739,0.0372 4.2978,4.363 4.3561,4.4218zM33.961,106.736c3.2669,0.361 24.5044,1.354 27.231,2.076c0.6546,0.145 1.2696,0.43 1.8025,0.835c0.5328,0.405 0.9707,0.921 1.2834,1.511c1.0536,2.004 3.0859,11.009 3.3582,13.355c-0.0115,0.142 -0.0735,0.275 -0.1748,0.375c-0.1014,0.1 -0.2354,0.161 -0.3778,0.171c-0.1424,0.01 -0.2839,-0.03 -0.3989,-0.114c-0.115,-0.085 -0.196,-0.207 -0.2282,-0.345c-0.3637,-0.812 -3.0859,-12.543 -3.9028,-13.446c-0.9011,-0.81 -2.0547,-1.288 -3.2678,-1.353c-8.439,-1.277 -16.9719,-1.263 -25.4118,-2.436c-0.3671,0.093 -0.3671,-0.629 0.087,-0.629zM19.7122,119.911c0.5289,1.269 7.5281,17.237 7.8047,18.499c0.0483,0.174 0.0305,0.359 -0.0502,0.521c-0.0806,0.161 -0.2184,0.288 -0.3869,0.355c-0.1685,0.067 -0.356,0.07 -0.5266,0.008c-0.1705,-0.062 -0.3122,-0.184 -0.3978,-0.343c-0.3785,-0.714 -5.4166,-13.939 -7.2602,-18.857c-0.1705,-0.458 0.6299,-0.636 0.817,-0.183z" fill="#213555"></path><path d="M125.629,119.007c-0.744,1.819 -1.851,3.469 -3.255,4.849c-1.404,1.381 -3.076,2.463 -4.913,3.183c-2.239,0.8 -4.611,1.167 -6.988,1.082c-0.545,0 -0.724,0.889 -0.087,0.993c2.196,0.294 4.431,0.107 6.547,-0.548c2.117,-0.655 4.063,-1.761 5.705,-3.242c3.363,-3.004 4.872,-6.999 5.263,-11.46c0.298,-2.88 0.298,-5.783 0,-8.663c-0.075,-0.634 -1.01,-0.631 -0.998,0c0.071,4.075 0.137,10.256 -1.274,13.806z" fill="#213555"></path><path d="M102.028,43.0256c0.842,-0.0822 0.702,0.9238 1.09,1.3537c0.076,0.1174 0.187,0.2088 0.317,0.2622c0.131,0.0535 0.274,0.0664 0.412,0.037c0.138,-0.0293 0.263,-0.0995 0.36,-0.2013c0.097,-0.1017 0.16,-0.2303 0.182,-0.3687c0.261,-0.9956 -0.997,-2.2619 -1.906,-2.5266c-0.635,-0.1843 -2.001,0.0865 -2.088,0.993c0.002,0.7785 0.858,0.5277 1.633,0.4507z" fill="#213555"></path><path d="M91.152,82.6484c-1.1481,1.718 -2.2934,3.4379 -3.4356,5.1598c0.2133,1.9737 0.7883,3.8919 1.6965,5.6597l-8.8035,24.5451l4.6284,10.38l9.53,-7.85l-0.4542,-26.8009c1.4695,-1.0639 2.7049,-2.415 3.6305,-3.9704c0.2819,-0.5294 -2.2454,-6.1545 -2.4508,-6.7678c-1.4514,0.2984 -2.9585,0.175 -4.3413,-0.3555zM91.6819,91.4827c-0.4542,0.4515 -2.8214,-1.3546 -2.269,-4.6918c0.087,-0.5415 0.9979,-0.3615 0.9979,0.0865c-0.3628,2.6201 1.7209,4.0638 1.2711,4.6053z" fill="#e5d283"></path><path d="M68.4485,36.8924c0,-0.8122 -2.175,-2.6175 -6.264,-7.2193c0,-11.4846 0.3671,-11.0175 -0.4541,-11.0988c-5.4254,-0.1592 -17.8046,-0.8382 -23.7789,0.8114c-0.1226,0 -0.3541,0.1868 -0.3628,0.5414c-0.087,3.7031 -0.1818,7.4001 -0.087,11.1897c0,0 -4.524,5.1502 -4.8102,5.5948c-0.1928,0.2943 -0.2878,0.6413 -0.2714,0.9922c0,1.5924 -0.3132,10.258 -0.3576,12.0684c0.4367,0.075 0.8697,0.1615 1.2989,0.2595c-0.1879,-1.7793 -0.0418,-10.2753 -0.1253,-11.6031c0.1819,0.1808 10.1651,9.9259 10.44,10.1067c-0.207,0.2059 0.7178,-0.6539 -4.1307,3.8458c0.3613,0.2093 0.7131,0.4308 1.0553,0.6643c7.917,-7.2141 10.0163,-8.8844 10.1546,-9.0219c0.9988,1.0829 16.2464,15.1599 16.5187,15.4307c-6.9887,0.4507 -13.9774,0.8114 -20.967,0.6314c0.1633,0.4391 0.2851,0.8923 0.3637,1.3538c7.3286,0.1252 14.6589,-0.1159 21.9631,-0.7223c0.3637,0 0.7265,-0.2708 0.636,-0.6315c-0.0957,-6.0489 -0.7308,-21.4788 -0.8213,-23.1932zM50.2968,42.8479c-0.6307,0.4585 -5.4462,5.0533 -5.7185,4.9625c-1.3607,-0.8122 -5.8081,-4.8725 -5.7176,-5.324c0.1818,-1.4437 -0.4533,-20.5741 -0.3628,-22.1077c1.2702,-0.2708 7.0792,-0.7898 8.6217,-0.8123c3.0867,-0.0449 12.3436,0.1808 13.8861,0.2708c0,0.0865 -0.3089,17.0855 0.4541,22.0177c0.087,0.3607 -5.5375,5.5057 -5.6272,5.414c-3.8575,-3.9253 -4.8041,-4.9547 -5.5358,-4.421zM56.5608,47.9012c2.1289,-1.6365 7.1871,-6.9632 10.44,-9.6559c0.6316,9.7476 0.7256,15.1859 0.7256,19.7816c-2.0549,-2.0033 0.3532,0.2872 -11.1673,-10.1257z" fill="#213555"></path></g></g></svg>