<svg version="1.1" xmlns="http://www.w3.org/2000/svg" xmlns:xlink="http://www.w3.org/1999/xlink" width="128" height="127" viewBox="0,0,256,254"><g fill="none" fill-rule="nonzero" stroke="none" stroke-width="1" stroke-linecap="butt" stroke-linejoin="miter" stroke-miterlimit="10" stroke-dasharray="" stroke-dashoffset="0" font-family="none" font-weight="none" font-size="none" text-anchor="none" style="mix-blend-mode: normal"><g transform="translate(0.00599,-0.00532) scale(2,2)"><path d="M42.5066,26.8129c-1.1917,1.1074 -5.888,5.5156 -7.2557,6.3875c-0.192,-0.2318 -3.072,-4.0818 -3.072,-4.0818c-0.0535,-0.0735 -0.1242,-0.133 -0.206,-0.1733c-0.0818,-0.0403 -0.1723,-0.0602 -0.2637,-0.0581c-0.0913,0.0021 -0.1808,0.0262 -0.2606,0.0703c-0.0798,0.0441 -0.1477,0.1068 -0.1977,0.1827l-6.4416,9.6431l-4.078,-1.5951c-0.1012,-0.043 -0.2141,-0.0506 -0.3203,-0.0217c-0.1061,0.029 -0.1992,0.0928 -0.2641,0.181l-8.8563,11.8396c-0.0446,0.059 -0.0712,0.1294 -0.0767,0.2029c-0.0054,0.0735 0.0105,0.1471 0.0458,0.2119c0.0354,0.0648 0.0888,0.1182 0.1538,0.1539c0.065,0.0357 0.139,0.0521 0.2131,0.0473l30.2003,-2.0511c0.1357,-0.0095 0.2633,-0.0677 0.3588,-0.1638c0.0956,-0.0961 0.1525,-0.2234 0.1603,-0.3582l1.1328,-19.9669c0.0074,-0.1147 -0.0203,-0.229 -0.0794,-0.3279c-0.0591,-0.0989 -0.1468,-0.1778 -0.2518,-0.2264c-0.105,-0.0486 -0.2223,-0.0647 -0.3367,-0.0461c-0.1143,0.0185 -0.2204,0.0709 -0.3043,0.1502z" fill="#e5d283"></path><path d="M46.1807,75.9073l-40.14528,5.9163c-0.21342,0.0334 -0.43164,0.0199 -0.63924,-0.0395c-0.2076,-0.0594 -0.39953,-0.1633 -0.56225,-0.3043c-0.16272,-0.1411 -0.29226,-0.3158 -0.37947,-0.5119c-0.08721,-0.1962 -0.12998,-0.4089 -0.12528,-0.6232v-57.3189c0.0206,-0.387 0.18313,-0.7531 0.45696,-1.0294c0.13767,-0.1369 0.30188,-0.2448 0.48271,-0.317c0.18084,-0.0723 0.37455,-0.1074 0.56945,-0.1033c6.3859,0.1085 56.4326,0.9493 59.655,1.0001c0.4018,0.0163 0.7832,0.1793 1.0712,0.4576c0.288,0.2784 0.4622,0.6525 0.4892,1.0505v32.7197c0.0179,0.105 0.0727,0.2003 0.1547,0.269c0.082,0.0687 0.1859,0.1064 0.2933,0.1064c0.1073,0 0.2112,-0.0377 0.2932,-0.1064c0.082,-0.0687 0.1368,-0.164 0.1548,-0.269v-32.7197c0.0129,-0.3269 -0.0407,-0.653 -0.1577,-0.9588c-0.1169,-0.3059 -0.2947,-0.5852 -0.5228,-0.8214c-0.2281,-0.2362 -0.5019,-0.4243 -0.8049,-0.5532c-0.303,-0.1289 -0.6291,-0.196 -0.9588,-0.1971c-3.2154,-0.0635 -53.2614,-1.0001 -59.648,-1.1163c-0.34673,-0.0089 -0.6917,0.0517 -1.01428,0.1781c-0.32258,0.1265 -0.61613,0.3162 -0.86308,0.5579c-0.24695,0.2416 -0.44223,0.5302 -0.57415,0.8485c-0.13192,0.3182 -0.19777,0.6597 -0.19361,1.0038c0,61.3537 -0.12288,57.5627 0.256,58.3844c0.23532,0.5024 0.62811,0.9158 1.11973,1.1784c0.49162,0.2627 1.05568,0.3605 1.60795,0.2789l40.10174,-6.2058c0.0996,-0.0175 0.1886,-0.0725 0.2483,-0.1536c0.0596,-0.0811 0.0853,-0.1819 0.0717,-0.2814c-0.0153,-0.0999 -0.0699,-0.1896 -0.1519,-0.2495c-0.082,-0.0599 -0.1846,-0.085 -0.2852,-0.0699zM86.2677,69.8538l-5.0419,0.6985c-0.3866,0.0505 -0.7793,-0.0237 -1.1201,-0.2117c-0.3408,-0.188 -0.6116,-0.4798 -0.7724,-0.8322c-0.2432,-0.5506 -0.128,0.9696 -0.0736,-18.3515c-0.0002,-0.4265 0.1626,-0.8373 0.4556,-1.1493c0.2931,-0.3121 0.6945,-0.5023 1.1233,-0.5322c24.5764,-1.6573 23.4884,-1.7697 24.1284,-1.5443c0.353,0.1197 0.661,0.3447 0.881,0.6445c0.219,0.2997 0.34,0.6594 0.346,1.03l0.051,4.2412c0,0.1018 0.041,0.1996 0.114,0.2716c0.072,0.0721 0.171,0.1125 0.274,0.1125c0.102,0 0.201,-0.0404 0.273,-0.1125c0.073,-0.072 0.114,-0.1698 0.114,-0.2716c0.031,-4.5638 0.138,-4.6133 -0.154,-5.3144c-0.222,-0.5166 -0.599,-0.9525 -1.08,-1.2481c-0.481,-0.2955 -1.043,-0.4362 -1.608,-0.4029c-2.207,0.1309 -20.4018,1.2618 -23.4123,1.4605c-0.721,0.0482 -1.3967,0.3661 -1.8905,0.8896c-0.4937,0.5235 -0.7687,1.2135 -0.7694,1.9305c0.0077,2.4435 0.064,15.7981 0.0807,17.6104c0.0027,0.3924 0.0909,0.7795 0.2585,1.1349c0.1677,0.3553 0.4109,0.6705 0.7128,0.9239c0.302,0.2533 0.6556,0.4388 1.0367,0.5438c0.381,0.105 0.7804,0.127 1.1708,0.0644l5.0196,-0.8255c0.1005,-0.0156 0.1907,-0.0702 0.2507,-0.1518c0.06,-0.0815 0.0849,-0.1834 0.0693,-0.2831c-0.0156,-0.1002 -0.07,-0.1903 -0.1517,-0.2511c-0.0818,-0.0608 -0.1842,-0.0874 -0.2855,-0.0741zM104.441,22.366c-25.6645,-0.6261 -23.8328,-0.6718 -24.5528,-0.3772c-0.5179,0.2062 -0.9626,0.5601 -1.2779,1.0169c-0.3153,0.4568 -0.4871,0.9961 -0.4936,1.5498v17.6828c-0.003,0.3823 0.0737,0.7611 0.2255,1.1125c0.1518,0.3514 0.3752,0.6678 0.6563,0.9293c0.281,0.2615 0.6136,0.4625 0.9768,0.5902c0.3632,0.1277 0.7491,0.1794 1.1334,0.1519l23.4773,-1.5806c0.702,-0.0361 1.361,-0.346 1.833,-0.862c0.472,-0.516 0.72,-1.1963 0.688,-1.8926v-15.7181c-0.032,-0.6866 -0.325,-1.3356 -0.82,-1.8169c-0.494,-0.4814 -1.154,-0.7596 -1.846,-0.779zM104.433,23.1343c0.483,0.0143 0.942,0.2144 1.28,0.5582c0.313,0.3502 0.476,0.8085 0.453,1.2764v15.7181c-0.031,0.4277 -0.214,0.8305 -0.517,1.1361c-0.303,0.3056 -0.706,0.494 -1.137,0.5314l-23.4878,1.5297c-0.2268,0.0123 -0.4537,-0.021 -0.6673,-0.0979c-0.2135,-0.0768 -0.4092,-0.1957 -0.5753,-0.3493c-0.1661,-0.1537 -0.2993,-0.3391 -0.3915,-0.5451c-0.0922,-0.2059 -0.1415,-0.4282 -0.1451,-0.6536c0,-19.3097 -0.0518,-17.8924 0.121,-18.328c0.087,-0.2041 0.2138,-0.3893 0.373,-0.5447c0.1593,-0.1555 0.3479,-0.2783 0.555,-0.3614c0.4717,-0.1842 -1.3818,-0.1461 24.135,0.1378z" fill="#213555"></path><path d="M12.1731,48.8042c1.5053,-0.1162 29.5866,-1.9869 29.5866,-1.9869c0.0504,-0.0049 0.1014,0.0003 0.1498,0.0152c0.0484,0.015 0.0933,0.0394 0.1321,0.0718c0.0387,0.0324 0.0706,0.0722 0.0936,0.117c0.023,0.0448 0.0368,0.0938 0.0405,0.1439c0.0085,0.1029 -0.0244,0.2049 -0.0914,0.2838c-0.067,0.0788 -0.1628,0.1282 -0.2664,0.1372l-30.1785,2.3997c-0.0786,0.0065 -0.1577,-0.0037 -0.232,-0.03c-0.0743,-0.0263 -0.1421,-0.068 -0.1988,-0.1224c-0.1171,-0.1086 -0.0883,-0.261 -0.0883,-0.4204v-22.185c0,-0.2032 0.2707,-0.3771 0.4755,-0.3771c0.1014,0.0003 0.1987,0.0399 0.271,0.1104c0.0724,0.0704 0.1141,0.1662 0.1162,0.2667c0,0 0.1901,19.981 0.1901,21.5761z" fill="#213555"></path><path d="M86.5067,59.236c0.64,-0.127 1.216,-1.7716 1.536,-2.4066c0.0432,-0.0937 0.1217,-0.1667 0.2187,-0.2035c0.097,-0.0367 0.2046,-0.0341 0.2997,0.0073c0.0466,0.0204 0.0887,0.0498 0.1239,0.0864c0.0352,0.0366 0.0628,0.0797 0.0811,0.1269c0.0184,0.0472 0.0272,0.0975 0.026,0.148c-0.0013,0.0506 -0.0126,0.1004 -0.0332,0.1467c-0.2142,0.8486 -0.5463,1.6635 -0.9869,2.4212c-0.5191,0.7099 -1.4246,1.0948 -2.0531,0.4712c-0.5043,-0.4864 -0.6676,-1.5774 -1.3664,-2.1679c-0.2874,-0.2661 -0.512,-0.1905 -0.8186,0.0508c-0.2301,0.1864 -0.4406,0.3953 -0.6285,0.6236c-0.6139,0.8681 -1.0848,1.8275 -1.3952,2.8422c-0.0121,0.0493 -0.0343,0.0956 -0.0651,0.1361c-0.0308,0.0406 -0.0696,0.0744 -0.1141,0.0995c-0.0445,0.0251 -0.0936,0.0409 -0.1445,0.0465c-0.0508,0.0055 -0.1022,0.0007 -0.1512,-0.0141c-0.096,-0.0264 -0.1778,-0.0888 -0.2284,-0.174c-0.0505,-0.0852 -0.0656,-0.1865 -0.0423,-0.2826c0.1758,-1.1865 0.6069,-2.3215 1.264,-3.328c1.4509,-1.9196 2.9875,-1.8015 4.1651,0.7398c0.0673,0.2263 0.1732,0.4396 0.313,0.6305z" fill="#e5d283"></path><path d="M89.2163,25.8445c-1.8932,0.0499 -3.6919,0.8311 -5.0131,2.1773c-1.3213,1.3461 -2.0606,3.1509 -2.0606,5.0299c0,1.879 0.7393,3.6838 2.0606,5.03c1.3212,1.3462 3.1199,2.1274 5.0131,2.1773c0.9318,-0.0182 1.8508,-0.2196 2.7037,-0.5926c0.8529,-0.373 1.6227,-0.9101 2.265,-1.5803c0.6422,-0.6702 1.1441,-1.4601 1.4766,-2.324c0.3324,-0.864 0.4889,-1.7848 0.4603,-2.7091c-0.08,-3.7528 -2.9063,-7.2085 -6.9056,-7.2085zM89.2163,39.149c-1.5948,-0.036 -3.1101,-0.6979 -4.2138,-1.8406c-1.1038,-1.1427 -1.7058,-2.673 -1.6742,-4.2554c0,-3.5801 2.9632,-6.3132 6.2035,-6.096c-0.057,0.9798 -0.352,5.127 -0.3885,6.0039c-0.0008,0.1005 0.0252,0.1995 0.0753,0.2868c0.05,0.0874 0.1224,0.1601 0.2098,0.2109c0.0875,0.0507 0.1869,0.0777 0.2882,0.0782c0.1012,0.0005 0.2009,-0.0256 0.2888,-0.0755c1.6033,-0.9764 3.1534,-2.0362 4.6438,-3.175c1.9066,4.1231 -1.0809,8.8976 -5.4329,8.8595z" fill="#e5d283"></path><path d="M47.8543,54.8843c-0.008,-0.1024 -0.0561,-0.1976 -0.134,-0.2652c-0.0779,-0.0677 -0.1793,-0.1024 -0.2826,-0.0968c0,0 -31.7133,2.0079 -33.9975,2.1673c-0.5349,0.039 -1.0359,0.2747 -1.4048,0.661c-0.3688,0.3864 -0.5791,0.8954 -0.5894,1.4275c-0.0218,1.5367 -0.192,17.1317 -0.192,17.1317c-0.002,0.101 0.0366,0.1987 0.1072,0.2715c0.0707,0.0728 0.1676,0.1148 0.2694,0.1168c0.1019,0.0019 0.2003,-0.0364 0.2737,-0.1065c0.0734,-0.0701 0.1157,-0.1662 0.1177,-0.2672c0,0 0.2675,-8.149 0.432,-13.2442l3.9168,-0.249c-0.2183,3.9237 -0.4743,9.1383 -0.448,13.0537c-0.0042,0.0515 0.0021,0.1032 0.0185,0.1522c0.0164,0.049 0.0426,0.0941 0.077,0.1329c0.0343,0.0387 0.0762,0.0702 0.1231,0.0925c0.0468,0.0224 0.0978,0.0352 0.1497,0.0376c0.052,0.0024 0.1039,-0.0055 0.1527,-0.0234c0.0488,-0.0179 0.0934,-0.0453 0.1313,-0.0807c0.0379,-0.0354 0.0682,-0.0779 0.0892,-0.1251c0.021,-0.0472 0.0321,-0.0982 0.0329,-0.1498c0.4102,-4.0563 0.64,-9.0563 0.7904,-13.1616c6.6041,-0.4216 23.0771,-1.611 24.4973,-1.7456c-0.2605,3.9719 -0.5076,7.9375 -0.5076,11.43c-0.0048,0.1023 0.0312,0.2024 0.1004,0.2785c0.0691,0.0761 0.1657,0.122 0.2688,0.1278c0.1031,0.0057 0.2043,-0.0291 0.2816,-0.097c0.0773,-0.0679 0.1245,-0.1633 0.1313,-0.2655c0.3232,-3.4544 0.6266,-7.1431 0.8557,-11.5818c0.8774,-0.0857 1.3786,-0.1378 1.3786,-0.1378c0.1024,-0.0081 0.1974,-0.056 0.2644,-0.1333c0.067,-0.0773 0.1006,-0.1777 0.0933,-0.2794c-0.0032,-0.0507 -0.0166,-0.1002 -0.0394,-0.1456c-0.0227,-0.0455 -0.0544,-0.0859 -0.0932,-0.1191c-0.0387,-0.0331 -0.0838,-0.0582 -0.1324,-0.0738c-0.0487,-0.0156 -0.1,-0.0215 -0.151,-0.0171c0,0 -0.464,0.0184 -1.28,0.0559c0.048,-1.0795 0.0717,-2.9604 0.0749,-4.0463l4.2566,-0.3175c0.1031,-0.006 0.1996,-0.0523 0.2684,-0.1287c0.0688,-0.0763 0.1044,-0.1766 0.099,-0.2789zM12.4802,61.908c0.0506,-1.5684 0.0877,-2.7394 0.0979,-3.1083c0.0053,-0.2526 0.1058,-0.4941 0.2818,-0.6766c0.1759,-0.1826 0.4146,-0.2931 0.6686,-0.3096c0.3738,-0.0247 1.536,-0.1098 3.225,-0.2337c-0.1166,1.3137 -0.2256,2.6279 -0.327,3.9428c-0.1063,0.0089 -3.3703,0.3263 -3.9463,0.3854zM42.0482,59.7058c0.0672,0 -16.4294,1.096 -24.5293,1.7304c0.0218,-0.7404 0.0442,-3.523 0.0436,-3.916c6.2784,-0.463 18.1459,-1.3488 24.896,-1.8536c-0.0468,0.4502 -0.3463,3.3382 -0.4103,4.0392z" fill="#213555"></path><path d="M47.5773,30.7848c0.6455,0.0717 1.2967,0.0789 1.9437,0.0216c0.9631,-0.0191 1.9222,-0.1283 2.8646,-0.3264c0.1027,-0.0019 0.2004,-0.0442 0.2716,-0.1176c0.0713,-0.0735 0.1102,-0.1719 0.1082,-0.2738c-0.0019,-0.1019 -0.0446,-0.1989 -0.1186,-0.2696c-0.074,-0.0706 -0.1732,-0.1092 -0.2759,-0.1073c-0.4096,-0.0508 -0.8109,-0.1086 -1.2275,-0.1232c-0.8162,0.0051 -1.6312,0.0584 -2.441,0.1594c-0.4045,0.0713 -0.8046,0.1658 -1.1981,0.2832c-0.0502,0.0038 -0.0992,0.0176 -0.1439,0.0406c-0.0447,0.023 -0.0843,0.0547 -0.1164,0.0932c-0.0321,0.0386 -0.056,0.0831 -0.0704,0.131c-0.0143,0.048 -0.0187,0.0983 -0.013,0.1479c0.0117,0.0993 0.0615,0.1902 0.1392,0.2538c0.0776,0.0635 0.1771,0.0948 0.2775,0.0872z" fill="#213555"></path><path d="M58.3376,30.3073c0.9195,0.0759 1.8441,0.0685 2.7622,-0.0223c0.6259,-0.0259 1.2476,-0.1133 1.856,-0.261c0.1006,-0.0098 0.1935,-0.0578 0.2592,-0.1339c0.0658,-0.0762 0.0993,-0.1746 0.0936,-0.2747c-0.0057,-0.1002 -0.0502,-0.1942 -0.1242,-0.2626c-0.0739,-0.0683 -0.1717,-0.1056 -0.2727,-0.1041c-0.5936,-0.0814 -1.1929,-0.1153 -1.792,-0.1016c-0.9764,-0.031 -1.9509,0.1063 -2.88,0.4058c-0.0526,0.0029 -0.104,0.0164 -0.151,0.0399c-0.0471,0.0234 -0.0888,0.0562 -0.1225,0.0963c-0.0337,0.0401 -0.0588,0.0866 -0.0737,0.1367c-0.0148,0.0502 -0.0191,0.1028 -0.0126,0.1546c0.0065,0.0518 0.0237,0.1018 0.0505,0.1467c0.0268,0.045 0.0626,0.084 0.1052,0.1147c0.0426,0.0306 0.0911,0.0523 0.1425,0.0635c0.0514,0.0113 0.1046,0.0119 0.1563,0.002z" fill="#213555"></path><path d="M46.7743,35.3022c0.52,0.0914 1.0445,0.1566 1.5712,0.1955c1.0523,0.0414 2.1061,0.0244 3.1565,-0.0508c0.526,-0.0501 1.0451,-0.1447 1.5641,-0.2317c0.0511,-0.0026 0.1012,-0.0151 0.1474,-0.0369c0.0463,-0.0218 0.0877,-0.0525 0.1219,-0.0902c0.0342,-0.0378 0.0605,-0.0819 0.0775,-0.1298c0.0169,-0.0479 0.0242,-0.0987 0.0213,-0.1494c-0.003,-0.0507 -0.016,-0.1003 -0.0383,-0.146c-0.0223,-0.0457 -0.0535,-0.0865 -0.0919,-0.1202c-0.0383,-0.0337 -0.0829,-0.0595 -0.1313,-0.0759c-0.0485,-0.0165 -0.0997,-0.0233 -0.1507,-0.02c-1.5546,-0.1184 -3.1155,-0.1331 -4.6721,-0.0438c-0.4243,0.0121 -1.3766,0.1232 -1.5564,0.1378c-0.1019,-0.0029 -0.2007,0.0345 -0.2747,0.1039c-0.0741,0.0695 -0.1173,0.1652 -0.1202,0.2663c-0.0029,0.101 0.0348,0.1991 0.1048,0.2726c0.0699,0.0734 0.1665,0.1163 0.2683,0.1192z" fill="#e5d283"></path><path d="M56.9758,34.8774c0.6296,0.0977 1.2638,0.163 1.9002,0.1955c1.2625,0.0341 2.5261,0.0002 3.7849,-0.1016c0.6355,-0.0577 1.257,-0.1593 1.8778,-0.2463c0.052,-0.0008 0.1033,-0.0119 0.1509,-0.0327c0.0476,-0.0208 0.0905,-0.0509 0.1261,-0.0885c0.0357,-0.0375 0.0633,-0.0819 0.0813,-0.1303c0.018,-0.0484 0.0261,-0.0999 0.0236,-0.1514c-0.0024,-0.0516 -0.0153,-0.1021 -0.0378,-0.1486c-0.0226,-0.0465 -0.0543,-0.088 -0.0933,-0.1221c-0.039,-0.0341 -0.0846,-0.0601 -0.1339,-0.0764c-0.0494,-0.0163 -0.1016,-0.0225 -0.1534,-0.0184c-0.4531,-0.0216 -0.9062,-0.0508 -1.3593,-0.0578c-1.1924,-0.0292 -4.736,0.1042 -4.8884,0.1156c-0.4166,0.0292 -0.832,0.073 -1.2569,0.1016c-0.1019,-0.0029 -0.2007,0.0345 -0.2747,0.104c-0.0741,0.0694 -0.1173,0.1652 -0.1202,0.2662c-0.0029,0.101 0.0348,0.1991 0.1048,0.2726c0.0699,0.0734 0.1665,0.1157 0.2683,0.1186z" fill="#e5d283"></path><path d="M48.3658,41.1747c0.2228,0.0209 0.6234,0.08 0.921,0.08c0.2976,0 1.4534,-0.0635 1.8195,-0.1162c0.3136,-0.0432 0.6061,-0.1232 0.9133,-0.1905c0.1011,-0.0055 0.1962,-0.0497 0.2651,-0.1234c0.069,-0.0736 0.1064,-0.1709 0.1045,-0.2714c-0.0019,-0.1004 -0.043,-0.1963 -0.1147,-0.2672c-0.0717,-0.071 -0.1684,-0.1117 -0.2696,-0.1134c-0.9266,-0.1743 -1.8774,-0.1793 -2.8058,-0.0146c-0.3118,0.0601 -0.6176,0.1474 -0.9139,0.261c-0.0538,0.0002 -0.1069,0.0115 -0.1559,0.0333c-0.0491,0.0218 -0.093,0.0536 -0.1288,0.0933c-0.0359,0.0397 -0.063,0.0865 -0.0795,0.1372c-0.0166,0.0508 -0.0222,0.1044 -0.0165,0.1574c0.0057,0.0531 0.0225,0.1043 0.0494,0.1505c0.0269,0.0462 0.0633,0.0862 0.1068,0.1176c0.0434,0.0313 0.0931,0.0532 0.1456,0.0643c0.0526,0.0112 0.107,0.0112 0.1595,0.0001z" fill="#213555"></path><path d="M45.2733,46.1347c0.512,0.0228 0.9696,0.0635 1.9142,0.0432c0.9287,-0.021 2.9031,-0.1905 3.8074,-0.3258c0.6285,-0.0946 1.2493,-0.2394 1.8777,-0.3702c0.1027,-0.0135 0.1958,-0.0669 0.2588,-0.1484c0.063,-0.0816 0.0908,-0.1847 0.0772,-0.2866c-0.0135,-0.1019 -0.0674,-0.1942 -0.1496,-0.2567c-0.0822,-0.0626 -0.1861,-0.0901 -0.2888,-0.0766c-1.5138,0.0123 -3.026,0.1018 -4.5305,0.2679c-1.0095,0.0726 -2.0139,0.2034 -3.008,0.3918c-0.0504,0.0033 -0.0996,0.0164 -0.1448,0.0386c-0.0453,0.0222 -0.0856,0.053 -0.1189,0.0907c-0.0332,0.0377 -0.0586,0.0815 -0.0748,0.129c-0.0161,0.0474 -0.0227,0.0975 -0.0193,0.1475c0.0026,0.0494 0.0151,0.0978 0.0366,0.1424c0.0215,0.0446 0.0516,0.0846 0.0887,0.1176c0.0371,0.0331 0.0804,0.0585 0.1274,0.0749c0.0471,0.0164 0.0969,0.0234 0.1467,0.0207z" fill="#e5d283"></path><path d="M59.1703,40.6762c0.2465,0.0699 0.4981,0.1207 0.7526,0.1518c0.5081,0.0412 1.0186,0.0438 1.5271,0.0076c0.2611,-0.0409 0.5196,-0.0967 0.7743,-0.167c0.0524,0.0001 0.1042,-0.0103 0.1524,-0.0304c0.0482,-0.0201 0.0919,-0.0497 0.1284,-0.0869c0.0365,-0.0371 0.0651,-0.0812 0.0841,-0.1296c0.019,-0.0483 0.0281,-0.1 0.0266,-0.1519c-0.0014,-0.0519 -0.0134,-0.1029 -0.0351,-0.1502c-0.0217,-0.0472 -0.0527,-0.0896 -0.0912,-0.1247c-0.0386,-0.0351 -0.0838,-0.0622 -0.1331,-0.0797c-0.0493,-0.0174 -0.1016,-0.0249 -0.1538,-0.0219c-0.5914,-0.1508 -1.2029,-0.2095 -1.8125,-0.174c-0.4201,-0.0096 -0.8384,0.0566 -1.2345,0.1956c-0.1021,0.0037 -0.1987,0.0466 -0.2696,0.1195c-0.0709,0.073 -0.1105,0.1703 -0.1106,0.2716c0.004,0.1007 0.0476,0.1958 0.1214,0.265c0.0738,0.0692 0.1719,0.107 0.2735,0.1052z" fill="#213555"></path><path d="M56.622,45.7486c0.5581,0.0127 1.1098,0.0476 1.9514,0.0292c1.9542,-0.0127 3.9034,-0.1995 5.824,-0.5582c0.1013,-0.0126 0.1936,-0.0639 0.2575,-0.1429c0.0639,-0.079 0.0942,-0.1796 0.0847,-0.2805c-0.0096,-0.1008 -0.0583,-0.194 -0.136,-0.2598c-0.0776,-0.0658 -0.1779,-0.0991 -0.2798,-0.0928c-1.5531,-0.0407 -3.1073,0.0078 -4.6548,0.1454c-1.0439,0.0569 -2.082,0.1926 -3.1052,0.4058c-0.0504,0.0023 -0.0998,0.0148 -0.1452,0.0368c-0.0453,0.022 -0.0857,0.0529 -0.1185,0.0909c-0.0329,0.038 -0.0576,0.0823 -0.0725,0.1301c-0.015,0.0478 -0.0199,0.0982 -0.0146,0.148c0.0085,0.0996 0.0562,0.192 0.1327,0.2571c0.0765,0.0651 0.1758,0.0977 0.2763,0.0909z" fill="#e5d283"></path><path d="M13.9708,64.6843c-0.1366,0.407 -0.1237,0.8487 0.0365,1.2472c0.1401,0.5194 0.6598,0.501 0.775,-0.0216c0.1246,-0.4066 0.1091,-0.8428 -0.0442,-1.2396c-0.0704,-0.1987 -0.1753,-0.381 -0.3872,-0.3772c-0.2118,0.0039 -0.3264,0.188 -0.3801,0.3912z" fill="#213555"></path><path d="M23.1797,65.7567c2.8531,-0.3289 6.1773,-0.5715 11.1725,-1.5513c0.1035,-0.0155 0.1968,-0.0709 0.2596,-0.154c0.0629,-0.0831 0.0903,-0.1875 0.0764,-0.2905c-0.0157,-0.1004 -0.0703,-0.1907 -0.1523,-0.2517c-0.0819,-0.061 -0.1846,-0.0878 -0.2861,-0.0747c-1.8304,0.1467 -1.4362,0.0604 -4.3258,0.3702c-2.3272,0.2025 -4.6326,0.6027 -6.8909,1.1964c-0.0984,0.0224 -0.1844,0.0815 -0.2402,0.1651c-0.0557,0.0835 -0.077,0.1852 -0.0593,0.2838c0.0192,0.0989 0.0766,0.1864 0.16,0.2437c0.0834,0.0573 0.1861,0.08 0.2861,0.063z" fill="#213555"></path><path d="M21.8236,71.2406c0.064,0 0.7155,0.0108 0.9939,-0.0146c0.9834,-0.0819 1.9528,-0.2839 2.8864,-0.6014c0.1028,-0.0125 0.1963,-0.065 0.26,-0.146c0.0638,-0.081 0.0925,-0.1838 0.0798,-0.2858c-0.0126,-0.1019 -0.0656,-0.1947 -0.1472,-0.258c-0.0816,-0.0632 -0.1852,-0.0917 -0.288,-0.0791c-0.3379,-0.025 -0.677,-0.0322 -1.0157,-0.0216c-0.6644,0.0566 -1.3238,0.1608 -1.9731,0.3118c-0.3231,0.0975 -0.6403,0.2136 -0.9497,0.3479c-0.0986,0.0224 -0.1847,0.0816 -0.2405,0.1653c-0.0558,0.0838 -0.0769,0.1855 -0.0591,0.2843c0.0101,0.0491 0.0298,0.0956 0.0581,0.1371c0.0282,0.0415 0.0644,0.077 0.1064,0.1046c0.0421,0.0276 0.0893,0.0467 0.1388,0.0563c0.0495,0.0095 0.1004,0.0092 0.1499,-0.0008z" fill="#213555"></path><path d="M52.3581,62.8891c3.4246,-0.0813 6.51,-0.7385 9.8937,-1.27c0.0506,-0.0036 0.1,-0.0172 0.1453,-0.04c0.0452,-0.0228 0.0854,-0.0544 0.1181,-0.0928c0.0328,-0.0385 0.0574,-0.0831 0.0725,-0.1312c0.0151,-0.048 0.0204,-0.0986 0.0155,-0.1487c-0.0084,-0.1018 -0.0568,-0.1961 -0.1348,-0.2627c-0.0779,-0.0666 -0.1792,-0.0999 -0.2819,-0.0929c-0.8115,0.0146 -1.6147,0.0362 -2.4185,0.1016c-2.5147,0.2665 -5.014,0.661 -7.488,1.1817c-0.0538,0.0001 -0.107,0.0114 -0.1561,0.0331c-0.0491,0.0218 -0.093,0.0535 -0.129,0.0932c-0.0359,0.0397 -0.0631,0.0864 -0.0797,0.1371c-0.0166,0.0508 -0.0222,0.1044 -0.0166,0.1575c0.0056,0.0531 0.0224,0.1044 0.0493,0.1506c0.0269,0.0462 0.0633,0.0863 0.1068,0.1177c0.0435,0.0313 0.0931,0.0533 0.1457,0.0644c0.0526,0.0112 0.107,0.0112 0.1596,0.0002z" fill="#e5d283"></path><path d="M49.0511,68.6352c3.5226,-0.4461 7.0198,-1.0705 10.4781,-1.8707c0.101,-0.0178 0.1907,-0.0746 0.2496,-0.1579c0.0589,-0.0833 0.0822,-0.1864 0.0647,-0.2866c-0.0185,-0.1013 -0.0763,-0.1914 -0.1611,-0.2508c-0.0848,-0.0594 -0.1897,-0.0834 -0.2921,-0.0667c-2.1881,0.2432 -1.8988,0.1505 -4.0627,0.4934c-2.1853,0.2753 -4.3419,0.7411 -6.4448,1.3919c-0.0999,0.0221 -0.1868,0.0827 -0.2417,0.1685c-0.0548,0.0857 -0.0731,0.1896 -0.0508,0.2887c0.0224,0.0991 0.0835,0.1853 0.1699,0.2398c0.0864,0.0544 0.1911,0.0725 0.2909,0.0504z" fill="#e5d283"></path><path d="M55.9407,71.1835c1.2736,-0.0787 2.5406,-0.241 3.7926,-0.4858c0.8472,-0.126 1.6846,-0.31 2.5063,-0.5505c0.0995,-0.0181 0.1881,-0.0736 0.2473,-0.155c0.0592,-0.0814 0.0844,-0.1823 0.0702,-0.2817c-0.0141,-0.0994 -0.0665,-0.1895 -0.1461,-0.2514c-0.0795,-0.062 -0.1802,-0.091 -0.2809,-0.0809c-1.0757,0.0096 -2.1487,0.109 -3.2076,0.2971c-1.0732,0.1354 -2.1274,0.391 -3.1424,0.7621c-0.0998,0.0211 -0.1871,0.0807 -0.2426,0.1657c-0.0555,0.0849 -0.0747,0.1883 -0.0534,0.2873c0.0213,0.099 0.0813,0.1856 0.167,0.2407c0.0856,0.0551 0.1898,0.0735 0.2896,0.0524z" fill="#e5d283"></path><path d="M99.2698,29.5351c0.3066,0.0599 0.6165,0.1023 0.9282,0.127c0.626,0.0237 1.254,0.0044 1.878,-0.0578c0.318,-0.0523 0.632,-0.1225 0.942,-0.2101c0.104,-0.0091 0.2,-0.0584 0.267,-0.1373c0.067,-0.0789 0.1,-0.1809 0.091,-0.2837c-0.004,-0.0507 -0.018,-0.1001 -0.042,-0.1452c-0.024,-0.0451 -0.056,-0.0851 -0.096,-0.1175c-0.039,-0.0324 -0.085,-0.0567 -0.134,-0.0713c-0.049,-0.0147 -0.101,-0.0194 -0.152,-0.014c-0.733,-0.1264 -1.48,-0.158 -2.221,-0.094c-0.508,0.0061 -1.0131,0.0868 -1.4977,0.2394c-0.0506,0.0017 -0.1003,0.0134 -0.1463,0.0345c-0.046,0.0211 -0.0872,0.0511 -0.1213,0.0883c-0.034,0.0372 -0.0602,0.0808 -0.077,0.1282c-0.0169,0.0474 -0.0239,0.0976 -0.0208,0.1478c0.002,0.0502 0.014,0.0996 0.0353,0.1453c0.0213,0.0456 0.0515,0.0866 0.0889,0.1206c0.0373,0.034 0.0811,0.0604 0.1288,0.0775c0.0477,0.0171 0.0983,0.0247 0.1489,0.0223z" fill="#213555"></path><path d="M99.2847,33.3725c0.4712,0.131 0.9723,0.1133 1.4323,-0.0508c0.512,-0.1226 0.515,-0.6649 -0.022,-0.7684c-0.477,-0.1125 -0.9753,-0.0905 -1.4397,0.0635c-0.2029,0.0635 -0.3725,0.174 -0.3654,0.3918c0.007,0.2178 0.1875,0.3188 0.3948,0.3639z" fill="#e5d283"></path><path d="M98.6842,37.7825c0.9892,0.0874 1.9838,0.092 2.9738,0.014c0.67,-0.0189 1.337,-0.0892 1.995,-0.2102c0.104,-0.0033 0.203,-0.047 0.274,-0.1215c0.072,-0.0746 0.112,-0.1741 0.11,-0.2773c-0.002,-0.1016 -0.045,-0.1981 -0.119,-0.2686c-0.074,-0.0705 -0.173,-0.1093 -0.275,-0.1079c-0.833,-0.1369 -1.678,-0.1831 -2.521,-0.1378c-0.854,-0.0077 -1.7033,0.112 -2.521,0.3549c-0.0535,0.0005 -0.1063,0.0121 -0.155,0.0341c-0.0487,0.0219 -0.0923,0.0537 -0.1279,0.0934c-0.0356,0.0396 -0.0625,0.0862 -0.0789,0.1367c-0.0164,0.0505 -0.022,0.1039 -0.0164,0.1567c0.0056,0.0528 0.0223,0.1038 0.0489,0.1499c0.0267,0.046 0.0627,0.086 0.1059,0.1174c0.0431,0.0314 0.0924,0.0535 0.1446,0.0649c0.0523,0.0114 0.1064,0.0119 0.1588,0.0013z" fill="#e5d283"></path><path d="M92.1485,72.9468c0.3095,0.1682 0.6675,0.2268 1.015,0.1664c0.4873,-0.1481 0.9102,-0.4546 1.2004,-0.8703c0.2903,-0.4156 0.431,-0.9161 0.3996,-1.4208c0.0092,-0.0501 0.0081,-0.1015 -0.0031,-0.1512c-0.0113,-0.0497 -0.0324,-0.0966 -0.0622,-0.1381c-0.0299,-0.0414 -0.0678,-0.0765 -0.1115,-0.1031c-0.0437,-0.0267 -0.0924,-0.0444 -0.1432,-0.0521c-0.1015,-0.0167 -0.2057,0.0065 -0.2903,0.0647c-0.0846,0.0582 -0.143,0.1469 -0.1628,0.2471c-0.1949,0.3825 -0.4356,0.7402 -0.7168,1.0656c-0.1337,0.1504 -0.3015,0.2673 -0.4896,0.341c-0.1284,0.0688 -0.2708,0.1083 -0.4166,0.1155c-0.0989,-0.0272 -0.2045,-0.0152 -0.2946,0.0336c-0.09,0.0487 -0.1575,0.1302 -0.188,0.2274c-0.0143,0.0483 -0.0189,0.099 -0.0134,0.1491c0.0055,0.0501 0.021,0.0986 0.0455,0.1427c0.0245,0.0441 0.0576,0.0829 0.0974,0.1143c0.0397,0.0313 0.0853,0.0545 0.1342,0.0682z" fill="#213555"></path><path d="M93.9315,64.6773c0.256,0.381 0,1.0002 -0.576,1.3774c-0.576,0.3772 -1.2423,0.3772 -1.4976,0c-0.2554,-0.3772 0,-0.9932 0.5696,-1.3774c0.5696,-0.3841 1.2499,-0.3784 1.504,0z" fill="#213555"></path><path d="M75.2298,71.442c0.4397,0.521 0.8057,1.0991 1.088,1.7183c0.5901,1.2249 0.8734,2.5732 0.8256,3.93c0.0056,0.6915 -0.063,1.3816 -0.2048,2.0587c-0.0152,0.049 -0.0205,0.1006 -0.0155,0.1516c0.005,0.0511 0.0202,0.1007 0.0447,0.1458c0.0244,0.0452 0.0577,0.0852 0.0979,0.1175c0.0401,0.0323 0.0863,0.0564 0.1359,0.0709c0.049,0.0149 0.1005,0.02 0.1514,0.0149c0.051,-0.0051 0.1004,-0.0202 0.1453,-0.0446c0.045,-0.0243 0.0846,-0.0573 0.1165,-0.097c0.0319,-0.0397 0.0555,-0.0854 0.0694,-0.1343c0.2873,-0.7131 0.4742,-1.462 0.5555,-2.2257c0.1341,-1.5575 -0.1935,-3.12 -0.9427,-4.4952c-0.3933,-0.6795 -0.9148,-1.2776 -1.536,-1.7614c-0.0736,-0.0699 -0.1721,-0.108 -0.274,-0.1058c-0.1018,0.0022 -0.1986,0.0445 -0.269,0.1175c-0.0705,0.073 -0.1088,0.1708 -0.1066,0.2718c0.0022,0.1011 0.0448,0.1971 0.1184,0.267z" fill="#213555"></path><path d="M78.2328,72.3386c0.128,0.1905 0.3917,0.776 0.4314,0.8554c0.2771,0.575 0.4832,1.1812 0.6138,1.8053c0.0806,0.3333 0.183,0.6521 0.2336,0.9715c0.001,0.1029 0.0431,0.2012 0.1172,0.2733c0.0741,0.072 0.1739,0.1119 0.2776,0.1109c0.1037,-0.001 0.2028,-0.0429 0.2754,-0.1163c0.0726,-0.0735 0.1128,-0.1726 0.1118,-0.2755c0.0581,-0.374 0.0795,-0.7528 0.064,-1.1309c-0.0777,-0.7754 -0.3299,-1.5237 -0.7379,-2.1895c-0.222,-0.3274 -0.5042,-0.6103 -0.832,-0.8338c-0.0711,-0.0733 -0.1684,-0.1159 -0.2709,-0.1187c-0.1025,-0.0027 -0.202,0.0347 -0.2769,0.1041c-0.037,0.035 -0.0665,0.077 -0.0869,0.1235c-0.0204,0.0464 -0.0312,0.0965 -0.0319,0.1472c-0.0006,0.0506 0.0089,0.1009 0.0281,0.1479c0.0192,0.047 0.0476,0.0897 0.0836,0.1256z" fill="#213555"></path><path d="M80.9659,72.4586c0.0244,0.0895 0.1171,0.6419 0.1466,0.7683c0.0512,0.247 0.1094,0.4934 0.1529,0.7468c0.0436,0.2533 0.0589,0.515 0.1025,0.769c0.0364,0.2825 0.11,0.5365 0.1388,0.8045c-0.0068,0.1029 0.0279,0.2043 0.0965,0.2818c0.0685,0.0775 0.1653,0.1249 0.269,0.1316c0.1037,0.0067 0.2058,-0.0277 0.284,-0.0957c0.0781,-0.068 0.1258,-0.164 0.1326,-0.2669c0.0849,-0.2906 0.1435,-0.5881 0.1754,-0.889c0.0162,-0.6176 -0.0854,-1.2328 -0.2995,-1.8129c-0.135,-0.2885 -0.3096,-0.5569 -0.5191,-0.7976c-0.0485,-0.0894 -0.1307,-0.1561 -0.2287,-0.1853c-0.098,-0.0292 -0.2037,-0.0187 -0.2938,0.0294c-0.0902,0.0481 -0.1574,0.1297 -0.1868,0.227c-0.0295,0.0972 -0.0188,0.2021 0.0296,0.2915z" fill="#213555"></path><path d="M84.6077,78.9191c1.1687,0.7061 2.7277,1.4681 4.16,2.5089c0.0861,0.0553 0.1468,0.1421 0.1688,0.2415c0.0219,0.0994 0.0034,0.2034 -0.0515,0.2894c-0.0549,0.0859 -0.1418,0.1469 -0.2418,0.1696c-0.1,0.0227 -0.205,0.0053 -0.2921,-0.0484c-1.3773,-0.7537 -2.8275,-1.2484 -4.6912,-2.4066c-0.1029,-0.0628 -0.183,-0.1562 -0.229,-0.267c-0.046,-0.1108 -0.0555,-0.2332 -0.027,-0.3496c0.3991,-2.1292 0.3067,-4.3204 -0.2701,-6.409c-0.0163,-0.0477 -0.023,-0.098 -0.0197,-0.1482c0.0033,-0.0502 0.0165,-0.0992 0.0389,-0.1443c0.0224,-0.0451 0.0536,-0.0854 0.0917,-0.1186c0.0381,-0.0331 0.0824,-0.0585 0.1304,-0.0747c0.048,-0.0162 0.0987,-0.0228 0.1493,-0.0196c0.0506,0.0033 0.1,0.0164 0.1454,0.0387c0.0455,0.0222 0.0861,0.0531 0.1195,0.0909c0.0335,0.0378 0.0591,0.0818 0.0754,0.1294c0.9069,2.0478 1.166,4.3205 0.743,6.5176z" fill="#213555"></path><path d="M79.2999,82.7888c-3.4464,1.1093 -6.9606,-1.2345 -7.2192,-4.445c-0.0416,-0.3679 -0.0244,-0.7399 0.0512,-1.1024c0.0179,-0.1006 0.0748,-0.1902 0.1586,-0.2496c0.0838,-0.0594 0.1877,-0.0837 0.2894,-0.0679c0.0997,0.0202 0.1879,0.0775 0.2463,0.1602c0.0584,0.0827 0.0828,0.1844 0.0679,0.2843c-0.0271,0.2837 -0.0099,0.5699 0.0512,0.8484c0.1444,0.6543 0.4276,1.2705 0.8309,1.8076c0.4032,0.5371 0.9173,0.9828 1.5078,1.3073c0.5906,0.3244 1.244,0.5203 1.9169,0.5745c0.6728,0.0541 1.3495,-0.0346 1.9851,-0.2604c0.0862,-0.0331 0.1793,-0.0446 0.271,-0.0335c0.0918,0.0111 0.1793,0.0444 0.255,0.097c1.394,1.0299 1.9469,1.3506 3.9239,2.9508c0.0418,0.0301 0.0771,0.0682 0.1038,0.1121c0.0267,0.0439 0.0443,0.0926 0.0518,0.1433c0.0074,0.0507 0.0046,0.1024 -0.0084,0.152c-0.013,0.0496 -0.0358,0.0961 -0.0672,0.1368c-0.0618,0.0805 -0.1529,0.1339 -0.2538,0.1487c-0.1009,0.0149 -0.2037,-0.01 -0.2864,-0.0693c-1.2921,-0.8668 -2.6131,-1.6123 -3.8758,-2.4949z" fill="#213555"></path><path d="M75.0932,75.8825c-0.768,-1.8415 -0.3757,-1.5704 -0.6867,-1.7323c-0.3879,-0.2025 -5.3594,-2.8346 -7.1181,-3.9141c0.8192,-1.6436 1.2335,-3.4566 1.2088,-5.29c-0.0247,-1.8334 -0.4877,-3.6348 -1.3509,-5.2561h0.0071c-0.6748,-1.3836 -1.6191,-2.6208 -2.7785,-3.6401c-1.1595,-1.0194 -2.511,-1.8007 -3.9765,-2.2989c-1.4655,-0.4981 -3.0159,-0.7032 -4.5618,-0.6034c-1.5458,0.0998 -3.0564,0.5025 -4.4445,1.1849c-1.5991,0.7867 -2.9994,1.9201 -4.0973,3.3164c-1.0979,1.3962 -1.8653,3.0196 -2.2454,4.7499c-0.3801,1.7302 -0.3632,3.5232 0.0495,5.2461c0.4127,1.7229 1.2106,3.3317 2.3346,4.7073c1.1241,1.3757 2.5455,2.4829 4.1591,3.2398c1.6137,0.7568 3.3782,1.144 5.163,1.1328c1.7848,-0.0112 3.5442,-0.4204 5.1481,-1.1975c1.6039,-0.7771 3.0111,-1.902 4.1175,-3.2916c0.729,0.4147 1.5277,0.7372 2.2253,1.1309c2.023,1.1419 4.1088,2.1705 6.2477,3.0811c0.0808,0.0353 0.1704,0.046 0.2574,0.031c0.087,-0.0151 0.1676,-0.0554 0.2317,-0.1158c0.064,-0.0604 0.1086,-0.1382 0.1281,-0.2237c0.0196,-0.0855 0.0133,-0.1748 -0.0182,-0.2567zM61.2858,73.8283c-2.3854,1.1519 -5.132,1.3256 -7.6455,0.4833c-2.5134,-0.8422 -4.5915,-2.6326 -5.7845,-4.9837c-1.193,-2.351 -1.4049,-5.0736 -0.5899,-7.5786c0.815,-2.5049 2.5914,-4.5906 4.9447,-5.8058c2.4084,-1.2264 5.207,-1.4608 7.7885,-0.6524c2.5814,0.8085 4.7373,2.5945 5.9997,4.9704h0.0077c1.1666,2.4232 1.3254,5.2046 0.4421,7.7431c-0.8833,2.5384 -2.7378,4.6308 -5.1628,5.8237z" fill="#213555"></path><path d="M107.557,61.976c-0.133,-0.5253 -0.374,-1.0174 -0.709,-1.4454c-0.334,-0.428 -0.755,-0.7826 -1.234,-1.0413c0.496,-1.0195 0.603,-2.1832 0.301,-3.2751c-0.302,-1.0919 -0.994,-2.038 -1.945,-2.6627c-2.585,-1.759 -6.7845,-1.4796 -9.0757,-3.5091c-0.6528,-0.5778 -1.1724,-1.2541 -2.1337,-1.2541c-0.1823,-0.0034 -0.3634,0.031 -0.5315,0.101c-0.1681,0.07 -0.3197,0.1741 -0.4449,0.3057c-0.1252,0.1315 -0.2213,0.2875 -0.2822,0.4581c-0.0609,0.1705 -0.0852,0.3518 -0.0713,0.5322c-0.5233,-0.2199 -1.1115,-0.2331 -1.6442,-0.0368c-0.7731,0.4299 -0.432,1.3576 -0.2701,1.7259c-0.2701,-0.0022 -0.5318,0.0933 -0.7361,0.2686c-0.2044,0.1753 -0.3374,0.4184 -0.3743,0.6839c-0.1696,0.8401 0.3949,2.119 0.7597,2.9007c1.1123,2.3698 2.6944,5.0032 5.1661,5.9055c0,0.2305 0.0121,0.4629 0.0294,0.6985c-1.0566,-0.9588 -3.4009,0.0959 -3.0144,0.8084c0.2227,0.3943 0.7815,0.0946 1.6365,-0.0293c0.681,-0.0984 1.1917,0.0254 1.4419,-0.1428c0.1503,1.2158 0.4935,2.4003 1.017,3.5096c0.0584,0.1175 0.1554,0.2117 0.275,0.2671c0.1196,0.0554 0.2546,0.0687 0.3829,0.0377c1.2211,-0.2959 2.752,0.7798 2.112,2.0517c-0.2063,0.2678 -0.4671,0.4895 -0.7655,0.6507c-0.2984,0.1611 -0.6277,0.2581 -0.9663,0.2847c-0.1347,0.0225 -0.2565,0.093 -0.3426,0.1982c-0.0861,0.1052 -0.1306,0.2379 -0.1253,0.3733c0.0139,1.0317 0.2552,2.048 0.7071,2.9774c0.4519,0.9293 1.1033,1.7493 1.9086,2.4023c0.094,0.0743 0.21,0.1159 0.3301,0.1184c0.1201,0.0025 0.2378,-0.0342 0.3349,-0.1045c1.5999,-1.1537 2.8069,-2.7432 4.0319,-4.2195c1.773,-2.1298 5.37,-5.5118 4.232,-9.539z" fill="#213555"></path><path d="M124.794,102.038c-0.442,-2.0989 -1.116,-4.1432 -2.009,-6.0959c-2.391,-5.6635 -5.977,-10.7378 -11.669,-13.2715c-2.461,-1.0852 -4.782,-1.1277 -7.323,-1.5735c0.158,-2.3292 0.32,-2.3984 0.052,-2.726c-0.055,-0.0579 -0.12,-0.1045 -0.193,-0.1372c-0.073,-0.0327 -0.151,-0.0508 -0.231,-0.0533c-1.565,-0.0274 -3.131,0.0337 -4.6894,0.1828c0.0236,-0.8448 -0.0388,-1.6898 -0.1862,-2.5222c-0.0039,-0.1019 -0.0484,-0.1981 -0.1238,-0.2674c-0.0754,-0.0693 -0.1754,-0.106 -0.2781,-0.1022c-0.1027,0.0039 -0.1997,0.0481 -0.2695,0.1229c-0.0699,0.0748 -0.1069,0.174 -0.103,0.2759c-0.0938,0.8581 -0.0606,1.7252 0.0986,2.5737c-1.0093,0.1022 -2.1498,0.2438 -3.6039,0.4686c0,-0.2 0.0064,-1.8948 -0.0249,-2.3425c-0.0105,-0.1174 -0.0652,-0.2267 -0.1532,-0.3059c-0.088,-0.0792 -0.2029,-0.1226 -0.3217,-0.1215c-2.5402,-0.0342 -2.9626,-3.5433 -3.0471,-6.061c-0.0052,-0.1244 -0.0506,-0.2437 -0.1296,-0.3404c-0.079,-0.0966 -0.1872,-0.1654 -0.3088,-0.1962l-1.344,-0.3404c0.797,-2.6228 1.7312,-5.2027 2.7988,-7.7292c0.021,-0.0459 0.0327,-0.0954 0.0344,-0.1457c0.0017,-0.0504 -0.0066,-0.1006 -0.0244,-0.1477c-0.0178,-0.0472 -0.0449,-0.0904 -0.0795,-0.1273c-0.0347,-0.0368 -0.0763,-0.0664 -0.1225,-0.0873c-0.0463,-0.0208 -0.0962,-0.0324 -0.1469,-0.0342c-0.0508,-0.0017 -0.1014,0.0066 -0.1489,0.0243c-0.0476,0.0176 -0.0911,0.0444 -0.1282,0.0788c-0.0371,0.0344 -0.067,0.0757 -0.088,0.1216c-1.1629,2.4594 -2.2829,4.3548 -3.3536,8.3185c-0.02,0.0735 -0.0247,0.1503 -0.0141,0.2256c0.0107,0.0754 0.0366,0.1479 0.0761,0.2131c0.0396,0.0652 0.092,0.1218 0.1541,0.1665c0.0622,0.0446 0.1328,0.0764 0.2075,0.0933l1.4836,0.381c0.1478,2.8728 0.862,6.2967 3.7632,6.5107c0.0192,0.1981 0.0896,1.4319 0.1209,1.9754c-1.0044,0.1653 -2.0072,0.3407 -3.008,0.5265c-0.1258,0.0247 -0.2398,0.09 -0.3244,0.1856c-0.0846,0.0957 -0.135,0.2163 -0.1434,0.3433c-0.0595,1.0033 -0.16,1.6282 -0.2042,2.8061c-9.4995,3.5808 -16.5171,13.2277 -17.024,23.2583c-0.0037,0.101 0.0322,0.2 0.1003,0.276c0.0682,0.075 0.1632,0.122 0.2652,0.13c0.0509,0.003 0.1019,-0.004 0.1502,-0.02c0.0482,-0.017 0.0927,-0.043 0.1308,-0.076c0.038,-0.034 0.069,-0.075 0.0909,-0.121c0.022,-0.045 0.0346,-0.095 0.037,-0.145c0.7751,-11.4411 10.6291,-21.7459 19.392,-22.7645c0.5479,-0.0635 6.9415,-0.7836 7.7667,-0.8921c10.425,-1.3259 17.095,4.3097 21.259,13.7522c0.904,1.8816 1.597,3.8554 2.068,5.8874c0.019,0.101 0.077,0.19 0.162,0.248c0.085,0.059 0.189,0.082 0.291,0.063c0.104,-0.02 0.195,-0.08 0.254,-0.166c0.059,-0.087 0.081,-0.193 0.062,-0.296zM95.4395,81.9855c-1.5186,0.1641 -3.0219,0.4463 -4.496,0.8439c0.0301,-0.6985 0.128,-1.7082 0.1721,-2.2225c3.8459,-0.7737 7.7537,-1.2055 11.6764,-1.2903c-0.054,0.6718 -0.091,1.3265 -0.195,2.0955c-1.184,0.0584 -3.7668,0.1219 -7.1575,0.5734z" fill="#213555"></path><path d="M88.9342,101.6c-0.0141,0.215 -0.0294,1.497 -0.0294,1.711c0,0.626 -0.0564,2.312 0.5337,2.312c0.5203,0 0.544,-1.106 0.6138,-2.218c0.0323,-0.674 0.0201,-1.35 -0.0365,-2.023c-0.105,-0.782 -0.1811,-1.355 -0.6138,-1.326c-0.3686,0.028 -0.3782,0.353 -0.4678,1.544z" fill="#213555"></path><path d="M115.098,99.8645c0.064,0.2945 0.278,1.2465 0.372,1.5365c0.222,0.795 0.362,1.393 0.79,1.32c0.453,-0.078 0.368,-0.728 0.27,-1.581c-0.119,-0.733 -0.28,-1.4593 -0.482,-2.1746c-0.331,-0.9862 -0.505,-1.4135 -0.884,-1.3195c-0.545,0.1162 -0.245,1.3506 -0.066,2.2186z" fill="#213555"></path></g></g></svg>