<svg version="1.1" xmlns="http://www.w3.org/2000/svg" xmlns:xlink="http://www.w3.org/1999/xlink" width="128" height="127" viewBox="0,0,256,254"><g fill="none" fill-rule="nonzero" stroke="none" stroke-width="1" stroke-linecap="butt" stroke-linejoin="miter" stroke-miterlimit="10" stroke-dasharray="" stroke-dashoffset="0" font-family="none" font-weight="none" font-size="none" text-anchor="none" style="mix-blend-mode: normal"><g transform="translate(0.00247,0.00214) scale(2,2)"><path d="M66.1068,31.7787c0.7885,-1.4135 39.5582,-0.1035 58.1712,4.699c0.926,0.2387 1.519,-0.9125 -6.453,21.4122c-9.336,26.1391 -12.389,47.2131 -13.944,47.2981c-14.2395,0.782 -48.7233,-4.545 -59.6565,-7.9599c-1.2134,-0.3759 -1.9891,-0.1479 -1.8425,-1.397c0.6022,-5.1314 3.6499,-14.7136 7.4048,-24.9796l1.0253,0.1943l-0.2407,0.5823c0.2445,-0.0457 -5.4342,16.0445 -6.7571,23.4823c-0.3226,1.8085 30.8346,6.9626 59.0337,8.5946c0.595,0.034 0.192,0.054 5.409,-19.836c7.571,-28.8417 16.867,-46.035 14.328,-46.3766c-7.425,-0.9957 -7.489,-2.0314 -25.8152,-3.45c-2.3757,-0.1841 -29.1661,-2.5158 -29.8413,-0.941c-1.5078,3.5153 -3.23,6.9323 -4.7808,10.4311l-1.0604,-0.9671c2.208,-5.094 4.0275,-9.0062 5.0195,-10.7867z" fill="#213555"></path><path d="M86.2179,76.3334c0.8717,0.0775 1.4752,1.6243 2.4262,4.2323c0.2451,0.6712 0.4359,1.5678 1.0132,0.9017c3.0387,-3.5052 8.8255,-8.6119 12.8377,-10.5353c0.128,-0.0871 0.279,-0.1361 0.434,-0.1413c0.155,-0.0051 0.309,0.0339 0.442,0.1125c0.134,0.0785 0.242,0.1933 0.312,0.3308c0.071,0.1375 0.1,0.292 0.084,0.4454c0.151,2.0263 0.365,4.0481 0.404,6.0808c0.027,1.4052 -2.48,1.4649 -16.1278,13.2632c-1.0112,0.8744 -1.0586,0.3067 -3.3587,-4.2056c-3.5776,-7.0161 -4.0423,-7.4473 -3.2826,-8.0074c1.4787,-1.0483 3.1003,-1.8824 4.816,-2.4771z" fill="#e5d283"></path><path d="M97.4433,72.232c-0.2392,0.259 -0.5626,0.4264 -0.9135,0.4728c-0.351,0.0464 -0.7072,-0.031 -1.0065,-0.2188c-2.7969,-1.2594 -5.9514,-1.502 -8.9104,-0.6851c-2.9591,0.817 -5.534,2.6412 -7.2733,5.153c-4.7468,6.8866 -2.0729,15.5765 5.2788,18.6582c8.9228,3.7401 19.6186,-3.6976 17.9076,-14.1605c-0.091,-0.5525 0.064,-0.4991 0.905,-1.0078c1.272,4.2139 -0.095,12.3349 -8.1918,15.9531c-9.3095,4.1591 -19.6256,-2.5615 -19.2301,-12.6053c0.4486,-11.4605 13.3984,-16.971 21.4342,-11.5596z" fill="#213555"></path><path d="M75.7941,41.8727c-9.28,-0.5156 -9.2486,0.0774 -8.8844,-1.0414c1.1078,-3.4017 1.1206,-4.3517 2.4896,-4.3987c7.9765,-0.2254 15.9581,0.2166 23.8598,1.3215c2.0045,0.2603 1.6454,-0.0635 0.192,4.7625c-0.4013,1.35 -0.5363,0.3067 -17.657,-0.6439zM91.9625,42.1076c0.4403,0.0584 0.4422,-0.0222 1.0803,-2.2022c0.1075,-0.367 0.4601,-0.8172 0.2637,-1.0718c-0.37,-0.4807 -24.2272,-2.2327 -24.5434,-1.2878c-2.0166,6.0261 -3.5053,0.995 23.1994,4.5618z" fill="#213555"></path><path d="M71.7195,54.2881c23.9488,2.3762 34.5655,5.0825 38.3805,5.0717c1.372,-0.0044 0.45,-0.3524 0.096,-0.4857c-6.482,-2.4499 -38.5136,-6.2281 -45.5632,-5.9474v0.7442c1.1501,0.0978 3.2525,0.2368 7.0867,0.6172z" fill="#213555"></path><path d="M111.879,52.9972c-2.916,-0.0305 -9.632,-1.7501 -32.0886,-4.3104c-14.3085,-1.6313 -14.4807,-1.1475 -14.4916,-1.672c-0.0332,-1.6294 38.8662,2.5254 46.8482,5.3563c1.378,0.4895 0.745,0.6362 -0.268,0.6261z" fill="#213555"></path><path d="M53.7556,86.3989c5.375,0.3779 10.7033,1.2484 15.9168,2.6003c0.7142,0.2261 0.448,0.3982 -1.001,4.7327c-0.2131,0.6401 -0.1504,0.6286 -8.7187,-0.9525c-11.1783,-2.06 -11.305,-0.5912 -10.6048,-2.4835c1.6416,-4.4374 0.7245,-3.897 4.4077,-3.897zM67.7005,93.1147c0.3648,0.0831 0.2227,-0.0635 1.3018,-3.0157c0.3456,-0.9455 -15.9136,-2.8155 -16.9216,-2.921c-0.896,-0.092 -0.505,-0.2298 -1.8253,2.9909c-0.4634,1.1373 1.9046,-0.5836 17.4451,2.9458z" fill="#213555"></path><path d="M78.9633,70.2311c0.2797,0.1054 0.2784,0.2883 0.0845,0.4896c-0.6631,0.6909 -0.5543,0.522 -7.5635,-0.4908c-11.0477,-1.5971 -11.264,-1.2326 -14.4423,-1.8415c-0.4358,-0.0839 0.1351,-0.6439 0.9479,-0.6192c7.5072,0.2274 19.9244,2.0657 20.9734,2.4619z" fill="#213555"></path><path d="M83.2565,61.5761c0.1223,-0.6109 -1.6288,-1.0128 -2.24,-1.1005c-10.0326,-1.4427 -14.9638,-1.8504 -17.2966,-1.8567l-0.1984,0.781c19.6889,2.4054 19.5834,2.9128 19.735,2.1762z" fill="#213555"></path><path d="M90.0146,93.9439c3.4688,0.0552 4.359,-1.5411 4.7641,-0.5874c0.2138,0.5017 -0.1843,0.6173 -0.5119,0.7404c-8.4481,3.1636 -17.0516,-3.7465 -15.0458,-12.8308c0.0806,-0.3645 0.32,-0.3968 0.6003,-0.3549c0.3507,0.0527 0.2016,0.3086 0.1587,0.4991c-1.5385,6.8034 3.6346,12.4314 10.0346,12.5336z" fill="#213555"></path><path d="M115.405,45.6959c-1.307,0.5398 -9.4,-0.9391 -10.491,-1.1582c-0.32,-0.0635 -0.841,-0.0038 -0.813,-0.4902c0.07,-1.23 8.731,0.635 10.298,1.0293c0.401,0.0747 0.76,0.2955 1.006,0.6191z" fill="#213555"></path><path d="M94.6485,74.3904c0.0051,0.2578 -0.5844,0.5619 -0.8666,0.4445c-1.4957,-0.644 -3.1268,-0.9175 -4.7527,-0.797c-1.964,0.1661 -3.8457,0.8581 -5.4444,2.0022c-0.3981,0.2229 -0.7885,0.0597 -0.5421,-0.541c0.176,-0.4293 4.608,-3.7218 10.567,-1.6841c0.3418,0.1162 0.9888,0.3271 1.0388,0.5754z" fill="#213555"></path><path d="M100.784,82.3743c0.323,1.9315 0.111,3.9139 -0.613,5.7353c-0.7237,1.8214 -1.9328,3.4135 -3.4978,4.6063c-0.272,0.2032 -0.5452,0.3981 -0.8716,-0.0095c-0.5536,-0.6897 1.175,-0.7113 2.8742,-3.5072c2.6072,-4.2894 0.409,-5.9778 2.1082,-6.8249z" fill="#213555"></path><path d="M67.5254,76.129c-10.5901,-1.4052 -12.7303,-1.3169 -12.7412,-1.7507c-0.0288,-1.1169 12.1946,0.5373 13.2954,0.6871c0.2752,0.0381 0.6765,0.0375 0.7142,0.334c0.0659,0.5176 -0.7622,0.6217 -1.2684,0.7296z" fill="#213555"></path><path d="M12.3516,49.0404c0.0403,-0.0241 0.0505,-0.019 0.0236,-0.0571c0.0025,0.0108 0.0015,0.022 -0.0027,0.0322c-0.0043,0.0103 -0.0116,0.0189 -0.0209,0.0249z" fill="#e5d283"></path><path d="M19.8788,52.7051c-3.0359,-0.2163 -5.9669,-1.193 -8.5189,-2.8388c-2.55194,-1.6458 -4.64147,-3.907 -6.07313,-6.5719c-7.9936,-14.7009 8.58053,-27.9337 22.30333,-18.2563c9.0932,6.4135 5.2122,13.0429 12.032,16.4573c0.2772,0.1384 0.4224,0.0267 0.6004,-0.1467c3.2275,-3.1502 7.2556,-4.8768 11.2851,-2.921c1.1219,0.5442 2.1971,1.8415 4.6848,1.846c13.271,0.0216 11.3984,24.7593 -1.7773,30.353c-5.737,2.4339 -8.1242,-1.5177 -11.968,-2.3946c-1.1878,-0.2712 -4.7629,-0.5214 -6.8666,-5.0718c-1.3184,-3.0221 -1.7091,-6.363 -1.1232,-9.6043c0.0266,-0.0769 0.0362,-0.1586 0.0283,-0.2394c-0.008,-0.0809 -0.0334,-0.1592 -0.0745,-0.2295c-0.041,-0.0703 -0.0969,-0.1311 -0.1636,-0.1781c-0.0668,-0.0471 -0.143,-0.0794 -0.2235,-0.0947c-6.7238,-2.6448 -8.6803,0.2559 -14.1452,-0.1092zM15.64,50.4991c-2.6527,-3.2128 -3.9564,-7.3159 -3.6403,-11.4573c0.0595,-0.7824 0.4602,-3.5846 1.2243,-3.2862c0.3284,0.127 0.0596,0.4141 0,0.5906c-2.4499,7.2955 2.6541,14.3599 3.4989,14.5853c2.447,0.653 5.0178,0.7016 7.488,0.1416c-7.1961,-4.699 -1.9872,-19.9079 6.592,-18.4347c0.8013,0.1372 0.6618,0.9875 -0.1318,0.8065c-6.8973,-1.564 -12.2541,11.6789 -6.4493,16.4719c0.283,0.2683 0.6217,0.472 0.9924,0.5966c0.3707,0.1246 0.7645,0.1672 1.1535,0.1247c2.7629,-0.3498 5.4861,-0.2711 8.0263,1.0605c0.4563,0.2394 0.2726,0.1098 1.1558,-2.5972c1.7709,-5.4273 4.0487,-5.8972 2.8435,-6.6109c-3.0361,-1.799 -3.7632,-3.4583 -4.9433,-6.7641c-0.5191,-1.4541 -2.3456,-6.2611 -3.8535,-6.677c-5.3542,-1.4795 -10.752,-0.5588 -14.2464,3.5528c-1.536,1.8047 -1.351,2.6353 -2.0057,2.3006c-0.2836,-0.146 -0.0538,-0.3511 0.0243,-0.4934c0.2272,-0.4419 0.4864,-0.8661 0.7763,-1.27c5.3011,-6.9704 12.2125,-5.1568 15.0503,-4.8539c-1.7863,-1.7367 -5.1693,-1.7145 -7.5796,-1.3405c-4.103,0.635 -5.6659,2.8289 -6.2861,2.5641c-0.6521,-0.2794 -0.5241,-0.807 -0.0121,-1.1747c6.4851,-4.6488 12.6138,-1.618 9.9622,-3.1185c-6.48,-3.6639 -13.5763,-2.2746 -17.35229,1.8098c-5.9168,6.3982 -3.6768,15.6337 2.48509,20.6629c1.8324,1.4948 1.8599,1.0477 1.9367,1.3525c0.3385,-0.1905 -3.16611,-3.575 -2.75843,-10.0793c0.3104,-4.953 3.78623,-9.8946 4.61633,-8.9129c0.0919,0.0985 0.1503,0.2231 0.1669,0.3563c0.0167,0.1332 -0.0093,0.2682 -0.0741,0.386c-0.2247,0.4445 -4.67201,4.2786 -3.3773,12.0739c0.4269,2.5692 2.256,7.2428 4.7174,7.6308zM64.0829,52.9311c0.1491,-12.9133 -10.432,-15.0965 -17.088,-5.099c-3.4445,5.1746 -4.8947,12.4663 -2.3904,17.9864c4.8199,10.6203 19.3178,1.0579 19.4784,-12.8906zM49.9972,39.1758c-7.728,-2.3915 -15.3901,9.4183 -14.4359,19.0703c0.873,8.8335 6.4538,8.7173 7.9898,9.1738c0.144,0.0432 0.3258,0.1905 0.448,0.04c0.105,-0.1308 -0.0269,-0.3092 -0.105,-0.4349c-2.3872,-3.8418 -2.7789,-11.3189 0.8864,-18.0658c4.0736,-7.5019 8.5587,-7.3895 7.7792,-8.1509c-0.9401,-0.9175 -1.6,-1.0325 -2.8102,-0.4667c-2.624,1.2243 -4.608,3.4925 -6.2413,5.823c-5.6045,7.9946 -2.5152,17.7266 -3.3721,17.8651c-0.6336,0.1016 -1.8074,-5.3893 -1.088,-9.6178c1.1692,-6.8383 5.2396,-12.2478 9.1788,-14.3973c0.5408,-0.2947 1.1431,-0.4629 1.7703,-0.8388z" fill="#e5d283"></path><path d="M60.8951,53.2404c0.0377,0.294 -0.0275,0.1778 -3.9975,6.0503c-3.2,4.7365 -3.0508,6.3843 -3.959,4.9098c-4.5222,-7.3438 -4.7238,-7.1939 -4.1069,-7.8797c0.6496,-0.6794 1.3515,-1.3076 2.0992,-1.879c1.1123,-0.9067 2.1043,2.8156 2.5479,2.8429c0.064,0.0038 5.4822,-9.6837 6.1971,-7.7705c0.5072,1.2074 0.9149,2.4535 1.2192,3.7262z" fill="#e5d283"></path><path d="M61.9851,52.27c0.0557,-4.5986 -2.7783,-8.6264 -7.2007,-6.7983c-0.2859,0.1858 -0.6293,0.264 -0.9683,0.2204c-2.0909,-0.5715 5.5328,-4.4222 8.2426,2.1831c3.1616,7.7057 -3.1014,19.9244 -9.9456,20.835c-8.4582,1.1246 -9.6813,-14.0526 -0.8608,-22.239c0.3725,-0.3454 0.889,-0.3467 1.0771,0.0603c0.2829,0.6109 -0.7603,0.5296 -2.7136,3.4138c-6.08,8.9789 -3.3024,19.2437 2.8723,17.7165c5.3351,-1.3233 9.4144,-8.643 9.497,-15.3918z" fill="#e5d283"></path></g></g></svg>