<svg version="1.1" xmlns="http://www.w3.org/2000/svg" xmlns:xlink="http://www.w3.org/1999/xlink" width="128" height="127" viewBox="0,0,256,254"><g fill="none" fill-rule="nonzero" stroke="none" stroke-width="1" stroke-linecap="butt" stroke-linejoin="miter" stroke-miterlimit="10" stroke-dasharray="" stroke-dashoffset="0" font-family="none" font-weight="none" font-size="none" text-anchor="none" style="mix-blend-mode: normal"><g transform="translate(-0.00148,0.00206) scale(2,2)"><path d="M84.8405,60.389c-0.2257,-0.8658 -0.3598,-1.7526 -0.4001,-2.646c0.6552,-0.6251 1.575,-1.4045 1.9581,-1.4314c0.4101,-0.0294 1.7193,1.7052 1.9101,2.1659c-0.5428,0.6331 -0.9759,1.3513 -1.2814,2.1253c-0.7196,-0.145 -1.4524,-0.2166 -2.1867,-0.2138zM86.9296,61.3653c-0.6944,-0.1592 -1.401,-0.26 -2.1124,-0.3012c-0.3484,1.2376 -1.701,2.9616 -2.4117,6.0363c0.1111,2.5277 0.4882,5.0368 1.1252,7.4866c0.6874,-2.5859 1.827,-4.5443 3.3567,-7.0371c0.1575,-1.5596 -0.0341,-4.5012 0.0453,-6.1846zM31.0089,59.9052c-0.0088,-0.7307 0.349,-2.661 0.3251,-2.9442c-0.8594,-0.8494 -2.1068,-1.6783 -2.4356,-1.6877c-0.4448,-0.0087 -2.0463,2.8629 -2.292,3.2286c1.5694,1.0751 2.251,1.4233 2.6227,1.8927c0.5625,-0.2581 1.1637,-0.4234 1.7798,-0.4894zM31.334,80.5615c0.0882,-2.4484 -1.3501,-16.5021 -1.8762,-19.4831c0.5928,-0.236 1.2157,-0.3893 1.851,-0.4556c1.1107,1.9321 5.2334,9.3761 6.4386,22.9285c-1.158,-0.4157 -5.3494,-2.0616 -6.4134,-2.9867z" fill="#e5d283"></path><path d="M34.9662,36.7154c-0.0102,-0.0871 -0.054,-0.1668 -0.1221,-0.2226c-0.0682,-0.0557 -0.1554,-0.0831 -0.2435,-0.0765c-0.0881,0.0066 -0.1701,0.0468 -0.229,0.1121c-0.0589,0.0653 -0.0901,0.1506 -0.087,0.2382c0.1271,1.8747 0.15,3.7548 0.0686,5.632c-0.063,1.8352 -0.143,5.887 -1.992,6.9296c-1.6802,0.9476 -6.0146,0.0737 -7.6766,-0.5901c-0.0672,-0.0289 -0.1432,-0.0308 -0.2118,-0.0051c-0.0686,0.0256 -0.1245,0.0768 -0.1558,0.1426c-0.0312,0.0658 -0.0355,0.1411 -0.0118,0.2099c0.0237,0.0689 0.0735,0.1258 0.1388,0.1589c1.0661,0.5014 2.2035,0.8372 3.3724,0.9958c0.0586,0.8051 -0.012,2.0052 0.0737,2.4172c0.0125,0.0695 0.0494,0.1323 0.1042,0.1773c0.0548,0.045 0.124,0.0693 0.1951,0.0684c0.0712,-0.0008 0.1397,-0.0266 0.1935,-0.0729c0.0537,-0.0463 0.0891,-0.11 0.1,-0.1797c0.0832,-0.5001 -0.0195,-1.6409 -0.0113,-2.3291c4.3602,0.4476 6.3365,0 6.6049,-8.071c0.1007,-1.8452 0.0638,-3.6952 -0.1103,-5.535zM36.2747,32.6017c0.494,2.4159 -1.0936,3.0898 -3.1852,3.076c-2.3235,-0.0162 -4.6475,-0.0375 -6.971,-0.0262c-0.567,2.2503 -1.386,3.1372 -2.9175,4.7431c-0.0914,0.0956 -0.2671,0.1931 -0.3597,0.0912c-0.6874,-0.7544 -2.0746,-0.6569 -2.4381,0.8345c-0.131,0.576 -0.0602,1.179 0.2007,1.7097c0.2609,0.5306 0.6963,0.9572 1.2344,1.2094c0.5928,0.3469 0.126,0.6501 -0.2652,0.4801c-0.1936,-0.0934 -0.376,-0.2081 -0.5437,-0.3419c0.0737,1.5852 0.085,3.7567 -0.0114,5.2875c-0.0214,0.3444 -0.5915,0.2869 -0.5878,-0.0325c0.043,-1.6252 -0.002,-3.2515 -0.1348,-4.8719c-2.1464,-2.319 -3.0404,-6.0007 -2.9673,-9.0342c0.0668,-2.7966 1.6903,-5.8182 4.2355,-3.0248c0.9307,-1.6872 2.4391,-2.9882 4.2525,-3.6679c3.453,-1.3371 9.5823,-0.702 10.4586,3.5679zM33.894,33.2806c0.315,0.625 0.9992,-0.0663 0.6999,-0.8451c-0.8114,-2.1103 -4.5095,-2.666 -6.4058,-2.0947c-0.3535,0.1063 -0.2161,0.6082 0.126,0.6057c2.1955,-0.0194 4.519,0.2 5.5799,2.3341zM32.2692,37.483c0.4883,-0.1088 1.2203,0.1875 1.2266,0.7757c-0.0064,0.0476 -0.027,0.0922 -0.059,0.1281c-0.0321,0.036 -0.0742,0.0617 -0.121,0.0738c-0.0468,0.0121 -0.0962,0.0102 -0.1419,-0.0056c-0.0457,-0.0159 -0.0856,-0.0448 -0.1147,-0.0832c-0.0623,-0.1224 -0.1628,-0.2216 -0.2865,-0.2828c-0.1238,-0.0612 -0.2641,-0.081 -0.4002,-0.0566c-0.0682,0.0025 -0.135,-0.0194 -0.1884,-0.0617c-0.0533,-0.0423 -0.0895,-0.1022 -0.102,-0.1688c-0.0125,-0.0666 -0.0005,-0.1354 0.0338,-0.194c0.0344,-0.0585 0.0888,-0.1029 0.1533,-0.1249zM28.2656,37.8111c0.5166,0.07 0.3868,0.6207 0,0.6107c-0.2085,-0.0003 -0.411,0.0689 -0.575,0.1965c-0.164,0.1277 -0.2799,0.3064 -0.3291,0.5074c-0.0176,0.0655 -0.0586,0.1224 -0.1154,0.1601c-0.0568,0.0377 -0.1255,0.0535 -0.1933,0.0445c-0.0677,-0.0089 -0.1298,-0.0421 -0.1747,-0.0932c-0.0449,-0.0512 -0.0695,-0.1168 -0.0691,-0.1846c0.0118,-0.177 0.0591,-0.35 0.139,-0.5088c0.08,-0.1587 0.191,-0.3001 0.3265,-0.4158c0.1356,-0.1157 0.2931,-0.2035 0.4632,-0.2582c0.1702,-0.0547 0.3496,-0.0753 0.5279,-0.0605zM29.2584,40.2539c0.0309,0.3507 0.1443,1.0245 -0.24,1.1646c-0.5872,0.2144 -0.756,-0.6776 -0.6999,-1.0483c0.1064,-0.7157 0.8826,-0.7532 0.9399,-0.1163zM33.0687,40.5308c0.0252,0.2713 0.0245,0.697 -0.2684,0.7651c-0.504,0.1175 -0.63,-0.3175 -0.6577,-0.7463c-0.0221,-0.3232 0.0422,-0.8001 0.4542,-0.8189c0.4473,-0.0193 0.4423,0.4882 0.4706,0.8001zM32.3246,43.1712c0.252,0.8632 -0.9714,1.0626 -1.7255,0.7951c-0.2571,-0.0907 -0.1437,-0.512 0.0838,-0.5357c0.2971,0.009 0.5946,0.0009 0.8908,-0.0244c0.2671,-0.0594 0.126,-0.1213 0.022,-0.4101c-0.211,-0.5669 -0.504,-1.2357 -0.6526,-1.8083c-0.0141,-0.0639 -0.0047,-0.1307 0.0264,-0.1883c0.0311,-0.0577 0.0819,-0.1024 0.1433,-0.1263c0.0613,-0.0239 0.1293,-0.0252 0.1916,-0.0039c0.0623,0.0213 0.1149,0.064 0.1483,0.1203c0.341,0.7064 0.6324,1.4353 0.8719,2.1816zM29.9842,46.1347c-0.9677,1.2501 -3.3037,0.5438 -3.1147,-1.7746c0.7585,1.3676 2.6189,1.6908 3.1147,1.7746zM26.305,44.0206c0.1789,-0.7788 0.4656,-0.6957 0.9072,-0.2112c2.1653,2.3753 4.095,1.2501 3.591,2.2703c-0.1758,0.3396 -0.4328,0.6314 -0.7484,0.8498c-0.3157,0.2185 -0.6804,0.3569 -1.0624,0.4033c-0.382,0.0463 -0.7696,-0.0008 -1.129,-0.1373c-0.3594,-0.1365 -0.6797,-0.3582 -0.9328,-0.6458c-0.2856,-0.3498 -0.4898,-0.7579 -0.598,-1.1951c-0.1081,-0.4372 -0.1176,-0.8927 -0.0276,-1.334zM61.3891,62.773c-2.7928,-3.1673 -5.5736,-4.5112 -9.4941,-5.8464c-1.141,3.0429 -4.5083,8.3598 -7.0995,10.5764c-0.2394,0.205 -0.6395,-0.1288 -0.424,-0.3751c2.8326,-3.0521 5.1287,-6.5543 6.7927,-10.3607c0.252,-0.5263 0.252,-0.5488 0.858,-0.4506c3.5337,0.5744 7.2759,3.0247 9.6466,5.58c0.4895,0.5282 0.4706,0.6676 0.189,1.2777c-2.3392,5.1069 -5.481,11.2358 -8.757,15.7045c-1.8434,2.5153 -3.6723,4.4218 -8.1825,5.355c-0.3748,0.0775 -0.4945,-0.6188 -0.0957,-0.6795c4.0597,-0.625 6.1803,-2.8084 8.4136,-6.1489c5.3355,-7.9741 7.9576,-14.6305 8.1529,-14.6305zM49.6144,98.585c-2.9661,0.2112 -4.5644,-0.1926 -7.2639,-1.384c-1.7999,-0.7951 -4.8353,-2.3852 -6.741,-2.3796c-0.2785,0 -0.4202,0.4894 -0.126,0.5519c2.4103,0.5101 4.5668,1.7202 7.0629,2.771c2.0223,0.8513 5.0123,1.8158 7.17,1.0626c0.286,-0.0969 0.327,-0.6201 -0.102,-0.6201zM51.9888,97.9868c-2.0512,0.5488 -6.0996,-0.5538 -7.737,-1.6515c-0.2879,-0.1925 0.0164,-0.5976 0.3056,-0.4857c3.79,1.4683 5.3071,1.5521 7.371,1.5527c0.0665,0.0111 0.1275,0.0436 0.1736,0.0924c0.0461,0.0488 0.0748,0.1113 0.0817,0.1779c0.0069,0.0666 -0.0085,0.1336 -0.0437,0.1907c-0.0352,0.057 -0.0883,0.1011 -0.1512,0.1253zM53.492,96.6454c-2.3448,0.3044 -5.8911,-0.6651 -7.8523,-1.964c-0.2766,-0.1832 -0.0044,-0.6126 0.2879,-0.4907c3.0599,1.2783 4.3224,1.4595 7.56,1.8321c0.0811,0.003 0.1579,0.0369 0.2144,0.0947c0.0565,0.0577 0.0883,0.1349 0.0889,0.2154c0.0006,0.0805 -0.0302,0.1581 -0.0859,0.2167c-0.0557,0.0585 -0.132,0.0935 -0.213,0.0976zM53.681,95.062c-2.4245,-0.3165 -4.7481,-1.1621 -6.804,-2.4759c-0.2482,-0.1875 -0.131,-0.6288 0.2085,-0.5357c1.197,0.3275 4.6116,1.9921 6.7574,2.3503c0.3106,0.0019 0.2369,0.7057 -0.1638,0.6657zM46.7321,90.3539c-1.2146,-0.25 -3.6445,0.7883 -4.6286,1.4308c-0.2069,0.1892 -0.448,0.3376 -0.7106,0.4376c-0.2886,0.055 -0.3528,-0.3082 -0.189,-0.6145c1.827,-3.4773 7.0138,-2.8128 9.2849,-5.5325c0.2079,-0.25 -0.1317,-0.6251 -0.3969,-0.4201c-2.0519,1.5708 -3.5469,1.7434 -5.813,2.6491c-1.3117,0.5238 -3.3951,1.764 -3.8625,3.2754c-0.1745,0.5626 -0.0492,1.2852 0.693,1.3614c0.6678,0.0694 1.2115,-0.4856 1.7488,-0.7926c1.1691,-0.761 2.5263,-1.1889 3.9237,-1.237c0.7522,-0.0169 0.1354,-0.5576 -0.0498,-0.5576zM37.301,84.6245c0.7718,0.2244 1.0452,0.5832 0.693,1.1782c-1.3161,2.2372 -2.4469,6.0633 -3.2672,10.4889c-0.126,0.6875 -0.2935,0.5882 -0.8555,0.5313c-5.0144,-0.5479 -9.9174,-1.8402 -14.5448,-3.8336c-8.6619,-3.6655 -14.7773,-7.7935 -15.15089,-17.8929c-0.30177,-8.146 2.04876,-18.0454 10.06619,-21.9671c0.0803,-0.042 0.1741,-0.0508 0.261,-0.0246c0.0869,0.0263 0.1598,0.0855 0.2029,0.1649c0.0431,0.0793 0.0529,0.1723 0.0273,0.2588c-0.0257,0.0864 -0.0847,0.1593 -0.1643,0.2028c-8.12068,4.3693 -10.36726,14.5269 -9.53629,22.9917c0.91287,9.2867 8.49749,13.3248 16.46379,16.347c4.0808,1.5121 8.3164,2.5759 12.6309,3.1723c0,-2.7954 1.4893,-8.2286 3.1134,-10.8426c-6.5291,-1.8767 -12.6186,-5.0186 -17.9165,-9.2443c-0.0608,-0.0489 -0.0994,-0.1198 -0.1075,-0.1969c-0.0081,-0.0772 0.015,-0.1545 0.0643,-0.2147c0.0493,-0.0603 0.1207,-0.0986 0.1985,-0.1067c0.0778,-0.008 0.1556,0.015 0.2164,0.0639c0.3603,0.2737 0.724,0.5427 1.0911,0.8069c-0.5897,-3.0979 0.2243,-9.1186 1.8182,-12.0252c0.189,-0.3432 0.7069,-0.0381 0.5872,0.295c-1.8107,5.0356 -2.0519,7.0009 -1.7577,12.189c4.8225,3.4109 10.185,5.9991 15.8665,7.6579zM29.8072,93.0405c-0.2146,0.0194 -0.4126,0.1224 -0.5507,0.2865c-0.138,0.164 -0.2049,0.3757 -0.1858,0.5886c0.0311,0.1783 0.1151,0.3433 0.2412,0.4739c0.1262,0.1306 0.2887,0.2209 0.4669,0.2594c0.1083,0.0115 0.2179,0.0004 0.3216,-0.0327c0.1037,-0.0331 0.1993,-0.0873 0.2805,-0.1593c0.0813,-0.072 0.1465,-0.1601 0.1913,-0.2586c0.0449,-0.0985 0.0684,-0.2052 0.0691,-0.3133c0.0014,-0.1099 -0.0191,-0.2189 -0.0603,-0.3209c-0.0412,-0.102 -0.1023,-0.1949 -0.1798,-0.2734c-0.0775,-0.0785 -0.1699,-0.141 -0.2719,-0.1839c-0.1019,-0.0429 -0.2114,-0.0655 -0.3221,-0.0663zM40.4447,99.0113c0.4826,-0.1075 0.693,0.5113 0.2375,0.6044c-10.6067,2.1723 -23.7415,1.3813 -32.65225,-0.0206c-0.07537,-0.0161 -0.14323,-0.0566 -0.19293,-0.1151c-0.04971,-0.0585 -0.07846,-0.1316 -0.08175,-0.2081c-0.63,-3.6879 -1.30095,-9.598 -1.1025,-13.2823c0.00331,-0.067 0.03246,-0.1301 0.08143,-0.1764c0.04896,-0.0463 0.11398,-0.0721 0.1816,-0.0721c0.06761,0 0.13263,0.0258 0.1816,0.0721c0.04896,0.0463 0.07812,0.1094 0.08142,0.1764c-0.0819,4.7725 0.78183,8.8512 1.12644,12.9473c21.52834,2.7101 32.38514,0.0744 32.13944,0.0744zM30.2557,83.6343c-2.4047,2.0747 -3.9488,7.0891 -3.7926,10.0813c0.017,0.3269 0.5576,0.3188 0.5803,-0.0056c0.3439,-4.9138 1.9845,-7.9435 3.6905,-9.6175c0.2545,-0.2519 -0.1745,-0.7201 -0.4782,-0.4582zM46.8644,86.4147c0.3075,0.135 0.298,0.6838 -0.0535,0.6582c-1.4163,-0.1038 -3.906,0.3676 -4.8158,0.4676c-1.3702,0.1512 -2.4444,0.3163 -3.6684,-0.4088c-0.3024,-0.1788 -0.0341,-0.6114 0.2715,-0.5182c1.2331,0.3536 2.5376,0.3844 3.7863,0.0894c1.059,-0.1576 3.5733,-0.6864 4.4799,-0.2882zM29.1507,53.8525c-1.255,-0.6069 -1.57,-0.2544 -2.2932,0.777c-0.8038,1.2054 -1.4736,2.4937 -1.9977,3.8423c-3.952,-1.7408 -6.0776,-3.451 -9.2302,-6.122c0.8934,-0.5457 1.7527,-0.8351 2.6523,-1.3051c0.0645,-0.0339 0.1148,-0.0894 0.1419,-0.1566c0.0271,-0.0673 0.0292,-0.1418 0.0061,-0.2105c-0.0231,-0.0687 -0.0701,-0.1269 -0.1325,-0.1645c-0.0624,-0.0375 -0.1362,-0.0518 -0.2082,-0.0404c-1.0182,0.3391 -1.9874,0.8088 -2.8829,1.3971c-0.3522,0.25 -0.4467,0.3969 -0.1455,0.7382c1.9378,2.1971 6.6509,5.4507 9.3479,6.4195c0.7302,0.2626 0.7749,0.2169 1.134,-0.4375c0.5878,-1.077 0.9286,-2.0672 1.6052,-3.106c0.6628,-1.0189 0.8657,-1.5002 1.9121,-0.9033c1.0985,0.538 2.0287,1.3626 2.6907,2.3853c0.1997,0.2876 0.6502,-0.0125 0.5109,-0.3382c0.0693,-0.0037 -0.8089,-1.662 -3.1109,-2.7753zM26.8304,53.3918c-2.3237,-0.5638 -4.5074,-1.5908 -6.4184,-3.0185c-0.2697,-0.1875 -0.6244,0.2244 -0.3717,0.4457c1.0244,0.8982 4.9839,3.1829 6.6244,3.111c0.2646,-0.0112 0.4713,-0.4507 0.1657,-0.5382zM43.1014,84.5595c0.046,1.0526 -0.7327,1.2564 -0.761,0.1387c-0.2072,-4.7009 -1.0157,-9.3567 -2.406,-13.8554c-1.3409,-4.9062 -3.8301,-9.429 -7.2651,-13.2004c-0.2413,-0.272 0.126,-0.6876 0.3924,-0.4189c3.14,3.1436 6.1003,8.258 7.5827,13.408c1.2807,4.5508 2.1042,9.2162 2.4583,13.928zM66.7724,48.2181c0.021,-0.0749 0.0705,-0.1386 0.1382,-0.1776c0.0676,-0.0391 0.148,-0.0503 0.2239,-0.0314c0.0759,0.0189 0.1413,0.0666 0.1823,0.1327c0.041,0.0661 0.0543,0.1455 0.0371,0.2213c-0.3345,2.6734 -1.6947,4.5312 -3.1204,6.6771c-1.1053,1.7171 -2.4428,3.2756 -3.9753,4.6318c-0.2621,0.2344 -0.6174,-0.1763 -0.4089,-0.4376c1.4749,-1.8396 2.4073,-2.5565 3.6673,-4.563c1.7974,-2.8542 2.0235,-3.0854 3.2558,-6.4533zM65.9131,44.7745c0.0054,-0.0777 -0.0187,-0.1547 -0.0676,-0.2157c-0.0488,-0.061 -0.1188,-0.1018 -0.1964,-0.1142c-0.0775,-0.0124 -0.1569,0.0043 -0.2226,0.0469c-0.0658,0.0427 -0.1131,0.1082 -0.1327,0.1836c-0.642,2.516 -1.7467,4.8928 -3.2584,7.0109c-0.0381,0.0662 -0.0512,0.1438 -0.0368,0.2188c0.0144,0.0749 0.0553,0.1423 0.1153,0.19c0.0601,0.0477 0.1353,0.0725 0.2122,0.0699c0.0769,-0.0025 0.1503,-0.0322 0.207,-0.0837c1.3155,-1.3851 3.5898,-5.2287 3.3825,-7.3065zM62.9855,43.5956c-0.6401,2.4971 -1.6148,4.8977 -2.898,7.1378c-0.1626,0.3013 0.298,0.5488 0.504,0.3013c1.6255,-2.1495 2.6568,-4.6831 2.9919,-7.3497c0.01,-0.0775 -0.011,-0.1557 -0.0584,-0.218c-0.0474,-0.0624 -0.1175,-0.1038 -0.1953,-0.1155c-0.0778,-0.0117 -0.1571,0.0073 -0.221,0.0529c-0.0638,0.0457 -0.1072,0.1143 -0.1207,0.1912zM60.2645,43.2606c-0.5981,2.7515 -1.4683,5.4377 -2.5981,8.0197c-0.1386,0.3382 0.3887,0.5626 0.5777,0.2632c0.9973,-1.5834 2.7298,-6.1639 2.6429,-8.1754c-0.0133,-0.3513 -0.5406,-0.4726 -0.62,-0.1075zM55.2069,47.8393c0.1783,-0.2882 0.7131,-0.1438 0.5884,0.2037c-1.2386,3.4467 -1.1195,4.6256 -1.386,8.0229c-0.0271,0.3476 -0.5116,0.2444 -0.5632,-0.0369c-0.4083,-2.209 0.1789,-6.2714 1.3633,-8.1897zM59.3094,64.1575c-0.274,0.347 -0.5796,0.1944 -0.853,0.01c-0.0925,-0.0838 -0.1574,-0.1933 -0.1863,-0.3142c-0.0289,-0.1209 -0.0206,-0.2476 0.0241,-0.3638c0.0446,-0.1161 0.1234,-0.2162 0.2261,-0.2873c0.1027,-0.0711 0.2246,-0.1099 0.3499,-0.1114c0.1252,-0.0014 0.248,0.0345 0.3524,0.1032c0.1044,0.0687 0.1855,0.1669 0.2329,0.2819c0.0474,0.1151 0.0588,0.2416 0.0327,0.3632c-0.026,0.1215 -0.0883,0.2325 -0.1788,0.3184zM58.0034,66.2322c0.1386,0.25 -0.2173,0.6644 -0.4221,0.4613c-1.7268,-1.7134 -5.532,-3.853 -7.2519,-4.8813c-0.2841,-0.17 -0.034,-0.6 0.2608,-0.5c1.4238,0.4869 6.6976,3.6254 7.4158,4.92zM45.1848,69.5907c0.1437,0.3332 -0.3836,0.6876 -0.5808,0.3969c-1.667,-2.3525 -3.7234,-4.4081 -6.082,-6.0795c-0.2905,-0.2075 0.068,-0.6044 0.3553,-0.415c1.6178,1.0695 5.5452,4.3249 6.3101,6.0976zM93.1064,47.5173c0.0788,-0.0339 0.1677,-0.037 0.2487,-0.0086c0.081,0.0284 0.1481,0.0861 0.188,0.1616c0.0399,0.0755 0.0495,0.1632 0.0269,0.2454c-0.0225,0.0822 -0.0756,0.153 -0.1486,0.198c-1.8043,1.1117 -3.897,1.6756 -6.0203,1.622c-0.0129,0.8247 -0.2396,1.6322 -0.6583,2.3447c-0.0461,0.0375 -0.1021,0.0609 -0.1613,0.0674c-0.0592,0.0066 -0.1191,-0.004 -0.1724,-0.0304c-0.0532,-0.0264 -0.0977,-0.0676 -0.1279,-0.1185c-0.0302,-0.051 -0.045,-0.1095 -0.0424,-0.1685c0.2813,-0.6902 0.4514,-1.4201 0.504,-2.1628c-1.1577,-0.1549 -2.251,-0.62 -3.1622,-1.3452c-0.9112,-0.7253 -1.6059,-1.6832 -2.0095,-2.7709c-1.1126,-3.0129 -0.1789,-6.3508 0.9803,-9.2068c0.022,-0.0719 0.0717,-0.1323 0.1384,-0.168c0.0666,-0.0357 0.1448,-0.0438 0.2174,-0.0227c0.0727,0.0212 0.134,0.07 0.1706,0.1358c0.0366,0.0658 0.0455,0.1432 0.0248,0.2155c-0.5584,1.6735 -0.9622,3.394 -1.2064,5.1401c-0.2923,3.6254 1.3016,6.7864 5.166,7.1602c2.0469,0.1957 4.1422,-0.5125 6.0442,-1.2883zM85.5389,51.9985c0.2743,0.9615 0.6972,1.875 1.2536,2.7079c3.4243,-0.9666 6.7388,-2.2813 9.8911,-3.923c0.5443,-0.2682 0.6369,-0.3044 1.1768,-0.0125c0.9296,0.5328 1.7819,1.1887 2.5336,1.9496c0.071,0.0624 0.115,0.15 0.122,0.244c0.007,0.0941 -0.023,0.1872 -0.084,0.2597c-0.06,0.0724 -0.147,0.1185 -0.242,0.1285c-0.094,0.0099 -0.189,-0.0171 -0.2638,-0.0753c-0.7822,-0.7527 -1.638,-1.4263 -2.5547,-2.0108c-3.1333,1.7896 -6.5056,3.1313 -10.017,3.9855c0.7652,0.6323 1.4942,1.3066 2.1836,2.0196c1.219,1.1626 1.1825,1.3602 2.8791,0.6632c1.9574,-0.757 3.7729,-1.8346 5.3707,-3.1879c0.2968,-0.2594 0.6508,0.1788 0.3875,0.4613c-1.3507,1.4458 -4.1089,2.9716 -5.985,3.6405c-1.3079,0.4656 -1.8094,0.2862 -2.7663,-0.6364c-0.5091,-0.49 -2.457,-2.5053 -2.8432,-2.7672c-1.0679,0.481 -2.1027,1.0312 -3.0977,1.6471c-0.5242,0.275 -0.6899,-0.2682 -0.2363,-0.6095c0.9112,-0.5748 1.8658,-1.0791 2.8552,-1.5083c-0.4569,-0.7564 -0.8235,-1.5629 -1.0924,-2.4034c-0.6806,0.6052 -1.2694,1.3048 -1.7483,2.0771c-0.0389,0.0542 -0.096,0.0929 -0.161,0.1092c-0.0651,0.0162 -0.1338,0.0089 -0.194,-0.0206c-0.0601,-0.0295 -0.1077,-0.0792 -0.1342,-0.1404c-0.0265,-0.0611 -0.0302,-0.1296 -0.0104,-0.1932c0.425,-0.9031 1.0405,-1.705 1.805,-2.3515c0.1064,-0.0007 0.6589,-0.8608 0.9721,-0.0532zM98.9528,33.2581c-0.4983,-0.1344 -0.5405,-0.5001 -0.0195,-0.8126c1.0181,-0.6095 0.6445,-1.9584 -0.3112,-2.4904c-0.5312,-0.2468 -1.1177,-0.3535 -1.7026,-0.3097c-0.5849,0.0438 -1.1486,0.2366 -1.6364,0.5598c-0.4738,0.3619 -0.7762,0.0181 -0.7812,-0.3582c-0.0078,-0.9135 -0.3443,-1.7943 -0.9488,-2.4834c-0.6044,-0.6892 -1.4372,-1.1414 -2.348,-1.2752c-1.8409,-0.2744 -4.6356,0.6532 -5.4262,2.4434c-0.1046,0.2369 -0.504,0.392 -0.6886,0.1357c-1.0206,-1.4283 -2.9679,-1.112 -4.279,-0.2794c-3.2646,2.0727 -1.323,4.6593 1.449,5.8238c2.6643,1.1202 5.7778,1.0833 8.5951,0.727c0.8335,-0.1056 0.9627,0.0625 1.1391,0.8901c0.1976,0.8557 0.5864,1.6564 1.1375,2.343c0.5513,0.6867 1.2508,1.2418 2.0471,1.6244c1.0005,-1.754 3.54,-1.2596 4.2979,0.6751c0.72,1.8371 -0.4524,3.9623 -2.5698,4.6168c0,2.6209 0.378,4.213 0.3264,4.463c-0.0568,0.2826 -0.4077,0.2644 -0.5519,0.0769c-0.4839,-0.6294 -0.5519,-3.7904 -0.4473,-4.5443c0.0863,-0.6251 0.0504,-0.6163 0.6867,-0.8438c0.6778,-0.23 1.247,-0.6986 1.5999,-1.3172c0.3529,-0.6185 0.4648,-1.3439 0.3146,-2.0389c-0.4025,-1.4533 -2.101,-2.0096 -3.1273,-0.7501c-0.2287,0.2807 -0.3748,0.3432 -1.008,0.1088c-0.9462,-0.4113 -1.7709,-1.0556 -2.3958,-1.8718c-0.625,-0.8161 -1.0294,-1.7772 -1.175,-2.7919c-11.3161,1.8596 -15.7973,-4.6706 -10.7642,-7.8879c1.575,-1.0039 3.6767,-1.2239 4.9997,0.0769c0.8221,-1.7984 4.1454,-2.7053 5.9522,-2.4378c2.0217,0.3007 3.8688,1.9615 4.0119,4.0005c0.6057,-0.299 1.2763,-0.4455 1.9526,-0.4268c0.6763,0.0188 1.3376,0.2023 1.9256,0.5343c1.1637,0.772 1.5747,2.4347 0.4593,3.4336c2.5434,0.6994 3.6504,3.9298 3.3104,6.7971c-0.155,1.4476 -0.683,2.8313 -1.532,4.0182c-0.85,1.1869 -1.9928,2.137 -3.3194,2.7589c-0.441,0.195 -0.7913,-0.4545 -0.3503,-0.6633c1.188,-0.5421 2.2181,-1.3741 2.9947,-2.4182c0.776,-1.0441 1.273,-2.2663 1.444,-3.5525c0.295,-2.4453 -0.591,-5.8339 -3.2612,-6.5539zM90.5644,44.2251c0.1121,-0.6508 0.9141,-0.3482 0.7327,0.3c-0.4442,1.5902 -3.1374,1.3427 -4.1454,1.1251c-0.361,-0.0769 -0.2835,-0.625 0.085,-0.5669c0.8114,0.1381 3.1349,0.2531 3.3277,-0.8582zM88.3499,37.7561c0.1984,-0.1179 0.4215,-0.1891 0.652,-0.2081c0.2305,-0.019 0.4623,0.0148 0.6776,0.0986c0.2153,0.0839 0.4083,0.2156 0.5642,0.3851c0.156,0.1695 0.2706,0.3723 0.3352,0.5926c0.1121,0.5001 -0.3459,0.7301 -0.5538,0.3063c-0.1323,-0.2639 -0.3518,-0.4748 -0.622,-0.5976c-0.2701,-0.1227 -0.5745,-0.1499 -0.8623,-0.0768c-0.2419,0.0225 -0.4971,-0.3276 -0.1909,-0.5001zM85.3889,37.6111c0.2419,0.285 -0.1178,0.5688 -0.4914,0.4376c-0.2268,-0.0895 -0.4765,-0.105 -0.7128,-0.0445c-0.2363,0.0606 -0.4472,0.1941 -0.602,0.3814c-0.0477,0.0506 -0.112,0.0828 -0.1814,0.0908c-0.0693,0.0081 -0.1394,-0.0085 -0.1976,-0.0468c-0.0582,-0.0383 -0.1009,-0.0958 -0.1204,-0.1623c-0.0196,-0.0666 -0.0147,-0.1378 0.0137,-0.2011c0.3074,-0.6845 1.6877,-1.1677 2.2944,-0.4551zM84.5762,40.0552c0.0681,0.4013 -0.1657,0.8469 -0.5462,0.8463c-0.4845,0 -0.5538,-0.3819 -0.5342,-0.6907c-0.0208,-0.1425 0.0163,-0.2873 0.1031,-0.4027c0.0868,-0.1153 0.2163,-0.1917 0.3599,-0.2124c0.1436,-0.0206 0.2896,0.0162 0.4059,0.1024c0.1162,0.0861 0.1932,0.2146 0.214,0.3571zM88.7575,39.6732c0.2829,0.0832 0.356,0.5188 0.3207,0.7501c-0.063,0.4013 -0.3522,0.777 -0.7774,0.6351c-0.1524,-0.0664 -0.2735,-0.1879 -0.3388,-0.3398c-0.0654,-0.1519 -0.0699,-0.3227 -0.0128,-0.4778c0.1254,-0.38 0.4858,-0.6632 0.8102,-0.5676zM87.0761,42.9824c0.3849,0.165 0.1436,0.7501 -0.2451,0.6663c-0.4731,-0.1056 -0.8915,0.08 -1.3659,0.0175c-0.8977,-0.1181 -1.0924,-0.7751 -0.783,-1.5239c0.2756,-0.7234 0.6656,-1.3986 1.1554,-2.0003c0.1928,-0.1544 0.4542,0.0744 0.4107,0.2838c-0.063,0.3044 -0.4145,0.7426 -0.8498,1.8128c-0.1972,0.4863 -0.31,0.7732 0.3616,0.7344c0.4337,-0.1039 0.8864,-0.1007 1.3186,0.0094zM79.8657,89.5301c-3.368,0.3869 -2.5288,7.7172 -1.219,10.0725c-1.449,1.9154 -7.9595,1.5754 -9.5571,0.7854c-0.4732,-10.7235 0.8656,-18.6233 3.339,-28.9696c0.0235,-0.0755 0.0162,-0.1572 -0.0203,-0.2274c-0.0366,-0.0703 -0.0996,-0.1234 -0.1753,-0.148c-0.0757,-0.0246 -0.1582,-0.0187 -0.2295,0.0164c-0.0714,0.0352 -0.126,0.0968 -0.152,0.1715c-2.1477,5.7307 -3.2804,14.2306 -3.5173,20.3151c-3.6243,1.3888 -7.328,2.5643 -11.0918,3.5204c-0.693,-2.5697 -4.3375,-8.8905 -6.6919,-10.1163c8.6512,-4.3874 14.6324,-8.4948 18.4798,-15.8044c3.9905,-7.5816 9.1275,-13.3611 13.5205,-15.3463c-1.2008,3.4066 -1.7924,17.5647 0.257,22.4403c-1.5589,4.2842 -2.5471,8.7522 -2.9396,13.2904zM76.0448,70.0164c0.4553,-1.2044 1.0577,-2.3489 1.7936,-3.4079c-0.837,-1.104 -1.4332,-2.3687 -1.7508,-3.7136c-0.0435,-0.3088 0.4183,-0.4926 0.5386,-0.1825c0.354,1.1129 0.8834,2.1631 1.5687,3.1116c0.448,0.5944 0.3976,0.7201 0.0725,1.3045c-0.6909,1.2611 -1.3011,2.5641 -1.827,3.9011c1.5202,3.3417 2.4438,4.4681 4.5751,7.0791c0.252,0.3125 -0.0599,0.7307 -0.3421,0.4769c-1.9896,-2.011 -3.5824,-4.3736 -4.6961,-6.9659c-0.3666,-0.9676 -0.3049,-0.6813 0.07,-1.6033zM91.2668,88.9406c0.3503,0.1063 0.2589,0.6595 -0.1146,0.7039c-1.5681,0.1875 -2.9365,-1.9378 -4.5581,-1.8996c-1.26,0.0287 -2.1685,1.5564 -3.6395,1.6252c-0.079,0.0048 -0.1568,-0.0209 -0.2172,-0.0717c-0.0604,-0.0508 -0.0986,-0.1228 -0.1068,-0.2009c-0.0081,-0.0781 0.0145,-0.1563 0.0631,-0.2183c0.0487,-0.062 0.1196,-0.1029 0.1979,-0.1142c1.3469,-0.2675 2.1288,-1.6496 3.751,-1.8696c1.3281,-0.1782 3.385,1.6702 4.6242,2.0452zM85.7228,100.561c-1.7111,0.079 -4.8037,0.212 -5.8785,-1.3485c-0.2022,-0.2925 -0.613,0.0432 -0.4927,0.3332c0.8133,1.9613 4.2928,1.9043 6.0606,1.8473c2.7197,-0.073 5.4022,-0.644 7.9128,-1.6841c0.4977,-0.2101 0.1197,-0.9302 -0.3723,-0.7389c-2.3071,0.9181 -4.7498,1.456 -7.2318,1.593zM83.4321,98.2343c-2.181,0.8195 -4.8617,0.3432 -4.9272,-1.4489c-0.0126,-0.3376 0.5355,-0.4313 0.5935,-0.0982c0.32,1.8228 3.3056,0.8414 4.1365,0.9026c0.3138,0.0013 0.5544,0.5107 0.1953,0.6457zM83.0258,95.1089c-1.3129,-0.0625 -3.317,0.592 -4.0843,-1.167c-0.1644,-0.3751 -0.6489,-0.1482 -0.5853,0.25c0.2602,1.6221 2.137,2.1134 4.7754,1.6252c0.3692,-0.0669 0.2432,-0.7082 -0.1058,-0.7082zM83.4038,92.518c-0.2646,-0.0969 -1.9121,0.0737 -2.5717,-0.0782c-0.4492,-0.1031 -1.3601,-0.54 -1.0804,-1.1807c0.0372,-0.0759 0.043,-0.1632 0.0161,-0.2433c-0.0269,-0.08 -0.0843,-0.1464 -0.16,-0.185c-0.0756,-0.0385 -0.1635,-0.046 -0.2447,-0.021c-0.0813,0.025 -0.1494,0.0806 -0.1898,0.1548c-0.6098,0.9077 0.2924,1.839 1.1296,2.1059c1.0292,0.2276 2.0956,0.2338 3.1273,0.0182c0.0516,-0.0295 0.0941,-0.0724 0.1227,-0.1242c0.0286,-0.0517 0.0423,-0.1103 0.0397,-0.1693c-0.0027,-0.059 -0.0217,-0.1161 -0.0548,-0.1651c-0.0332,-0.049 -0.08,-0.0874 -0.134,-0.1121zM101.325,53.7987c15.871,2.5129 24.33,26.8928 22.202,35.2094c-1.746,6.8246 -19.319,13.4509 -28.1916,12.6379c-1.1725,-0.445 -3.0398,-9.6819 -2.9258,-13.6474c5.6738,-1.1951 12.5754,-3.201 16.5904,-7.5759c0.252,-0.2782 -0.105,-0.7038 -0.402,-0.4444c-0.891,0.7768 -1.834,1.4913 -2.825,2.1384c-0.57,-2.2159 -2.768,-6.0577 -4.158,-7.6991c-0.02,-0.0318 -0.047,-0.0593 -0.079,-0.0808c-0.031,-0.0216 -0.066,-0.0368 -0.104,-0.0447c-0.037,-0.008 -0.075,-0.0086 -0.113,-0.0018c-0.038,0.0068 -0.073,0.0208 -0.105,0.0413c-0.032,0.0205 -0.06,0.0471 -0.082,0.0783c-0.022,0.0311 -0.037,0.0662 -0.045,0.1032c-0.008,0.037 -0.009,0.0752 -0.002,0.1124c0.007,0.0373 0.021,0.0728 0.042,0.1046c1.827,3.0335 2.938,4.6487 3.915,7.8485c-4.532,2.756 -8.9317,3.7467 -13.5396,4.8756c-1.8837,-0.5326 -3.4259,-1.9477 -4.2367,-2.0421c-2.9679,-0.3451 -4.1139,2.3959 -5.9705,2.599c1.1365,-12.5159 7.7439,-26.327 20.0298,-34.2124zM102.007,61.4322c-2.3895,1.0577 -4.6759,2.3311 -6.8304,3.8042c0.5097,1.4896 1.541,3.4061 2.028,4.6687c0.223,0.5776 0.0856,0.822 -0.378,1.1877c-4.5972,3.6072 -8.797,7.6867 -12.5295,12.1703c-0.2457,0.2925 -0.6249,-0.1119 -0.4126,-0.4176c3.0989,-4.4643 8.6688,-9.4737 12.6674,-12.4916c-0.7378,-1.4222 -1.3599,-2.9006 -1.8604,-4.4211c-0.3301,-1.0245 -0.3188,-0.8614 0.5078,-1.509c2.198,-1.6156 4.6017,-2.9358 7.1487,-3.9261c0.12,-1.2206 0.051,-2.4522 -0.203,-3.6523c-0.063,-0.2726 0.421,-0.4513 0.56,-0.175c0.469,1.1329 0.592,2.3773 0.355,3.5792c-0.165,0.8751 -0.204,0.8351 -1.053,1.1826z" fill="#213555"></path></g></g></svg>