<svg version="1.1" xmlns="http://www.w3.org/2000/svg" xmlns:xlink="http://www.w3.org/1999/xlink" width="128" height="127" viewBox="0,0,256,254"><g fill="none" fill-rule="nonzero" stroke="none" stroke-width="1" stroke-linecap="butt" stroke-linejoin="miter" stroke-miterlimit="10" stroke-dasharray="" stroke-dashoffset="0" font-family="none" font-weight="none" font-size="none" text-anchor="none" style="mix-blend-mode: normal"><g transform="translate(0.00047,-0.00012) scale(2,2)"><path d="M104.615,63.3731c-0.088,-1.6441 0.621,-3.2151 0.463,-4.8781c-0.014,-0.079 -0.058,-0.1499 -0.122,-0.1987c-0.064,-0.0488 -0.145,-0.072 -0.225,-0.0651c-0.081,0.0069 -0.156,0.0435 -0.211,0.1025c-0.055,0.059 -0.085,0.1362 -0.086,0.2165c0.128,1.6123 -0.662,3.1236 -0.624,4.7403c0.037,1.6167 0.624,2.5908 0.434,4.7263c-0.01,0.0971 0.017,0.1946 0.075,0.2728c0.059,0.0782 0.146,0.1314 0.243,0.149c0.097,0.0175 0.196,-0.002 0.279,-0.0545c0.083,-0.0526 0.143,-0.1343 0.168,-0.2289c0.463,-1.5392 -0.296,-3.215 -0.375,-4.7821zM99.3885,69.6932c-1.2083,-1.3183 -1.5226,-2.159 -1.6986,-4.0329c-0.0556,-0.5874 -0.128,-1.1754 -0.1433,-1.7634c0,-0.0828 -0.0332,-0.1623 -0.0923,-0.2209c-0.059,-0.0586 -0.1391,-0.0915 -0.2226,-0.0915c-0.0835,0 -0.1636,0.0329 -0.2227,0.0915c-0.059,0.0586 -0.0922,0.1381 -0.0922,0.2209c0,1.378 -0.1344,2.2968 0.2963,3.7434c0.251,1.0544 0.8589,1.9915 1.7223,2.6549c0.3795,0.2476 0.7309,-0.3029 0.4627,-0.6064zM102.396,63.5432c0.288,0.1543 0.463,1.0745 -2.273,0.294c-1.1215,-0.319 -2.1664,-0.8605 -3.0711,-1.5918c-0.9047,-0.7313 -1.6504,-1.6371 -2.192,-2.6627c-0.1671,-0.299 0.3513,-0.5791 0.5273,-0.2895c0.7531,1.2128 1.797,2.2218 3.0387,2.9369c2.0971,1.2446 3.3811,0.9975 3.9741,1.3138z" fill="#213555"></path><path d="M101.19,54.6056c-0.658,-0.7582 -0.848,1.837 -2.6295,0.8636c-0.0713,-0.0279 -0.1506,-0.0282 -0.2221,-0.0007c-0.0715,0.0274 -0.1299,0.0805 -0.1638,0.1487c-0.0338,0.0682 -0.0406,0.1466 -0.0189,0.2195c0.0217,0.0729 0.0702,0.1351 0.136,0.1742c1.5488,0.9785 3.4403,-0.7805 2.8983,-1.4053zM101.19,48.7172c-0.095,-0.6115 -1.2459,-1.3462 -1.9351,-1.456c-0.6893,-0.1099 -0.6669,0.5715 -0.1281,0.7442c0.393,0.1194 1.1572,0.2292 1.5132,0.8172c0.309,0.5055 0.592,0.1651 0.55,-0.1054zM95.7873,47.5742c-0.7097,-0.1486 -1.9724,1.1392 -1.4585,1.4237c0.1805,0.101 0.7085,-0.5651 1.264,-0.7258c0.5555,-0.1607 0.3744,-0.6604 0.1945,-0.6979zM95.2638,49.8933c-0.3878,0.127 -0.2726,1.4744 0.2221,1.3462c0.4947,-0.1283 0.2746,-1.5082 -0.2221,-1.3462zM99.3937,49.6685c-0.6579,0 -0.352,1.3779 -0.0281,1.3779c0.4633,0.0267 0.6067,-1.3786 0.0269,-1.3786zM98.1137,53.3432c0.2362,0.073 0.2963,0.5601 -0.4627,0.4591c-0.759,-0.1009 -1.9117,-0.689 -1.216,-1.0471c1.0458,-0.5328 0.9255,-1.2217 1.3888,-1.0338c0.4634,0.188 -0.2925,1.084 -0.6208,1.3411c0.6291,0.1944 0.8486,0.2375 0.9126,0.2775z" fill="#213555"></path><path d="M98.4393,72.1652c0,6.545 2.6987,35.6708 12.3277,33.2868c7.12,-1.76 11.915,-16.9952 12.591,-23.1268c1.172,-10.5645 -3.819,-16.1925 -13.105,-19.7485c-0.606,-0.2299 -0.256,0.6934 -2.074,2.1952c-1.412,1.1716 -2.51,1.1716 -2.254,1.6999c0.36,0.7391 3.24,-1.1163 4.466,-3.0683c8.333,3.4995 13.347,8.1159 12.121,18.6804c-0.788,6.738 -4.829,19.7191 -11.264,22.3961c-9.444,3.941 -11.8839,-26.7643 -12.1201,-32.5612c1.0511,-1.3779 4.6801,-2.2498 6.4811,-1.8091c0.911,5.4571 2.465,10.7892 4.629,15.8871c0.537,1.2998 1.528,3.9179 2.315,4.979c0.157,0.221 0.607,0.0368 0.505,-0.2203c-0.662,-1.658 -1.389,-3.2931 -2.079,-4.9378c0.412,-0.1791 2.074,-5.969 2.014,-7.3812c0,-0.2572 -0.463,-0.381 -0.527,-0.1099c-0.687,2.2365 -0.695,3.5871 -1.792,6.7151c-1.861,-4.8811 -3.326,-9.9022 -4.379,-15.0152c-0.407,-1.8123 -7.8557,-0.2756 -7.8557,2.1387zM117.392,101.998c0.352,1.7 0.656,3.895 1.157,5.588c0.101,0.339 -0.394,0.459 -0.56,0.17c-0.576,-0.919 -1.362,-4.593 -1.176,-5.664c0.045,-0.264 0.513,-0.411 0.579,-0.094zM84.6486,95.356c-0.7949,0.7604 -1.8292,1.2264 -2.9292,1.3201c-1.1001,0.0936 -2.1992,-0.1908 -3.1131,-0.8057c-5.76,-3.537 -9.5501,-18.9287 -11.6557,-25.9512c2.0045,0.1702 4.9856,-1.1989 6.624,-2.4765c1.0599,2.6918 6.3194,13.2372 8.3879,15.534c0.052,0.0506 0.12,0.0817 0.1925,0.0882c0.0725,0.0065 0.145,-0.0121 0.2053,-0.0526c0.0602,-0.0405 0.1045,-0.1005 0.1253,-0.1697c0.0209,-0.0692 0.0169,-0.1434 -0.0111,-0.21c-0.2149,-0.4782 -0.4672,-0.9389 -0.7546,-1.378c0.889,-0.0368 3.1706,-10.033 12.0135,-14.6202c0.7016,-0.2819 1.3855,-0.6055 2.048,-0.9691c0.4115,-0.2844 0.4627,-1.6675 -3.9399,1.1665c-4.9632,3.1877 -8.4435,8.516 -10.4064,13.9586c-3.1065,-5.0527 -4.6297,-8.4455 -7.2774,-13.8163c-0.2458,-0.5048 -0.6675,-0.4591 -1.0835,-0.1696c-2.1204,1.5336 -3.6615,2.2276 -5.8048,2.3495c-0.9543,0.0553 -1.1348,0.3258 -0.9261,1.2262c1.4681,6.3595 6.2323,22.9648 12.0371,26.235c2.1568,1.2167 5.008,1.1062 6.7258,-0.8185c0.2457,-0.2756 -0.192,-0.6934 -0.4628,-0.4591zM90.9762,73.4143c-6.1209,10.2381 -2.3142,22.6352 -0.4627,33.5277c0.0098,0.07 -0.0077,0.142 -0.0488,0.2c-0.0411,0.058 -0.1028,0.098 -0.1727,0.113c-0.0699,0.014 -0.1428,0.002 -0.2039,-0.035c-0.0612,-0.036 -0.106,-0.095 -0.1256,-0.163c-2.8423,-10.0544 -5.3882,-25.0093 0.4301,-34.0307c0.2457,-0.3652 0.8115,0.0076 0.5836,0.388z" fill="#213555"></path><path d="M73.797,59.5846c0,-0.6985 -0.0416,-2.1818 -0.4397,-2.7559c-0.603,-0.8493 -1.2487,-1.668 -1.9347,-2.453c-0.192,-0.2203 -0.5837,0.0508 -0.4634,0.3309c0.4626,0.8584 1.0208,1.6627 1.664,2.3977c0.3936,0.5652 0.4627,2.2968 0.4026,3.0042c-0.1338,1.8828 -0.9767,3.6741 -0.4627,5.562c0.0972,0.3721 0.7404,0.2299 0.6617,-0.1467c-0.4166,-1.9983 0.6112,-3.9548 0.6023,-5.9487zM71.2095,59.0062c0.2873,-0.1194 0.496,0.2844 0.3052,0.4591c-0.6478,0.5353 -1.1547,1.2189 -1.4773,1.9917c-0.3225,0.7729 -0.4509,1.612 -0.3742,2.445c0.0371,0.4185 -0.6067,0.4598 -0.6573,0.0368c-0.2176,-1.8357 0.7463,-4.3294 2.2036,-4.9326zM67.3439,68.1502c-0.2733,-0.7576 -2.1248,-2.8112 -2.745,-3.7021c-0.6202,-0.8909 -0.9261,-2.7559 -1.0003,-3.8856c0.9261,-0.9461 2.199,0.983 2.6157,1.5158c0.926,1.1525 1.0694,0.3073 1.0508,0.2248c-0.4871,-0.9281 -1.1626,-1.746 -1.9839,-2.4022c-0.7962,-0.508 -2.3149,-0.409 -2.3885,0.5715c-0.0434,1.4599 0.2661,2.9089 0.9024,4.2259c0.9318,1.3281 1.9585,2.5882 3.072,3.7706c0.2317,0.1518 0.5881,0 0.4627,-0.3213zM66.9599,58.3712c-0.8096,-0.4591 -2.0275,-0.5144 -2.6669,0.2622c-0.0304,0.0329 -0.0539,0.0714 -0.0693,0.1134c-0.0154,0.0419 -0.0223,0.0864 -0.0204,0.131c0.004,0.09 0.0438,0.1748 0.1108,0.2357c0.067,0.0609 0.1556,0.0928 0.2463,0.0889c0.0907,-0.0039 0.1762,-0.0434 0.2376,-0.1099c0.2979,-0.2167 0.6625,-0.3242 1.0314,-0.304c0.3689,0.0201 0.7194,0.1666 0.9916,0.4145c0.7865,0.5829 1.5507,1.7729 2.0045,1.9609c0.3334,0.1333 0.6989,-0.2248 0.4627,-0.508c-0.6359,-0.8903 -1.4239,-1.6633 -2.3283,-2.2841zM70.654,56.075c0.1804,0.2108 -0.0513,0.6566 -0.306,0.5328c-1.152,-0.5715 -2.944,-1.016 -4.3136,0.9182c-0.2694,0.3721 -0.8064,-0.0546 -0.5651,-0.4267c1.3978,-2.1317 4.3469,-1.9685 5.184,-1.0014z" fill="#213555"></path><path d="M82.7272,7.64986c-0.0544,-0.50102 -0.8147,-0.34481 -0.768,0.14224c1.728,17.0218 2.9165,33.4702 4.4071,50.1345c0.0505,0.5969 0.9766,0.4223 0.9254,-0.1746c-1.4905,-16.6548 -2.7475,-33.495 -4.5645,-50.10214zM4.0322,13.1153c2.91648,35.4546 5.47648,70.6387 9.0458,106.1017c0.0096,0.065 0.0061,0.131 -0.0102,0.194c-0.0164,0.063 -0.0453,0.122 -0.0851,0.174c-0.0397,0.052 -0.0895,0.095 -0.1464,0.127c-0.057,0.033 -0.1199,0.054 -0.185,0.062c-0.0652,0.008 -0.1313,0.003 -0.1944,-0.015c-0.0632,-0.018 -0.1221,-0.048 -0.1734,-0.089c-0.0512,-0.04 -0.0937,-0.091 -0.125,-0.148c-0.0313,-0.057 -0.0508,-0.12 -0.0572,-0.185c-3.67934,-35.0782 -6.10046,-70.9963 -8.9011,-106.3455c0,-0.2616 0,-0.6204 0.384,-0.6522c25.9014,-2.2415 51.9597,-3.8995 77.888,-5.81974c0.5882,-0.04128 0.6022,0.8636 0,0.91884c-25.7709,1.89611 -50.1856,3.4538 -77.44,5.6769z" fill="#213555"></path><path d="M23.8077,15.0171c-0.3565,0.0273 -0.384,0.8408 -0.3008,1.7317c0.5229,5.6819 2.7174,7.2574 9.2493,6.7659c9.7266,-0.7299 19.4484,-1.5216 29.1648,-2.3749c5.2077,-0.4591 7.6889,-2.7102 6.592,-8.7268c-0.0787,-0.4318 -0.4211,-0.9741 -0.8423,-0.9189c0.144,-0.047 -36.535,2.9439 -43.863,3.523zM24.2058,16.2757c14.3232,-0.6064 29.1878,-2.2047 43.5155,-3.3211c0.8384,5.3696 -1.2589,6.9126 -5.76,7.3495c-9.6736,0.9411 -19.5462,1.7729 -29.2403,2.3927c-6.0135,0.3816 -7.4906,-0.0184 -8.5133,-6.4211z" fill="#213555"></path><path d="M27.1199,18.4893c-0.4627,0.0368 -0.4909,0.7258 -0.0327,0.7029c12.8,-0.7029 25.776,-1.6992 38.6087,-2.5673c0.5555,-0.0368 0.5971,-0.9188 0.0371,-0.868c-0.0269,-0.0642 -28.0838,1.8656 -38.6131,2.7324zM10.7922,20.4368c3.6621,-0.5416 8.1011,-0.5416 10.9293,-0.8255c0.496,-0.0457 0.4633,-0.854 0,-0.8172c-2.8282,0.2159 -9.2583,0.4178 -11.4989,0.9182c-0.38848,0.0876 -0.3328,0.4369 -0.30592,0.7309c2.77762,33.1565 5.93532,66.5518 9.25892,99.6698c0.0608,0.616 0.9958,0.4 0.926,-0.202c-2.8512,-33.0106 -6.3193,-65.5671 -9.3094,-99.4742zM77.5679,14.7371c-2.2778,0.1676 -4.5607,0.3949 -6.8333,0.635c-0.1074,0.0121 -0.2056,0.0661 -0.273,0.15c-0.0673,0.084 -0.0983,0.191 -0.086,0.2976c0.0122,0.1066 0.0666,0.2041 0.1512,0.2709c0.0846,0.0668 0.1925,0.0975 0.3,0.0854c2.1804,-0.1562 4.3654,-0.3264 6.5414,-0.5468c1.6806,17.6651 3.9398,38.608 5.3702,56.007c0.0468,0.5334 0.866,0.428 0.8192,-0.0908c-1.5788,-17.3805 -3.7036,-38.4175 -5.4297,-56.0825c-0.0256,-0.2991 -0.176,-0.7538 -0.56,-0.7258z" fill="#e5d283"></path><path d="M60.1403,27.2809c-2.3181,-0.4407 -20.2438,1.1207 -23.1744,1.4605c-0.6669,0.0781 -0.8192,2.058 -0.1485,2.0529c3.2967,-0.0228 20.6151,-0.6153 23.3088,-1.4554c0.6733,-0.2026 0.569,-1.9526 0.0141,-2.058z" fill="#213555"></path><path d="M71.3206,36.0217c-11.4675,1.2007 -21.7075,2.0072 -33.1559,2.4479c-0.0931,0.0039 -0.1812,0.0433 -0.2458,0.1101c-0.0645,0.0668 -0.1005,0.1558 -0.1005,0.2483c0,0.0926 0.036,0.1815 0.1005,0.2483c0.0646,0.0668 0.1527,0.1063 0.2458,0.1102c10.1844,-0.2299 22.9153,-1.0865 33.1559,-2.3565c0.5133,-0.0635 0.5274,-0.8636 0,-0.8083zM62.7555,105.837c-6.4064,1.378 -12.656,1.737 -19.0355,2.756c-0.1051,0.021 -0.1983,0.08 -0.2603,0.167c-0.0619,0.086 -0.0879,0.193 -0.0725,0.298c0.0154,0.106 0.0709,0.201 0.1552,0.266c0.0842,0.066 0.1907,0.097 0.2972,0.087c5.2397,-0.584 14.272,-1.588 19.0452,-2.674c0.5638,-0.127 0.439,-1.016 -0.128,-0.889zM67.1119,100.785c-7.936,0.953 -15.8547,2.012 -23.7804,3.032c-0.4627,0.055 -0.361,0.858 0.1062,0.804c6.1664,-0.689 18.112,-2.145 23.7811,-3.048c0.4628,-0.067 0.3514,-0.843 -0.1069,-0.788zM66.1859,91.3829c-7.7811,0.889 -15.8042,1.9291 -23.6647,2.7559c-0.4627,0.0508 -0.366,0.7581 0.1063,0.7258c7.7683,-0.5512 15.9065,-1.7545 23.68,-2.6366c0.1095,-0.021 0.2067,-0.0829 0.2716,-0.173c0.0648,-0.0901 0.0923,-0.2014 0.0768,-0.311c-0.0155,-0.1096 -0.0729,-0.2091 -0.1602,-0.278c-0.0874,-0.0689 -0.1981,-0.1018 -0.3092,-0.092zM66.6544,86.473c-7.872,0.8725 -16.9901,2.0574 -24.8781,3.0633c-0.3796,0.0508 -0.3661,0.7258 0.0409,0.689c7.9303,-0.6903 17.0548,-1.9603 24.9984,-2.9211c0.5466,-0.0641 0.3802,-0.8915 -0.1612,-0.8312zM62.1584,74.3655c-7.5776,1.0973 -13.1751,1.924 -21.0631,2.2961c-0.537,0.0229 -0.4633,0.8452 0.0839,0.8255c4.9068,-0.2063 16.6284,-1.3779 21.1558,-2.3793c0.4627,-0.101 0.2451,-0.8128 -0.1766,-0.7531zM62.1212,68.4352c-7.7011,1.1005 -14.912,2.361 -22.7712,3.1693c-0.0928,0.0146 -0.1765,0.064 -0.2336,0.1381c-0.0571,0.074 -0.0833,0.1671 -0.0732,0.2598c0.0101,0.0927 0.0558,0.178 0.1276,0.2382c0.0717,0.0603 0.1641,0.0908 0.258,0.0853c7.6887,-0.5386 15.335,-1.5634 22.8921,-3.0683c0.4627,-0.0966 0.2778,-0.8903 -0.1997,-0.8224zM55.8492,58.3305c-5.44,0.3448 -11.4073,0.7029 -16.8371,1.1068c-0.0504,0.0033 -0.0997,0.0165 -0.145,0.0387c-0.0453,0.0222 -0.0857,0.0531 -0.119,0.0908c-0.0333,0.0378 -0.0588,0.0816 -0.075,0.1291c-0.0161,0.0475 -0.0228,0.0977 -0.0194,0.1478c0.0034,0.05 0.0166,0.0989 0.039,0.1438c0.0224,0.045 0.0535,0.0851 0.0916,0.1181c0.038,0.0331 0.0822,0.0583 0.1301,0.0744c0.0479,0.0161 0.0985,0.0226 0.1489,0.0193c5.3651,0 11.4112,-0.6477 16.8455,-0.9874c0.0944,-0.0341 0.1751,-0.0976 0.23,-0.1811c0.0549,-0.0835 0.0809,-0.1824 0.0742,-0.2818c-0.0067,-0.0995 -0.0458,-0.1941 -0.1114,-0.2696c-0.0657,-0.0754 -0.1542,-0.1277 -0.2524,-0.1489zM38.2671,55.3358c-0.4262,0 -0.4032,0.7487 0.0276,0.7531c7.5557,-0.075 15.0962,-0.6889 22.5632,-1.837c0.1061,-0.024 0.199,-0.0875 0.2594,-0.1773c0.0605,-0.0898 0.0839,-0.1992 0.0656,-0.3057c-0.0184,-0.1065 -0.0772,-0.2019 -0.1643,-0.2667c-0.0871,-0.0647 -0.1959,-0.0939 -0.3041,-0.0815c0,-0.1264 -7.2192,1.2198 -22.4474,1.9151zM76.5187,51.5785c-1.8516,0.1524 -3.7402,0.3213 -5.6147,0.4915c-0.4634,0.0413 -0.3565,0.7582 0.1158,0.7214c1.8515,-0.1518 3.7446,-0.2896 5.6192,-0.4598c0.505,-0.0457 0.3661,-0.7931 -0.1203,-0.7531zM65.4364,40.9683c-9.5091,1.4465 -16.256,2.2555 -25.8688,2.3495c-0.0969,0 -0.1898,0.0382 -0.2584,0.1062c-0.0685,0.068 -0.107,0.1602 -0.107,0.2564c0,0.0962 0.0385,0.1884 0.107,0.2564c0.0686,0.068 0.1615,0.1062 0.2584,0.1062c8.7443,-0.0212 17.4705,-0.7894 26.082,-2.2962c0.5094,-0.1035 0.2912,-0.8528 -0.2132,-0.7785z" fill="#213555"></path><path d="M26.3469,105.783c3.472,-0.34 7.0458,-0.515 10.425,-0.767c0.0783,2.79 0.3241,5.574 0.736,8.336c-3.0644,0.321 -6.1383,0.602 -9.1981,0.97c-0.3795,0.045 -0.4352,0.762 0,0.725c3.1757,-0.262 6.3283,-0.762 9.5085,-0.941c0.3008,0 0.64,0 0.5926,-0.381c-0.3951,-3.022 -0.7191,-6.054 -0.9722,-9.095c-0.0482,-0.152 -0.1499,-0.283 -0.2868,-0.367c-0.1368,-0.084 -0.2996,-0.117 -0.4588,-0.093c-1.5692,0.07 -10.1843,0.695 -10.8326,0.878c-0.1389,0.037 -0.2778,0.106 -0.2822,0.29c-0.0832,2.016 0.5414,6.715 0.926,8.814c0.0736,0.436 0.8282,0.399 0.8007,-0.06c-0.1434,-2.808 -0.9581,-7.625 -0.9581,-8.309zM30.464,37.0364c-3.703,0.1981 -7.4393,0.6616 -11.1705,0.7766c-0.2682,0 -0.5972,-0.0635 -0.6106,0.2807c-0.0742,2.3374 0.5414,6.9259 0.9254,9.4976c0.0372,0.2623 0.2874,0.9602 0.576,0.9189c3.776,-0.2705 7.4068,-0.6433 11.1892,-0.6985c0.4166,0 0.3008,-0.3581 0.2688,-0.6801c-0.0512,-0.5874 -0.5236,-9.1313 -0.5607,-9.6456c-0.0457,-0.1247 -0.1261,-0.2339 -0.2317,-0.3151c-0.1057,-0.0813 -0.2324,-0.1312 -0.3654,-0.144zM19.4349,38.507c3.639,-0.1797 7.2774,-0.381 10.9114,-0.6578l0.512,9.144c-2.1434,0.0419 -8.185,0.3029 -10.3789,0.7398c-0.4007,-2.8696 -0.8544,-6.0668 -1.0445,-9.226zM30.5133,53.5445c-1.0925,-0.1562 -8.3328,0.2292 -9.5693,0.294c-0.1849,0 -0.5645,0.2572 -0.56,0.4915c0.0558,3.1787 0.311,6.351 0.7642,9.4983c0.0371,0.2718 0.1107,0.8039 0.4352,0.7944c3.2403,-0.1143 7.9161,-0.2801 10.88,-0.635c0.9862,-0.12 1.1014,-0.1518 1.0368,-1.0109c-0.192,-2.5724 -0.7264,-6.5589 -0.9952,-8.9612c-0.0512,-0.4864 -0.8007,-0.3441 -0.7501,0.1378l0.9261,8.9383l-10.7123,0.7303c0,-0.0324 -0.7501,-8.2677 -0.8103,-9.1866c1.0791,0.0787 8.064,-0.3765 9.4439,-0.3715c0.3987,0.0019 0.2656,-0.7194 -0.089,-0.7194zM34.1331,70.866c0,-0.3035 -0.4627,-0.5931 -0.9996,-0.5601c-2.9722,0.1829 -5.9719,0.2801 -8.93,0.6249c-0.4032,0.0457 -0.3705,0.7302 0.0416,0.7067c3.0509,-0.1511 6.1063,-0.3397 9.1565,-0.508c0.0512,1.0421 0.6298,8.3408 0.9677,9.4564c-3.5738,0.3588 -7.0502,0.6484 -10.624,0.9189c-0.3089,-3.3194 -0.6289,-6.6402 -0.96,-9.9625c-0.0416,-0.4591 -0.745,-0.3721 -0.713,0.087c0.2362,3.3121 0.5325,6.6192 0.8288,9.9263c0.0231,0.2756 0.1204,0.7575 0.4628,0.7804c1.7638,0.1061 8.4025,-0.6839 10.9811,-0.9182c0.6713,-0.0686 0.8237,-0.2064 0.7872,-0.7576c-0.0704,-1.0693 -1.0157,-9.744 -0.9991,-9.7942zM37.5776,97.7221c-0.5158,-3.4614 -1.0035,-6.9279 -1.5091,-10.3944c-0.0557,-0.3765 -0.7174,-0.294 -0.6758,0.0915c0.3929,3.4684 0.8793,6.9316 1.3888,10.3899c-3.456,0.1377 -7.872,0.5657 -11.282,1.0426c0.1063,-0.5918 -0.926,-8.1756 -0.9862,-9.7879c3.1853,-0.3486 6.375,-0.6566 9.5552,-1.042c0.4627,-0.0508 0.3706,-0.8255 -0.0832,-0.7811c-3.0048,0.254 -6.8282,0.7671 -10.009,1.143c-0.2451,0.0274 -0.2451,0.2985 -0.2265,0.5011c0.3936,3.9909 0.6246,6.2788 1.1616,10.2793c0.0326,0.2382 0.144,0.5144 0.4633,0.482c4.009,-0.4185 7.8976,-0.7029 11.9111,-1.0014c0.6617,-0.0508 0.3142,-0.7715 0.2918,-0.9233z" fill="#213555"></path><path d="M27.7443,58.6841c0.384,-0.395 2.0832,-1.9196 2.048,-2.4067c-0.0104,-0.0921 -0.056,-0.1768 -0.1274,-0.2366c-0.0715,-0.0598 -0.1633,-0.0901 -0.2566,-0.0847c-0.3981,0 -2.009,1.86 -2.4071,2.2962c-0.8145,-0.5025 -1.62,-1.0168 -2.4166,-1.5431c-0.045,-0.0229 -0.0941,-0.0368 -0.1445,-0.0409c-0.0503,-0.0041 -0.101,0.0016 -0.1492,0.017c-0.0481,0.0153 -0.0927,0.0399 -0.1313,0.0723c-0.0386,0.0325 -0.0703,0.0721 -0.0934,0.1168c-0.0231,0.0446 -0.0372,0.0933 -0.0413,0.1433c-0.0042,0.0499 0.0017,0.1003 0.0171,0.148c0.0155,0.0478 0.0402,0.0921 0.0729,0.1303c0.0327,0.0383 0.0727,0.0698 0.1177,0.0927c0.727,0.4966 1.4585,0.983 2.2035,1.4561c-0.8915,0.9258 -1.7726,1.8614 -2.6432,2.8067c-0.3475,0.3721 0.2502,0.8496 0.6016,0.5003c0.9261,-0.9182 1.8522,-1.8967 2.7776,-2.8524c0.4211,0.2578 2.3149,1.4745 2.7776,1.4929c0.0631,-0.0036 0.1241,-0.0233 0.1772,-0.0573c0.0531,-0.0339 0.0965,-0.0809 0.1258,-0.1364c0.0294,-0.0555 0.0438,-0.1176 0.0419,-0.1802c-0.002,-0.0626 -0.0203,-0.1237 -0.0531,-0.1773c0.0404,-0.167 -2.1568,-1.3525 -2.4972,-1.557zM33.5913,90.2163l-3.2083,4.9784c-0.9811,-0.8401 -1.9443,-1.7037 -2.944,-2.5305c-0.3008,-0.2476 -0.736,0.221 -0.4634,0.508c0.9888,1.0143 2.0469,1.9597 3.1667,2.8296c0.1695,0.0608 0.3552,0.0605 0.5245,-0.0008c0.1693,-0.0613 0.3114,-0.1797 0.4016,-0.3345c1.088,-1.651 2.1389,-3.321 3.2,-4.9835c0.2874,-0.4597 -0.3936,-0.9188 -0.6803,-0.4597zM31.6713,73.8968c-1.2695,1.5165 -2.3324,3.192 -3.1616,4.9835c-1.0611,-0.78 -2.068,-1.63 -3.0138,-2.5445c-0.3424,-0.3308 -0.7776,0.2432 -0.4633,0.5715c1.0445,1.0552 2.1749,2.023 3.3798,2.8937c0.0492,0.037 0.1062,0.0625 0.1667,0.0745c0.0605,0.012 0.123,0.0101 0.1827,-0.0053c0.0597,-0.0155 0.1151,-0.0442 0.162,-0.084c0.0469,-0.0398 0.0841,-0.0897 0.1088,-0.1458c0.8556,-1.8852 1.9575,-3.6504 3.2774,-5.2502c0.3379,-0.4089 -0.3097,-0.9189 -0.6477,-0.508zM28.8937,39.7694c-1.3858,1.5073 -2.5391,3.21 -3.4221,5.0526c-1.1909,-0.6339 -2.2903,-1.4241 -3.2685,-2.3495c-0.3475,-0.3308 -0.926,0.1423 -0.5881,0.4592c1.1309,1.1038 2.4117,2.0453 3.8054,2.7971c0.0518,0.0378 0.1115,0.0637 0.1746,0.0756c0.0632,0.0119 0.1283,0.0097 0.1904,-0.0066c0.0622,-0.0162 0.1199,-0.0461 0.1689,-0.0874c0.0491,-0.0412 0.0882,-0.0929 0.1144,-0.1511c0.905,-1.9328 2.091,-3.7233 3.52,-5.3143c0.3476,-0.395 -0.3289,-0.8636 -0.6848,-0.4782z" fill="#e5d283"></path><path d="M91.2495,45.713c1.024,1.7418 12.2395,0.2572 12.8785,-0.4591c0.639,-0.7163 0.852,-7.5006 -5.7912,-7.721c-6.6432,-0.2203 -7.2819,7.8499 -7.0873,8.1801zM102.36,58.8956c-2.048,2.4022 -4.9627,1.2217 -6.3931,-1.3507c-1.3242,-2.3698 -1.984,-6.9259 -2.1158,-9.6456c-0.0231,-0.4178 -0.6848,-0.4591 -0.6714,0c0,0.3448 0.0282,0.689 0.0467,1.0382c-2.0646,0.9462 -2.935,2.159 -2.7776,3.8583c0.1575,1.6992 2.2221,2.058 2.0736,3.5185c-0.1485,1.4605 -3.8003,1.4929 -4.3558,4.2164c-0.5555,2.7235 1.7869,1.9476 1.7542,3.6284c-0.0326,1.6808 -4.2541,2.4073 -3.2729,5.7004c1.7408,-2.4943 5.8931,-5.3423 9.3049,-5.9252c-0.0307,-0.3836 0.0635,-0.7669 0.2688,-1.0935c-1.7177,-1.3131 -3.7453,-4.8317 -0.9862,-5.052c2.4902,4.5929 6.7836,3.509 7.6246,1.4148c0.107,-0.2623 -0.297,-0.5195 -0.486,-0.2991zM105.508,53.0028c0,-0.6477 0.773,-0.3264 1.495,-1.0478c1.088,-1.0839 0.657,-3.2975 0.153,-3.996c-0.896,-1.2351 -1.616,0.3175 -1.852,0.2159c-0.861,-0.3353 -1.13,-1.5939 -1.259,-1.9838c2.403,-1.0242 1.704,-7.5469 -3.379,-8.9204c3.05,-1.2859 7.235,-1.0656 9.583,2.3291c2.347,3.3948 0,4.4552 1.976,6.9266c1.976,2.4714 4.018,1.5475 4.935,4.3129c0.916,2.7655 -2.065,3.5319 -0.158,6.0764c1.908,2.5444 4.824,2.2002 5.556,4.2856c0.731,2.0853 -1.033,4.0049 0.329,5.5708c1.361,1.5659 3.091,4.7625 0.786,6.1557c-2.092,-6.1919 -10.027,-11.5703 -16.313,-11.7475c0.107,0.401 0.185,0.8094 0.231,1.2218c0.009,0.0672 -0.006,0.1353 -0.042,0.1926c-0.037,0.0573 -0.093,0.1 -0.158,0.1208c-0.065,0.0208 -0.135,0.0183 -0.198,-0.0071c-0.064,-0.0254 -0.116,-0.072 -0.148,-0.1317c-0.912,-1.7888 -1.537,-7.7762 -1.537,-9.5739z" fill="#213555"></path><path d="M69.9601,53.9674c-2.3751,-1.2814 -7.7824,-3.8735 -8.384,-3.4086c-0.6016,0.4648 5.184,4.5936 5.3184,4.5294c0.8755,-0.9188 2.8333,-0.2622 3.2403,-0.1613c-0.1697,-0.2896 -0.2315,-0.6292 -0.1747,-0.9595zM73.7886,56.0756c0.6053,0.9648 0.9261,2.0786 0.926,3.2151c2.3149,1.4789 5.8516,2.6225 6.1844,1.7957c0.3328,-0.8267 -4.0506,-3.5826 -7.1104,-5.0108z" fill="#e5d283"></path></g></g></svg>